<svg width="297" height="116" viewBox="0 0 297 116" fill="none" xmlns="http://www.w3.org/2000/svg">
<path d="M254.139 115.5H0V1H254.139L295 50.8145L254.139 115.5Z" fill="url(#paint0_linear_0_5998)"/>
<path d="M13.968 33H11.52L6.984 25.56L2.376 33H0.096L5.784 24.072L0.456 15.864H2.856L7.056 22.584L11.28 15.864H13.56L8.256 24.024L13.968 33ZM30.8738 24.408C30.8738 25.736 30.7058 26.944 30.3698 28.032C30.0338 29.104 29.5298 30.032 28.8578 30.816C28.2018 31.6 27.3778 32.2 26.3858 32.616C25.4098 33.032 24.2738 33.24 22.9778 33.24C21.6338 33.24 20.4658 33.032 19.4738 32.616C18.4818 32.184 17.6578 31.584 17.0018 30.816C16.3458 30.032 15.8578 29.096 15.5378 28.008C15.2178 26.92 15.0578 25.712 15.0578 24.384C15.0578 22.624 15.3458 21.088 15.9218 19.776C16.4978 18.464 17.3698 17.44 18.5378 16.704C19.7218 15.968 21.2098 15.6 23.0018 15.6C24.7138 15.6 26.1538 15.968 27.3218 16.704C28.4898 17.424 29.3698 18.448 29.9618 19.776C30.5698 21.088 30.8738 22.632 30.8738 24.408ZM17.3378 24.408C17.3378 25.848 17.5378 27.088 17.9378 28.128C18.3378 29.168 18.9538 29.968 19.7858 30.528C20.6338 31.088 21.6978 31.368 22.9778 31.368C24.2738 31.368 25.3298 31.088 26.1458 30.528C26.9778 29.968 27.5938 29.168 27.9938 28.128C28.3938 27.088 28.5938 25.848 28.5938 24.408C28.5938 22.248 28.1458 20.56 27.2498 19.344C26.3538 18.112 24.9378 17.496 23.0018 17.496C21.7058 17.496 20.6338 17.776 19.7858 18.336C18.9538 18.88 18.3378 19.672 17.9378 20.712C17.5378 21.736 17.3378 22.968 17.3378 24.408ZM34.6718 33V15.864H44.8478V17.76H36.8318V23.112H39.3758C41.0878 23.112 42.4158 23.328 43.3598 23.76C44.3038 24.176 44.9598 24.752 45.3278 25.488C45.6958 26.208 45.8798 27.04 45.8798 27.984C45.8798 29.024 45.6718 29.92 45.2558 30.672C44.8558 31.424 44.1998 32 43.2878 32.4C42.3758 32.8 41.1758 33 39.6878 33H34.6718ZM39.4718 31.152C41.0078 31.152 42.0878 30.896 42.7118 30.384C43.3358 29.856 43.6478 29.056 43.6478 27.984C43.6478 27.248 43.4958 26.664 43.1918 26.232C42.9038 25.784 42.4238 25.464 41.7518 25.272C41.0958 25.08 40.2158 24.984 39.1118 24.984H36.8318V31.152H39.4718ZM61.7734 33H59.6134V17.76H54.1894C54.0774 18.64 53.9574 19.568 53.8294 20.544C53.7014 21.504 53.5654 22.456 53.4214 23.4C53.2934 24.344 53.1654 25.232 53.0374 26.064C52.9094 26.896 52.7814 27.624 52.6534 28.248C52.4454 29.32 52.1894 30.232 51.8854 30.984C51.5814 31.736 51.1734 32.304 50.6614 32.688C50.1654 33.072 49.5094 33.264 48.6934 33.264C48.4214 33.264 48.1414 33.232 47.8534 33.168C47.5814 33.12 47.3414 33.056 47.1334 32.976V31.176C47.3094 31.256 47.5094 31.328 47.7334 31.392C47.9574 31.44 48.1974 31.464 48.4534 31.464C48.9334 31.464 49.3094 31.272 49.5814 30.888C49.8694 30.488 50.0934 30 50.2534 29.424C50.4134 28.832 50.5494 28.248 50.6614 27.672C50.7574 27.208 50.8694 26.592 50.9974 25.824C51.1254 25.04 51.2614 24.128 51.4054 23.088C51.5654 22.048 51.7254 20.92 51.8854 19.704C52.0614 18.472 52.2294 17.192 52.3894 15.864H61.7734V33ZM71.7039 25.272C71.7039 23.4 71.8879 21.808 72.2559 20.496C72.6399 19.168 73.2239 18.112 74.0079 17.328C74.8079 16.528 75.8319 15.992 77.0799 15.72C78.1199 15.496 79.1359 15.296 80.1279 15.12C81.1199 14.944 82.0479 14.784 82.9119 14.64L83.2719 16.488C82.8559 16.552 82.3919 16.632 81.8799 16.728C81.3679 16.808 80.8479 16.896 80.3199 16.992C79.7919 17.072 79.2799 17.16 78.7839 17.256C78.3039 17.336 77.8799 17.416 77.5119 17.496C76.9839 17.608 76.5119 17.8 76.0959 18.072C75.6799 18.328 75.3199 18.68 75.0159 19.128C74.7279 19.576 74.4959 20.128 74.3199 20.784C74.1439 21.44 74.0399 22.216 74.0079 23.112H74.1519C74.3759 22.808 74.6799 22.496 75.0639 22.176C75.4639 21.856 75.9359 21.584 76.4799 21.36C77.0399 21.136 77.6719 21.024 78.3759 21.024C79.4959 21.024 80.4239 21.272 81.1599 21.768C81.9119 22.248 82.4719 22.92 82.8399 23.784C83.2239 24.648 83.4159 25.656 83.4159 26.808C83.4159 28.232 83.1679 29.424 82.6719 30.384C82.1759 31.344 81.4879 32.064 80.6079 32.544C79.7279 33.008 78.7039 33.24 77.5359 33.24C76.6559 33.24 75.8559 33.072 75.1359 32.736C74.4159 32.384 73.7999 31.872 73.2879 31.2C72.7759 30.528 72.3839 29.696 72.1119 28.704C71.8399 27.712 71.7039 26.568 71.7039 25.272ZM77.7039 31.488C78.4079 31.488 79.0159 31.344 79.5279 31.056C80.0559 30.768 80.4639 30.296 80.7519 29.64C81.0399 28.984 81.1839 28.112 81.1839 27.024C81.1839 25.712 80.9359 24.68 80.4399 23.928C79.9599 23.16 79.1599 22.776 78.0399 22.776C77.3359 22.776 76.6959 22.936 76.1199 23.256C75.5439 23.56 75.0639 23.912 74.6799 24.312C74.2959 24.712 74.0239 25.048 73.8639 25.32C73.8639 26.104 73.9199 26.864 74.0319 27.6C74.1439 28.336 74.3359 29 74.6079 29.592C74.8959 30.168 75.2879 30.632 75.7839 30.984C76.2959 31.32 76.9359 31.488 77.7039 31.488ZM97.9271 26.544C97.9271 27.616 97.7831 28.568 97.4951 29.4C97.2231 30.216 96.8231 30.912 96.2951 31.488C95.7831 32.064 95.1511 32.504 94.3991 32.808C93.6631 33.096 92.8391 33.24 91.9271 33.24C91.0791 33.24 90.2951 33.096 89.5751 32.808C88.8551 32.504 88.2311 32.064 87.7031 31.488C87.1751 30.912 86.7591 30.216 86.4551 29.4C86.1671 28.568 86.0231 27.616 86.0231 26.544C86.0231 25.12 86.2631 23.92 86.7431 22.944C87.2231 21.952 87.9111 21.2 88.8071 20.688C89.7031 20.16 90.7671 19.896 91.9991 19.896C93.1671 19.896 94.1911 20.16 95.0711 20.688C95.9671 21.2 96.6631 21.952 97.1591 22.944C97.6711 23.92 97.9271 25.12 97.9271 26.544ZM88.2071 26.544C88.2071 27.552 88.3351 28.432 88.5911 29.184C88.8631 29.92 89.2791 30.488 89.8391 30.888C90.3991 31.288 91.1111 31.488 91.9751 31.488C92.8391 31.488 93.5511 31.288 94.1111 30.888C94.6711 30.488 95.0791 29.92 95.3351 29.184C95.6071 28.432 95.7431 27.552 95.7431 26.544C95.7431 25.52 95.6071 24.648 95.3351 23.928C95.0631 23.208 94.6471 22.656 94.0871 22.272C93.5431 21.872 92.8311 21.672 91.9511 21.672C90.6391 21.672 89.6871 22.104 89.0951 22.968C88.5031 23.832 88.2071 25.024 88.2071 26.544ZM111.066 33H108.93V21.888H105.138C104.978 23.92 104.778 25.656 104.538 27.096C104.298 28.52 103.994 29.68 103.626 30.576C103.258 31.472 102.818 32.128 102.306 32.544C101.794 32.96 101.194 33.168 100.506 33.168C100.298 33.168 100.09 33.152 99.8824 33.12C99.6904 33.104 99.5304 33.064 99.4024 33V31.416C99.4984 31.448 99.6024 31.472 99.7144 31.488C99.8264 31.504 99.9384 31.512 100.05 31.512C100.402 31.512 100.722 31.368 101.01 31.08C101.298 30.792 101.554 30.352 101.778 29.76C102.018 29.168 102.234 28.424 102.426 27.528C102.618 26.616 102.786 25.544 102.93 24.312C103.074 23.08 103.202 21.688 103.314 20.136H111.066V33ZM120.117 19.896C121.221 19.896 122.165 20.136 122.949 20.616C123.749 21.096 124.357 21.776 124.773 22.656C125.205 23.52 125.421 24.536 125.421 25.704V26.976H116.613C116.645 28.432 117.013 29.544 117.717 30.312C118.437 31.064 119.437 31.44 120.717 31.44C121.533 31.44 122.253 31.368 122.877 31.224C123.517 31.064 124.173 30.84 124.845 30.552V32.4C124.189 32.688 123.541 32.896 122.901 33.024C122.261 33.168 121.501 33.24 120.621 33.24C119.405 33.24 118.325 32.992 117.381 32.496C116.453 32 115.725 31.264 115.197 30.288C114.685 29.296 114.429 28.088 114.429 26.664C114.429 25.256 114.661 24.048 115.125 23.04C115.605 22.032 116.269 21.256 117.117 20.712C117.981 20.168 118.981 19.896 120.117 19.896ZM120.093 21.624C119.085 21.624 118.285 21.952 117.693 22.608C117.117 23.248 116.773 24.144 116.661 25.296H123.213C123.213 24.56 123.101 23.92 122.877 23.376C122.653 22.832 122.309 22.408 121.845 22.104C121.397 21.784 120.813 21.624 120.093 21.624ZM145.4 26.544C145.4 27.968 145.168 29.184 144.704 30.192C144.24 31.184 143.584 31.944 142.736 32.472C141.888 32.984 140.88 33.24 139.712 33.24C138.624 33.24 137.672 33.016 136.856 32.568C136.04 32.104 135.392 31.432 134.912 30.552C134.432 29.656 134.152 28.56 134.072 27.264H130.808V33H128.696V20.136H130.808V25.488H134.096C134.208 24.272 134.504 23.256 134.984 22.44C135.48 21.608 136.128 20.976 136.928 20.544C137.744 20.112 138.688 19.896 139.76 19.896C140.864 19.896 141.84 20.16 142.688 20.688C143.536 21.2 144.2 21.952 144.68 22.944C145.16 23.92 145.4 25.12 145.4 26.544ZM136.232 26.544C136.232 27.616 136.352 28.52 136.592 29.256C136.848 29.992 137.232 30.552 137.744 30.936C138.256 31.304 138.92 31.488 139.736 31.488C140.552 31.488 141.216 31.304 141.728 30.936C142.24 30.552 142.616 29.992 142.856 29.256C143.096 28.52 143.216 27.616 143.216 26.544C143.216 25.472 143.096 24.576 142.856 23.856C142.616 23.136 142.24 22.592 141.728 22.224C141.216 21.856 140.552 21.672 139.736 21.672C138.92 21.672 138.256 21.856 137.744 22.224C137.232 22.592 136.848 23.136 136.592 23.856C136.352 24.576 136.232 25.472 136.232 26.544ZM157.404 21.912H153.204V33H151.116V21.912H146.964V20.136H157.404V21.912ZM13.776 52.896V66H10.2V55.584H5.448V66H1.872V52.896H13.776ZM24.8243 52.656C26.2963 52.656 27.4883 53.232 28.4003 54.384C29.3123 55.52 29.7682 57.2 29.7682 59.424C29.7682 60.912 29.5523 62.168 29.1203 63.192C28.6883 64.2 28.0963 64.96 27.3443 65.472C26.5923 65.984 25.7203 66.24 24.7283 66.24C24.1043 66.24 23.5603 66.16 23.0963 66C22.6483 65.84 22.2643 65.632 21.9443 65.376C21.6243 65.12 21.3443 64.848 21.1043 64.56H20.9123C20.9763 64.864 21.0243 65.184 21.0563 65.52C21.0883 65.84 21.1043 66.16 21.1043 66.48V71.76H17.5283V52.896H20.4323L20.9363 54.6H21.1043C21.3443 54.248 21.6323 53.928 21.9683 53.64C22.3043 53.336 22.7043 53.096 23.1683 52.92C23.6483 52.744 24.2003 52.656 24.8243 52.656ZM23.6723 55.512C23.0483 55.512 22.5523 55.64 22.1843 55.896C21.8163 56.152 21.5443 56.544 21.3683 57.072C21.2083 57.584 21.1203 58.232 21.1043 59.016V59.4C21.1043 60.248 21.1843 60.968 21.3443 61.56C21.5043 62.136 21.7763 62.576 22.1603 62.88C22.5443 63.184 23.0643 63.336 23.7203 63.336C24.2643 63.336 24.7123 63.184 25.0643 62.88C25.4163 62.576 25.6803 62.128 25.8563 61.536C26.0323 60.944 26.1203 60.224 26.1203 59.376C26.1203 58.096 25.9203 57.136 25.5203 56.496C25.1363 55.84 24.5203 55.512 23.6723 55.512ZM38.1158 52.656C39.3318 52.656 40.3718 52.888 41.2358 53.352C42.1158 53.816 42.7958 54.488 43.2758 55.368C43.7558 56.248 43.9958 57.328 43.9958 58.608V60.336H35.5478C35.5798 61.344 35.8758 62.136 36.4358 62.712C37.0118 63.288 37.8038 63.576 38.8118 63.576C39.6598 63.576 40.4278 63.496 41.1158 63.336C41.8038 63.16 42.5158 62.896 43.2518 62.544V65.304C42.6118 65.624 41.9318 65.856 41.2118 66C40.5078 66.16 39.6518 66.24 38.6438 66.24C37.3318 66.24 36.1718 66 35.1638 65.52C34.1558 65.024 33.3638 64.28 32.7878 63.288C32.2118 62.296 31.9238 61.048 31.9238 59.544C31.9238 58.008 32.1798 56.736 32.6918 55.728C33.2198 54.704 33.9478 53.936 34.8758 53.424C35.8038 52.912 36.8838 52.656 38.1158 52.656ZM38.1398 55.2C37.4518 55.2 36.8758 55.424 36.4118 55.872C35.9638 56.32 35.6998 57.016 35.6198 57.96H40.6358C40.6358 57.432 40.5398 56.96 40.3478 56.544C40.1718 56.128 39.8998 55.8 39.5318 55.56C39.1638 55.32 38.6998 55.2 38.1398 55.2ZM50.3514 58.08C50.3514 58.352 50.3354 58.688 50.3034 59.088C50.2874 59.488 50.2634 59.896 50.2314 60.312C50.2154 60.728 50.1914 61.096 50.1594 61.416C50.1274 61.736 50.1034 61.96 50.0874 62.088L56.1354 52.896H60.4314V66H56.9754V60.768C56.9754 60.336 56.9914 59.864 57.0234 59.352C57.0554 58.824 57.0874 58.336 57.1194 57.888C57.1674 57.424 57.1994 57.072 57.2154 56.832L51.1914 66H46.8954V52.896H50.3514V58.08ZM80.6809 52.896V66H77.3449V59.568C77.3449 58.928 77.3529 58.304 77.3689 57.696C77.4009 57.088 77.4409 56.528 77.4889 56.016H77.4169L73.7929 66H71.1049L67.4329 55.992H67.3369C67.4009 56.52 67.4409 57.088 67.4569 57.696C67.4889 58.288 67.5049 58.944 67.5049 59.664V66H64.1689V52.896H69.2329L72.4969 61.776L75.8089 52.896H80.6809ZM82.5469 52.896H86.4589L88.9309 60.264C89.0109 60.504 89.0749 60.744 89.1229 60.984C89.1869 61.224 89.2349 61.472 89.2669 61.728C89.3149 61.984 89.3469 62.256 89.3629 62.544H89.4349C89.4829 62.128 89.5469 61.736 89.6269 61.368C89.7229 60.984 89.8269 60.616 89.9389 60.264L92.3629 52.896H96.2029L90.6589 67.68C90.3229 68.576 89.8829 69.328 89.3389 69.936C88.8109 70.544 88.1949 71 87.4909 71.304C86.7869 71.608 86.0189 71.76 85.1869 71.76C84.7869 71.76 84.4349 71.736 84.1309 71.688C83.8429 71.656 83.5869 71.616 83.3629 71.568V68.736C83.5389 68.768 83.7469 68.8 83.9869 68.832C84.2429 68.864 84.5069 68.88 84.7789 68.88C85.2749 68.88 85.6989 68.776 86.0509 68.568C86.4189 68.36 86.7229 68.072 86.9629 67.704C87.2029 67.352 87.3949 66.968 87.5389 66.552L87.7549 65.904L82.5469 52.896ZM117.595 52.896V63.384H119.515V70.704H116.299V66H98.0829V52.896H101.659V63.312H106.051V52.896H109.627V63.312H114.019V52.896H117.595ZM127.131 52.656C128.347 52.656 129.387 52.888 130.251 53.352C131.131 53.816 131.811 54.488 132.291 55.368C132.771 56.248 133.011 57.328 133.011 58.608V60.336H124.563C124.595 61.344 124.891 62.136 125.451 62.712C126.027 63.288 126.819 63.576 127.827 63.576C128.675 63.576 129.443 63.496 130.131 63.336C130.819 63.16 131.531 62.896 132.267 62.544V65.304C131.627 65.624 130.947 65.856 130.227 66C129.523 66.16 128.667 66.24 127.659 66.24C126.347 66.24 125.187 66 124.179 65.52C123.171 65.024 122.379 64.28 121.803 63.288C121.227 62.296 120.939 61.048 120.939 59.544C120.939 58.008 121.195 56.736 121.707 55.728C122.235 54.704 122.963 53.936 123.891 53.424C124.819 52.912 125.899 52.656 127.131 52.656ZM127.155 55.2C126.467 55.2 125.891 55.424 125.427 55.872C124.979 56.32 124.715 57.016 124.635 57.96H129.651C129.651 57.432 129.555 56.96 129.363 56.544C129.187 56.128 128.915 55.8 128.547 55.56C128.179 55.32 127.715 55.2 127.155 55.2ZM141.239 66.24C139.943 66.24 138.839 66.008 137.927 65.544C137.015 65.064 136.319 64.328 135.839 63.336C135.359 62.344 135.119 61.072 135.119 59.52C135.119 57.92 135.391 56.616 135.935 55.608C136.479 54.6 137.231 53.856 138.191 53.376C139.167 52.896 140.287 52.656 141.551 52.656C142.447 52.656 143.223 52.744 143.879 52.92C144.551 53.096 145.135 53.304 145.631 53.544L144.575 56.304C144.015 56.08 143.487 55.896 142.991 55.752C142.511 55.608 142.031 55.536 141.551 55.536C140.927 55.536 140.407 55.688 139.991 55.992C139.575 56.28 139.263 56.72 139.055 57.312C138.863 57.888 138.767 58.616 138.767 59.496C138.767 60.36 138.871 61.08 139.079 61.656C139.303 62.216 139.623 62.64 140.039 62.928C140.455 63.2 140.959 63.336 141.551 63.336C142.303 63.336 142.967 63.24 143.543 63.048C144.119 62.84 144.679 62.56 145.223 62.208V65.256C144.679 65.608 144.103 65.856 143.495 66C142.903 66.16 142.151 66.24 141.239 66.24ZM159.087 55.584H154.791V66H151.215V55.584H146.919V52.896H159.087V55.584ZM173.121 56.328C173.121 57.032 172.897 57.632 172.449 58.128C172.017 58.624 171.369 58.944 170.505 59.088V59.184C171.417 59.296 172.145 59.608 172.689 60.12C173.249 60.632 173.529 61.288 173.529 62.088C173.529 62.648 173.417 63.168 173.193 63.648C172.985 64.128 172.649 64.544 172.185 64.896C171.721 65.248 171.121 65.52 170.385 65.712C169.665 65.904 168.785 66 167.745 66H161.505V52.896H167.745C168.769 52.896 169.681 53.008 170.481 53.232C171.297 53.44 171.937 53.792 172.401 54.288C172.881 54.784 173.121 55.464 173.121 56.328ZM169.833 61.896C169.833 61.384 169.633 61.016 169.233 60.792C168.833 60.552 168.233 60.432 167.433 60.432H165.081V63.528H167.505C168.177 63.528 168.729 63.408 169.161 63.168C169.609 62.912 169.833 62.488 169.833 61.896ZM169.497 56.616C169.497 56.2 169.337 55.896 169.017 55.704C168.697 55.512 168.225 55.416 167.601 55.416H165.081V58.008H167.193C167.945 58.008 168.513 57.904 168.897 57.696C169.297 57.472 169.497 57.112 169.497 56.616ZM181.999 52.656C183.215 52.656 184.255 52.888 185.119 53.352C185.999 53.816 186.679 54.488 187.159 55.368C187.639 56.248 187.879 57.328 187.879 58.608V60.336H179.431C179.463 61.344 179.759 62.136 180.319 62.712C180.895 63.288 181.687 63.576 182.695 63.576C183.543 63.576 184.311 63.496 184.999 63.336C185.687 63.16 186.399 62.896 187.135 62.544V65.304C186.495 65.624 185.815 65.856 185.095 66C184.391 66.16 183.535 66.24 182.527 66.24C181.215 66.24 180.055 66 179.047 65.52C178.039 65.024 177.247 64.28 176.671 63.288C176.095 62.296 175.807 61.048 175.807 59.544C175.807 58.008 176.063 56.736 176.575 55.728C177.103 54.704 177.831 53.936 178.759 53.424C179.687 52.912 180.767 52.656 181.999 52.656ZM182.023 55.2C181.335 55.2 180.759 55.424 180.295 55.872C179.847 56.32 179.583 57.016 179.503 57.96H184.519C184.519 57.432 184.423 56.96 184.231 56.544C184.055 56.128 183.783 55.8 183.415 55.56C183.047 55.32 182.583 55.2 182.023 55.2ZM194.354 52.896V57.936H199.346V52.896H202.922V66H199.346V60.6H194.354V66H190.778V52.896H194.354ZM210.245 52.896V57.936H215.237V52.896H218.813V66H215.237V60.6H210.245V66H206.669V52.896H210.245ZM234.464 59.424C234.464 60.512 234.312 61.48 234.008 62.328C233.72 63.176 233.296 63.896 232.736 64.488C232.192 65.064 231.528 65.504 230.744 65.808C229.96 66.096 229.072 66.24 228.08 66.24C227.168 66.24 226.32 66.096 225.536 65.808C224.768 65.504 224.104 65.064 223.544 64.488C222.984 63.896 222.544 63.176 222.224 62.328C221.92 61.48 221.768 60.512 221.768 59.424C221.768 57.968 222.024 56.744 222.536 55.752C223.048 54.744 223.784 53.976 224.744 53.448C225.704 52.92 226.84 52.656 228.152 52.656C229.384 52.656 230.472 52.92 231.416 53.448C232.36 53.976 233.104 54.744 233.648 55.752C234.192 56.744 234.464 57.968 234.464 59.424ZM225.416 59.424C225.416 60.288 225.504 61.016 225.68 61.608C225.872 62.184 226.168 62.624 226.568 62.928C226.968 63.216 227.488 63.36 228.128 63.36C228.768 63.36 229.28 63.216 229.664 62.928C230.064 62.624 230.352 62.184 230.528 61.608C230.72 61.016 230.816 60.288 230.816 59.424C230.816 58.56 230.72 57.84 230.528 57.264C230.352 56.688 230.064 56.256 229.664 55.968C229.264 55.68 228.744 55.536 228.104 55.536C227.16 55.536 226.472 55.864 226.04 56.52C225.624 57.16 225.416 58.128 225.416 59.424ZM18.384 85.896V99H15.048V92.568C15.048 91.928 15.056 91.304 15.072 90.696C15.104 90.088 15.144 89.528 15.192 89.016H15.12L11.496 99H8.808L5.136 88.992H5.04C5.104 89.52 5.144 90.088 5.16 90.696C5.192 91.288 5.208 91.944 5.208 92.664V99H1.872V85.896H6.936L10.2 94.776L13.512 85.896H18.384ZM20.25 85.896H24.162L26.634 93.264C26.714 93.504 26.778 93.744 26.826 93.984C26.89 94.224 26.938 94.472 26.97 94.728C27.018 94.984 27.05 95.256 27.066 95.544H27.138C27.186 95.128 27.25 94.736 27.33 94.368C27.426 93.984 27.53 93.616 27.642 93.264L30.066 85.896H33.906L28.362 100.68C28.026 101.576 27.586 102.328 27.042 102.936C26.514 103.544 25.898 104 25.194 104.304C24.49 104.608 23.722 104.76 22.89 104.76C22.49 104.76 22.138 104.736 21.834 104.688C21.546 104.656 21.29 104.616 21.066 104.568V101.736C21.242 101.768 21.45 101.8 21.69 101.832C21.946 101.864 22.21 101.88 22.482 101.88C22.978 101.88 23.402 101.776 23.754 101.568C24.122 101.36 24.426 101.072 24.666 100.704C24.906 100.352 25.098 99.968 25.242 99.552L25.458 98.904L20.25 85.896ZM54.4101 85.896L49.5861 92.184L54.8661 99H51.0501L46.0581 92.352V99H42.7221V92.352L37.7301 99H33.9141L39.1941 92.184L34.3701 85.896H38.0661L42.7221 92.256V85.896H46.0581V92.256L50.7141 85.896H54.4101ZM59.4144 90.696C59.4144 91.256 59.5504 91.68 59.8224 91.968C60.1104 92.256 60.5024 92.4 60.9984 92.4C61.6864 92.4 62.3264 92.328 62.9184 92.184C63.5104 92.024 64.1024 91.816 64.6944 91.56V85.896H68.2704V99H64.6944V93.792C64.1344 94.096 63.4944 94.376 62.7744 94.632C62.0544 94.872 61.2384 94.992 60.3264 94.992C58.9664 94.992 57.8784 94.64 57.0624 93.936C56.2464 93.232 55.8384 92.176 55.8384 90.768V85.896H59.4144V90.696ZM75.4764 91.08C75.4764 91.352 75.4604 91.688 75.4284 92.088C75.4124 92.488 75.3884 92.896 75.3564 93.312C75.3404 93.728 75.3164 94.096 75.2844 94.416C75.2524 94.736 75.2284 94.96 75.2124 95.088L81.2604 85.896H85.5564V99H82.1004V93.768C82.1004 93.336 82.1164 92.864 82.1484 92.352C82.1804 91.824 82.2124 91.336 82.2444 90.888C82.2924 90.424 82.3244 90.072 82.3404 89.832L76.3164 99H72.0204V85.896H75.4764V91.08ZM92.8699 85.896V90.936H97.8619V85.896H101.438V99H97.8619V93.6H92.8699V99H89.2939V85.896H92.8699ZM105.185 99V85.896H108.761V90.96H110.489C111.833 90.96 112.937 91.104 113.801 91.392C114.665 91.664 115.305 92.088 115.721 92.664C116.153 93.24 116.369 93.96 116.369 94.824C116.369 95.672 116.169 96.408 115.769 97.032C115.385 97.656 114.769 98.144 113.921 98.496C113.089 98.832 111.985 99 110.609 99H105.185ZM110.417 96.528C111.121 96.528 111.689 96.4 112.121 96.144C112.569 95.888 112.793 95.464 112.793 94.872C112.793 94.36 112.585 93.992 112.169 93.768C111.769 93.544 111.169 93.432 110.368 93.432H108.761V96.528H110.417ZM118.265 99V85.896H121.841V99H118.265ZM126.943 92.448C126.943 91.92 127.015 91.448 127.159 91.032C127.303 90.616 127.535 90.224 127.855 89.856C128.191 89.488 128.631 89.112 129.175 88.728C129.655 88.376 130.039 88.064 130.327 87.792C130.631 87.52 130.847 87.248 130.975 86.976C131.119 86.704 131.191 86.4 131.191 86.064C131.191 85.552 130.999 85.168 130.615 84.912C130.247 84.64 129.727 84.504 129.055 84.504C128.383 84.504 127.719 84.608 127.063 84.816C126.407 85.024 125.735 85.304 125.047 85.656L123.775 83.088C124.559 82.656 125.407 82.304 126.319 82.032C127.231 81.76 128.231 81.624 129.319 81.624C130.983 81.624 132.271 82.024 133.183 82.824C134.111 83.624 134.575 84.64 134.575 85.872C134.575 86.528 134.471 87.096 134.263 87.576C134.055 88.056 133.743 88.504 133.327 88.92C132.911 89.32 132.391 89.752 131.767 90.216C131.303 90.552 130.943 90.84 130.687 91.08C130.431 91.32 130.255 91.552 130.159 91.776C130.079 92 130.039 92.28 130.039 92.616V93.312H126.943V92.448ZM126.559 97.32C126.559 96.584 126.759 96.072 127.159 95.784C127.559 95.48 128.047 95.328 128.623 95.328C129.183 95.328 129.663 95.48 130.063 95.784C130.463 96.072 130.663 96.584 130.663 97.32C130.663 98.024 130.463 98.536 130.063 98.856C129.663 99.16 129.183 99.312 128.623 99.312C128.047 99.312 127.559 99.16 127.159 98.856C126.759 98.536 126.559 98.024 126.559 97.32Z" fill="#01457A"/>
<path d="M0 114.5H254.139L295 50.5L254.139 1" stroke="url(#paint1_linear_0_5998)" stroke-width="3"/>
<defs>
<linearGradient id="paint0_linear_0_5998" x1="295" y1="50.7293" x2="2.95041e-07" y2="50.7293" gradientUnits="userSpaceOnUse">
<stop stop-color="#D8EFFF"/>
<stop offset="1" stop-color="white"/>
</linearGradient>
<linearGradient id="paint1_linear_0_5998" x1="295" y1="1.00001" x2="-10.2769" y2="66.874" gradientUnits="userSpaceOnUse">
<stop stop-color="#01457A"/>
<stop offset="0.432292" stop-color="#43A7C7"/>
<stop offset="0.744792" stop-color="#BCD77E"/>
<stop offset="1" stop-color="#BCD77E" stop-opacity="0"/>
</linearGradient>
</defs>
</svg>
