<svg width="297" height="116" viewBox="0 0 297 116" fill="none" xmlns="http://www.w3.org/2000/svg">
<path d="M254.139 115H0V0.5H254.139L295 50.3145L254.139 115Z" fill="url(#paint0_linear_0_6025)"/>
<path d="M17.712 25.408C17.712 26.736 17.544 27.944 17.208 29.032C16.888 30.104 16.392 31.032 15.72 31.816C15.064 32.6 14.216 33.2 13.176 33.616C12.152 34.032 10.944 34.24 9.552 34.24C8.16 34.24 6.944 34.032 5.904 33.616C4.88 33.184 4.032 32.584 3.36 31.816C2.704 31.032 2.208 30.096 1.872 29.008C1.552 27.92 1.392 26.712 1.392 25.384C1.392 23.608 1.68 22.064 2.256 20.752C2.848 19.44 3.744 18.424 4.944 17.704C6.16 16.968 7.704 16.6 9.576 16.6C11.432 16.6 12.96 16.968 14.16 17.704C15.36 18.424 16.248 19.448 16.824 20.776C17.416 22.088 17.712 23.632 17.712 25.408ZM5.208 25.408C5.208 26.608 5.36 27.64 5.664 28.504C5.968 29.368 6.44 30.032 7.08 30.496C7.72 30.96 8.544 31.192 9.552 31.192C10.592 31.192 11.424 30.96 12.048 30.496C12.688 30.032 13.152 29.368 13.44 28.504C13.744 27.64 13.896 26.608 13.896 25.408C13.896 23.6 13.56 22.184 12.888 21.16C12.216 20.136 11.112 19.624 9.576 19.624C8.552 19.624 7.72 19.856 7.08 20.32C6.44 20.784 5.968 21.448 5.664 22.312C5.36 23.176 5.208 24.208 5.208 25.408ZM32.8776 20.896V34H29.3016V23.584H24.5496V34H20.9736V20.896H32.8776ZM42.0058 20.632C43.7658 20.632 45.1098 21.016 46.0378 21.784C46.9818 22.536 47.4538 23.696 47.4538 25.264V34H44.9578L44.2618 32.224H44.1658C43.7978 32.688 43.4138 33.072 43.0138 33.376C42.6298 33.68 42.1818 33.896 41.6698 34.024C41.1738 34.168 40.5578 34.24 39.8218 34.24C39.0538 34.24 38.3578 34.096 37.7338 33.808C37.1258 33.504 36.6458 33.048 36.2938 32.44C35.9418 31.816 35.7658 31.032 35.7658 30.088C35.7658 28.696 36.2538 27.672 37.2298 27.016C38.2058 26.344 39.6698 25.976 41.6218 25.912L43.9018 25.84V25.264C43.9018 24.576 43.7178 24.072 43.3498 23.752C42.9978 23.432 42.5018 23.272 41.8618 23.272C41.2218 23.272 40.5978 23.368 39.9898 23.56C39.3818 23.736 38.7738 23.96 38.1658 24.232L36.9898 21.808C37.6938 21.44 38.4698 21.152 39.3178 20.944C40.1818 20.736 41.0778 20.632 42.0058 20.632ZM42.5098 27.976C41.3578 28.008 40.5578 28.216 40.1098 28.6C39.6618 28.984 39.4378 29.488 39.4378 30.112C39.4378 30.656 39.5978 31.048 39.9178 31.288C40.2378 31.512 40.6538 31.624 41.1658 31.624C41.9338 31.624 42.5818 31.4 43.1098 30.952C43.6378 30.488 43.9018 29.84 43.9018 29.008V27.928L42.5098 27.976ZM56.4422 34.24C55.1462 34.24 54.0422 34.008 53.1302 33.544C52.2182 33.064 51.5222 32.328 51.0422 31.336C50.5622 30.344 50.3222 29.072 50.3222 27.52C50.3222 25.92 50.5942 24.616 51.1382 23.608C51.6822 22.6 52.4342 21.856 53.3942 21.376C54.3702 20.896 55.4902 20.656 56.7542 20.656C57.6502 20.656 58.4262 20.744 59.0822 20.92C59.7542 21.096 60.3382 21.304 60.8342 21.544L59.7782 24.304C59.2182 24.08 58.6902 23.896 58.1942 23.752C57.7142 23.608 57.2342 23.536 56.7542 23.536C56.1302 23.536 55.6102 23.688 55.1942 23.992C54.7782 24.28 54.4662 24.72 54.2582 25.312C54.0662 25.888 53.9702 26.616 53.9702 27.496C53.9702 28.36 54.0742 29.08 54.2822 29.656C54.5062 30.216 54.8262 30.64 55.2422 30.928C55.6582 31.2 56.1622 31.336 56.7542 31.336C57.5062 31.336 58.1702 31.24 58.7462 31.048C59.3222 30.84 59.8822 30.56 60.4262 30.208V33.256C59.8822 33.608 59.3062 33.856 58.6982 34C58.1062 34.16 57.3542 34.24 56.4422 34.24ZM67.0183 20.896V25.936H72.0103V20.896H75.5863V34H72.0103V28.6H67.0183V34H63.4423V20.896H67.0183ZM91.2369 27.424C91.2369 28.512 91.0849 29.48 90.7809 30.328C90.4929 31.176 90.0689 31.896 89.5089 32.488C88.9649 33.064 88.3009 33.504 87.5169 33.808C86.7329 34.096 85.8449 34.24 84.8529 34.24C83.9409 34.24 83.0929 34.096 82.3089 33.808C81.5409 33.504 80.8769 33.064 80.3169 32.488C79.7569 31.896 79.3169 31.176 78.9969 30.328C78.6929 29.48 78.5409 28.512 78.5409 27.424C78.5409 25.968 78.7969 24.744 79.3089 23.752C79.8209 22.744 80.5569 21.976 81.5169 21.448C82.4769 20.92 83.6129 20.656 84.9249 20.656C86.1569 20.656 87.2449 20.92 88.1889 21.448C89.1329 21.976 89.8769 22.744 90.4209 23.752C90.9649 24.744 91.2369 25.968 91.2369 27.424ZM82.1889 27.424C82.1889 28.288 82.2769 29.016 82.4529 29.608C82.6449 30.184 82.9409 30.624 83.3409 30.928C83.7409 31.216 84.2609 31.36 84.9009 31.36C85.5409 31.36 86.0529 31.216 86.4369 30.928C86.8369 30.624 87.1249 30.184 87.3009 29.608C87.4929 29.016 87.5889 28.288 87.5889 27.424C87.5889 26.56 87.4929 25.84 87.3009 25.264C87.1249 24.688 86.8369 24.256 86.4369 23.968C86.0369 23.68 85.5169 23.536 84.8769 23.536C83.9329 23.536 83.2449 23.864 82.8129 24.52C82.3969 25.16 82.1889 26.128 82.1889 27.424ZM102.707 21.136V26.488H109.691V21.136H111.803V34H109.691V28.264H102.707V34H100.595V21.136H102.707ZM120.844 20.896C121.948 20.896 122.892 21.136 123.676 21.616C124.476 22.096 125.084 22.776 125.5 23.656C125.932 24.52 126.148 25.536 126.148 26.704V27.976H117.34C117.372 29.432 117.74 30.544 118.444 31.312C119.164 32.064 120.164 32.44 121.444 32.44C122.26 32.44 122.98 32.368 123.604 32.224C124.244 32.064 124.9 31.84 125.572 31.552V33.4C124.916 33.688 124.268 33.896 123.628 34.024C122.988 34.168 122.228 34.24 121.348 34.24C120.132 34.24 119.052 33.992 118.108 33.496C117.18 33 116.452 32.264 115.924 31.288C115.412 30.296 115.156 29.088 115.156 27.664C115.156 26.256 115.388 25.048 115.852 24.04C116.332 23.032 116.996 22.256 117.844 21.712C118.708 21.168 119.708 20.896 120.844 20.896ZM120.82 22.624C119.812 22.624 119.012 22.952 118.42 23.608C117.844 24.248 117.5 25.144 117.388 26.296H123.94C123.94 25.56 123.828 24.92 123.604 24.376C123.38 23.832 123.036 23.408 122.572 23.104C122.124 22.784 121.54 22.624 120.82 22.624ZM137.769 21.136V26.488H144.753V21.136H146.865V34H144.753V28.264H137.769V34H135.657V21.136H137.769ZM155.81 20.92C157.378 20.92 158.538 21.264 159.29 21.952C160.042 22.64 160.418 23.736 160.418 25.24V34H158.882L158.474 32.176H158.378C158.01 32.64 157.626 33.032 157.226 33.352C156.842 33.656 156.394 33.88 155.882 34.024C155.386 34.168 154.778 34.24 154.058 34.24C153.29 34.24 152.594 34.104 151.97 33.832C151.362 33.56 150.882 33.144 150.53 32.584C150.178 32.008 150.002 31.288 150.002 30.424C150.002 29.144 150.506 28.16 151.514 27.472C152.522 26.768 154.074 26.384 156.17 26.32L158.354 26.248V25.48C158.354 24.408 158.122 23.664 157.658 23.248C157.194 22.832 156.538 22.624 155.69 22.624C155.018 22.624 154.378 22.728 153.77 22.936C153.162 23.128 152.594 23.352 152.066 23.608L151.418 22.024C151.978 21.72 152.642 21.464 153.41 21.256C154.178 21.032 154.978 20.92 155.81 20.92ZM156.434 27.784C154.834 27.848 153.722 28.104 153.098 28.552C152.49 29 152.186 29.632 152.186 30.448C152.186 31.168 152.402 31.696 152.834 32.032C153.282 32.368 153.85 32.536 154.538 32.536C155.626 32.536 156.53 32.24 157.25 31.648C157.97 31.04 158.33 30.112 158.33 28.864V27.712L156.434 27.784ZM174.184 34H172.048V22.888H168.256C168.096 24.92 167.896 26.656 167.656 28.096C167.416 29.52 167.112 30.68 166.744 31.576C166.376 32.472 165.936 33.128 165.424 33.544C164.912 33.96 164.312 34.168 163.624 34.168C163.416 34.168 163.208 34.152 163 34.12C162.808 34.104 162.648 34.064 162.52 34V32.416C162.616 32.448 162.72 32.472 162.832 32.488C162.944 32.504 163.056 32.512 163.168 32.512C163.52 32.512 163.84 32.368 164.128 32.08C164.416 31.792 164.672 31.352 164.896 30.76C165.136 30.168 165.352 29.424 165.544 28.528C165.736 27.616 165.904 26.544 166.048 25.312C166.192 24.08 166.32 22.688 166.432 21.136H174.184V34ZM180.259 28.984C180.259 29.128 180.251 29.336 180.235 29.608C180.235 29.864 180.227 30.144 180.211 30.448C180.195 30.736 180.179 31.016 180.163 31.288C180.147 31.544 180.131 31.752 180.115 31.912L187.003 21.136H189.595V34H187.627V26.416C187.627 26.16 187.627 25.824 187.627 25.408C187.643 24.992 187.659 24.584 187.675 24.184C187.691 23.768 187.707 23.456 187.723 23.248L180.883 34H178.267V21.136H180.259V28.984ZM195.536 25.816C195.536 26.568 195.744 27.128 196.16 27.496C196.592 27.848 197.208 28.024 198.008 28.024C198.808 28.024 199.536 27.904 200.192 27.664C200.848 27.408 201.52 27.072 202.208 26.656V21.136H204.32V34H202.208V28.264C201.488 28.728 200.776 29.096 200.072 29.368C199.384 29.624 198.552 29.752 197.576 29.752C196.264 29.752 195.24 29.408 194.504 28.72C193.784 28.032 193.424 27.112 193.424 25.96V21.136H195.536V25.816ZM210.399 28.984C210.399 29.128 210.391 29.336 210.375 29.608C210.375 29.864 210.367 30.144 210.351 30.448C210.335 30.736 210.319 31.016 210.303 31.288C210.287 31.544 210.271 31.752 210.255 31.912L217.143 21.136H219.735V34H217.767V26.416C217.767 26.16 217.767 25.824 217.767 25.408C217.783 24.992 217.799 24.584 217.815 24.184C217.831 23.768 217.847 23.456 217.863 23.248L211.023 34H208.407V21.136H210.399V28.984ZM228.797 20.896C229.901 20.896 230.845 21.136 231.629 21.616C232.429 22.096 233.037 22.776 233.453 23.656C233.885 24.52 234.101 25.536 234.101 26.704V27.976H225.293C225.325 29.432 225.693 30.544 226.397 31.312C227.117 32.064 228.117 32.44 229.397 32.44C230.213 32.44 230.933 32.368 231.557 32.224C232.197 32.064 232.853 31.84 233.525 31.552V33.4C232.869 33.688 232.221 33.896 231.581 34.024C230.941 34.168 230.181 34.24 229.301 34.24C228.085 34.24 227.005 33.992 226.061 33.496C225.133 33 224.405 32.264 223.877 31.288C223.365 30.296 223.109 29.088 223.109 27.664C223.109 26.256 223.341 25.048 223.805 24.04C224.285 23.032 224.949 22.256 225.797 21.712C226.661 21.168 227.661 20.896 228.797 20.896ZM228.773 22.624C227.765 22.624 226.965 22.952 226.373 23.608C225.797 24.248 225.453 25.144 225.341 26.296H231.893C231.893 25.56 231.781 24.92 231.557 24.376C231.333 23.832 230.989 23.408 230.525 23.104C230.077 22.784 229.493 22.624 228.773 22.624ZM5.424 53.896C6.4 53.896 7.248 54.032 7.968 54.304C8.688 54.56 9.248 54.944 9.648 55.456C10.048 55.952 10.248 56.56 10.248 57.28C10.248 58.064 10.032 58.688 9.6 59.152C9.168 59.6 8.576 59.928 7.824 60.136V60.232C8.336 60.376 8.808 60.576 9.24 60.832C9.672 61.088 10.016 61.424 10.272 61.84C10.544 62.256 10.68 62.792 10.68 63.448C10.68 64.152 10.48 64.792 10.08 65.368C9.696 65.944 9.096 66.4 8.28 66.736C7.48 67.072 6.448 67.24 5.184 67.24C4.576 67.24 3.992 67.208 3.432 67.144C2.888 67.08 2.392 66.984 1.944 66.856C1.512 66.728 1.128 66.576 0.792 66.4V64.504C1.336 64.76 1.976 64.992 2.712 65.2C3.464 65.408 4.28 65.512 5.16 65.512C5.8 65.512 6.376 65.44 6.888 65.296C7.416 65.152 7.832 64.928 8.136 64.624C8.44 64.304 8.592 63.872 8.592 63.328C8.592 62.832 8.456 62.432 8.184 62.128C7.912 61.808 7.504 61.568 6.96 61.408C6.432 61.248 5.752 61.168 4.92 61.168H3.192V59.44H4.584C5.688 59.44 6.568 59.296 7.224 59.008C7.896 58.704 8.232 58.192 8.232 57.472C8.232 56.864 7.976 56.408 7.464 56.104C6.968 55.8 6.248 55.648 5.304 55.648C4.6 55.648 3.976 55.72 3.432 55.864C2.904 55.992 2.32 56.192 1.68 56.464L0.936 54.784C1.624 54.48 2.344 54.256 3.096 54.112C3.848 53.968 4.624 53.896 5.424 53.896ZM18.6776 53.92C20.2456 53.92 21.4056 54.264 22.1576 54.952C22.9096 55.64 23.2856 56.736 23.2856 58.24V67H21.7496L21.3416 65.176H21.2456C20.8776 65.64 20.4936 66.032 20.0936 66.352C19.7096 66.656 19.2616 66.88 18.7496 67.024C18.2536 67.168 17.6456 67.24 16.9256 67.24C16.1576 67.24 15.4616 67.104 14.8376 66.832C14.2296 66.56 13.7496 66.144 13.3976 65.584C13.0456 65.008 12.8696 64.288 12.8696 63.424C12.8696 62.144 13.3736 61.16 14.3816 60.472C15.3896 59.768 16.9416 59.384 19.0376 59.32L21.2216 59.248V58.48C21.2216 57.408 20.9896 56.664 20.5256 56.248C20.0616 55.832 19.4056 55.624 18.5576 55.624C17.8856 55.624 17.2456 55.728 16.6376 55.936C16.0296 56.128 15.4616 56.352 14.9336 56.608L14.2856 55.024C14.8456 54.72 15.5096 54.464 16.2776 54.256C17.0456 54.032 17.8456 53.92 18.6776 53.92ZM19.3016 60.784C17.7016 60.848 16.5896 61.104 15.9656 61.552C15.3576 62 15.0536 62.632 15.0536 63.448C15.0536 64.168 15.2696 64.696 15.7016 65.032C16.1496 65.368 16.7176 65.536 17.4056 65.536C18.4936 65.536 19.3976 65.24 20.1176 64.648C20.8376 64.04 21.1976 63.112 21.1976 61.864V60.712L19.3016 60.784ZM26.5868 59.272C26.5868 57.4 26.7708 55.808 27.1388 54.496C27.5228 53.168 28.1068 52.112 28.8908 51.328C29.6908 50.528 30.7148 49.992 31.9628 49.72C33.0028 49.496 34.0188 49.296 35.0108 49.12C36.0028 48.944 36.9308 48.784 37.7948 48.64L38.1548 50.488C37.7388 50.552 37.2748 50.632 36.7628 50.728C36.2508 50.808 35.7308 50.896 35.2028 50.992C34.6748 51.072 34.1628 51.16 33.6668 51.256C33.1868 51.336 32.7628 51.416 32.3948 51.496C31.8668 51.608 31.3948 51.8 30.9788 52.072C30.5628 52.328 30.2028 52.68 29.8988 53.128C29.6108 53.576 29.3788 54.128 29.2028 54.784C29.0268 55.44 28.9228 56.216 28.8908 57.112H29.0348C29.2588 56.808 29.5628 56.496 29.9468 56.176C30.3468 55.856 30.8188 55.584 31.3628 55.36C31.9228 55.136 32.5548 55.024 33.2588 55.024C34.3788 55.024 35.3068 55.272 36.0428 55.768C36.7948 56.248 37.3548 56.92 37.7228 57.784C38.1068 58.648 38.2988 59.656 38.2988 60.808C38.2988 62.232 38.0508 63.424 37.5547 64.384C37.0588 65.344 36.3708 66.064 35.4908 66.544C34.6108 67.008 33.5868 67.24 32.4188 67.24C31.5388 67.24 30.7388 67.072 30.0188 66.736C29.2988 66.384 28.6828 65.872 28.1708 65.2C27.6588 64.528 27.2668 63.696 26.9948 62.704C26.7228 61.712 26.5868 60.568 26.5868 59.272ZM32.5868 65.488C33.2908 65.488 33.8988 65.344 34.4108 65.056C34.9388 64.768 35.3468 64.296 35.6348 63.64C35.9228 62.984 36.0668 62.112 36.0668 61.024C36.0668 59.712 35.8188 58.68 35.3228 57.928C34.8428 57.16 34.0428 56.776 32.9228 56.776C32.2188 56.776 31.5788 56.936 31.0028 57.256C30.4268 57.56 29.9468 57.912 29.5628 58.312C29.1788 58.712 28.9068 59.048 28.7467 59.32C28.7467 60.104 28.8028 60.864 28.9148 61.6C29.0268 62.336 29.2188 63 29.4908 63.592C29.7788 64.168 30.1708 64.632 30.6668 64.984C31.1788 65.32 31.8188 65.488 32.5868 65.488ZM52.8099 60.544C52.8099 61.616 52.6659 62.568 52.3779 63.4C52.1059 64.216 51.7059 64.912 51.1779 65.488C50.6659 66.064 50.0339 66.504 49.2819 66.808C48.5459 67.096 47.7219 67.24 46.8099 67.24C45.9619 67.24 45.1779 67.096 44.4579 66.808C43.7379 66.504 43.1139 66.064 42.5859 65.488C42.0579 64.912 41.6419 64.216 41.3379 63.4C41.0499 62.568 40.9059 61.616 40.9059 60.544C40.9059 59.12 41.1459 57.92 41.6259 56.944C42.1059 55.952 42.7939 55.2 43.6899 54.688C44.5859 54.16 45.6499 53.896 46.8819 53.896C48.0499 53.896 49.0739 54.16 49.9539 54.688C50.8499 55.2 51.5459 55.952 52.0419 56.944C52.5539 57.92 52.8099 59.12 52.8099 60.544ZM43.0899 60.544C43.0899 61.552 43.2179 62.432 43.4739 63.184C43.7459 63.92 44.1619 64.488 44.7219 64.888C45.2819 65.288 45.9939 65.488 46.8579 65.488C47.7219 65.488 48.4339 65.288 48.9939 64.888C49.5539 64.488 49.9619 63.92 50.2179 63.184C50.4899 62.432 50.6259 61.552 50.6259 60.544C50.6259 59.52 50.4899 58.648 50.2179 57.928C49.9459 57.208 49.5299 56.656 48.9699 56.272C48.4259 55.872 47.7139 55.672 46.8339 55.672C45.5219 55.672 44.5699 56.104 43.9779 56.968C43.3859 57.832 43.0899 59.024 43.0899 60.544ZM65.9492 67H63.8132V55.888H60.0212C59.8612 57.92 59.6612 59.656 59.4212 61.096C59.1812 62.52 58.8772 63.68 58.5092 64.576C58.1412 65.472 57.7012 66.128 57.1892 66.544C56.6772 66.96 56.0772 67.168 55.3892 67.168C55.1812 67.168 54.9732 67.152 54.7652 67.12C54.5732 67.104 54.4132 67.064 54.2852 67V65.416C54.3812 65.448 54.4852 65.472 54.5972 65.488C54.7092 65.504 54.8212 65.512 54.9332 65.512C55.2852 65.512 55.6052 65.368 55.8932 65.08C56.1812 64.792 56.4372 64.352 56.6612 63.76C56.9012 63.168 57.1172 62.424 57.3092 61.528C57.5012 60.616 57.6692 59.544 57.8132 58.312C57.9572 57.08 58.0852 55.688 58.1972 54.136H65.9492V67ZM75.0002 53.896C76.1042 53.896 77.0482 54.136 77.8322 54.616C78.6322 55.096 79.2402 55.776 79.6562 56.656C80.0882 57.52 80.3042 58.536 80.3042 59.704V60.976H71.4962C71.5282 62.432 71.8962 63.544 72.6002 64.312C73.3202 65.064 74.3202 65.44 75.6002 65.44C76.4162 65.44 77.1362 65.368 77.7602 65.224C78.4002 65.064 79.0562 64.84 79.7282 64.552V66.4C79.0722 66.688 78.4242 66.896 77.7842 67.024C77.1442 67.168 76.3842 67.24 75.5042 67.24C74.2882 67.24 73.2082 66.992 72.2642 66.496C71.3362 66 70.6082 65.264 70.0802 64.288C69.5682 63.296 69.3122 62.088 69.3122 60.664C69.3122 59.256 69.5442 58.048 70.0082 57.04C70.4882 56.032 71.1522 55.256 72.0002 54.712C72.8642 54.168 73.8642 53.896 75.0002 53.896ZM74.9762 55.624C73.9682 55.624 73.1682 55.952 72.5762 56.608C72.0002 57.248 71.6562 58.144 71.5442 59.296H78.0962C78.0962 58.56 77.9842 57.92 77.7602 57.376C77.5362 56.832 77.1922 56.408 76.7282 56.104C76.2802 55.784 75.6962 55.624 74.9762 55.624ZM93.9231 57.376C93.9231 58.176 93.6831 58.8 93.2031 59.248C92.7231 59.696 92.1071 60 91.3551 60.16V60.256C92.1551 60.368 92.8511 60.656 93.4431 61.12C94.0351 61.568 94.3311 62.272 94.3311 63.232C94.3311 63.776 94.2271 64.28 94.0191 64.744C93.8271 65.208 93.5231 65.608 93.1071 65.944C92.6911 66.28 92.1551 66.544 91.4991 66.736C90.8431 66.912 90.0511 67 89.1231 67H83.5791V54.136H89.0991C90.0111 54.136 90.8271 54.24 91.5471 54.448C92.2831 54.64 92.8591 54.976 93.2751 55.456C93.7071 55.92 93.9231 56.56 93.9231 57.376ZM92.1471 63.232C92.1471 62.496 91.8671 61.968 91.3071 61.648C90.7471 61.328 89.9231 61.168 88.8351 61.168H85.6911V65.296H88.8831C89.9391 65.296 90.7471 65.144 91.3071 64.84C91.8671 64.52 92.1471 63.984 92.1471 63.232ZM91.7871 57.64C91.7871 57.032 91.5631 56.592 91.1151 56.32C90.6831 56.032 89.9711 55.888 88.9791 55.888H85.6911V59.416H88.5951C89.6351 59.416 90.4271 59.272 90.9711 58.984C91.5151 58.696 91.7871 58.248 91.7871 57.64ZM102.279 53.92C103.847 53.92 105.007 54.264 105.759 54.952C106.511 55.64 106.887 56.736 106.887 58.24V67H105.351L104.943 65.176H104.847C104.479 65.64 104.095 66.032 103.695 66.352C103.311 66.656 102.863 66.88 102.351 67.024C101.855 67.168 101.247 67.24 100.527 67.24C99.7592 67.24 99.0632 67.104 98.4392 66.832C97.8312 66.56 97.3512 66.144 96.9992 65.584C96.6472 65.008 96.4712 64.288 96.4712 63.424C96.4712 62.144 96.9752 61.16 97.9832 60.472C98.9912 59.768 100.543 59.384 102.639 59.32L104.823 59.248V58.48C104.823 57.408 104.591 56.664 104.127 56.248C103.663 55.832 103.007 55.624 102.159 55.624C101.487 55.624 100.847 55.728 100.239 55.936C99.6312 56.128 99.0632 56.352 98.5352 56.608L97.8872 55.024C98.4472 54.72 99.1112 54.464 99.8792 54.256C100.647 54.032 101.447 53.92 102.279 53.92ZM102.903 60.784C101.303 60.848 100.191 61.104 99.5672 61.552C98.9592 62 98.6552 62.632 98.6552 63.448C98.6552 64.168 98.8712 64.696 99.3032 65.032C99.7512 65.368 100.319 65.536 101.007 65.536C102.095 65.536 102.999 65.24 103.719 64.648C104.439 64.04 104.799 63.112 104.799 61.864V60.712L102.903 60.784ZM112.972 54.136V59.488H119.956V54.136H122.068V67H119.956V61.264H112.972V67H110.86V54.136H112.972ZM128.134 61.984C128.134 62.128 128.126 62.336 128.11 62.608C128.11 62.864 128.102 63.144 128.086 63.448C128.07 63.736 128.054 64.016 128.038 64.288C128.022 64.544 128.006 64.752 127.99 64.912L134.878 54.136H137.47V67H135.502V59.416C135.502 59.16 135.502 58.824 135.502 58.408C135.518 57.992 135.534 57.584 135.55 57.184C135.566 56.768 135.582 56.456 135.598 56.248L128.758 67H126.142V54.136H128.134V61.984ZM142.355 67H139.907L143.579 61.6C143.083 61.472 142.603 61.272 142.139 61C141.675 60.712 141.299 60.32 141.011 59.824C140.723 59.312 140.579 58.68 140.579 57.928C140.579 56.696 140.995 55.76 141.827 55.12C142.659 54.464 143.763 54.136 145.139 54.136H150.899V67H148.787V61.888H145.667L142.355 67ZM142.619 57.952C142.619 58.688 142.891 59.24 143.435 59.608C143.995 59.96 144.771 60.136 145.763 60.136H148.787V55.888H145.355C144.379 55.888 143.675 56.08 143.243 56.464C142.827 56.848 142.619 57.344 142.619 57.952ZM157.538 64.48C157.394 65.04 157.21 65.648 156.986 66.304C156.762 66.96 156.514 67.608 156.242 68.248C155.986 68.904 155.73 69.52 155.474 70.096H153.914C154.074 69.488 154.226 68.832 154.37 68.128C154.53 67.44 154.674 66.76 154.802 66.088C154.93 65.4 155.034 64.776 155.114 64.216H157.37L157.538 64.48ZM172.498 53.92C174.066 53.92 175.226 54.264 175.978 54.952C176.73 55.64 177.106 56.736 177.106 58.24V67H175.57L175.162 65.176H175.066C174.698 65.64 174.314 66.032 173.914 66.352C173.53 66.656 173.082 66.88 172.57 67.024C172.074 67.168 171.466 67.24 170.746 67.24C169.978 67.24 169.282 67.104 168.658 66.832C168.05 66.56 167.57 66.144 167.218 65.584C166.866 65.008 166.69 64.288 166.69 63.424C166.69 62.144 167.194 61.16 168.202 60.472C169.21 59.768 170.762 59.384 172.858 59.32L175.042 59.248V58.48C175.042 57.408 174.81 56.664 174.346 56.248C173.882 55.832 173.226 55.624 172.378 55.624C171.706 55.624 171.066 55.728 170.458 55.936C169.85 56.128 169.282 56.352 168.754 56.608L168.106 55.024C168.666 54.72 169.33 54.464 170.098 54.256C170.866 54.032 171.666 53.92 172.498 53.92ZM173.122 60.784C171.522 60.848 170.41 61.104 169.786 61.552C169.178 62 168.874 62.632 168.874 63.448C168.874 64.168 169.09 64.696 169.522 65.032C169.97 65.368 170.538 65.536 171.226 65.536C172.314 65.536 173.218 65.24 173.938 64.648C174.658 64.04 175.018 63.112 175.018 61.864V60.712L173.122 60.784ZM13.224 93.544C13.224 94.616 13.08 95.568 12.792 96.4C12.52 97.216 12.12 97.912 11.592 98.488C11.08 99.064 10.448 99.504 9.696 99.808C8.96 100.096 8.136 100.24 7.224 100.24C6.376 100.24 5.592 100.096 4.872 99.808C4.152 99.504 3.528 99.064 3 98.488C2.472 97.912 2.056 97.216 1.752 96.4C1.464 95.568 1.32 94.616 1.32 93.544C1.32 92.12 1.56 90.92 2.04 89.944C2.52 88.952 3.208 88.2 4.104 87.688C5 87.16 6.064 86.896 7.296 86.896C8.464 86.896 9.488 87.16 10.368 87.688C11.264 88.2 11.96 88.952 12.456 89.944C12.968 90.92 13.224 92.12 13.224 93.544ZM3.504 93.544C3.504 94.552 3.632 95.432 3.888 96.184C4.16 96.92 4.576 97.488 5.136 97.888C5.696 98.288 6.408 98.488 7.272 98.488C8.136 98.488 8.848 98.288 9.408 97.888C9.968 97.488 10.376 96.92 10.632 96.184C10.904 95.432 11.04 94.552 11.04 93.544C11.04 92.52 10.904 91.648 10.632 90.928C10.36 90.208 9.944 89.656 9.384 89.272C8.84 88.872 8.128 88.672 7.248 88.672C5.936 88.672 4.984 89.104 4.392 89.968C3.8 90.832 3.504 92.024 3.504 93.544ZM15.8993 92.272C15.8993 90.4 16.0833 88.808 16.4513 87.496C16.8353 86.168 17.4193 85.112 18.2033 84.328C19.0033 83.528 20.0273 82.992 21.2753 82.72C22.3153 82.496 23.3313 82.296 24.3233 82.12C25.3153 81.944 26.2433 81.784 27.1073 81.64L27.4673 83.488C27.0513 83.552 26.5873 83.632 26.0753 83.728C25.5633 83.808 25.0433 83.896 24.5153 83.992C23.9873 84.072 23.4753 84.16 22.9793 84.256C22.4993 84.336 22.0753 84.416 21.7073 84.496C21.1793 84.608 20.7073 84.8 20.2913 85.072C19.8753 85.328 19.5153 85.68 19.2113 86.128C18.9233 86.576 18.6913 87.128 18.5153 87.784C18.3393 88.44 18.2353 89.216 18.2033 90.112H18.3473C18.5713 89.808 18.8753 89.496 19.2593 89.176C19.6593 88.856 20.1313 88.584 20.6753 88.36C21.2353 88.136 21.8673 88.024 22.5713 88.024C23.6913 88.024 24.6193 88.272 25.3553 88.768C26.1073 89.248 26.6673 89.92 27.0353 90.784C27.4193 91.648 27.6113 92.656 27.6113 93.808C27.6113 95.232 27.3633 96.424 26.8672 97.384C26.3713 98.344 25.6833 99.064 24.8033 99.544C23.9233 100.008 22.8993 100.24 21.7313 100.24C20.8513 100.24 20.0513 100.072 19.3313 99.736C18.6113 99.384 17.9953 98.872 17.4833 98.2C16.9713 97.528 16.5793 96.696 16.3073 95.704C16.0353 94.712 15.8993 93.568 15.8993 92.272ZM21.8993 98.488C22.6033 98.488 23.2113 98.344 23.7233 98.056C24.2513 97.768 24.6593 97.296 24.9473 96.64C25.2353 95.984 25.3793 95.112 25.3793 94.024C25.3793 92.712 25.1313 91.68 24.6353 90.928C24.1553 90.16 23.3553 89.776 22.2353 89.776C21.5313 89.776 20.8913 89.936 20.3153 90.256C19.7393 90.56 19.2593 90.912 18.8753 91.312C18.4913 91.712 18.2193 92.048 18.0592 92.32C18.0592 93.104 18.1153 93.864 18.2273 94.6C18.3393 95.336 18.5313 96 18.8033 96.592C19.0913 97.168 19.4833 97.632 19.9793 97.984C20.4913 98.32 21.1313 98.488 21.8993 98.488ZM42.1224 93.544C42.1224 94.616 41.9784 95.568 41.6904 96.4C41.4184 97.216 41.0184 97.912 40.4904 98.488C39.9784 99.064 39.3464 99.504 38.5944 99.808C37.8584 100.096 37.0344 100.24 36.1224 100.24C35.2744 100.24 34.4904 100.096 33.7704 99.808C33.0504 99.504 32.4264 99.064 31.8984 98.488C31.3704 97.912 30.9544 97.216 30.6504 96.4C30.3624 95.568 30.2184 94.616 30.2184 93.544C30.2184 92.12 30.4584 90.92 30.9384 89.944C31.4184 88.952 32.1064 88.2 33.0024 87.688C33.8984 87.16 34.9624 86.896 36.1944 86.896C37.3624 86.896 38.3864 87.16 39.2664 87.688C40.1624 88.2 40.8584 88.952 41.3544 89.944C41.8664 90.92 42.1224 92.12 42.1224 93.544ZM32.4024 93.544C32.4024 94.552 32.5304 95.432 32.7864 96.184C33.0584 96.92 33.4744 97.488 34.0344 97.888C34.5944 98.288 35.3064 98.488 36.1704 98.488C37.0344 98.488 37.7464 98.288 38.3064 97.888C38.8664 97.488 39.2744 96.92 39.5304 96.184C39.8024 95.432 39.9384 94.552 39.9384 93.544C39.9384 92.52 39.8024 91.648 39.5304 90.928C39.2584 90.208 38.8424 89.656 38.2824 89.272C37.7384 88.872 37.0264 88.672 36.1464 88.672C34.8344 88.672 33.8824 89.104 33.2904 89.968C32.6984 90.832 32.4024 92.024 32.4024 93.544ZM50.6297 100.24C49.4937 100.24 48.4777 100.008 47.5817 99.544C46.7017 99.08 46.0057 98.36 45.4937 97.384C44.9977 96.408 44.7497 95.16 44.7497 93.64C44.7497 92.056 45.0137 90.768 45.5417 89.776C46.0697 88.784 46.7817 88.056 47.6777 87.592C48.5897 87.128 49.6217 86.896 50.7737 86.896C51.4297 86.896 52.0617 86.968 52.6697 87.112C53.2777 87.24 53.7737 87.4 54.1577 87.592L53.5097 89.344C53.1257 89.2 52.6777 89.064 52.1657 88.936C51.6537 88.808 51.1737 88.744 50.7257 88.744C49.8617 88.744 49.1497 88.928 48.5897 89.296C48.0297 89.664 47.6137 90.208 47.3417 90.928C47.0697 91.648 46.9337 92.544 46.9337 93.616C46.9337 94.64 47.0697 95.512 47.3417 96.232C47.6137 96.952 48.0217 97.496 48.5657 97.864C49.1097 98.232 49.7897 98.416 50.6057 98.416C51.3097 98.416 51.9257 98.344 52.4537 98.2C52.9977 98.056 53.4937 97.88 53.9417 97.672V99.544C53.5097 99.768 53.0297 99.936 52.5017 100.048C51.9897 100.176 51.3657 100.24 50.6297 100.24ZM65.8809 88.912H61.6809V100H59.5929V88.912H55.4409V87.136H65.8809V88.912ZM74.535 86.896C76.119 86.896 77.391 87.448 78.351 88.552C79.327 89.656 79.815 91.32 79.815 93.544C79.815 95 79.591 96.232 79.143 97.24C78.711 98.232 78.095 98.984 77.295 99.496C76.511 99.992 75.583 100.24 74.511 100.24C73.855 100.24 73.271 100.152 72.759 99.976C72.247 99.8 71.807 99.576 71.439 99.304C71.087 99.016 70.783 98.704 70.527 98.368H70.383C70.415 98.64 70.447 98.984 70.479 99.4C70.511 99.816 70.527 100.176 70.527 100.48V105.76H68.415V87.136H70.143L70.431 88.888H70.527C70.783 88.52 71.087 88.184 71.439 87.88C71.807 87.576 72.239 87.336 72.735 87.16C73.247 86.984 73.847 86.896 74.535 86.896ZM74.151 88.672C73.287 88.672 72.591 88.84 72.063 89.176C71.535 89.496 71.151 89.984 70.911 90.64C70.671 91.296 70.543 92.128 70.527 93.136V93.544C70.527 94.6 70.639 95.496 70.863 96.232C71.087 96.968 71.463 97.528 71.991 97.912C72.535 98.296 73.271 98.488 74.199 98.488C74.983 98.488 75.623 98.272 76.119 97.84C76.631 97.408 77.007 96.824 77.247 96.088C77.503 95.336 77.631 94.48 77.631 93.52C77.631 92.048 77.343 90.872 76.767 89.992C76.207 89.112 75.335 88.672 74.151 88.672ZM88.1486 86.896C89.2526 86.896 90.1966 87.136 90.9806 87.616C91.7806 88.096 92.3886 88.776 92.8046 89.656C93.2366 90.52 93.4526 91.536 93.4526 92.704V93.976H84.6446C84.6766 95.432 85.0446 96.544 85.7486 97.312C86.4686 98.064 87.4686 98.44 88.7486 98.44C89.5646 98.44 90.2846 98.368 90.9086 98.224C91.5486 98.064 92.2046 97.84 92.8766 97.552V99.4C92.2206 99.688 91.5726 99.896 90.9326 100.024C90.2926 100.168 89.5326 100.24 88.6526 100.24C87.4366 100.24 86.3566 99.992 85.4126 99.496C84.4846 99 83.7566 98.264 83.2286 97.288C82.7166 96.296 82.4606 95.088 82.4606 93.664C82.4606 92.256 82.6926 91.048 83.1566 90.04C83.6366 89.032 84.3006 88.256 85.1486 87.712C86.0126 87.168 87.0126 86.896 88.1486 86.896ZM88.1246 88.624C87.1166 88.624 86.3166 88.952 85.7246 89.608C85.1486 90.248 84.8046 91.144 84.6926 92.296H91.2446C91.2446 91.56 91.1326 90.92 90.9086 90.376C90.6846 89.832 90.3406 89.408 89.8766 89.104C89.4286 88.784 88.8446 88.624 88.1246 88.624ZM98.8395 87.136V92.488H105.824V87.136H107.936V100H105.824V94.264H98.8395V100H96.7275V87.136H98.8395ZM114.001 94.984C114.001 95.128 113.993 95.336 113.977 95.608C113.977 95.864 113.969 96.144 113.953 96.448C113.937 96.736 113.921 97.016 113.905 97.288C113.889 97.544 113.873 97.752 113.857 97.912L120.745 87.136H123.337V100H121.369V92.416C121.369 92.16 121.369 91.824 121.369 91.408C121.385 90.992 121.401 90.584 121.417 90.184C121.433 89.768 121.449 89.456 121.465 89.248L114.625 100H112.009V87.136H114.001V94.984ZM128.223 100H125.775L129.447 94.6C128.951 94.472 128.471 94.272 128.007 94C127.543 93.712 127.167 93.32 126.879 92.824C126.591 92.312 126.447 91.68 126.447 90.928C126.447 89.696 126.863 88.76 127.695 88.12C128.527 87.464 129.631 87.136 131.007 87.136H136.767V100H134.655V94.888H131.535L128.223 100ZM128.487 90.952C128.487 91.688 128.759 92.24 129.303 92.608C129.863 92.96 130.639 93.136 131.631 93.136H134.655V88.888H131.223C130.247 88.888 129.543 89.08 129.111 89.464C128.695 89.848 128.487 90.344 128.487 90.952ZM142.157 94.528C142.157 93.92 142.213 93.4 142.325 92.968C142.453 92.52 142.661 92.096 142.949 91.696C143.253 91.296 143.661 90.88 144.173 90.448C144.797 89.92 145.277 89.48 145.613 89.128C145.965 88.776 146.213 88.432 146.357 88.096C146.501 87.76 146.573 87.352 146.573 86.872C146.573 86.104 146.325 85.512 145.829 85.096C145.333 84.68 144.613 84.472 143.669 84.472C142.885 84.472 142.189 84.576 141.581 84.784C140.973 84.976 140.389 85.208 139.829 85.48L139.085 83.8C139.725 83.464 140.429 83.184 141.197 82.96C141.981 82.736 142.853 82.624 143.813 82.624C145.333 82.624 146.509 83 147.341 83.752C148.173 84.504 148.589 85.528 148.589 86.824C148.589 87.544 148.469 88.16 148.229 88.672C148.005 89.168 147.677 89.632 147.245 90.064C146.829 90.48 146.333 90.928 145.757 91.408C145.229 91.856 144.821 92.248 144.533 92.584C144.261 92.92 144.077 93.256 143.981 93.592C143.885 93.912 143.837 94.304 143.837 94.768V95.176H142.157V94.528ZM141.605 98.704C141.605 98.112 141.741 97.696 142.013 97.456C142.301 97.216 142.661 97.096 143.093 97.096C143.493 97.096 143.837 97.216 144.125 97.456C144.413 97.696 144.557 98.112 144.557 98.704C144.557 99.28 144.413 99.696 144.125 99.952C143.837 100.208 143.493 100.336 143.093 100.336C142.661 100.336 142.301 100.208 142.013 99.952C141.741 99.696 141.605 99.28 141.605 98.704Z" fill="#01457A"/>
<path d="M0 114.5H254.139L295 50.5L254.139 1" stroke="url(#paint1_linear_0_6025)" stroke-width="3"/>
<defs>
<linearGradient id="paint0_linear_0_6025" x1="295" y1="50.2293" x2="2.95041e-07" y2="50.2293" gradientUnits="userSpaceOnUse">
<stop stop-color="#D8EFFF"/>
<stop offset="1" stop-color="white"/>
</linearGradient>
<linearGradient id="paint1_linear_0_6025" x1="295" y1="1.00001" x2="-10.2769" y2="66.874" gradientUnits="userSpaceOnUse">
<stop stop-color="#01457A"/>
<stop offset="0.432292" stop-color="#43A7C7"/>
<stop offset="0.744792" stop-color="#BCD77E"/>
<stop offset="1" stop-color="#BCD77E" stop-opacity="0"/>
</linearGradient>
</defs>
</svg>
