<svg width="80" height="80" viewBox="0 0 80 80" fill="none" xmlns="http://www.w3.org/2000/svg">
<path d="M0 0H40C62.0914 0 80 17.9086 80 40C80 62.0914 62.0914 80 40 80C17.9086 80 0 62.0914 0 40V0Z" fill="url(#paint0_linear_0_5994)"/>
<path d="M52.7402 58.3442H26.3582C22.7607 58.3442 19.8484 55.4319 19.8484 51.8344C19.8484 49.6073 22.5037 48.2368 23.3603 47.8086L34.0672 43.0975C34.9238 42.9262 35.2664 42.6692 35.2664 41.47C34.3242 40.3565 30.5554 35.6454 30.5554 31.6196C30.5554 25.4524 34.6668 20.4844 39.8062 20.4844C44.9455 20.4844 49.057 25.4524 49.057 31.534C49.057 35.5598 45.1168 40.3565 44.1746 41.47C44.089 42.7549 44.3459 42.9262 45.1168 43.1831L55.6525 46.8663C57.4513 47.5516 59.1644 49.9499 59.1644 51.7487C59.25 55.4319 56.3377 58.3442 52.7402 58.3442ZM34.5812 44.8106L24.0455 49.436C22.8463 50.0356 21.5615 50.9778 21.5615 51.92C21.5615 54.5754 23.7029 56.7168 26.3582 56.7168H52.7402C55.3955 56.7168 57.5369 54.5754 57.5369 51.92C57.5369 50.8065 56.2521 49.0934 55.1386 48.6651L44.6886 44.8963C42.7185 44.211 42.3758 42.9262 42.5472 41.1274V40.8704L42.7185 40.6991C42.8041 40.6135 47.3439 35.4741 47.3439 31.7053C47.3439 26.6516 43.9177 22.3688 39.8062 22.3688C35.6947 22.3688 32.2685 26.6516 32.2685 31.7909C32.2685 35.5598 36.7226 40.6991 36.7226 40.6991L36.8939 40.9561V41.2131C37.0652 43.2688 36.3799 44.2967 34.5812 44.8106Z" fill="#01457A"/>
<defs>
<linearGradient id="paint0_linear_0_5994" x1="-1.42492e-06" y1="32.5" x2="80" y2="32.5" gradientUnits="userSpaceOnUse">
<stop stop-color="#FDD966"/>
<stop offset="0.685406" stop-color="#BCD77E"/>
</linearGradient>
</defs>
</svg>
