<svg width="178" height="146" viewBox="0 0 178 146" fill="none" xmlns="http://www.w3.org/2000/svg">
<path d="M56.2613 74.8237V96.9593H51.3864C50.2004 96.9593 49.1467 95.9051 49.1467 94.8513V77.0638C49.1467 75.8778 50.2009 74.8241 51.3864 74.8241L56.2613 74.8237Z" fill="#01457A"/>
<path d="M121.087 5.78143L120.691 9.33872L98.6876 6.70353L99.0831 3.14625C99.2148 1.43315 100.796 0.379408 102.377 0.511058L118.583 2.48745C120.164 2.75079 121.35 4.20054 121.087 5.78143H121.087Z" fill="#01457A"/>
<path d="M125.171 19.089L117.003 87.8674C115.948 96.3001 108.965 102.493 100.533 102.493L65.3529 102.493C63.3765 102.493 61.7956 100.912 61.7956 98.9358V72.9792C61.7956 71.0028 63.3765 69.4219 65.3529 69.4219H80.1099L79.3195 76.4054C79.1878 77.9863 80.2416 79.3039 81.823 79.5677H82.2185C83.6677 79.5677 84.722 78.5135 84.9853 77.0642L92.3637 15.269C92.6271 13.2926 94.3401 11.9751 96.3165 12.1067L122.273 15.1374C123.986 15.2686 125.435 17.1133 125.172 19.0897L125.171 19.089Z" fill="#01457A"/>
<path d="M4.61158 81.2798C7.24677 81.2798 9.22316 83.3878 9.22316 85.8914C9.22316 88.5266 7.11512 90.5029 4.61158 90.5029C1.97639 90.5029 0 88.3949 0 85.8914C0 83.3878 2.10804 81.2798 4.61158 81.2798Z" fill="#01457A"/>
<path d="M18.7098 82.3335C20.8179 82.3335 22.3993 84.0466 22.3993 86.023C22.3993 88.131 20.6862 89.7125 18.7098 89.7125C16.6018 89.7125 15.0204 87.9994 15.0204 86.023C14.8891 83.9149 16.6017 82.3335 18.7098 82.3335Z" fill="#01457A"/>
<path d="M33.5987 86.0232C33.5987 87.5514 32.36 88.79 30.8318 88.79C29.3037 88.79 28.065 87.5514 28.065 86.0232C28.065 84.495 29.3037 83.2563 30.8318 83.2563C32.36 83.2563 33.5987 84.495 33.5987 86.0232Z" fill="#01457A"/>
<path d="M41.1089 84.1782C42.1632 84.1782 42.9537 84.9687 42.9537 86.023C42.9537 87.0772 42.1632 87.8677 41.1089 87.8677C40.0547 87.8677 39.2642 87.0772 39.2642 86.023C39.2646 84.9687 40.0551 84.1782 41.1089 84.1782Z" fill="#01457A"/>
<path d="M5.402 75.3505C2.89846 74.6917 1.44922 72.1881 2.10802 69.6846C2.76681 67.1811 5.27035 65.7318 7.77389 66.3906C10.2774 67.0494 11.7267 69.6846 11.0679 72.0565C10.5407 74.5596 7.90554 76.0093 5.402 75.3505Z" fill="#01457A"/>
<path d="M19.2368 78.1176C17.2604 77.5905 16.0745 75.4824 16.6016 73.506C17.1288 71.5297 19.2368 70.3437 21.2132 70.8709C23.1896 71.398 24.3755 73.506 23.8484 75.4824C23.3213 77.4588 21.2132 78.6448 19.2368 78.1176Z" fill="#01457A"/>
<path d="M31.227 80.3572C29.7778 79.9617 28.8551 78.3808 29.2506 76.9315C29.6461 75.4823 31.227 74.5597 32.6762 74.9552C34.1255 75.3506 35.0481 76.9315 34.6526 78.3808C34.2576 79.83 32.6767 80.7527 31.227 80.3572Z" fill="#01457A"/>
<path d="M41.3725 82.0702C40.3182 81.8068 39.7916 80.7526 40.0549 79.8305C40.3182 78.7762 41.3725 78.2496 42.2946 78.5129C43.3488 78.7762 43.8755 79.8305 43.6122 80.7526C43.3488 81.8064 42.2946 82.3335 41.3725 82.0702Z" fill="#01457A"/>
<path d="M5.402 96.5635C7.90554 95.9047 10.4091 97.3539 11.0679 99.8575C11.7267 102.361 10.2774 104.865 7.77389 105.523C5.27037 106.182 2.76681 104.733 2.10801 102.229C1.44922 99.8575 2.89848 97.354 5.402 96.5635Z" fill="#01457A"/>
<path d="M19.2368 93.9285C21.2132 93.4013 23.3212 94.5873 23.8484 96.5637C24.3755 98.54 23.1896 100.648 21.2132 101.175C19.2368 101.702 17.1288 100.516 16.6016 98.54C16.0745 96.432 17.2604 94.4556 19.2368 93.9285Z" fill="#01457A"/>
<path d="M31.227 91.6885C32.6762 91.2931 34.2577 92.2157 34.6526 93.6649C35.0481 95.1142 34.1255 96.6956 32.6762 97.0906C31.227 97.486 29.6456 96.5634 29.2506 95.1142C28.8556 93.5333 29.6461 92.0839 31.227 91.6885Z" fill="#01457A"/>
<path d="M41.3725 89.844C42.4267 89.5806 43.3488 90.1073 43.6121 91.1616C43.8755 92.2158 43.3488 93.1379 42.2945 93.4012C41.2403 93.6646 40.3182 93.1379 40.0549 92.0837C39.7911 91.1615 40.3182 90.1073 41.3725 89.844Z" fill="#01457A"/>
<circle cx="138" cy="105.5" r="40" fill="url(#paint0_linear_0_6109)"/>
<path d="M148.794 95.908C148.794 98.276 148.074 100.164 146.634 101.572C145.226 102.98 143.482 103.94 141.402 104.452V104.596C144.154 104.916 146.234 105.748 147.642 107.092C149.082 108.436 149.802 110.244 149.802 112.516C149.802 114.5 149.306 116.292 148.314 117.892C147.354 119.46 145.85 120.708 143.802 121.636C141.786 122.532 139.178 122.98 135.978 122.98C132.266 122.98 128.97 122.356 126.09 121.108V114.964C127.562 115.7 129.098 116.26 130.698 116.644C132.33 117.028 133.834 117.22 135.21 117.22C137.802 117.22 139.61 116.772 140.634 115.876C141.69 114.98 142.218 113.716 142.218 112.084C142.218 111.124 141.978 110.324 141.498 109.684C141.018 109.012 140.17 108.516 138.954 108.196C137.77 107.844 136.106 107.668 133.962 107.668H131.37V102.1H134.01C136.122 102.1 137.722 101.908 138.81 101.524C139.93 101.108 140.682 100.564 141.066 99.892C141.482 99.188 141.69 98.388 141.69 97.492C141.69 96.276 141.306 95.332 140.538 94.66C139.802 93.956 138.554 93.604 136.794 93.604C135.162 93.604 133.738 93.892 132.522 94.468C131.338 95.012 130.33 95.556 129.498 96.1L126.138 91.108C127.482 90.148 129.05 89.348 130.842 88.708C132.666 88.068 134.826 87.748 137.322 87.748C140.842 87.748 143.626 88.468 145.674 89.908C147.754 91.316 148.794 93.316 148.794 95.908Z" fill="#01457A"/>
<defs>
<linearGradient id="paint0_linear_0_6109" x1="98" y1="98" x2="178" y2="98" gradientUnits="userSpaceOnUse">
<stop stop-color="#FDD966"/>
<stop offset="0.685406" stop-color="#BCD77E"/>
</linearGradient>
</defs>
</svg>
