<svg width="767" height="133" viewBox="0 0 767 133" fill="none" xmlns="http://www.w3.org/2000/svg">
<path d="M2.328 26.5V9.364H12.504V11.26H4.488V16.612H7.032C8.744 16.612 10.072 16.828 11.016 17.26C11.96 17.676 12.616 18.252 12.984 18.988C13.352 19.708 13.536 20.54 13.536 21.484C13.536 22.524 13.328 23.42 12.912 24.172C12.512 24.924 11.856 25.5 10.944 25.9C10.032 26.3 8.832 26.5 7.344 26.5H2.328ZM7.128 24.652C8.664 24.652 9.744 24.396 10.368 23.884C10.992 23.356 11.304 22.556 11.304 21.484C11.304 20.748 11.152 20.164 10.848 19.732C10.56 19.284 10.08 18.964 9.408 18.772C8.752 18.58 7.872 18.484 6.768 18.484H4.488V24.652H7.128ZM27.9896 20.044C27.9896 21.116 27.8456 22.068 27.5576 22.9C27.2856 23.716 26.8856 24.412 26.3576 24.988C25.8456 25.564 25.2136 26.004 24.4616 26.308C23.7256 26.596 22.9016 26.74 21.9896 26.74C21.1416 26.74 20.3576 26.596 19.6376 26.308C18.9176 26.004 18.2936 25.564 17.7656 24.988C17.2376 24.412 16.8216 23.716 16.5176 22.9C16.2296 22.068 16.0856 21.116 16.0856 20.044C16.0856 18.62 16.3256 17.42 16.8056 16.444C17.2856 15.452 17.9736 14.7 18.8696 14.188C19.7656 13.66 20.8296 13.396 22.0616 13.396C23.2296 13.396 24.2536 13.66 25.1336 14.188C26.0296 14.7 26.7256 15.452 27.2216 16.444C27.7336 17.42 27.9896 18.62 27.9896 20.044ZM18.2696 20.044C18.2696 21.052 18.3976 21.932 18.6536 22.684C18.9256 23.42 19.3416 23.988 19.9016 24.388C20.4616 24.788 21.1736 24.988 22.0376 24.988C22.9016 24.988 23.6136 24.788 24.1736 24.388C24.7336 23.988 25.1416 23.42 25.3976 22.684C25.6696 21.932 25.8056 21.052 25.8056 20.044C25.8056 19.02 25.6696 18.148 25.3976 17.428C25.1256 16.708 24.7096 16.156 24.1496 15.772C23.6056 15.372 22.8936 15.172 22.0136 15.172C20.7016 15.172 19.7496 15.604 19.1576 16.468C18.5656 17.332 18.2696 18.524 18.2696 20.044ZM41.1289 26.5H38.9929V15.388H35.2009C35.0409 17.42 34.8409 19.156 34.6009 20.596C34.3609 22.02 34.0569 23.18 33.6889 24.076C33.3209 24.972 32.8809 25.628 32.3689 26.044C31.8569 26.46 31.2569 26.668 30.5689 26.668C30.3609 26.668 30.1529 26.652 29.9449 26.62C29.7529 26.604 29.5929 26.564 29.4649 26.5V24.916C29.5609 24.948 29.6649 24.972 29.7769 24.988C29.8889 25.004 30.0009 25.012 30.1129 25.012C30.4649 25.012 30.7849 24.868 31.0729 24.58C31.3609 24.292 31.6169 23.852 31.8409 23.26C32.0809 22.668 32.2969 21.924 32.4889 21.028C32.6809 20.116 32.8489 19.044 32.9929 17.812C33.1369 16.58 33.2649 15.188 33.3769 13.636H41.1289V26.5ZM51.1399 18.916C52.2599 18.916 53.1879 19.052 53.9239 19.324C54.6599 19.596 55.2119 20.004 55.5799 20.548C55.9639 21.076 56.1559 21.748 56.1559 22.564C56.1559 23.364 55.9719 24.06 55.6039 24.652C55.2519 25.244 54.6999 25.7 53.9479 26.02C53.1959 26.34 52.2279 26.5 51.0439 26.5H45.2119V13.636H47.3239V18.916H51.1399ZM54.0439 22.684C54.0439 21.9 53.7639 21.372 53.2039 21.1C52.6599 20.812 51.8919 20.668 50.8999 20.668H47.3239V24.796H50.9479C51.8439 24.796 52.5799 24.636 53.1559 24.316C53.7479 23.996 54.0439 23.452 54.0439 22.684ZM76.9099 13.636V26.5H59.4619V13.636H61.5739V24.724H67.1179V13.636H69.2299V24.724H74.7979V13.636H76.9099ZM83.0164 21.484C83.0164 21.628 83.0084 21.836 82.9924 22.108C82.9924 22.364 82.9844 22.644 82.9684 22.948C82.9524 23.236 82.9364 23.516 82.9204 23.788C82.9044 24.044 82.8884 24.252 82.8724 24.412L89.7604 13.636H92.3524V26.5H90.3844V18.916C90.3844 18.66 90.3844 18.324 90.3844 17.908C90.4004 17.492 90.4164 17.084 90.4324 16.684C90.4484 16.268 90.4644 15.956 90.4804 15.748L83.6404 26.5H81.0244V13.636H83.0164V21.484ZM98.5583 13.636V18.988H105.542V13.636H107.654V26.5H105.542V20.764H98.5583V26.5H96.4463V13.636H98.5583ZM116.888 26.74C115.752 26.74 114.736 26.508 113.84 26.044C112.96 25.58 112.264 24.86 111.752 23.884C111.256 22.908 111.008 21.66 111.008 20.14C111.008 18.556 111.272 17.268 111.8 16.276C112.328 15.284 113.04 14.556 113.936 14.092C114.848 13.628 115.88 13.396 117.032 13.396C117.688 13.396 118.32 13.468 118.928 13.612C119.536 13.74 120.032 13.9 120.416 14.092L119.768 15.844C119.384 15.7 118.936 15.564 118.424 15.436C117.912 15.308 117.432 15.244 116.984 15.244C116.12 15.244 115.408 15.428 114.848 15.796C114.288 16.164 113.872 16.708 113.6 17.428C113.328 18.148 113.192 19.044 113.192 20.116C113.192 21.14 113.328 22.012 113.6 22.732C113.872 23.452 114.28 23.996 114.824 24.364C115.368 24.732 116.048 24.916 116.864 24.916C117.568 24.916 118.184 24.844 118.712 24.7C119.256 24.556 119.752 24.38 120.2 24.172V26.044C119.768 26.268 119.288 26.436 118.76 26.548C118.248 26.676 117.624 26.74 116.888 26.74ZM132.139 15.412H127.939V26.5H125.851V15.412H121.699V13.636H132.139V15.412ZM145.017 16.876C145.017 17.676 144.777 18.3 144.297 18.748C143.817 19.196 143.201 19.5 142.449 19.66V19.756C143.249 19.868 143.945 20.156 144.537 20.62C145.129 21.068 145.425 21.772 145.425 22.732C145.425 23.276 145.321 23.78 145.113 24.244C144.921 24.708 144.617 25.108 144.201 25.444C143.785 25.78 143.249 26.044 142.593 26.236C141.937 26.412 141.145 26.5 140.217 26.5H134.673V13.636H140.193C141.105 13.636 141.921 13.74 142.641 13.948C143.377 14.14 143.953 14.476 144.369 14.956C144.801 15.42 145.017 16.06 145.017 16.876ZM143.241 22.732C143.241 21.996 142.961 21.468 142.401 21.148C141.841 20.828 141.017 20.668 139.929 20.668H136.785V24.796H139.977C141.033 24.796 141.841 24.644 142.401 24.34C142.961 24.02 143.241 23.484 143.241 22.732ZM142.881 17.14C142.881 16.532 142.657 16.092 142.209 15.82C141.777 15.532 141.065 15.388 140.073 15.388H136.785V18.916H139.689C140.729 18.916 141.521 18.772 142.065 18.484C142.609 18.196 142.881 17.748 142.881 17.14ZM159.685 20.044C159.685 21.116 159.541 22.068 159.253 22.9C158.981 23.716 158.581 24.412 158.053 24.988C157.541 25.564 156.909 26.004 156.157 26.308C155.421 26.596 154.597 26.74 153.685 26.74C152.837 26.74 152.053 26.596 151.333 26.308C150.613 26.004 149.989 25.564 149.461 24.988C148.933 24.412 148.517 23.716 148.213 22.9C147.925 22.068 147.781 21.116 147.781 20.044C147.781 18.62 148.021 17.42 148.501 16.444C148.981 15.452 149.669 14.7 150.565 14.188C151.461 13.66 152.525 13.396 153.757 13.396C154.925 13.396 155.949 13.66 156.829 14.188C157.725 14.7 158.421 15.452 158.917 16.444C159.429 17.42 159.685 18.62 159.685 20.044ZM149.965 20.044C149.965 21.052 150.093 21.932 150.349 22.684C150.621 23.42 151.037 23.988 151.597 24.388C152.157 24.788 152.869 24.988 153.733 24.988C154.597 24.988 155.309 24.788 155.869 24.388C156.429 23.988 156.837 23.42 157.093 22.684C157.365 21.932 157.501 21.052 157.501 20.044C157.501 19.02 157.365 18.148 157.093 17.428C156.821 16.708 156.405 16.156 155.845 15.772C155.301 15.372 154.589 15.172 153.709 15.172C152.397 15.172 151.445 15.604 150.853 16.468C150.261 17.332 149.965 18.524 149.965 20.044ZM180.139 13.636V26.5H178.027V15.436H171.379V26.5H169.267V13.636H180.139ZM189.115 13.42C190.683 13.42 191.843 13.764 192.595 14.452C193.347 15.14 193.723 16.236 193.723 17.74V26.5H192.187L191.779 24.676H191.683C191.315 25.14 190.931 25.532 190.531 25.852C190.147 26.156 189.699 26.38 189.187 26.524C188.691 26.668 188.083 26.74 187.363 26.74C186.595 26.74 185.899 26.604 185.275 26.332C184.667 26.06 184.187 25.644 183.835 25.084C183.483 24.508 183.307 23.788 183.307 22.924C183.307 21.644 183.811 20.66 184.819 19.972C185.827 19.268 187.379 18.884 189.475 18.82L191.659 18.748V17.98C191.659 16.908 191.427 16.164 190.963 15.748C190.499 15.332 189.843 15.124 188.995 15.124C188.323 15.124 187.683 15.228 187.075 15.436C186.467 15.628 185.899 15.852 185.371 16.108L184.723 14.524C185.283 14.22 185.947 13.964 186.715 13.756C187.483 13.532 188.283 13.42 189.115 13.42ZM189.739 20.284C188.139 20.348 187.027 20.604 186.403 21.052C185.795 21.5 185.491 22.132 185.491 22.948C185.491 23.668 185.707 24.196 186.139 24.532C186.587 24.868 187.155 25.036 187.843 25.036C188.931 25.036 189.835 24.74 190.555 24.148C191.275 23.54 191.635 22.612 191.635 21.364V20.212L189.739 20.284ZM210.392 30.964H208.328V26.5H197.696V13.636H199.808V24.724H206.456V13.636H208.568V24.748H210.392V30.964ZM214.852 21.484C214.852 21.628 214.844 21.836 214.828 22.108C214.828 22.364 214.82 22.644 214.804 22.948C214.788 23.236 214.772 23.516 214.756 23.788C214.74 24.044 214.724 24.252 214.708 24.412L221.596 13.636H224.188V26.5H222.22V18.916C222.22 18.66 222.22 18.324 222.22 17.908C222.236 17.492 222.252 17.084 222.268 16.684C222.284 16.268 222.3 15.956 222.316 15.748L215.476 26.5H212.86V13.636H214.852V21.484ZM233.25 13.396C234.354 13.396 235.298 13.636 236.082 14.116C236.882 14.596 237.49 15.276 237.906 16.156C238.338 17.02 238.554 18.036 238.554 19.204V20.476H229.746C229.778 21.932 230.146 23.044 230.85 23.812C231.57 24.564 232.57 24.94 233.85 24.94C234.666 24.94 235.386 24.868 236.01 24.724C236.65 24.564 237.306 24.34 237.978 24.052V25.9C237.322 26.188 236.674 26.396 236.034 26.524C235.394 26.668 234.634 26.74 233.754 26.74C232.538 26.74 231.458 26.492 230.514 25.996C229.586 25.5 228.858 24.764 228.33 23.788C227.818 22.796 227.562 21.588 227.562 20.164C227.562 18.756 227.794 17.548 228.258 16.54C228.738 15.532 229.402 14.756 230.25 14.212C231.114 13.668 232.114 13.396 233.25 13.396ZM233.226 15.124C232.218 15.124 231.418 15.452 230.826 16.108C230.25 16.748 229.906 17.644 229.794 18.796H236.346C236.346 18.06 236.234 17.42 236.01 16.876C235.786 16.332 235.442 15.908 234.978 15.604C234.53 15.284 233.946 15.124 233.226 15.124ZM243.941 13.636V18.988H250.925V13.636H253.037V26.5H250.925V20.764H243.941V26.5H241.829V13.636H243.941ZM265.99 15.412H261.79V26.5H259.702V15.412H255.55V13.636H265.99V15.412ZM279.474 20.044C279.474 21.116 279.33 22.068 279.042 22.9C278.77 23.716 278.37 24.412 277.842 24.988C277.33 25.564 276.698 26.004 275.946 26.308C275.21 26.596 274.386 26.74 273.474 26.74C272.626 26.74 271.842 26.596 271.122 26.308C270.402 26.004 269.778 25.564 269.25 24.988C268.722 24.412 268.306 23.716 268.002 22.9C267.714 22.068 267.57 21.116 267.57 20.044C267.57 18.62 267.81 17.42 268.29 16.444C268.77 15.452 269.458 14.7 270.354 14.188C271.25 13.66 272.314 13.396 273.546 13.396C274.714 13.396 275.738 13.66 276.618 14.188C277.514 14.7 278.21 15.452 278.706 16.444C279.218 17.42 279.474 18.62 279.474 20.044ZM269.754 20.044C269.754 21.052 269.882 21.932 270.138 22.684C270.41 23.42 270.826 23.988 271.386 24.388C271.946 24.788 272.658 24.988 273.522 24.988C274.386 24.988 275.098 24.788 275.658 24.388C276.218 23.988 276.626 23.42 276.882 22.684C277.154 21.932 277.29 21.052 277.29 20.044C277.29 19.02 277.154 18.148 276.882 17.428C276.61 16.708 276.194 16.156 275.634 15.772C275.09 15.372 274.378 15.172 273.498 15.172C272.186 15.172 271.234 15.604 270.642 16.468C270.05 17.332 269.754 18.524 269.754 20.044ZM293.165 16.876C293.165 17.676 292.925 18.3 292.445 18.748C291.965 19.196 291.349 19.5 290.597 19.66V19.756C291.397 19.868 292.093 20.156 292.685 20.62C293.277 21.068 293.573 21.772 293.573 22.732C293.573 23.276 293.469 23.78 293.261 24.244C293.069 24.708 292.765 25.108 292.349 25.444C291.933 25.78 291.397 26.044 290.741 26.236C290.085 26.412 289.293 26.5 288.365 26.5H282.821V13.636H288.341C289.253 13.636 290.069 13.74 290.789 13.948C291.525 14.14 292.101 14.476 292.517 14.956C292.949 15.42 293.165 16.06 293.165 16.876ZM291.389 22.732C291.389 21.996 291.109 21.468 290.549 21.148C289.989 20.828 289.165 20.668 288.077 20.668H284.933V24.796H288.125C289.181 24.796 289.989 24.644 290.549 24.34C291.109 24.02 291.389 23.484 291.389 22.732ZM291.029 17.14C291.029 16.532 290.805 16.092 290.357 15.82C289.925 15.532 289.213 15.388 288.221 15.388H284.933V18.916H287.837C288.877 18.916 289.669 18.772 290.213 18.484C290.757 18.196 291.029 17.748 291.029 17.14ZM308.044 26.74C306.908 26.74 305.892 26.508 304.996 26.044C304.116 25.58 303.42 24.86 302.908 23.884C302.412 22.908 302.164 21.66 302.164 20.14C302.164 18.556 302.428 17.268 302.956 16.276C303.484 15.284 304.196 14.556 305.092 14.092C306.004 13.628 307.036 13.396 308.188 13.396C308.844 13.396 309.476 13.468 310.084 13.612C310.692 13.74 311.188 13.9 311.572 14.092L310.924 15.844C310.54 15.7 310.092 15.564 309.58 15.436C309.068 15.308 308.588 15.244 308.14 15.244C307.276 15.244 306.564 15.428 306.004 15.796C305.444 16.164 305.028 16.708 304.756 17.428C304.484 18.148 304.348 19.044 304.348 20.116C304.348 21.14 304.484 22.012 304.756 22.732C305.028 23.452 305.436 23.996 305.98 24.364C306.524 24.732 307.204 24.916 308.02 24.916C308.724 24.916 309.34 24.844 309.868 24.7C310.412 24.556 310.908 24.38 311.356 24.172V26.044C310.924 26.268 310.444 26.436 309.916 26.548C309.404 26.676 308.78 26.74 308.044 26.74ZM332.577 26.5H330.129L325.593 19.06L320.985 26.5H318.705L324.393 17.572L319.065 9.364H321.465L325.665 16.084L329.889 9.364H332.169L326.865 17.524L332.577 26.5ZM349.483 17.908C349.483 19.236 349.315 20.444 348.979 21.532C348.643 22.604 348.139 23.532 347.467 24.316C346.811 25.1 345.987 25.7 344.995 26.116C344.019 26.532 342.883 26.74 341.587 26.74C340.243 26.74 339.075 26.532 338.083 26.116C337.091 25.684 336.267 25.084 335.611 24.316C334.955 23.532 334.467 22.596 334.147 21.508C333.827 20.42 333.667 19.212 333.667 17.884C333.667 16.124 333.955 14.588 334.531 13.276C335.107 11.964 335.979 10.94 337.147 10.204C338.331 9.468 339.819 9.1 341.611 9.1C343.323 9.1 344.763 9.468 345.931 10.204C347.099 10.924 347.979 11.948 348.571 13.276C349.179 14.588 349.483 16.132 349.483 17.908ZM335.947 17.908C335.947 19.348 336.147 20.588 336.547 21.628C336.947 22.668 337.563 23.468 338.395 24.028C339.243 24.588 340.307 24.868 341.587 24.868C342.883 24.868 343.939 24.588 344.755 24.028C345.587 23.468 346.203 22.668 346.603 21.628C347.003 20.588 347.203 19.348 347.203 17.908C347.203 15.748 346.755 14.06 345.859 12.844C344.963 11.612 343.547 10.996 341.611 10.996C340.315 10.996 339.243 11.276 338.395 11.836C337.563 12.38 336.947 13.172 336.547 14.212C336.147 15.236 335.947 16.468 335.947 17.908ZM353.281 26.5V9.364H363.457V11.26H355.441V16.612H357.985C359.697 16.612 361.025 16.828 361.969 17.26C362.913 17.676 363.569 18.252 363.937 18.988C364.305 19.708 364.489 20.54 364.489 21.484C364.489 22.524 364.281 23.42 363.865 24.172C363.465 24.924 362.809 25.5 361.897 25.9C360.985 26.3 359.785 26.5 358.297 26.5H353.281ZM358.081 24.652C359.617 24.652 360.697 24.396 361.321 23.884C361.945 23.356 362.257 22.556 362.257 21.484C362.257 20.748 362.105 20.164 361.801 19.732C361.513 19.284 361.033 18.964 360.361 18.772C359.705 18.58 358.825 18.484 357.721 18.484H355.441V24.652H358.081ZM380.383 26.5H378.223V11.26H372.799C372.687 12.14 372.567 13.068 372.439 14.044C372.311 15.004 372.175 15.956 372.031 16.9C371.903 17.844 371.775 18.732 371.647 19.564C371.519 20.396 371.391 21.124 371.263 21.748C371.055 22.82 370.799 23.732 370.495 24.484C370.191 25.236 369.783 25.804 369.271 26.188C368.775 26.572 368.119 26.764 367.303 26.764C367.031 26.764 366.751 26.732 366.463 26.668C366.191 26.62 365.951 26.556 365.743 26.476V24.676C365.919 24.756 366.119 24.828 366.343 24.892C366.567 24.94 366.807 24.964 367.063 24.964C367.543 24.964 367.919 24.772 368.191 24.388C368.479 23.988 368.703 23.5 368.863 22.924C369.023 22.332 369.159 21.748 369.271 21.172C369.367 20.708 369.479 20.092 369.607 19.324C369.735 18.54 369.871 17.628 370.015 16.588C370.175 15.548 370.335 14.42 370.495 13.204C370.671 11.972 370.839 10.692 370.999 9.364H380.383V26.5ZM396.145 26.74C395.009 26.74 393.993 26.508 393.097 26.044C392.217 25.58 391.521 24.86 391.009 23.884C390.513 22.908 390.265 21.66 390.265 20.14C390.265 18.556 390.529 17.268 391.057 16.276C391.585 15.284 392.297 14.556 393.193 14.092C394.105 13.628 395.137 13.396 396.289 13.396C396.945 13.396 397.577 13.468 398.185 13.612C398.793 13.74 399.289 13.9 399.673 14.092L399.025 15.844C398.641 15.7 398.193 15.564 397.681 15.436C397.169 15.308 396.689 15.244 396.241 15.244C395.377 15.244 394.665 15.428 394.105 15.796C393.545 16.164 393.129 16.708 392.857 17.428C392.585 18.148 392.449 19.044 392.449 20.116C392.449 21.14 392.585 22.012 392.857 22.732C393.129 23.452 393.537 23.996 394.081 24.364C394.625 24.732 395.305 24.916 396.121 24.916C396.825 24.916 397.441 24.844 397.969 24.7C398.513 24.556 399.009 24.38 399.457 24.172V26.044C399.025 26.268 398.545 26.436 398.017 26.548C397.505 26.676 396.881 26.74 396.145 26.74ZM411.397 15.412H407.197V26.5H405.109V15.412H400.957V13.636H411.397V15.412ZM424.88 20.044C424.88 21.116 424.736 22.068 424.448 22.9C424.176 23.716 423.776 24.412 423.248 24.988C422.736 25.564 422.104 26.004 421.352 26.308C420.616 26.596 419.792 26.74 418.88 26.74C418.032 26.74 417.248 26.596 416.528 26.308C415.808 26.004 415.184 25.564 414.656 24.988C414.128 24.412 413.712 23.716 413.408 22.9C413.12 22.068 412.976 21.116 412.976 20.044C412.976 18.62 413.216 17.42 413.696 16.444C414.176 15.452 414.864 14.7 415.76 14.188C416.656 13.66 417.72 13.396 418.952 13.396C420.12 13.396 421.144 13.66 422.024 14.188C422.92 14.7 423.616 15.452 424.112 16.444C424.624 17.42 424.88 18.62 424.88 20.044ZM415.16 20.044C415.16 21.052 415.288 21.932 415.544 22.684C415.816 23.42 416.232 23.988 416.792 24.388C417.352 24.788 418.064 24.988 418.928 24.988C419.792 24.988 420.504 24.788 421.064 24.388C421.624 23.988 422.032 23.42 422.288 22.684C422.56 21.932 422.696 21.052 422.696 20.044C422.696 19.02 422.56 18.148 422.288 17.428C422.016 16.708 421.6 16.156 421.04 15.772C420.496 15.372 419.784 15.172 418.904 15.172C417.592 15.172 416.64 15.604 416.048 16.468C415.456 17.332 415.16 18.524 415.16 20.044ZM438.02 26.5H435.884V15.388H432.092C431.932 17.42 431.732 19.156 431.492 20.596C431.252 22.02 430.948 23.18 430.58 24.076C430.212 24.972 429.772 25.628 429.26 26.044C428.748 26.46 428.148 26.668 427.46 26.668C427.252 26.668 427.044 26.652 426.836 26.62C426.644 26.604 426.484 26.564 426.356 26.5V24.916C426.452 24.948 426.556 24.972 426.668 24.988C426.78 25.004 426.892 25.012 427.004 25.012C427.356 25.012 427.676 24.868 427.964 24.58C428.252 24.292 428.508 23.852 428.732 23.26C428.972 22.668 429.188 21.924 429.38 21.028C429.572 20.116 429.74 19.044 429.884 17.812C430.028 16.58 430.156 15.188 430.268 13.636H438.02V26.5ZM449.711 13.636H452.015L446.519 19.828L452.471 26.5H450.023L444.215 19.972V26.5H442.103V13.636H444.215V19.876L449.711 13.636ZM456.918 13.636V18.988H463.902V13.636H466.014V26.5H463.902V20.764H456.918V26.5H454.806V13.636H456.918ZM475.055 13.396C476.159 13.396 477.103 13.636 477.887 14.116C478.687 14.596 479.295 15.276 479.711 16.156C480.143 17.02 480.359 18.036 480.359 19.204V20.476H471.551C471.583 21.932 471.951 23.044 472.655 23.812C473.375 24.564 474.375 24.94 475.655 24.94C476.471 24.94 477.191 24.868 477.815 24.724C478.455 24.564 479.111 24.34 479.783 24.052V25.9C479.127 26.188 478.479 26.396 477.839 26.524C477.199 26.668 476.439 26.74 475.559 26.74C474.343 26.74 473.263 26.492 472.319 25.996C471.391 25.5 470.663 24.764 470.135 23.788C469.623 22.796 469.367 21.588 469.367 20.164C469.367 18.756 469.599 17.548 470.063 16.54C470.543 15.532 471.207 14.756 472.055 14.212C472.919 13.668 473.919 13.396 475.055 13.396ZM475.031 15.124C474.023 15.124 473.223 15.452 472.631 16.108C472.055 16.748 471.711 17.644 471.599 18.796H478.151C478.151 18.06 478.039 17.42 477.815 16.876C477.591 16.332 477.247 15.908 476.783 15.604C476.335 15.284 475.751 15.124 475.031 15.124ZM492.514 15.412H488.314V26.5H486.226V15.412H482.074V13.636H492.514V15.412ZM499.973 26.74C498.837 26.74 497.821 26.508 496.925 26.044C496.045 25.58 495.349 24.86 494.837 23.884C494.341 22.908 494.093 21.66 494.093 20.14C494.093 18.556 494.357 17.268 494.885 16.276C495.413 15.284 496.125 14.556 497.021 14.092C497.933 13.628 498.965 13.396 500.117 13.396C500.773 13.396 501.405 13.468 502.013 13.612C502.621 13.74 503.117 13.9 503.501 14.092L502.853 15.844C502.469 15.7 502.021 15.564 501.509 15.436C500.997 15.308 500.517 15.244 500.069 15.244C499.205 15.244 498.493 15.428 497.933 15.796C497.373 16.164 496.957 16.708 496.685 17.428C496.413 18.148 496.277 19.044 496.277 20.116C496.277 21.14 496.413 22.012 496.685 22.732C496.957 23.452 497.365 23.996 497.909 24.364C498.453 24.732 499.133 24.916 499.949 24.916C500.653 24.916 501.269 24.844 501.797 24.7C502.341 24.556 502.837 24.38 503.285 24.172V26.044C502.853 26.268 502.373 26.436 501.845 26.548C501.333 26.676 500.709 26.74 499.973 26.74ZM507.137 26.5H504.689L508.361 21.1C507.865 20.972 507.385 20.772 506.921 20.5C506.457 20.212 506.081 19.82 505.793 19.324C505.505 18.812 505.361 18.18 505.361 17.428C505.361 16.196 505.777 15.26 506.609 14.62C507.441 13.964 508.545 13.636 509.921 13.636H515.681V26.5H513.569V21.388H510.449L507.137 26.5ZM507.401 17.452C507.401 18.188 507.673 18.74 508.217 19.108C508.777 19.46 509.553 19.636 510.545 19.636H513.569V15.388H510.137C509.161 15.388 508.457 15.58 508.025 15.964C507.609 16.348 507.401 16.844 507.401 17.452ZM531.145 26.74C530.009 26.74 528.993 26.508 528.097 26.044C527.217 25.58 526.521 24.86 526.009 23.884C525.513 22.908 525.265 21.66 525.265 20.14C525.265 18.556 525.529 17.268 526.057 16.276C526.585 15.284 527.297 14.556 528.193 14.092C529.105 13.628 530.137 13.396 531.289 13.396C531.945 13.396 532.577 13.468 533.185 13.612C533.793 13.74 534.289 13.9 534.673 14.092L534.025 15.844C533.641 15.7 533.193 15.564 532.681 15.436C532.169 15.308 531.689 15.244 531.241 15.244C530.377 15.244 529.665 15.428 529.105 15.796C528.545 16.164 528.129 16.708 527.857 17.428C527.585 18.148 527.449 19.044 527.449 20.116C527.449 21.14 527.585 22.012 527.857 22.732C528.129 23.452 528.537 23.996 529.081 24.364C529.625 24.732 530.305 24.916 531.121 24.916C531.825 24.916 532.441 24.844 532.969 24.7C533.513 24.556 534.009 24.38 534.457 24.172V26.044C534.025 26.268 533.545 26.436 533.017 26.548C532.505 26.676 531.881 26.74 531.145 26.74ZM554.935 20.044C554.935 21.116 554.791 22.068 554.503 22.9C554.231 23.716 553.831 24.412 553.303 24.988C552.791 25.564 552.159 26.004 551.407 26.308C550.671 26.596 549.847 26.74 548.935 26.74C548.087 26.74 547.303 26.596 546.583 26.308C545.863 26.004 545.239 25.564 544.711 24.988C544.183 24.412 543.767 23.716 543.463 22.9C543.175 22.068 543.031 21.116 543.031 20.044C543.031 18.62 543.271 17.42 543.751 16.444C544.231 15.452 544.919 14.7 545.815 14.188C546.711 13.66 547.775 13.396 549.007 13.396C550.175 13.396 551.199 13.66 552.079 14.188C552.975 14.7 553.671 15.452 554.167 16.444C554.679 17.42 554.935 18.62 554.935 20.044ZM545.215 20.044C545.215 21.052 545.343 21.932 545.599 22.684C545.871 23.42 546.287 23.988 546.847 24.388C547.407 24.788 548.119 24.988 548.983 24.988C549.847 24.988 550.559 24.788 551.119 24.388C551.679 23.988 552.087 23.42 552.343 22.684C552.615 21.932 552.751 21.052 552.751 20.044C552.751 19.02 552.615 18.148 552.343 17.428C552.071 16.708 551.655 16.156 551.095 15.772C550.551 15.372 549.839 15.172 548.959 15.172C547.647 15.172 546.695 15.604 546.103 16.468C545.511 17.332 545.215 18.524 545.215 20.044ZM557.61 18.772C557.61 16.9 557.794 15.308 558.162 13.996C558.546 12.668 559.13 11.612 559.914 10.828C560.714 10.028 561.738 9.492 562.986 9.22C564.026 8.996 565.042 8.796 566.034 8.62C567.026 8.444 567.954 8.284 568.818 8.14L569.178 9.988C568.762 10.052 568.298 10.132 567.786 10.228C567.274 10.308 566.754 10.396 566.226 10.492C565.698 10.572 565.186 10.66 564.69 10.756C564.21 10.836 563.786 10.916 563.418 10.996C562.89 11.108 562.418 11.3 562.002 11.572C561.586 11.828 561.226 12.18 560.922 12.628C560.634 13.076 560.402 13.628 560.226 14.284C560.05 14.94 559.946 15.716 559.914 16.612H560.058C560.282 16.308 560.586 15.996 560.97 15.676C561.37 15.356 561.842 15.084 562.386 14.86C562.946 14.636 563.578 14.524 564.282 14.524C565.402 14.524 566.33 14.772 567.066 15.268C567.818 15.748 568.378 16.42 568.746 17.284C569.13 18.148 569.322 19.156 569.322 20.308C569.322 21.732 569.074 22.924 568.578 23.884C568.082 24.844 567.394 25.564 566.514 26.044C565.634 26.508 564.61 26.74 563.442 26.74C562.562 26.74 561.762 26.572 561.042 26.236C560.322 25.884 559.706 25.372 559.194 24.7C558.682 24.028 558.29 23.196 558.018 22.204C557.746 21.212 557.61 20.068 557.61 18.772ZM563.61 24.988C564.314 24.988 564.922 24.844 565.434 24.556C565.962 24.268 566.37 23.796 566.658 23.14C566.946 22.484 567.09 21.612 567.09 20.524C567.09 19.212 566.842 18.18 566.346 17.428C565.866 16.66 565.066 16.276 563.946 16.276C563.242 16.276 562.602 16.436 562.026 16.756C561.45 17.06 560.97 17.412 560.586 17.812C560.202 18.212 559.93 18.548 559.77 18.82C559.77 19.604 559.826 20.364 559.938 21.1C560.05 21.836 560.242 22.5 560.514 23.092C560.802 23.668 561.194 24.132 561.69 24.484C562.202 24.82 562.842 24.988 563.61 24.988ZM583.833 20.044C583.833 21.116 583.689 22.068 583.401 22.9C583.129 23.716 582.729 24.412 582.201 24.988C581.689 25.564 581.057 26.004 580.305 26.308C579.569 26.596 578.745 26.74 577.833 26.74C576.985 26.74 576.201 26.596 575.481 26.308C574.761 26.004 574.137 25.564 573.609 24.988C573.081 24.412 572.665 23.716 572.361 22.9C572.073 22.068 571.929 21.116 571.929 20.044C571.929 18.62 572.169 17.42 572.649 16.444C573.129 15.452 573.817 14.7 574.713 14.188C575.609 13.66 576.673 13.396 577.905 13.396C579.073 13.396 580.097 13.66 580.977 14.188C581.873 14.7 582.569 15.452 583.065 16.444C583.577 17.42 583.833 18.62 583.833 20.044ZM574.113 20.044C574.113 21.052 574.241 21.932 574.497 22.684C574.769 23.42 575.185 23.988 575.745 24.388C576.305 24.788 577.017 24.988 577.881 24.988C578.745 24.988 579.457 24.788 580.017 24.388C580.577 23.988 580.985 23.42 581.241 22.684C581.513 21.932 581.649 21.052 581.649 20.044C581.649 19.02 581.513 18.148 581.241 17.428C580.969 16.708 580.553 16.156 579.993 15.772C579.449 15.372 578.737 15.172 577.857 15.172C576.545 15.172 575.593 15.604 575.001 16.468C574.409 17.332 574.113 18.524 574.113 20.044ZM592.341 26.74C591.205 26.74 590.189 26.508 589.293 26.044C588.413 25.58 587.717 24.86 587.205 23.884C586.709 22.908 586.461 21.66 586.461 20.14C586.461 18.556 586.725 17.268 587.253 16.276C587.781 15.284 588.493 14.556 589.389 14.092C590.301 13.628 591.333 13.396 592.485 13.396C593.141 13.396 593.773 13.468 594.381 13.612C594.989 13.74 595.485 13.9 595.869 14.092L595.221 15.844C594.837 15.7 594.389 15.564 593.877 15.436C593.365 15.308 592.885 15.244 592.437 15.244C591.573 15.244 590.861 15.428 590.301 15.796C589.741 16.164 589.325 16.708 589.053 17.428C588.781 18.148 588.645 19.044 588.645 20.116C588.645 21.14 588.781 22.012 589.053 22.732C589.325 23.452 589.733 23.996 590.277 24.364C590.821 24.732 591.501 24.916 592.317 24.916C593.021 24.916 593.637 24.844 594.165 24.7C594.709 24.556 595.205 24.38 595.653 24.172V26.044C595.221 26.268 594.741 26.436 594.213 26.548C593.701 26.676 593.077 26.74 592.341 26.74ZM607.592 15.412H603.392V26.5H601.304V15.412H597.152V13.636H607.592V15.412ZM616.246 13.396C617.83 13.396 619.102 13.948 620.062 15.052C621.038 16.156 621.526 17.82 621.526 20.044C621.526 21.5 621.302 22.732 620.854 23.74C620.422 24.732 619.806 25.484 619.006 25.996C618.222 26.492 617.294 26.74 616.222 26.74C615.566 26.74 614.982 26.652 614.47 26.476C613.958 26.3 613.518 26.076 613.15 25.804C612.798 25.516 612.494 25.204 612.238 24.868H612.094C612.126 25.14 612.158 25.484 612.19 25.9C612.222 26.316 612.238 26.676 612.238 26.98V32.26H610.126V13.636H611.854L612.142 15.388H612.238C612.494 15.02 612.798 14.684 613.15 14.38C613.518 14.076 613.95 13.836 614.446 13.66C614.958 13.484 615.558 13.396 616.246 13.396ZM615.862 15.172C614.998 15.172 614.302 15.34 613.774 15.676C613.246 15.996 612.862 16.484 612.622 17.14C612.382 17.796 612.254 18.628 612.238 19.636V20.044C612.238 21.1 612.35 21.996 612.574 22.732C612.798 23.468 613.174 24.028 613.702 24.412C614.246 24.796 614.982 24.988 615.91 24.988C616.694 24.988 617.334 24.772 617.83 24.34C618.342 23.908 618.718 23.324 618.958 22.588C619.214 21.836 619.342 20.98 619.342 20.02C619.342 18.548 619.054 17.372 618.478 16.492C617.918 15.612 617.046 15.172 615.862 15.172ZM629.86 13.396C630.964 13.396 631.908 13.636 632.692 14.116C633.492 14.596 634.1 15.276 634.516 16.156C634.948 17.02 635.164 18.036 635.164 19.204V20.476H626.356C626.388 21.932 626.756 23.044 627.46 23.812C628.18 24.564 629.18 24.94 630.46 24.94C631.276 24.94 631.996 24.868 632.62 24.724C633.26 24.564 633.916 24.34 634.588 24.052V25.9C633.932 26.188 633.284 26.396 632.644 26.524C632.004 26.668 631.244 26.74 630.364 26.74C629.148 26.74 628.068 26.492 627.124 25.996C626.196 25.5 625.468 24.764 624.94 23.788C624.428 22.796 624.172 21.588 624.172 20.164C624.172 18.756 624.404 17.548 624.868 16.54C625.348 15.532 626.012 14.756 626.86 14.212C627.724 13.668 628.724 13.396 629.86 13.396ZM629.836 15.124C628.828 15.124 628.028 15.452 627.436 16.108C626.86 16.748 626.516 17.644 626.404 18.796H632.956C632.956 18.06 632.844 17.42 632.62 16.876C632.396 16.332 632.052 15.908 631.588 15.604C631.14 15.284 630.556 15.124 629.836 15.124ZM640.55 13.636V18.988H647.534V13.636H649.646V26.5H647.534V20.764H640.55V26.5H638.438V13.636H640.55ZM655.712 21.484C655.712 21.628 655.704 21.836 655.688 22.108C655.688 22.364 655.68 22.644 655.664 22.948C655.648 23.236 655.632 23.516 655.616 23.788C655.6 24.044 655.584 24.252 655.568 24.412L662.456 13.636H665.048V26.5H663.08V18.916C663.08 18.66 663.08 18.324 663.08 17.908C663.096 17.492 663.112 17.084 663.128 16.684C663.144 16.268 663.16 15.956 663.176 15.748L656.336 26.5H653.72V13.636H655.712V21.484ZM669.934 26.5H667.486L671.158 21.1C670.662 20.972 670.182 20.772 669.718 20.5C669.254 20.212 668.878 19.82 668.59 19.324C668.302 18.812 668.158 18.18 668.158 17.428C668.158 16.196 668.574 15.26 669.406 14.62C670.238 13.964 671.342 13.636 672.718 13.636H678.478V26.5H676.366V21.388H673.246L669.934 26.5ZM670.198 17.452C670.198 18.188 670.47 18.74 671.014 19.108C671.574 19.46 672.35 19.636 673.342 19.636H676.366V15.388H672.934C671.958 15.388 671.254 15.58 670.822 15.964C670.406 16.348 670.198 16.844 670.198 17.452ZM696.348 13.636V26.5H694.452V18.292C694.452 17.956 694.46 17.604 694.476 17.236C694.508 16.868 694.54 16.508 694.572 16.156H694.5L690.3 26.5H688.524L684.444 16.156H684.372C684.404 16.508 684.42 16.868 684.42 17.236C684.436 17.604 684.444 17.98 684.444 18.364V26.5H682.548V13.636H685.356L689.412 23.98L693.54 13.636H696.348ZM702.446 21.484C702.446 21.628 702.438 21.836 702.422 22.108C702.422 22.364 702.414 22.644 702.398 22.948C702.382 23.236 702.366 23.516 702.35 23.788C702.334 24.044 702.318 24.252 702.302 24.412L709.19 13.636H711.782V26.5H709.814V18.916C709.814 18.66 709.814 18.324 709.814 17.908C709.83 17.492 709.846 17.084 709.862 16.684C709.878 16.268 709.894 15.956 709.91 15.748L703.07 26.5H700.454V13.636H702.446V21.484ZM715.564 25.204C715.564 24.612 715.708 24.196 715.996 23.956C716.284 23.716 716.628 23.596 717.028 23.596C717.444 23.596 717.796 23.716 718.084 23.956C718.388 24.196 718.54 24.612 718.54 25.204C718.54 25.78 718.388 26.196 718.084 26.452C717.796 26.708 717.444 26.836 717.028 26.836C716.628 26.836 716.284 26.708 715.996 26.452C715.708 26.196 715.564 25.78 715.564 25.204ZM715.564 14.932C715.564 14.324 715.708 13.9 715.996 13.66C716.284 13.42 716.628 13.3 717.028 13.3C717.444 13.3 717.796 13.42 718.084 13.66C718.388 13.9 718.54 14.324 718.54 14.932C718.54 15.508 718.388 15.924 718.084 16.18C717.796 16.436 717.444 16.564 717.028 16.564C716.628 16.564 716.284 16.436 715.996 16.18C715.708 15.924 715.564 15.508 715.564 14.932ZM9.648 46.636H11.952L6.456 52.828L12.408 59.5H9.96L4.152 52.972V59.5H2.04V46.636H4.152V52.876L9.648 46.636ZM19.6151 46.42C21.1831 46.42 22.3431 46.764 23.0951 47.452C23.8471 48.14 24.2231 49.236 24.2231 50.74V59.5H22.6871L22.2791 57.676H22.1831C21.8151 58.14 21.4311 58.532 21.0311 58.852C20.6471 59.156 20.1991 59.38 19.6871 59.524C19.1911 59.668 18.5831 59.74 17.8631 59.74C17.0951 59.74 16.3991 59.604 15.7751 59.332C15.1671 59.06 14.6871 58.644 14.3351 58.084C13.9831 57.508 13.8071 56.788 13.8071 55.924C13.8071 54.644 14.3111 53.66 15.3191 52.972C16.3271 52.268 17.8791 51.884 19.9751 51.82L22.1591 51.748V50.98C22.1591 49.908 21.9271 49.164 21.4631 48.748C20.9991 48.332 20.3431 48.124 19.4951 48.124C18.8231 48.124 18.1831 48.228 17.5751 48.436C16.9671 48.628 16.3991 48.852 15.8711 49.108L15.2231 47.524C15.7831 47.22 16.4471 46.964 17.2151 46.756C17.9831 46.532 18.7831 46.42 19.6151 46.42ZM20.2391 53.284C18.6391 53.348 17.5271 53.604 16.9031 54.052C16.2951 54.5 15.9911 55.132 15.9911 55.948C15.9911 56.668 16.2071 57.196 16.6391 57.532C17.0871 57.868 17.6551 58.036 18.3431 58.036C19.4311 58.036 20.3351 57.74 21.0551 57.148C21.7751 56.54 22.1351 55.612 22.1351 54.364V53.212L20.2391 53.284ZM35.8043 46.636H38.1083L32.6123 52.828L38.5643 59.5H36.1163L30.3083 52.972V59.5H28.1963V46.636H30.3083V52.876L35.8043 46.636ZM60.9338 46.636V59.5H59.0378V51.292C59.0378 50.956 59.0458 50.604 59.0618 50.236C59.0938 49.868 59.1258 49.508 59.1578 49.156H59.0858L54.8858 59.5H53.1098L49.0298 49.156H48.9578C48.9898 49.508 49.0058 49.868 49.0058 50.236C49.0218 50.604 49.0298 50.98 49.0298 51.364V59.5H47.1338V46.636H49.9418L53.9978 56.98L58.1258 46.636H60.9338ZM67.032 54.484C67.032 54.628 67.024 54.836 67.008 55.108C67.008 55.364 67 55.644 66.984 55.948C66.968 56.236 66.952 56.516 66.936 56.788C66.92 57.044 66.904 57.252 66.888 57.412L73.776 46.636H76.368V59.5H74.4V51.916C74.4 51.66 74.4 51.324 74.4 50.908C74.416 50.492 74.432 50.084 74.448 49.684C74.464 49.268 74.48 48.956 74.496 48.748L67.656 59.5H65.04V46.636H67.032V54.484ZM82.5739 46.636V51.988H89.5579V46.636H91.6699V59.5H89.5579V53.764H82.5739V59.5H80.4619V46.636H82.5739ZM97.7351 54.484C97.7351 54.628 97.7271 54.836 97.7111 55.108C97.7111 55.364 97.7031 55.644 97.6871 55.948C97.6711 56.236 97.6551 56.516 97.6391 56.788C97.6231 57.044 97.6071 57.252 97.5911 57.412L104.479 46.636H107.071V59.5H105.103V51.916C105.103 51.66 105.103 51.324 105.103 50.908C105.119 50.492 105.135 50.084 105.151 49.684C105.167 49.268 105.183 48.956 105.199 48.748L98.3591 59.5H95.7431V46.636H97.7351V54.484ZM124.965 46.636V59.5H123.069V51.292C123.069 50.956 123.077 50.604 123.093 50.236C123.125 49.868 123.157 49.508 123.189 49.156H123.117L118.917 59.5H117.141L113.061 49.156H112.989C113.021 49.508 113.037 49.868 113.037 50.236C113.053 50.604 113.061 50.98 113.061 51.364V59.5H111.165V46.636H113.973L118.029 56.98L122.157 46.636H124.965ZM127.055 46.636H129.311L132.095 53.956C132.255 54.388 132.399 54.804 132.527 55.204C132.671 55.604 132.799 55.996 132.911 56.38C133.023 56.748 133.111 57.108 133.175 57.46H133.271C133.367 57.06 133.519 56.54 133.727 55.9C133.935 55.244 134.151 54.588 134.375 53.932L136.991 46.636H139.271L133.727 61.276C133.423 62.076 133.063 62.772 132.647 63.364C132.247 63.972 131.751 64.436 131.159 64.756C130.583 65.092 129.879 65.26 129.047 65.26C128.663 65.26 128.327 65.236 128.039 65.188C127.751 65.156 127.503 65.116 127.295 65.068V63.388C127.471 63.42 127.679 63.452 127.919 63.484C128.175 63.516 128.439 63.532 128.711 63.532C129.207 63.532 129.631 63.436 129.983 63.244C130.351 63.068 130.663 62.804 130.919 62.452C131.175 62.116 131.391 61.716 131.567 61.252L132.239 59.548L127.055 46.636ZM155.106 46.636V59.5H153.21V51.292C153.21 50.956 153.218 50.604 153.234 50.236C153.266 49.868 153.298 49.508 153.33 49.156H153.258L149.058 59.5H147.282L143.202 49.156H143.13C143.162 49.508 143.178 49.868 143.178 50.236C143.194 50.604 143.202 50.98 143.202 51.364V59.5H141.306V46.636H144.114L148.17 56.98L152.298 46.636H155.106ZM176.63 53.044C176.63 54.116 176.486 55.068 176.198 55.9C175.926 56.716 175.526 57.412 174.998 57.988C174.486 58.564 173.854 59.004 173.102 59.308C172.366 59.596 171.542 59.74 170.63 59.74C169.782 59.74 168.998 59.596 168.278 59.308C167.558 59.004 166.934 58.564 166.406 57.988C165.878 57.412 165.462 56.716 165.158 55.9C164.87 55.068 164.726 54.116 164.726 53.044C164.726 51.62 164.966 50.42 165.446 49.444C165.926 48.452 166.614 47.7 167.51 47.188C168.406 46.66 169.47 46.396 170.702 46.396C171.87 46.396 172.894 46.66 173.774 47.188C174.67 47.7 175.366 48.452 175.862 49.444C176.374 50.42 176.63 51.62 176.63 53.044ZM166.91 53.044C166.91 54.052 167.038 54.932 167.294 55.684C167.566 56.42 167.982 56.988 168.542 57.388C169.102 57.788 169.814 57.988 170.678 57.988C171.542 57.988 172.254 57.788 172.814 57.388C173.374 56.988 173.782 56.42 174.038 55.684C174.31 54.932 174.446 54.052 174.446 53.044C174.446 52.02 174.31 51.148 174.038 50.428C173.766 49.708 173.35 49.156 172.79 48.772C172.246 48.372 171.534 48.172 170.654 48.172C169.342 48.172 168.39 48.604 167.798 49.468C167.206 50.332 166.91 51.524 166.91 53.044ZM189.53 46.636V57.724H191.402V63.964H189.362V59.5H180.41V63.964H178.394V57.724H179.426C180.162 56.7 180.77 55.588 181.25 54.388C181.746 53.172 182.114 51.908 182.354 50.596C182.61 49.268 182.746 47.948 182.762 46.636H189.53ZM184.634 48.292C184.57 49.38 184.402 50.508 184.13 51.676C183.858 52.828 183.506 53.932 183.074 54.988C182.658 56.044 182.17 56.956 181.61 57.724H187.49V48.292H184.634ZM196.035 46.636V51.988H203.019V46.636H205.131V59.5H203.019V53.764H196.035V59.5H193.923V46.636H196.035ZM220.388 53.044C220.388 54.116 220.244 55.068 219.956 55.9C219.684 56.716 219.284 57.412 218.756 57.988C218.244 58.564 217.612 59.004 216.86 59.308C216.124 59.596 215.3 59.74 214.388 59.74C213.54 59.74 212.756 59.596 212.036 59.308C211.316 59.004 210.692 58.564 210.164 57.988C209.636 57.412 209.22 56.716 208.916 55.9C208.628 55.068 208.484 54.116 208.484 53.044C208.484 51.62 208.724 50.42 209.204 49.444C209.684 48.452 210.372 47.7 211.268 47.188C212.164 46.66 213.228 46.396 214.46 46.396C215.628 46.396 216.652 46.66 217.532 47.188C218.428 47.7 219.124 48.452 219.62 49.444C220.132 50.42 220.388 51.62 220.388 53.044ZM210.668 53.044C210.668 54.052 210.796 54.932 211.052 55.684C211.324 56.42 211.74 56.988 212.3 57.388C212.86 57.788 213.572 57.988 214.436 57.988C215.3 57.988 216.012 57.788 216.572 57.388C217.132 56.988 217.54 56.42 217.796 55.684C218.068 54.932 218.204 54.052 218.204 53.044C218.204 52.02 218.068 51.148 217.796 50.428C217.524 49.708 217.108 49.156 216.548 48.772C216.004 48.372 215.292 48.172 214.412 48.172C213.1 48.172 212.148 48.604 211.556 49.468C210.964 50.332 210.668 51.524 210.668 53.044ZM235.13 59.74C233.994 59.74 232.978 59.508 232.082 59.044C231.202 58.58 230.506 57.86 229.994 56.884C229.498 55.908 229.25 54.66 229.25 53.14C229.25 51.556 229.514 50.268 230.042 49.276C230.57 48.284 231.282 47.556 232.178 47.092C233.09 46.628 234.122 46.396 235.274 46.396C235.93 46.396 236.562 46.468 237.17 46.612C237.778 46.74 238.274 46.9 238.658 47.092L238.01 48.844C237.626 48.7 237.178 48.564 236.666 48.436C236.154 48.308 235.674 48.244 235.226 48.244C234.362 48.244 233.65 48.428 233.09 48.796C232.53 49.164 232.114 49.708 231.842 50.428C231.57 51.148 231.434 52.044 231.434 53.116C231.434 54.14 231.57 55.012 231.842 55.732C232.114 56.452 232.522 56.996 233.066 57.364C233.61 57.732 234.29 57.916 235.106 57.916C235.81 57.916 236.426 57.844 236.954 57.7C237.498 57.556 237.994 57.38 238.442 57.172V59.044C238.01 59.268 237.53 59.436 237.002 59.548C236.49 59.676 235.866 59.74 235.13 59.74ZM247.621 46.396C249.205 46.396 250.477 46.948 251.437 48.052C252.413 49.156 252.901 50.82 252.901 53.044C252.901 54.5 252.677 55.732 252.229 56.74C251.797 57.732 251.181 58.484 250.381 58.996C249.597 59.492 248.669 59.74 247.597 59.74C246.941 59.74 246.357 59.652 245.845 59.476C245.333 59.3 244.893 59.076 244.525 58.804C244.173 58.516 243.869 58.204 243.613 57.868H243.469C243.501 58.14 243.533 58.484 243.565 58.9C243.597 59.316 243.613 59.676 243.613 59.98V65.26H241.501V46.636H243.229L243.517 48.388H243.613C243.869 48.02 244.173 47.684 244.525 47.38C244.893 47.076 245.325 46.836 245.821 46.66C246.333 46.484 246.933 46.396 247.621 46.396ZM247.237 48.172C246.373 48.172 245.677 48.34 245.149 48.676C244.621 48.996 244.237 49.484 243.997 50.14C243.757 50.796 243.629 51.628 243.613 52.636V53.044C243.613 54.1 243.725 54.996 243.949 55.732C244.173 56.468 244.549 57.028 245.077 57.412C245.621 57.796 246.357 57.988 247.285 57.988C248.069 57.988 248.709 57.772 249.205 57.34C249.717 56.908 250.093 56.324 250.333 55.588C250.589 54.836 250.717 53.98 250.717 53.02C250.717 51.548 250.429 50.372 249.853 49.492C249.293 48.612 248.421 48.172 247.237 48.172ZM261.235 46.396C262.339 46.396 263.283 46.636 264.067 47.116C264.867 47.596 265.475 48.276 265.891 49.156C266.323 50.02 266.539 51.036 266.539 52.204V53.476H257.731C257.763 54.932 258.131 56.044 258.835 56.812C259.555 57.564 260.555 57.94 261.835 57.94C262.651 57.94 263.371 57.868 263.995 57.724C264.635 57.564 265.291 57.34 265.963 57.052V58.9C265.307 59.188 264.659 59.396 264.019 59.524C263.379 59.668 262.619 59.74 261.739 59.74C260.523 59.74 259.443 59.492 258.499 58.996C257.571 58.5 256.843 57.764 256.315 56.788C255.803 55.796 255.547 54.588 255.547 53.164C255.547 51.756 255.779 50.548 256.243 49.54C256.723 48.532 257.387 47.756 258.235 47.212C259.099 46.668 260.099 46.396 261.235 46.396ZM261.211 48.124C260.203 48.124 259.403 48.452 258.811 49.108C258.235 49.748 257.891 50.644 257.779 51.796H264.331C264.331 51.06 264.219 50.42 263.995 49.876C263.771 49.332 263.427 48.908 262.963 48.604C262.515 48.284 261.931 48.124 261.211 48.124ZM279.365 46.636V57.724H281.237V63.964H279.197V59.5H270.245V63.964H268.229V57.724H269.261C269.997 56.7 270.605 55.588 271.085 54.388C271.581 53.172 271.949 51.908 272.189 50.596C272.445 49.268 272.581 47.948 272.597 46.636H279.365ZM274.469 48.292C274.405 49.38 274.237 50.508 273.965 51.676C273.693 52.828 273.341 53.932 272.909 54.988C272.493 56.044 272.005 56.956 271.445 57.724H277.325V48.292H274.469ZM285.871 46.636V51.988H292.855V46.636H294.967V59.5H292.855V53.764H285.871V59.5H283.759V46.636H285.871ZM304.008 46.396C305.112 46.396 306.056 46.636 306.84 47.116C307.64 47.596 308.248 48.276 308.664 49.156C309.096 50.02 309.312 51.036 309.312 52.204V53.476H300.504C300.536 54.932 300.904 56.044 301.608 56.812C302.328 57.564 303.328 57.94 304.608 57.94C305.424 57.94 306.144 57.868 306.768 57.724C307.408 57.564 308.064 57.34 308.736 57.052V58.9C308.08 59.188 307.432 59.396 306.792 59.524C306.152 59.668 305.392 59.74 304.512 59.74C303.296 59.74 302.216 59.492 301.272 58.996C300.344 58.5 299.616 57.764 299.088 56.788C298.576 55.796 298.32 54.588 298.32 53.164C298.32 51.756 298.552 50.548 299.016 49.54C299.496 48.532 300.16 47.756 301.008 47.212C301.872 46.668 302.872 46.396 304.008 46.396ZM303.984 48.124C302.976 48.124 302.176 48.452 301.584 49.108C301.008 49.748 300.664 50.644 300.552 51.796H307.104C307.104 51.06 306.992 50.42 306.768 49.876C306.544 49.332 306.2 48.908 305.736 48.604C305.288 48.284 304.704 48.124 303.984 48.124ZM321.467 48.412H317.267V59.5H315.179V48.412H311.027V46.636H321.467V48.412ZM324.793 59.5H322.345L326.017 54.1C325.521 53.972 325.041 53.772 324.577 53.5C324.113 53.212 323.737 52.82 323.449 52.324C323.161 51.812 323.017 51.18 323.017 50.428C323.017 49.196 323.433 48.26 324.265 47.62C325.097 46.964 326.201 46.636 327.577 46.636H333.337V59.5H331.225V54.388H328.105L324.793 59.5ZM325.057 50.452C325.057 51.188 325.329 51.74 325.873 52.108C326.433 52.46 327.209 52.636 328.201 52.636H331.225V48.388H327.793C326.817 48.388 326.113 48.58 325.681 48.964C325.265 49.348 325.057 49.844 325.057 50.452ZM352.839 46.636L347.535 52.876L353.295 59.5H350.895L345.327 52.972V59.5H343.359V52.972L337.791 59.5H335.391L341.151 52.876L335.847 46.636H338.151L343.359 52.876V46.636H345.327V52.876L350.559 46.636H352.839ZM359.906 46.396C361.01 46.396 361.954 46.636 362.738 47.116C363.538 47.596 364.146 48.276 364.562 49.156C364.994 50.02 365.21 51.036 365.21 52.204V53.476H356.402C356.434 54.932 356.802 56.044 357.506 56.812C358.226 57.564 359.226 57.94 360.506 57.94C361.322 57.94 362.042 57.868 362.666 57.724C363.306 57.564 363.962 57.34 364.634 57.052V58.9C363.978 59.188 363.33 59.396 362.69 59.524C362.05 59.668 361.29 59.74 360.41 59.74C359.194 59.74 358.114 59.492 357.17 58.996C356.242 58.5 355.514 57.764 354.986 56.788C354.474 55.796 354.218 54.588 354.218 53.164C354.218 51.756 354.45 50.548 354.914 49.54C355.394 48.532 356.058 47.756 356.906 47.212C357.77 46.668 358.77 46.396 359.906 46.396ZM359.882 48.124C358.874 48.124 358.074 48.452 357.482 49.108C356.906 49.748 356.562 50.644 356.45 51.796H363.002C363.002 51.06 362.89 50.42 362.666 49.876C362.442 49.332 362.098 48.908 361.634 48.604C361.186 48.284 360.602 48.124 359.882 48.124ZM378.277 59.5H376.141V48.388H372.349C372.189 50.42 371.989 52.156 371.749 53.596C371.509 55.02 371.205 56.18 370.837 57.076C370.469 57.972 370.029 58.628 369.517 59.044C369.005 59.46 368.405 59.668 367.717 59.668C367.509 59.668 367.301 59.652 367.093 59.62C366.901 59.604 366.741 59.564 366.613 59.5V57.916C366.709 57.948 366.813 57.972 366.925 57.988C367.037 58.004 367.149 58.012 367.261 58.012C367.613 58.012 367.933 57.868 368.221 57.58C368.509 57.292 368.765 56.852 368.989 56.26C369.229 55.668 369.445 54.924 369.637 54.028C369.829 53.116 369.997 52.044 370.141 50.812C370.285 49.58 370.413 48.188 370.525 46.636H378.277V59.5ZM393.544 53.044C393.544 54.116 393.4 55.068 393.112 55.9C392.84 56.716 392.44 57.412 391.912 57.988C391.4 58.564 390.768 59.004 390.016 59.308C389.28 59.596 388.456 59.74 387.544 59.74C386.696 59.74 385.912 59.596 385.192 59.308C384.472 59.004 383.848 58.564 383.32 57.988C382.792 57.412 382.376 56.716 382.072 55.9C381.784 55.068 381.64 54.116 381.64 53.044C381.64 51.62 381.88 50.42 382.36 49.444C382.84 48.452 383.528 47.7 384.424 47.188C385.32 46.66 386.384 46.396 387.616 46.396C388.784 46.396 389.808 46.66 390.688 47.188C391.584 47.7 392.28 48.452 392.776 49.444C393.288 50.42 393.544 51.62 393.544 53.044ZM383.824 53.044C383.824 54.052 383.952 54.932 384.208 55.684C384.48 56.42 384.896 56.988 385.456 57.388C386.016 57.788 386.728 57.988 387.592 57.988C388.456 57.988 389.168 57.788 389.728 57.388C390.288 56.988 390.696 56.42 390.952 55.684C391.224 54.932 391.36 54.052 391.36 53.044C391.36 52.02 391.224 51.148 390.952 50.428C390.68 49.708 390.264 49.156 389.704 48.772C389.16 48.372 388.448 48.172 387.568 48.172C386.256 48.172 385.304 48.604 384.712 49.468C384.12 50.332 383.824 51.524 383.824 53.044ZM401.86 46.396C402.964 46.396 403.908 46.636 404.692 47.116C405.492 47.596 406.1 48.276 406.516 49.156C406.948 50.02 407.164 51.036 407.164 52.204V53.476H398.356C398.388 54.932 398.756 56.044 399.46 56.812C400.18 57.564 401.18 57.94 402.46 57.94C403.276 57.94 403.996 57.868 404.62 57.724C405.26 57.564 405.916 57.34 406.588 57.052V58.9C405.932 59.188 405.284 59.396 404.644 59.524C404.004 59.668 403.244 59.74 402.364 59.74C401.148 59.74 400.068 59.492 399.124 58.996C398.196 58.5 397.468 57.764 396.94 56.788C396.428 55.796 396.172 54.588 396.172 53.164C396.172 51.756 396.404 50.548 396.868 49.54C397.348 48.532 398.012 47.756 398.86 47.212C399.724 46.668 400.724 46.396 401.86 46.396ZM401.836 48.124C400.828 48.124 400.028 48.452 399.436 49.108C398.86 49.748 398.516 50.644 398.404 51.796H404.956C404.956 51.06 404.844 50.42 404.62 49.876C404.396 49.332 404.052 48.908 403.588 48.604C403.14 48.284 402.556 48.124 401.836 48.124ZM418.665 54.484C418.665 54.628 418.657 54.836 418.641 55.108C418.641 55.364 418.633 55.644 418.617 55.948C418.601 56.236 418.585 56.516 418.569 56.788C418.553 57.044 418.537 57.252 418.521 57.412L425.409 46.636H428.001V59.5H426.033V51.916C426.033 51.66 426.033 51.324 426.033 50.908C426.049 50.492 426.065 50.084 426.081 49.684C426.097 49.268 426.113 48.956 426.129 48.748L419.289 59.5H416.673V46.636H418.665V54.484ZM441.887 59.5H439.751V48.388H435.959C435.799 50.42 435.599 52.156 435.359 53.596C435.119 55.02 434.815 56.18 434.447 57.076C434.079 57.972 433.639 58.628 433.127 59.044C432.615 59.46 432.015 59.668 431.327 59.668C431.119 59.668 430.911 59.652 430.703 59.62C430.511 59.604 430.351 59.564 430.223 59.5V57.916C430.319 57.948 430.423 57.972 430.535 57.988C430.647 58.004 430.759 58.012 430.871 58.012C431.223 58.012 431.543 57.868 431.831 57.58C432.119 57.292 432.375 56.852 432.599 56.26C432.839 55.668 433.055 54.924 433.247 54.028C433.439 53.116 433.607 52.044 433.751 50.812C433.895 49.58 434.023 48.188 434.135 46.636H441.887V59.5ZM447.962 54.484C447.962 54.628 447.954 54.836 447.938 55.108C447.938 55.364 447.93 55.644 447.914 55.948C447.898 56.236 447.882 56.516 447.866 56.788C447.85 57.044 447.834 57.252 447.818 57.412L454.706 46.636H457.298V59.5H455.33V51.916C455.33 51.66 455.33 51.324 455.33 50.908C455.346 50.492 455.362 50.084 455.378 49.684C455.394 49.268 455.41 48.956 455.426 48.748L448.586 59.5H445.97V46.636H447.962V54.484ZM476.506 48.412H472.306V59.5H470.218V48.412H466.066V46.636H476.506V48.412ZM479.832 59.5H477.384L481.056 54.1C480.56 53.972 480.08 53.772 479.616 53.5C479.152 53.212 478.776 52.82 478.488 52.324C478.2 51.812 478.056 51.18 478.056 50.428C478.056 49.196 478.472 48.26 479.304 47.62C480.136 46.964 481.24 46.636 482.616 46.636H488.376V59.5H486.264V54.388H483.144L479.832 59.5ZM480.096 50.452C480.096 51.188 480.368 51.74 480.912 52.108C481.472 52.46 482.248 52.636 483.24 52.636H486.264V48.388H482.832C481.856 48.388 481.152 48.58 480.72 48.964C480.304 49.348 480.096 49.844 480.096 50.452ZM507.878 46.636L502.574 52.876L508.334 59.5H505.934L500.366 52.972V59.5H498.398V52.972L492.83 59.5H490.43L496.19 52.876L490.886 46.636H493.19L498.398 52.876V46.636H500.366V52.876L505.598 46.636H507.878ZM514.946 46.396C516.05 46.396 516.994 46.636 517.778 47.116C518.578 47.596 519.186 48.276 519.602 49.156C520.034 50.02 520.25 51.036 520.25 52.204V53.476H511.442C511.474 54.932 511.842 56.044 512.546 56.812C513.266 57.564 514.266 57.94 515.546 57.94C516.362 57.94 517.082 57.868 517.706 57.724C518.346 57.564 519.002 57.34 519.674 57.052V58.9C519.018 59.188 518.37 59.396 517.73 59.524C517.09 59.668 516.33 59.74 515.45 59.74C514.234 59.74 513.154 59.492 512.21 58.996C511.282 58.5 510.554 57.764 510.026 56.788C509.514 55.796 509.258 54.588 509.258 53.164C509.258 51.756 509.49 50.548 509.954 49.54C510.434 48.532 511.098 47.756 511.946 47.212C512.81 46.668 513.81 46.396 514.946 46.396ZM514.922 48.124C513.914 48.124 513.114 48.452 512.522 49.108C511.946 49.748 511.602 50.644 511.49 51.796H518.042C518.042 51.06 517.93 50.42 517.706 49.876C517.482 49.332 517.138 48.908 516.674 48.604C516.226 48.284 515.642 48.124 514.922 48.124ZM533.316 59.5H531.18V48.388H527.388C527.228 50.42 527.028 52.156 526.788 53.596C526.548 55.02 526.244 56.18 525.876 57.076C525.508 57.972 525.068 58.628 524.556 59.044C524.044 59.46 523.444 59.668 522.756 59.668C522.548 59.668 522.34 59.652 522.132 59.62C521.94 59.604 521.78 59.564 521.652 59.5V57.916C521.748 57.948 521.852 57.972 521.964 57.988C522.076 58.004 522.188 58.012 522.3 58.012C522.652 58.012 522.972 57.868 523.26 57.58C523.548 57.292 523.804 56.852 524.028 56.26C524.268 55.668 524.484 54.924 524.676 54.028C524.868 53.116 525.036 52.044 525.18 50.812C525.324 49.58 525.452 48.188 525.564 46.636H533.316V59.5ZM548.583 53.044C548.583 54.116 548.439 55.068 548.151 55.9C547.879 56.716 547.479 57.412 546.951 57.988C546.439 58.564 545.807 59.004 545.055 59.308C544.319 59.596 543.495 59.74 542.583 59.74C541.735 59.74 540.951 59.596 540.231 59.308C539.511 59.004 538.887 58.564 538.359 57.988C537.831 57.412 537.415 56.716 537.111 55.9C536.823 55.068 536.679 54.116 536.679 53.044C536.679 51.62 536.919 50.42 537.399 49.444C537.879 48.452 538.567 47.7 539.463 47.188C540.359 46.66 541.423 46.396 542.655 46.396C543.823 46.396 544.847 46.66 545.727 47.188C546.623 47.7 547.319 48.452 547.815 49.444C548.327 50.42 548.583 51.62 548.583 53.044ZM538.863 53.044C538.863 54.052 538.991 54.932 539.247 55.684C539.519 56.42 539.935 56.988 540.495 57.388C541.055 57.788 541.767 57.988 542.631 57.988C543.495 57.988 544.207 57.788 544.767 57.388C545.327 56.988 545.735 56.42 545.991 55.684C546.263 54.932 546.399 54.052 546.399 53.044C546.399 52.02 546.263 51.148 545.991 50.428C545.719 49.708 545.303 49.156 544.743 48.772C544.199 48.372 543.487 48.172 542.607 48.172C541.295 48.172 540.343 48.604 539.751 49.468C539.159 50.332 538.863 51.524 538.863 53.044ZM556.899 46.396C558.003 46.396 558.947 46.636 559.731 47.116C560.531 47.596 561.139 48.276 561.555 49.156C561.987 50.02 562.203 51.036 562.203 52.204V53.476H553.395C553.427 54.932 553.795 56.044 554.499 56.812C555.219 57.564 556.219 57.94 557.499 57.94C558.315 57.94 559.035 57.868 559.659 57.724C560.299 57.564 560.955 57.34 561.627 57.052V58.9C560.971 59.188 560.323 59.396 559.683 59.524C559.043 59.668 558.283 59.74 557.403 59.74C556.187 59.74 555.107 59.492 554.163 58.996C553.235 58.5 552.507 57.764 551.979 56.788C551.467 55.796 551.211 54.588 551.211 53.164C551.211 51.756 551.443 50.548 551.907 49.54C552.387 48.532 553.051 47.756 553.899 47.212C554.763 46.668 555.763 46.396 556.899 46.396ZM556.875 48.124C555.867 48.124 555.067 48.452 554.475 49.108C553.899 49.748 553.555 50.644 553.443 51.796H559.995C559.995 51.06 559.883 50.42 559.659 49.876C559.435 49.332 559.091 48.908 558.627 48.604C558.179 48.284 557.595 48.124 556.875 48.124ZM582.896 53.044C582.896 54.116 582.752 55.068 582.464 55.9C582.192 56.716 581.792 57.412 581.264 57.988C580.752 58.564 580.12 59.004 579.368 59.308C578.632 59.596 577.808 59.74 576.896 59.74C576.048 59.74 575.264 59.596 574.544 59.308C573.824 59.004 573.2 58.564 572.672 57.988C572.144 57.412 571.728 56.716 571.424 55.9C571.136 55.068 570.992 54.116 570.992 53.044C570.992 51.62 571.232 50.42 571.712 49.444C572.192 48.452 572.88 47.7 573.776 47.188C574.672 46.66 575.736 46.396 576.968 46.396C578.136 46.396 579.16 46.66 580.04 47.188C580.936 47.7 581.632 48.452 582.128 49.444C582.64 50.42 582.896 51.62 582.896 53.044ZM573.176 53.044C573.176 54.052 573.304 54.932 573.56 55.684C573.832 56.42 574.248 56.988 574.808 57.388C575.368 57.788 576.08 57.988 576.944 57.988C577.808 57.988 578.52 57.788 579.08 57.388C579.64 56.988 580.048 56.42 580.304 55.684C580.576 54.932 580.712 54.052 580.712 53.044C580.712 52.02 580.576 51.148 580.304 50.428C580.032 49.708 579.616 49.156 579.056 48.772C578.512 48.372 577.8 48.172 576.92 48.172C575.608 48.172 574.656 48.604 574.064 49.468C573.472 50.332 573.176 51.524 573.176 53.044ZM585.571 51.772C585.571 49.9 585.755 48.308 586.123 46.996C586.507 45.668 587.091 44.612 587.875 43.828C588.675 43.028 589.699 42.492 590.947 42.22C591.987 41.996 593.003 41.796 593.995 41.62C594.987 41.444 595.915 41.284 596.779 41.14L597.139 42.988C596.723 43.052 596.259 43.132 595.747 43.228C595.235 43.308 594.715 43.396 594.187 43.492C593.659 43.572 593.147 43.66 592.651 43.756C592.171 43.836 591.747 43.916 591.379 43.996C590.851 44.108 590.379 44.3 589.963 44.572C589.547 44.828 589.187 45.18 588.883 45.628C588.595 46.076 588.363 46.628 588.187 47.284C588.011 47.94 587.907 48.716 587.875 49.612H588.019C588.243 49.308 588.547 48.996 588.931 48.676C589.331 48.356 589.803 48.084 590.347 47.86C590.907 47.636 591.539 47.524 592.243 47.524C593.363 47.524 594.291 47.772 595.027 48.268C595.779 48.748 596.339 49.42 596.707 50.284C597.091 51.148 597.283 52.156 597.283 53.308C597.283 54.732 597.035 55.924 596.539 56.884C596.043 57.844 595.355 58.564 594.475 59.044C593.595 59.508 592.571 59.74 591.403 59.74C590.523 59.74 589.723 59.572 589.003 59.236C588.283 58.884 587.667 58.372 587.155 57.7C586.643 57.028 586.251 56.196 585.979 55.204C585.707 54.212 585.571 53.068 585.571 51.772ZM591.571 57.988C592.275 57.988 592.883 57.844 593.395 57.556C593.923 57.268 594.331 56.796 594.619 56.14C594.907 55.484 595.051 54.612 595.051 53.524C595.051 52.212 594.803 51.18 594.307 50.428C593.827 49.66 593.027 49.276 591.907 49.276C591.203 49.276 590.563 49.436 589.987 49.756C589.411 50.06 588.931 50.412 588.547 50.812C588.163 51.212 587.891 51.548 587.731 51.82C587.731 52.604 587.787 53.364 587.899 54.1C588.011 54.836 588.203 55.5 588.475 56.092C588.763 56.668 589.155 57.132 589.651 57.484C590.163 57.82 590.803 57.988 591.571 57.988ZM611.794 53.044C611.794 54.116 611.65 55.068 611.362 55.9C611.09 56.716 610.69 57.412 610.162 57.988C609.65 58.564 609.018 59.004 608.266 59.308C607.53 59.596 606.706 59.74 605.794 59.74C604.946 59.74 604.162 59.596 603.442 59.308C602.722 59.004 602.098 58.564 601.57 57.988C601.042 57.412 600.626 56.716 600.322 55.9C600.034 55.068 599.89 54.116 599.89 53.044C599.89 51.62 600.13 50.42 600.61 49.444C601.09 48.452 601.778 47.7 602.674 47.188C603.57 46.66 604.634 46.396 605.866 46.396C607.034 46.396 608.058 46.66 608.938 47.188C609.834 47.7 610.53 48.452 611.026 49.444C611.538 50.42 611.794 51.62 611.794 53.044ZM602.074 53.044C602.074 54.052 602.202 54.932 602.458 55.684C602.73 56.42 603.146 56.988 603.706 57.388C604.266 57.788 604.978 57.988 605.842 57.988C606.706 57.988 607.418 57.788 607.978 57.388C608.538 56.988 608.946 56.42 609.202 55.684C609.474 54.932 609.61 54.052 609.61 53.044C609.61 52.02 609.474 51.148 609.202 50.428C608.93 49.708 608.514 49.156 607.954 48.772C607.41 48.372 606.698 48.172 605.818 48.172C604.506 48.172 603.554 48.604 602.962 49.468C602.37 50.332 602.074 51.524 602.074 53.044ZM620.302 59.74C619.166 59.74 618.15 59.508 617.254 59.044C616.374 58.58 615.678 57.86 615.166 56.884C614.67 55.908 614.422 54.66 614.422 53.14C614.422 51.556 614.686 50.268 615.214 49.276C615.742 48.284 616.454 47.556 617.35 47.092C618.262 46.628 619.294 46.396 620.446 46.396C621.102 46.396 621.734 46.468 622.342 46.612C622.95 46.74 623.446 46.9 623.83 47.092L623.182 48.844C622.798 48.7 622.35 48.564 621.838 48.436C621.326 48.308 620.846 48.244 620.398 48.244C619.534 48.244 618.822 48.428 618.262 48.796C617.702 49.164 617.286 49.708 617.014 50.428C616.742 51.148 616.606 52.044 616.606 53.116C616.606 54.14 616.742 55.012 617.014 55.732C617.286 56.452 617.694 56.996 618.238 57.364C618.782 57.732 619.462 57.916 620.278 57.916C620.982 57.916 621.598 57.844 622.126 57.7C622.67 57.556 623.166 57.38 623.614 57.172V59.044C623.182 59.268 622.702 59.436 622.174 59.548C621.662 59.676 621.038 59.74 620.302 59.74ZM635.553 48.412H631.353V59.5H629.265V48.412H625.113V46.636H635.553V48.412ZM644.207 46.396C645.791 46.396 647.063 46.948 648.023 48.052C648.999 49.156 649.487 50.82 649.487 53.044C649.487 54.5 649.263 55.732 648.815 56.74C648.383 57.732 647.767 58.484 646.967 58.996C646.183 59.492 645.255 59.74 644.183 59.74C643.527 59.74 642.943 59.652 642.431 59.476C641.919 59.3 641.479 59.076 641.111 58.804C640.759 58.516 640.455 58.204 640.199 57.868H640.055C640.087 58.14 640.119 58.484 640.151 58.9C640.183 59.316 640.199 59.676 640.199 59.98V65.26H638.087V46.636H639.815L640.103 48.388H640.199C640.455 48.02 640.759 47.684 641.111 47.38C641.479 47.076 641.911 46.836 642.407 46.66C642.919 46.484 643.519 46.396 644.207 46.396ZM643.823 48.172C642.959 48.172 642.263 48.34 641.735 48.676C641.207 48.996 640.823 49.484 640.583 50.14C640.343 50.796 640.215 51.628 640.199 52.636V53.044C640.199 54.1 640.311 54.996 640.535 55.732C640.759 56.468 641.135 57.028 641.663 57.412C642.207 57.796 642.943 57.988 643.871 57.988C644.655 57.988 645.295 57.772 645.791 57.34C646.303 56.908 646.679 56.324 646.919 55.588C647.175 54.836 647.303 53.98 647.303 53.02C647.303 51.548 647.015 50.372 646.439 49.492C645.879 48.612 645.007 48.172 643.823 48.172ZM657.821 46.396C658.925 46.396 659.869 46.636 660.653 47.116C661.453 47.596 662.061 48.276 662.477 49.156C662.909 50.02 663.125 51.036 663.125 52.204V53.476H654.317C654.349 54.932 654.717 56.044 655.421 56.812C656.141 57.564 657.141 57.94 658.421 57.94C659.237 57.94 659.957 57.868 660.581 57.724C661.221 57.564 661.877 57.34 662.549 57.052V58.9C661.893 59.188 661.245 59.396 660.605 59.524C659.965 59.668 659.205 59.74 658.325 59.74C657.109 59.74 656.029 59.492 655.085 58.996C654.157 58.5 653.429 57.764 652.901 56.788C652.389 55.796 652.133 54.588 652.133 53.164C652.133 51.756 652.365 50.548 652.829 49.54C653.309 48.532 653.973 47.756 654.821 47.212C655.685 46.668 656.685 46.396 657.821 46.396ZM657.797 48.124C656.789 48.124 655.989 48.452 655.397 49.108C654.821 49.748 654.477 50.644 654.365 51.796H660.917C660.917 51.06 660.805 50.42 660.581 49.876C660.357 49.332 660.013 48.908 659.549 48.604C659.101 48.284 658.517 48.124 657.797 48.124ZM668.511 46.636V51.988H675.495V46.636H677.607V59.5H675.495V53.764H668.511V59.5H666.399V46.636H668.511ZM683.673 54.484C683.673 54.628 683.665 54.836 683.649 55.108C683.649 55.364 683.641 55.644 683.625 55.948C683.609 56.236 683.593 56.516 683.577 56.788C683.561 57.044 683.545 57.252 683.529 57.412L690.417 46.636H693.009V59.5H691.041V51.916C691.041 51.66 691.041 51.324 691.041 50.908C691.057 50.492 691.073 50.084 691.089 49.684C691.105 49.268 691.121 48.956 691.137 48.748L684.297 59.5H681.681V46.636H683.673V54.484ZM702.071 46.396C703.175 46.396 704.119 46.636 704.903 47.116C705.703 47.596 706.311 48.276 706.727 49.156C707.159 50.02 707.375 51.036 707.375 52.204V53.476H698.567C698.599 54.932 698.967 56.044 699.671 56.812C700.391 57.564 701.391 57.94 702.671 57.94C703.487 57.94 704.207 57.868 704.831 57.724C705.471 57.564 706.127 57.34 706.799 57.052V58.9C706.143 59.188 705.495 59.396 704.855 59.524C704.215 59.668 703.455 59.74 702.575 59.74C701.359 59.74 700.279 59.492 699.335 58.996C698.407 58.5 697.679 57.764 697.151 56.788C696.639 55.796 696.383 54.588 696.383 53.164C696.383 51.756 696.615 50.548 697.079 49.54C697.559 48.532 698.223 47.756 699.071 47.212C699.935 46.668 700.935 46.396 702.071 46.396ZM702.047 48.124C701.039 48.124 700.239 48.452 699.647 49.108C699.071 49.748 698.727 50.644 698.615 51.796H705.167C705.167 51.06 705.055 50.42 704.831 49.876C704.607 49.332 704.263 48.908 703.799 48.604C703.351 48.284 702.767 48.124 702.047 48.124ZM7.2 92.74C6.064 92.74 5.048 92.508 4.152 92.044C3.272 91.58 2.576 90.86 2.064 89.884C1.568 88.908 1.32 87.66 1.32 86.14C1.32 84.556 1.584 83.268 2.112 82.276C2.64 81.284 3.352 80.556 4.248 80.092C5.16 79.628 6.192 79.396 7.344 79.396C8 79.396 8.632 79.468 9.24 79.612C9.848 79.74 10.344 79.9 10.728 80.092L10.08 81.844C9.696 81.7 9.248 81.564 8.736 81.436C8.224 81.308 7.744 81.244 7.296 81.244C6.432 81.244 5.72 81.428 5.16 81.796C4.6 82.164 4.184 82.708 3.912 83.428C3.64 84.148 3.504 85.044 3.504 86.116C3.504 87.14 3.64 88.012 3.912 88.732C4.184 89.452 4.592 89.996 5.136 90.364C5.68 90.732 6.36 90.916 7.176 90.916C7.88 90.916 8.496 90.844 9.024 90.7C9.568 90.556 10.064 90.38 10.512 90.172V92.044C10.08 92.268 9.6 92.436 9.072 92.548C8.56 92.676 7.936 92.74 7.2 92.74ZM23.3633 92.5H21.2273V81.388H17.4353C17.2753 83.42 17.0753 85.156 16.8353 86.596C16.5953 88.02 16.2913 89.18 15.9233 90.076C15.5553 90.972 15.1153 91.628 14.6033 92.044C14.0913 92.46 13.4913 92.668 12.8033 92.668C12.5953 92.668 12.3873 92.652 12.1793 92.62C11.9873 92.604 11.8273 92.564 11.6993 92.5V90.916C11.7953 90.948 11.8993 90.972 12.0113 90.988C12.1233 91.004 12.2353 91.012 12.3473 91.012C12.6993 91.012 13.0193 90.868 13.3073 90.58C13.5953 90.292 13.8513 89.852 14.0753 89.26C14.3153 88.668 14.5313 87.924 14.7233 87.028C14.9153 86.116 15.0833 85.044 15.2273 83.812C15.3713 82.58 15.4993 81.188 15.6113 79.636H23.3633V92.5ZM25.4303 79.636H27.6863L30.4703 86.956C30.6303 87.388 30.7743 87.804 30.9023 88.204C31.0463 88.604 31.1743 88.996 31.2863 89.38C31.3983 89.748 31.4863 90.108 31.5503 90.46H31.6463C31.7423 90.06 31.8943 89.54 32.1023 88.9C32.3103 88.244 32.5263 87.588 32.7503 86.932L35.3663 79.636H37.6463L32.1023 94.276C31.7983 95.076 31.4383 95.772 31.0223 96.364C30.6223 96.972 30.1263 97.436 29.5343 97.756C28.9583 98.092 28.2543 98.26 27.4223 98.26C27.0383 98.26 26.7023 98.236 26.4143 98.188C26.1263 98.156 25.8783 98.116 25.6703 98.068V96.388C25.8463 96.42 26.0543 96.452 26.2943 96.484C26.5503 96.516 26.8143 96.532 27.0863 96.532C27.5823 96.532 28.0063 96.436 28.3583 96.244C28.7263 96.068 29.0383 95.804 29.2943 95.452C29.5503 95.116 29.7663 94.716 29.9423 94.252L30.6143 92.548L25.4303 79.636ZM41.5286 84.316C41.5286 85.068 41.7366 85.628 42.1526 85.996C42.5846 86.348 43.2006 86.524 44.0006 86.524C44.8006 86.524 45.5286 86.404 46.1846 86.164C46.8406 85.908 47.5126 85.572 48.2006 85.156V79.636H50.3126V92.5H48.2006V86.764C47.4806 87.228 46.7686 87.596 46.0646 87.868C45.3766 88.124 44.5446 88.252 43.5686 88.252C42.2566 88.252 41.2326 87.908 40.4966 87.22C39.7766 86.532 39.4166 85.612 39.4166 84.46V79.636H41.5286V84.316ZM56.3914 87.484C56.3914 87.628 56.3834 87.836 56.3674 88.108C56.3674 88.364 56.3594 88.644 56.3434 88.948C56.3274 89.236 56.3114 89.516 56.2954 89.788C56.2794 90.044 56.2634 90.252 56.2474 90.412L63.1354 79.636H65.7274V92.5H63.7594V84.916C63.7594 84.66 63.7594 84.324 63.7594 83.908C63.7754 83.492 63.7914 83.084 63.8074 82.684C63.8234 82.268 63.8394 81.956 63.8554 81.748L57.0154 92.5H54.3994V79.636H56.3914V87.484ZM78.7013 81.412H74.5013V92.5H72.4133V81.412H68.2613V79.636H78.7013V81.412ZM86.1609 92.74C85.0249 92.74 84.0089 92.508 83.1129 92.044C82.2329 91.58 81.5369 90.86 81.0249 89.884C80.5289 88.908 80.2809 87.66 80.2809 86.14C80.2809 84.556 80.5449 83.268 81.0729 82.276C81.6009 81.284 82.3129 80.556 83.2089 80.092C84.1209 79.628 85.1529 79.396 86.3049 79.396C86.9609 79.396 87.5929 79.468 88.2009 79.612C88.8089 79.74 89.3049 79.9 89.6889 80.092L89.0409 81.844C88.6569 81.7 88.2089 81.564 87.6969 81.436C87.1849 81.308 86.7049 81.244 86.2569 81.244C85.3929 81.244 84.6809 81.428 84.1209 81.796C83.5609 82.164 83.1449 82.708 82.8729 83.428C82.6009 84.148 82.4649 85.044 82.4649 86.116C82.4649 87.14 82.6009 88.012 82.8729 88.732C83.1449 89.452 83.5529 89.996 84.0969 90.364C84.6409 90.732 85.3209 90.916 86.1369 90.916C86.8409 90.916 87.4569 90.844 87.9849 90.7C88.5289 90.556 89.0249 90.38 89.4729 90.172V92.044C89.0409 92.268 88.5609 92.436 88.0329 92.548C87.5209 92.676 86.8969 92.74 86.1609 92.74ZM93.3242 92.5H90.8762L94.5482 87.1C94.0522 86.972 93.5722 86.772 93.1082 86.5C92.6442 86.212 92.2682 85.82 91.9802 85.324C91.6922 84.812 91.5482 84.18 91.5482 83.428C91.5482 82.196 91.9642 81.26 92.7962 80.62C93.6282 79.964 94.7322 79.636 96.1082 79.636H101.868V92.5H99.7562V87.388H96.6362L93.3242 92.5ZM93.5882 83.452C93.5882 84.188 93.8602 84.74 94.4042 85.108C94.9642 85.46 95.7402 85.636 96.7322 85.636H99.7562V81.388H96.3242C95.3482 81.388 94.6442 81.58 94.2122 81.964C93.7962 82.348 93.5882 82.844 93.5882 83.452ZM122.517 82.876C122.517 83.676 122.277 84.3 121.797 84.748C121.317 85.196 120.701 85.5 119.949 85.66V85.756C120.749 85.868 121.445 86.156 122.037 86.62C122.629 87.068 122.925 87.772 122.925 88.732C122.925 89.276 122.821 89.78 122.613 90.244C122.421 90.708 122.117 91.108 121.701 91.444C121.285 91.78 120.749 92.044 120.093 92.236C119.437 92.412 118.645 92.5 117.717 92.5H112.173V79.636H117.693C118.605 79.636 119.421 79.74 120.141 79.948C120.877 80.14 121.453 80.476 121.869 80.956C122.301 81.42 122.517 82.06 122.517 82.876ZM120.741 88.732C120.741 87.996 120.461 87.468 119.901 87.148C119.341 86.828 118.517 86.668 117.429 86.668H114.285V90.796H117.477C118.533 90.796 119.341 90.644 119.901 90.34C120.461 90.02 120.741 89.484 120.741 88.732ZM120.381 83.14C120.381 82.532 120.157 82.092 119.709 81.82C119.277 81.532 118.565 81.388 117.573 81.388H114.285V84.916H117.189C118.229 84.916 119.021 84.772 119.565 84.484C120.109 84.196 120.381 83.748 120.381 83.14ZM141.115 81.412H136.915V92.5H134.827V81.412H130.675V79.636H141.115V81.412ZM148.383 79.396C149.487 79.396 150.431 79.636 151.215 80.116C152.015 80.596 152.623 81.276 153.039 82.156C153.471 83.02 153.687 84.036 153.687 85.204V86.476H144.879C144.911 87.932 145.279 89.044 145.983 89.812C146.703 90.564 147.703 90.94 148.983 90.94C149.799 90.94 150.519 90.868 151.143 90.724C151.783 90.564 152.439 90.34 153.111 90.052V91.9C152.455 92.188 151.807 92.396 151.167 92.524C150.527 92.668 149.767 92.74 148.887 92.74C147.671 92.74 146.591 92.492 145.647 91.996C144.719 91.5 143.991 90.764 143.463 89.788C142.951 88.796 142.695 87.588 142.695 86.164C142.695 84.756 142.927 83.548 143.391 82.54C143.871 81.532 144.535 80.756 145.383 80.212C146.247 79.668 147.247 79.396 148.383 79.396ZM148.359 81.124C147.351 81.124 146.551 81.452 145.959 82.108C145.383 82.748 145.039 83.644 144.927 84.796H151.479C151.479 84.06 151.367 83.42 151.143 82.876C150.919 82.332 150.575 81.908 150.111 81.604C149.663 81.284 149.079 81.124 148.359 81.124ZM158.81 84.316C158.81 85.068 159.018 85.628 159.434 85.996C159.866 86.348 160.482 86.524 161.282 86.524C162.082 86.524 162.81 86.404 163.466 86.164C164.122 85.908 164.794 85.572 165.482 85.156V79.636H167.594V92.5H165.482V86.764C164.762 87.228 164.05 87.596 163.346 87.868C162.658 88.124 161.826 88.252 160.85 88.252C159.538 88.252 158.514 87.908 157.778 87.22C157.058 86.532 156.698 85.612 156.698 84.46V79.636H158.81V84.316ZM176.649 79.396C177.753 79.396 178.697 79.636 179.481 80.116C180.281 80.596 180.889 81.276 181.305 82.156C181.737 83.02 181.953 84.036 181.953 85.204V86.476H173.145C173.177 87.932 173.545 89.044 174.249 89.812C174.969 90.564 175.969 90.94 177.249 90.94C178.065 90.94 178.785 90.868 179.409 90.724C180.049 90.564 180.705 90.34 181.377 90.052V91.9C180.721 92.188 180.073 92.396 179.433 92.524C178.793 92.668 178.033 92.74 177.153 92.74C175.937 92.74 174.857 92.492 173.913 91.996C172.985 91.5 172.257 90.764 171.729 89.788C171.217 88.796 170.961 87.588 170.961 86.164C170.961 84.756 171.193 83.548 171.657 82.54C172.137 81.532 172.801 80.756 173.649 80.212C174.513 79.668 175.513 79.396 176.649 79.396ZM176.625 81.124C175.617 81.124 174.817 81.452 174.225 82.108C173.649 82.748 173.305 83.644 173.193 84.796H179.745C179.745 84.06 179.633 83.42 179.409 82.876C179.185 82.332 178.841 81.908 178.377 81.604C177.929 81.284 177.345 81.124 176.625 81.124ZM187.34 79.636V84.988H194.324V79.636H196.436V92.5H194.324V86.764H187.34V92.5H185.228V79.636H187.34ZM202.501 87.484C202.501 87.628 202.493 87.836 202.477 88.108C202.477 88.364 202.469 88.644 202.453 88.948C202.437 89.236 202.421 89.516 202.405 89.788C202.389 90.044 202.373 90.252 202.357 90.412L209.245 79.636H211.837V92.5H209.869V84.916C209.869 84.66 209.869 84.324 209.869 83.908C209.885 83.492 209.901 83.084 209.917 82.684C209.933 82.268 209.949 81.956 209.965 81.748L203.125 92.5H200.509V79.636H202.501V87.484ZM220.899 79.396C222.003 79.396 222.947 79.636 223.731 80.116C224.531 80.596 225.139 81.276 225.555 82.156C225.987 83.02 226.203 84.036 226.203 85.204V86.476H217.395C217.427 87.932 217.795 89.044 218.499 89.812C219.219 90.564 220.219 90.94 221.499 90.94C222.315 90.94 223.035 90.868 223.659 90.724C224.299 90.564 224.955 90.34 225.627 90.052V91.9C224.971 92.188 224.323 92.396 223.683 92.524C223.043 92.668 222.283 92.74 221.403 92.74C220.187 92.74 219.107 92.492 218.163 91.996C217.235 91.5 216.507 90.764 215.979 89.788C215.467 88.796 215.211 87.588 215.211 86.164C215.211 84.756 215.443 83.548 215.907 82.54C216.387 81.532 217.051 80.756 217.899 80.212C218.763 79.668 219.763 79.396 220.899 79.396ZM220.875 81.124C219.867 81.124 219.067 81.452 218.475 82.108C217.899 82.748 217.555 83.644 217.443 84.796H223.995C223.995 84.06 223.883 83.42 223.659 82.876C223.435 82.332 223.091 81.908 222.627 81.604C222.179 81.284 221.595 81.124 220.875 81.124ZM229.166 91.204C229.166 90.612 229.31 90.196 229.598 89.956C229.886 89.716 230.23 89.596 230.63 89.596C231.046 89.596 231.398 89.716 231.686 89.956C231.99 90.196 232.142 90.612 232.142 91.204C232.142 91.78 231.99 92.196 231.686 92.452C231.398 92.708 231.046 92.836 230.63 92.836C230.23 92.836 229.886 92.708 229.598 92.452C229.31 92.196 229.166 91.78 229.166 91.204ZM235.587 91.204C235.587 90.612 235.731 90.196 236.019 89.956C236.307 89.716 236.651 89.596 237.051 89.596C237.467 89.596 237.819 89.716 238.107 89.956C238.411 90.196 238.563 90.612 238.563 91.204C238.563 91.78 238.411 92.196 238.107 92.452C237.819 92.708 237.467 92.836 237.051 92.836C236.651 92.836 236.307 92.708 236.019 92.452C235.731 92.196 235.587 91.78 235.587 91.204ZM242.009 91.204C242.009 90.612 242.153 90.196 242.441 89.956C242.729 89.716 243.073 89.596 243.473 89.596C243.889 89.596 244.241 89.716 244.529 89.956C244.833 90.196 244.985 90.612 244.985 91.204C244.985 91.78 244.833 92.196 244.529 92.452C244.241 92.708 243.889 92.836 243.473 92.836C243.073 92.836 242.729 92.708 242.441 92.452C242.153 92.196 242.009 91.78 242.009 91.204Z" fill="#01457A"/>
<rect y="39.5" width="767" height="93" fill="url(#paint0_linear_0_6029)"/>
<defs>
<linearGradient id="paint0_linear_0_6029" x1="383.5" y1="39.5" x2="383.5" y2="132.5" gradientUnits="userSpaceOnUse">
<stop stop-color="white" stop-opacity="0"/>
<stop offset="1" stop-color="white"/>
</linearGradient>
</defs>
</svg>
