<svg width="767" height="99" viewBox="0 0 767 99" fill="none" xmlns="http://www.w3.org/2000/svg">
<path d="M7.224 8.864C8.648 8.864 9.84 9 10.8 9.272C11.776 9.544 12.504 9.992 12.984 10.616C13.48 11.24 13.728 12.072 13.728 13.112C13.728 13.784 13.6 14.384 13.344 14.912C13.104 15.424 12.736 15.856 12.24 16.208C11.76 16.544 11.168 16.776 10.464 16.904V17.024C11.184 17.136 11.832 17.344 12.408 17.648C13 17.952 13.464 18.384 13.8 18.944C14.136 19.504 14.304 20.232 14.304 21.128C14.304 22.168 14.064 23.056 13.584 23.792C13.104 24.512 12.416 25.064 11.52 25.448C10.64 25.816 9.584 26 8.352 26H2.328V8.864H7.224ZM7.656 16.16C9.128 16.16 10.136 15.928 10.68 15.464C11.224 14.984 11.496 14.28 11.496 13.352C11.496 12.408 11.16 11.736 10.488 11.336C9.832 10.92 8.776 10.712 7.32 10.712H4.488V16.16H7.656ZM4.488 17.96V24.176H7.944C9.464 24.176 10.52 23.88 11.112 23.288C11.704 22.696 12 21.92 12 20.96C12 20.352 11.864 19.824 11.592 19.376C11.336 18.928 10.896 18.584 10.272 18.344C9.664 18.088 8.832 17.96 7.776 17.96H4.488ZM33.4358 13.136V24.224H35.3078V30.464H33.2678V26H24.3158V30.464H22.2998V24.224H23.3318C24.0678 23.2 24.6758 22.088 25.1558 20.888C25.6518 19.672 26.0198 18.408 26.2598 17.096C26.5158 15.768 26.6518 14.448 26.6678 13.136H33.4358ZM28.5398 14.792C28.4758 15.88 28.3078 17.008 28.0358 18.176C27.7638 19.328 27.4118 20.432 26.9798 21.488C26.5638 22.544 26.0758 23.456 25.5158 24.224H31.3958V14.792H28.5398ZM42.7971 12.896C43.9011 12.896 44.8451 13.136 45.6291 13.616C46.4291 14.096 47.0371 14.776 47.4531 15.656C47.8851 16.52 48.1011 17.536 48.1011 18.704V19.976H39.2931C39.3251 21.432 39.6931 22.544 40.3971 23.312C41.1171 24.064 42.1171 24.44 43.3971 24.44C44.2131 24.44 44.9331 24.368 45.5571 24.224C46.1971 24.064 46.8531 23.84 47.5251 23.552V25.4C46.8691 25.688 46.2211 25.896 45.5811 26.024C44.9411 26.168 44.1811 26.24 43.3011 26.24C42.0851 26.24 41.0051 25.992 40.0611 25.496C39.1331 25 38.4051 24.264 37.8771 23.288C37.3651 22.296 37.1091 21.088 37.1091 19.664C37.1091 18.256 37.3411 17.048 37.8051 16.04C38.2851 15.032 38.9491 14.256 39.7971 13.712C40.6611 13.168 41.6611 12.896 42.7971 12.896ZM42.7731 14.624C41.7651 14.624 40.9651 14.952 40.3731 15.608C39.7971 16.248 39.4531 17.144 39.3411 18.296H45.8931C45.8931 17.56 45.7811 16.92 45.5571 16.376C45.3331 15.832 44.9891 15.408 44.5251 15.104C44.0771 14.784 43.4931 14.624 42.7731 14.624ZM56.5359 26.24C55.3999 26.24 54.3839 26.008 53.4879 25.544C52.6079 25.08 51.9119 24.36 51.3999 23.384C50.9039 22.408 50.6559 21.16 50.6559 19.64C50.6559 18.056 50.9199 16.768 51.4479 15.776C51.9759 14.784 52.6879 14.056 53.5839 13.592C54.4959 13.128 55.5279 12.896 56.6799 12.896C57.3359 12.896 57.9679 12.968 58.5759 13.112C59.1839 13.24 59.6799 13.4 60.0639 13.592L59.4159 15.344C59.0319 15.2 58.5839 15.064 58.0719 14.936C57.5599 14.808 57.0799 14.744 56.6319 14.744C55.7679 14.744 55.0559 14.928 54.4959 15.296C53.9359 15.664 53.5199 16.208 53.2479 16.928C52.9759 17.648 52.8399 18.544 52.8399 19.616C52.8399 20.64 52.9759 21.512 53.2479 22.232C53.5199 22.952 53.9279 23.496 54.4719 23.864C55.0159 24.232 55.6959 24.416 56.5119 24.416C57.2159 24.416 57.8319 24.344 58.3599 24.2C58.9039 24.056 59.3999 23.88 59.8479 23.672V25.544C59.4159 25.768 58.9359 25.936 58.4079 26.048C57.8959 26.176 57.2719 26.24 56.5359 26.24ZM63.6992 26H61.2512L64.9232 20.6C64.4272 20.472 63.9472 20.272 63.4832 20C63.0192 19.712 62.6432 19.32 62.3552 18.824C62.0672 18.312 61.9232 17.68 61.9232 16.928C61.9232 15.696 62.3392 14.76 63.1712 14.12C64.0032 13.464 65.1072 13.136 66.4832 13.136H72.2432V26H70.1312V20.888H67.0112L63.6992 26ZM63.9632 16.952C63.9632 17.688 64.2352 18.24 64.7792 18.608C65.3392 18.96 66.1152 19.136 67.1072 19.136H70.1312V14.888H66.6992C65.7232 14.888 65.0192 15.08 64.5872 15.464C64.1712 15.848 63.9632 16.344 63.9632 16.952ZM85.1934 14.912H80.9934V26H78.9054V14.912H74.7534V13.136H85.1934V14.912ZM89.7195 20.984C89.7195 21.128 89.7115 21.336 89.6955 21.608C89.6955 21.864 89.6875 22.144 89.6715 22.448C89.6555 22.736 89.6395 23.016 89.6235 23.288C89.6075 23.544 89.5915 23.752 89.5755 23.912L96.4635 13.136H99.0555V26H97.0875V18.416C97.0875 18.16 97.0875 17.824 97.0875 17.408C97.1035 16.992 97.1195 16.584 97.1355 16.184C97.1515 15.768 97.1675 15.456 97.1835 15.248L90.3435 26H87.7275V13.136H89.7195V20.984ZM112.941 26H110.805V14.888H107.013C106.853 16.92 106.653 18.656 106.413 20.096C106.173 21.52 105.869 22.68 105.501 23.576C105.133 24.472 104.693 25.128 104.181 25.544C103.669 25.96 103.069 26.168 102.381 26.168C102.173 26.168 101.965 26.152 101.757 26.12C101.565 26.104 101.405 26.064 101.277 26V24.416C101.373 24.448 101.477 24.472 101.589 24.488C101.701 24.504 101.813 24.512 101.925 24.512C102.277 24.512 102.597 24.368 102.885 24.08C103.173 23.792 103.429 23.352 103.653 22.76C103.893 22.168 104.109 21.424 104.301 20.528C104.493 19.616 104.661 18.544 104.805 17.312C104.949 16.08 105.077 14.688 105.189 13.136H112.941V26ZM121.992 12.896C123.096 12.896 124.04 13.136 124.824 13.616C125.624 14.096 126.232 14.776 126.648 15.656C127.08 16.52 127.296 17.536 127.296 18.704V19.976H118.488C118.52 21.432 118.888 22.544 119.592 23.312C120.312 24.064 121.312 24.44 122.592 24.44C123.408 24.44 124.128 24.368 124.752 24.224C125.392 24.064 126.048 23.84 126.72 23.552V25.4C126.064 25.688 125.416 25.896 124.776 26.024C124.136 26.168 123.376 26.24 122.496 26.24C121.28 26.24 120.2 25.992 119.256 25.496C118.328 25 117.6 24.264 117.072 23.288C116.56 22.296 116.304 21.088 116.304 19.664C116.304 18.256 116.536 17.048 117 16.04C117.48 15.032 118.144 14.256 118.992 13.712C119.856 13.168 120.856 12.896 121.992 12.896ZM121.968 14.624C120.96 14.624 120.16 14.952 119.568 15.608C118.992 16.248 118.648 17.144 118.536 18.296H125.088C125.088 17.56 124.976 16.92 124.752 16.376C124.528 15.832 124.184 15.408 123.72 15.104C123.272 14.784 122.688 14.624 121.968 14.624ZM139.451 14.912H135.251V26H133.163V14.912H129.011V13.136H139.451V14.912ZM144.097 13.136V18.488H151.081V13.136H153.193V26H151.081V20.264H144.097V26H141.985V13.136H144.097ZM162.235 12.896C163.339 12.896 164.283 13.136 165.067 13.616C165.867 14.096 166.475 14.776 166.891 15.656C167.323 16.52 167.539 17.536 167.539 18.704V19.976H158.731C158.763 21.432 159.131 22.544 159.835 23.312C160.555 24.064 161.555 24.44 162.835 24.44C163.651 24.44 164.371 24.368 164.995 24.224C165.635 24.064 166.291 23.84 166.963 23.552V25.4C166.307 25.688 165.659 25.896 165.019 26.024C164.379 26.168 163.619 26.24 162.739 26.24C161.523 26.24 160.443 25.992 159.499 25.496C158.571 25 157.843 24.264 157.315 23.288C156.803 22.296 156.547 21.088 156.547 19.664C156.547 18.256 156.779 17.048 157.243 16.04C157.723 15.032 158.387 14.256 159.235 13.712C160.099 13.168 161.099 12.896 162.235 12.896ZM162.211 14.624C161.203 14.624 160.403 14.952 159.811 15.608C159.235 16.248 158.891 17.144 158.779 18.296H165.331C165.331 17.56 165.219 16.92 164.995 16.376C164.771 15.832 164.427 15.408 163.963 15.104C163.515 14.784 162.931 14.624 162.211 14.624ZM184.613 13.136V26H182.717V17.792C182.717 17.456 182.725 17.104 182.741 16.736C182.773 16.368 182.805 16.008 182.837 15.656H182.765L178.565 26H176.789L172.709 15.656H172.637C172.669 16.008 172.685 16.368 172.685 16.736C172.701 17.104 172.709 17.48 172.709 17.864V26H170.813V13.136H173.621L177.677 23.48L181.805 13.136H184.613ZM196.946 20.984C196.946 21.128 196.938 21.336 196.922 21.608C196.922 21.864 196.914 22.144 196.898 22.448C196.882 22.736 196.866 23.016 196.85 23.288C196.834 23.544 196.818 23.752 196.802 23.912L203.69 13.136H206.282V26H204.314V18.416C204.314 18.16 204.314 17.824 204.314 17.408C204.33 16.992 204.346 16.584 204.362 16.184C204.378 15.768 204.394 15.456 204.41 15.248L197.57 26H194.954V13.136H196.946V20.984ZM215.536 26.24C214.4 26.24 213.384 26.008 212.488 25.544C211.608 25.08 210.912 24.36 210.4 23.384C209.904 22.408 209.656 21.16 209.656 19.64C209.656 18.056 209.92 16.768 210.448 15.776C210.976 14.784 211.688 14.056 212.584 13.592C213.496 13.128 214.528 12.896 215.68 12.896C216.336 12.896 216.968 12.968 217.576 13.112C218.184 13.24 218.68 13.4 219.064 13.592L218.416 15.344C218.032 15.2 217.584 15.064 217.072 14.936C216.56 14.808 216.08 14.744 215.632 14.744C214.768 14.744 214.056 14.928 213.496 15.296C212.936 15.664 212.52 16.208 212.248 16.928C211.976 17.648 211.84 18.544 211.84 19.616C211.84 20.64 211.976 21.512 212.248 22.232C212.52 22.952 212.928 23.496 213.472 23.864C214.016 24.232 214.696 24.416 215.512 24.416C216.216 24.416 216.832 24.344 217.36 24.2C217.904 24.056 218.4 23.88 218.848 23.672V25.544C218.416 25.768 217.936 25.936 217.408 26.048C216.896 26.176 216.272 26.24 215.536 26.24ZM227.067 26.24C225.931 26.24 224.915 26.008 224.019 25.544C223.139 25.08 222.443 24.36 221.931 23.384C221.435 22.408 221.187 21.16 221.187 19.64C221.187 18.056 221.451 16.768 221.979 15.776C222.507 14.784 223.219 14.056 224.115 13.592C225.027 13.128 226.059 12.896 227.211 12.896C227.867 12.896 228.499 12.968 229.107 13.112C229.715 13.24 230.211 13.4 230.595 13.592L229.947 15.344C229.563 15.2 229.115 15.064 228.603 14.936C228.091 14.808 227.611 14.744 227.163 14.744C226.299 14.744 225.587 14.928 225.027 15.296C224.467 15.664 224.051 16.208 223.779 16.928C223.507 17.648 223.371 18.544 223.371 19.616C223.371 20.64 223.507 21.512 223.779 22.232C224.051 22.952 224.459 23.496 225.003 23.864C225.547 24.232 226.227 24.416 227.043 24.416C227.747 24.416 228.363 24.344 228.891 24.2C229.435 24.056 229.931 23.88 230.379 23.672V25.544C229.947 25.768 229.467 25.936 228.939 26.048C228.427 26.176 227.803 26.24 227.067 26.24ZM243.23 26H241.094V14.888H237.302C237.142 16.92 236.942 18.656 236.702 20.096C236.462 21.52 236.158 22.68 235.79 23.576C235.422 24.472 234.982 25.128 234.47 25.544C233.958 25.96 233.358 26.168 232.67 26.168C232.462 26.168 232.254 26.152 232.046 26.12C231.854 26.104 231.694 26.064 231.566 26V24.416C231.662 24.448 231.766 24.472 231.878 24.488C231.99 24.504 232.102 24.512 232.214 24.512C232.566 24.512 232.886 24.368 233.174 24.08C233.462 23.792 233.718 23.352 233.942 22.76C234.182 22.168 234.398 21.424 234.59 20.528C234.782 19.616 234.95 18.544 235.094 17.312C235.238 16.08 235.366 14.688 235.478 13.136H243.23V26ZM252.281 12.896C253.385 12.896 254.329 13.136 255.113 13.616C255.913 14.096 256.521 14.776 256.937 15.656C257.369 16.52 257.585 17.536 257.585 18.704V19.976H248.777C248.809 21.432 249.177 22.544 249.881 23.312C250.601 24.064 251.601 24.44 252.881 24.44C253.697 24.44 254.417 24.368 255.041 24.224C255.681 24.064 256.337 23.84 257.009 23.552V25.4C256.353 25.688 255.705 25.896 255.065 26.024C254.425 26.168 253.665 26.24 252.785 26.24C251.569 26.24 250.489 25.992 249.545 25.496C248.617 25 247.889 24.264 247.361 23.288C246.849 22.296 246.593 21.088 246.593 19.664C246.593 18.256 246.825 17.048 247.289 16.04C247.769 15.032 248.433 14.256 249.281 13.712C250.145 13.168 251.145 12.896 252.281 12.896ZM252.257 14.624C251.249 14.624 250.449 14.952 249.857 15.608C249.281 16.248 248.937 17.144 248.825 18.296H255.377C255.377 17.56 255.265 16.92 255.041 16.376C254.817 15.832 254.473 15.408 254.009 15.104C253.561 14.784 252.977 14.624 252.257 14.624ZM270.412 13.136V24.224H272.284V30.464H270.244V26H261.292V30.464H259.276V24.224H260.308C261.044 23.2 261.652 22.088 262.132 20.888C262.628 19.672 262.996 18.408 263.236 17.096C263.492 15.768 263.628 14.448 263.644 13.136H270.412ZM265.516 14.792C265.452 15.88 265.284 17.008 265.012 18.176C264.74 19.328 264.388 20.432 263.956 21.488C263.54 22.544 263.052 23.456 262.492 24.224H268.372V14.792H265.516ZM285.99 19.544C285.99 20.616 285.846 21.568 285.558 22.4C285.286 23.216 284.886 23.912 284.358 24.488C283.846 25.064 283.214 25.504 282.462 25.808C281.726 26.096 280.902 26.24 279.99 26.24C279.142 26.24 278.358 26.096 277.638 25.808C276.918 25.504 276.294 25.064 275.766 24.488C275.238 23.912 274.822 23.216 274.518 22.4C274.23 21.568 274.086 20.616 274.086 19.544C274.086 18.12 274.326 16.92 274.806 15.944C275.286 14.952 275.974 14.2 276.87 13.688C277.766 13.16 278.83 12.896 280.062 12.896C281.23 12.896 282.254 13.16 283.134 13.688C284.03 14.2 284.726 14.952 285.222 15.944C285.734 16.92 285.99 18.12 285.99 19.544ZM276.27 19.544C276.27 20.552 276.398 21.432 276.654 22.184C276.926 22.92 277.342 23.488 277.902 23.888C278.462 24.288 279.174 24.488 280.038 24.488C280.902 24.488 281.614 24.288 282.174 23.888C282.734 23.488 283.142 22.92 283.398 22.184C283.67 21.432 283.806 20.552 283.806 19.544C283.806 18.52 283.67 17.648 283.398 16.928C283.126 16.208 282.71 15.656 282.15 15.272C281.606 14.872 280.894 14.672 280.014 14.672C278.702 14.672 277.75 15.104 277.158 15.968C276.566 16.832 276.27 18.024 276.27 19.544ZM299.681 16.376C299.681 17.176 299.441 17.8 298.961 18.248C298.481 18.696 297.865 19 297.113 19.16V19.256C297.913 19.368 298.609 19.656 299.201 20.12C299.793 20.568 300.089 21.272 300.089 22.232C300.089 22.776 299.985 23.28 299.777 23.744C299.585 24.208 299.281 24.608 298.865 24.944C298.449 25.28 297.913 25.544 297.257 25.736C296.601 25.912 295.809 26 294.881 26H289.337V13.136H294.857C295.769 13.136 296.585 13.24 297.305 13.448C298.041 13.64 298.617 13.976 299.033 14.456C299.465 14.92 299.681 15.56 299.681 16.376ZM297.905 22.232C297.905 21.496 297.625 20.968 297.065 20.648C296.505 20.328 295.681 20.168 294.593 20.168H291.449V24.296H294.641C295.697 24.296 296.505 24.144 297.065 23.84C297.625 23.52 297.905 22.984 297.905 22.232ZM297.545 16.64C297.545 16.032 297.321 15.592 296.873 15.32C296.441 15.032 295.729 14.888 294.737 14.888H291.449V18.416H294.353C295.393 18.416 296.185 18.272 296.729 17.984C297.273 17.696 297.545 17.248 297.545 16.64ZM308.037 12.92C309.605 12.92 310.765 13.264 311.517 13.952C312.269 14.64 312.645 15.736 312.645 17.24V26H311.109L310.701 24.176H310.605C310.237 24.64 309.853 25.032 309.453 25.352C309.069 25.656 308.621 25.88 308.109 26.024C307.613 26.168 307.005 26.24 306.285 26.24C305.517 26.24 304.821 26.104 304.197 25.832C303.589 25.56 303.109 25.144 302.757 24.584C302.405 24.008 302.229 23.288 302.229 22.424C302.229 21.144 302.733 20.16 303.741 19.472C304.749 18.768 306.301 18.384 308.397 18.32L310.581 18.248V17.48C310.581 16.408 310.349 15.664 309.885 15.248C309.421 14.832 308.765 14.624 307.917 14.624C307.245 14.624 306.605 14.728 305.997 14.936C305.389 15.128 304.821 15.352 304.293 15.608L303.645 14.024C304.205 13.72 304.869 13.464 305.637 13.256C306.405 13.032 307.205 12.92 308.037 12.92ZM308.661 19.784C307.061 19.848 305.949 20.104 305.325 20.552C304.717 21 304.413 21.632 304.413 22.448C304.413 23.168 304.629 23.696 305.061 24.032C305.509 24.368 306.077 24.536 306.765 24.536C307.853 24.536 308.757 24.24 309.477 23.648C310.197 23.04 310.557 22.112 310.557 20.864V19.712L308.661 19.784ZM318.73 13.136V18.488H325.714V13.136H327.826V26H325.714V20.264H318.73V26H316.618V13.136H318.73ZM333.891 20.984C333.891 21.128 333.883 21.336 333.867 21.608C333.867 21.864 333.859 22.144 333.843 22.448C333.827 22.736 333.811 23.016 333.795 23.288C333.779 23.544 333.763 23.752 333.747 23.912L340.635 13.136H343.227V26H341.259V18.416C341.259 18.16 341.259 17.824 341.259 17.408C341.275 16.992 341.291 16.584 341.307 16.184C341.323 15.768 341.339 15.456 341.355 15.248L334.515 26H331.899V13.136H333.891V20.984ZM349.313 20.984C349.313 21.128 349.305 21.336 349.289 21.608C349.289 21.864 349.281 22.144 349.265 22.448C349.249 22.736 349.233 23.016 349.217 23.288C349.201 23.544 349.185 23.752 349.169 23.912L356.057 13.136H358.649V26H356.681V18.416C356.681 18.16 356.681 17.824 356.681 17.408C356.697 16.992 356.713 16.584 356.729 16.184C356.745 15.768 356.761 15.456 356.777 15.248L349.937 26H347.321V13.136H349.313V20.984ZM367.898 19.52L371.93 14.696L373.442 15.56L370.082 19.664L373.442 23.768L371.93 24.656L367.898 19.832V19.52ZM372.65 19.52L376.73 14.696L378.218 15.56L374.858 19.664L378.218 23.768L376.73 24.656L372.65 19.832V19.52ZM391.148 8.864V10.784H383.636V26H381.476V8.864H391.148ZM397.055 12.896C398.159 12.896 399.103 13.136 399.887 13.616C400.687 14.096 401.295 14.776 401.711 15.656C402.143 16.52 402.359 17.536 402.359 18.704V19.976H393.551C393.583 21.432 393.951 22.544 394.655 23.312C395.375 24.064 396.375 24.44 397.655 24.44C398.471 24.44 399.191 24.368 399.815 24.224C400.455 24.064 401.111 23.84 401.783 23.552V25.4C401.127 25.688 400.479 25.896 399.839 26.024C399.199 26.168 398.439 26.24 397.559 26.24C396.343 26.24 395.263 25.992 394.319 25.496C393.391 25 392.663 24.264 392.135 23.288C391.623 22.296 391.367 21.088 391.367 19.664C391.367 18.256 391.599 17.048 392.063 16.04C392.543 15.032 393.207 14.256 394.055 13.712C394.919 13.168 395.919 12.896 397.055 12.896ZM397.031 14.624C396.023 14.624 395.223 14.952 394.631 15.608C394.055 16.248 393.711 17.144 393.599 18.296H400.151C400.151 17.56 400.039 16.92 399.815 16.376C399.591 15.832 399.247 15.408 398.783 15.104C398.335 14.784 397.751 14.624 397.031 14.624ZM407.746 13.136V18.488H414.73V13.136H416.842V26H414.73V20.264H407.746V26H405.634V13.136H407.746ZM425.883 12.896C426.987 12.896 427.931 13.136 428.715 13.616C429.515 14.096 430.123 14.776 430.539 15.656C430.971 16.52 431.187 17.536 431.187 18.704V19.976H422.379C422.411 21.432 422.779 22.544 423.483 23.312C424.203 24.064 425.203 24.44 426.483 24.44C427.299 24.44 428.019 24.368 428.643 24.224C429.283 24.064 429.939 23.84 430.611 23.552V25.4C429.955 25.688 429.307 25.896 428.667 26.024C428.027 26.168 427.267 26.24 426.387 26.24C425.171 26.24 424.091 25.992 423.147 25.496C422.219 25 421.491 24.264 420.963 23.288C420.451 22.296 420.195 21.088 420.195 19.664C420.195 18.256 420.427 17.048 420.891 16.04C421.371 15.032 422.035 14.256 422.883 13.712C423.747 13.168 424.747 12.896 425.883 12.896ZM425.859 14.624C424.851 14.624 424.051 14.952 423.459 15.608C422.883 16.248 422.539 17.144 422.427 18.296H428.979C428.979 17.56 428.867 16.92 428.643 16.376C428.419 15.832 428.075 15.408 427.611 15.104C427.163 14.784 426.579 14.624 425.859 14.624ZM443.342 14.912H439.142V26H437.054V14.912H432.902V13.136H443.342V14.912ZM447.868 20.984C447.868 21.128 447.86 21.336 447.844 21.608C447.844 21.864 447.836 22.144 447.82 22.448C447.804 22.736 447.788 23.016 447.772 23.288C447.756 23.544 447.74 23.752 447.724 23.912L454.612 13.136H457.204V26H455.236V18.416C455.236 18.16 455.236 17.824 455.236 17.408C455.252 16.992 455.268 16.584 455.284 16.184C455.3 15.768 455.316 15.456 455.332 15.248L448.492 26H445.876V13.136H447.868V20.984ZM463.146 17.816C463.146 18.568 463.354 19.128 463.77 19.496C464.202 19.848 464.818 20.024 465.618 20.024C466.418 20.024 467.146 19.904 467.802 19.664C468.458 19.408 469.13 19.072 469.818 18.656V13.136H471.93V26H469.818V20.264C469.098 20.728 468.386 21.096 467.682 21.368C466.994 21.624 466.162 21.752 465.186 21.752C463.874 21.752 462.85 21.408 462.114 20.72C461.394 20.032 461.034 19.112 461.034 17.96V13.136H463.146V17.816ZM480.985 12.896C482.089 12.896 483.033 13.136 483.817 13.616C484.617 14.096 485.225 14.776 485.641 15.656C486.073 16.52 486.289 17.536 486.289 18.704V19.976H477.481C477.513 21.432 477.881 22.544 478.585 23.312C479.305 24.064 480.305 24.44 481.585 24.44C482.401 24.44 483.121 24.368 483.745 24.224C484.385 24.064 485.041 23.84 485.713 23.552V25.4C485.057 25.688 484.409 25.896 483.769 26.024C483.129 26.168 482.369 26.24 481.489 26.24C480.273 26.24 479.193 25.992 478.249 25.496C477.321 25 476.593 24.264 476.065 23.288C475.553 22.296 475.297 21.088 475.297 19.664C475.297 18.256 475.529 17.048 475.993 16.04C476.473 15.032 477.137 14.256 477.985 13.712C478.849 13.168 479.849 12.896 480.985 12.896ZM480.961 14.624C479.953 14.624 479.153 14.952 478.561 15.608C477.985 16.248 477.641 17.144 477.529 18.296H484.081C484.081 17.56 483.969 16.92 483.745 16.376C483.521 15.832 483.177 15.408 482.713 15.104C482.265 14.784 481.681 14.624 480.961 14.624ZM494.723 26.24C493.587 26.24 492.571 26.008 491.675 25.544C490.795 25.08 490.099 24.36 489.587 23.384C489.091 22.408 488.843 21.16 488.843 19.64C488.843 18.056 489.107 16.768 489.635 15.776C490.163 14.784 490.875 14.056 491.771 13.592C492.683 13.128 493.715 12.896 494.867 12.896C495.523 12.896 496.155 12.968 496.763 13.112C497.371 13.24 497.867 13.4 498.251 13.592L497.603 15.344C497.219 15.2 496.771 15.064 496.259 14.936C495.747 14.808 495.267 14.744 494.819 14.744C493.955 14.744 493.243 14.928 492.683 15.296C492.123 15.664 491.707 16.208 491.435 16.928C491.163 17.648 491.027 18.544 491.027 19.616C491.027 20.64 491.163 21.512 491.435 22.232C491.707 22.952 492.115 23.496 492.659 23.864C493.203 24.232 493.883 24.416 494.699 24.416C495.403 24.416 496.019 24.344 496.547 24.2C497.091 24.056 497.587 23.88 498.035 23.672V25.544C497.603 25.768 497.123 25.936 496.595 26.048C496.083 26.176 495.459 26.24 494.723 26.24ZM508.703 13.136H511.007L505.511 19.328L511.463 26H509.015L503.207 19.472V26H501.095V13.136H503.207V19.376L508.703 13.136ZM518.67 12.92C520.238 12.92 521.398 13.264 522.15 13.952C522.902 14.64 523.278 15.736 523.278 17.24V26H521.742L521.334 24.176H521.238C520.87 24.64 520.486 25.032 520.086 25.352C519.702 25.656 519.254 25.88 518.742 26.024C518.246 26.168 517.638 26.24 516.918 26.24C516.15 26.24 515.454 26.104 514.83 25.832C514.222 25.56 513.742 25.144 513.39 24.584C513.038 24.008 512.862 23.288 512.862 22.424C512.862 21.144 513.366 20.16 514.374 19.472C515.382 18.768 516.934 18.384 519.03 18.32L521.214 18.248V17.48C521.214 16.408 520.982 15.664 520.518 15.248C520.054 14.832 519.398 14.624 518.55 14.624C517.878 14.624 517.238 14.728 516.63 14.936C516.022 15.128 515.454 15.352 514.926 15.608L514.278 14.024C514.838 13.72 515.502 13.464 516.27 13.256C517.038 13.032 517.838 12.92 518.67 12.92ZM519.294 19.784C517.694 19.848 516.582 20.104 515.958 20.552C515.35 21 515.046 21.632 515.046 22.448C515.046 23.168 515.262 23.696 515.694 24.032C516.142 24.368 516.71 24.536 517.398 24.536C518.486 24.536 519.39 24.24 520.11 23.648C520.83 23.04 521.19 22.112 521.19 20.864V19.712L519.294 19.784ZM528.043 26H525.595L529.267 20.6C528.771 20.472 528.291 20.272 527.827 20C527.363 19.712 526.987 19.32 526.699 18.824C526.411 18.312 526.267 17.68 526.267 16.928C526.267 15.696 526.683 14.76 527.515 14.12C528.347 13.464 529.451 13.136 530.827 13.136H536.587V26H534.475V20.888H531.355L528.043 26ZM528.307 16.952C528.307 17.688 528.579 18.24 529.123 18.608C529.683 18.96 530.459 19.136 531.451 19.136H534.475V14.888H531.043C530.067 14.888 529.363 15.08 528.931 15.464C528.515 15.848 528.307 16.344 528.307 16.952ZM548.956 26.24C548.22 26.24 547.58 26.176 547.036 26.048C546.508 25.936 546.012 25.768 545.548 25.544V23.72C546.028 23.912 546.548 24.08 547.108 24.224C547.668 24.368 548.3 24.44 549.004 24.44C549.836 24.44 550.556 24.296 551.164 24.008C551.772 23.704 552.252 23.24 552.604 22.616C552.956 21.992 553.156 21.2 553.204 20.24H546.868V18.512H553.18C553.068 17.2 552.692 16.24 552.052 15.632C551.428 15.024 550.508 14.72 549.292 14.72C548.828 14.72 548.316 14.784 547.756 14.912C547.212 15.04 546.724 15.184 546.292 15.344L545.692 13.64C546.156 13.432 546.708 13.256 547.348 13.112C547.988 12.968 548.628 12.896 549.268 12.896C550.468 12.896 551.524 13.12 552.436 13.568C553.364 14.016 554.084 14.728 554.596 15.704C555.124 16.68 555.388 17.968 555.388 19.568C555.388 21.088 555.108 22.344 554.548 23.336C554.004 24.328 553.244 25.064 552.268 25.544C551.308 26.008 550.204 26.24 548.956 26.24ZM569.623 13.136V26H567.511V14.936H560.863V26H558.751V13.136H569.623ZM575.72 20.984C575.72 21.128 575.712 21.336 575.696 21.608C575.696 21.864 575.688 22.144 575.672 22.448C575.656 22.736 575.64 23.016 575.624 23.288C575.608 23.544 575.592 23.752 575.576 23.912L582.464 13.136H585.056V26H583.088V18.416C583.088 18.16 583.088 17.824 583.088 17.408C583.104 16.992 583.12 16.584 583.136 16.184C583.152 15.768 583.168 15.456 583.184 15.248L576.344 26H573.728V13.136H575.72V20.984ZM598.701 13.136V24.224H600.573V30.464H598.533V26H589.581V30.464H587.565V24.224H588.597C589.333 23.2 589.941 22.088 590.421 20.888C590.917 19.672 591.285 18.408 591.525 17.096C591.781 15.768 591.917 14.448 591.933 13.136H598.701ZM593.805 14.792C593.741 15.88 593.573 17.008 593.301 18.176C593.029 19.328 592.677 20.432 592.245 21.488C591.829 22.544 591.341 23.456 590.781 24.224H596.661V14.792H593.805ZM608.063 12.896C609.167 12.896 610.111 13.136 610.895 13.616C611.695 14.096 612.303 14.776 612.719 15.656C613.151 16.52 613.367 17.536 613.367 18.704V19.976H604.559C604.591 21.432 604.959 22.544 605.663 23.312C606.383 24.064 607.383 24.44 608.663 24.44C609.479 24.44 610.199 24.368 610.823 24.224C611.463 24.064 612.119 23.84 612.791 23.552V25.4C612.135 25.688 611.487 25.896 610.847 26.024C610.207 26.168 609.447 26.24 608.567 26.24C607.351 26.24 606.271 25.992 605.327 25.496C604.399 25 603.671 24.264 603.143 23.288C602.631 22.296 602.375 21.088 602.375 19.664C602.375 18.256 602.607 17.048 603.071 16.04C603.551 15.032 604.215 14.256 605.063 13.712C605.927 13.168 606.927 12.896 608.063 12.896ZM608.039 14.624C607.031 14.624 606.231 14.952 605.639 15.608C605.063 16.248 604.719 17.144 604.607 18.296H611.159C611.159 17.56 611.047 16.92 610.823 16.376C610.599 15.832 610.255 15.408 609.791 15.104C609.343 14.784 608.759 14.624 608.039 14.624ZM630.442 13.136V26H628.546V17.792C628.546 17.456 628.554 17.104 628.57 16.736C628.602 16.368 628.634 16.008 628.666 15.656H628.594L624.394 26H622.618L618.538 15.656H618.466C618.498 16.008 618.514 16.368 618.514 16.736C618.53 17.104 618.538 17.48 618.538 17.864V26H616.642V13.136H619.45L623.506 23.48L627.634 13.136H630.442ZM636.54 20.984C636.54 21.128 636.532 21.336 636.516 21.608C636.516 21.864 636.508 22.144 636.492 22.448C636.476 22.736 636.46 23.016 636.444 23.288C636.428 23.544 636.412 23.752 636.396 23.912L643.284 13.136H645.876V26H643.908V18.416C643.908 18.16 643.908 17.824 643.908 17.408C643.924 16.992 643.94 16.584 643.956 16.184C643.972 15.768 643.988 15.456 644.004 15.248L637.164 26H634.548V13.136H636.54V20.984ZM661.154 19.544C661.154 20.616 661.01 21.568 660.722 22.4C660.45 23.216 660.05 23.912 659.522 24.488C659.01 25.064 658.378 25.504 657.626 25.808C656.89 26.096 656.066 26.24 655.154 26.24C654.306 26.24 653.522 26.096 652.802 25.808C652.082 25.504 651.458 25.064 650.93 24.488C650.402 23.912 649.986 23.216 649.682 22.4C649.394 21.568 649.25 20.616 649.25 19.544C649.25 18.12 649.49 16.92 649.97 15.944C650.45 14.952 651.138 14.2 652.034 13.688C652.93 13.16 653.994 12.896 655.226 12.896C656.394 12.896 657.418 13.16 658.298 13.688C659.194 14.2 659.89 14.952 660.386 15.944C660.898 16.92 661.154 18.12 661.154 19.544ZM651.434 19.544C651.434 20.552 651.562 21.432 651.818 22.184C652.09 22.92 652.506 23.488 653.066 23.888C653.626 24.288 654.338 24.488 655.202 24.488C656.066 24.488 656.778 24.288 657.338 23.888C657.898 23.488 658.306 22.92 658.562 22.184C658.834 21.432 658.97 20.552 658.97 19.544C658.97 18.52 658.834 17.648 658.562 16.928C658.29 16.208 657.874 15.656 657.314 15.272C656.77 14.872 656.058 14.672 655.178 14.672C653.866 14.672 652.914 15.104 652.322 15.968C651.73 16.832 651.434 18.024 651.434 19.544ZM674.293 26H672.157V14.888H668.365C668.205 16.92 668.005 18.656 667.765 20.096C667.525 21.52 667.221 22.68 666.853 23.576C666.485 24.472 666.045 25.128 665.533 25.544C665.021 25.96 664.421 26.168 663.733 26.168C663.525 26.168 663.317 26.152 663.109 26.12C662.917 26.104 662.757 26.064 662.629 26V24.416C662.725 24.448 662.829 24.472 662.941 24.488C663.053 24.504 663.165 24.512 663.277 24.512C663.629 24.512 663.949 24.368 664.237 24.08C664.525 23.792 664.781 23.352 665.005 22.76C665.245 22.168 665.461 21.424 665.653 20.528C665.845 19.616 666.013 18.544 666.157 17.312C666.301 16.08 666.429 14.688 666.541 13.136H674.293V26ZM689.56 19.544C689.56 20.616 689.416 21.568 689.128 22.4C688.856 23.216 688.456 23.912 687.928 24.488C687.416 25.064 686.784 25.504 686.032 25.808C685.296 26.096 684.472 26.24 683.56 26.24C682.712 26.24 681.928 26.096 681.208 25.808C680.488 25.504 679.864 25.064 679.336 24.488C678.808 23.912 678.392 23.216 678.088 22.4C677.8 21.568 677.656 20.616 677.656 19.544C677.656 18.12 677.896 16.92 678.376 15.944C678.856 14.952 679.544 14.2 680.44 13.688C681.336 13.16 682.4 12.896 683.632 12.896C684.8 12.896 685.824 13.16 686.704 13.688C687.6 14.2 688.296 14.952 688.792 15.944C689.304 16.92 689.56 18.12 689.56 19.544ZM679.84 19.544C679.84 20.552 679.968 21.432 680.224 22.184C680.496 22.92 680.912 23.488 681.472 23.888C682.032 24.288 682.744 24.488 683.608 24.488C684.472 24.488 685.184 24.288 685.744 23.888C686.304 23.488 686.712 22.92 686.968 22.184C687.24 21.432 687.376 20.552 687.376 19.544C687.376 18.52 687.24 17.648 686.968 16.928C686.696 16.208 686.28 15.656 685.72 15.272C685.176 14.872 684.464 14.672 683.584 14.672C682.272 14.672 681.32 15.104 680.728 15.968C680.136 16.832 679.84 18.024 679.84 19.544ZM700.755 13.136V14.912H695.019V26H692.907V13.136H700.755ZM705.282 20.984C705.282 21.128 705.274 21.336 705.258 21.608C705.258 21.864 705.25 22.144 705.234 22.448C705.218 22.736 705.202 23.016 705.186 23.288C705.17 23.544 705.154 23.752 705.138 23.912L712.026 13.136H714.618V26H712.65V18.416C712.65 18.16 712.65 17.824 712.65 17.408C712.666 16.992 712.682 16.584 712.698 16.184C712.714 15.768 712.73 15.456 712.746 15.248L705.906 26H703.29V13.136H705.282V20.984ZM719.504 26H717.056L720.728 20.6C720.232 20.472 719.752 20.272 719.288 20C718.824 19.712 718.448 19.32 718.16 18.824C717.872 18.312 717.728 17.68 717.728 16.928C717.728 15.696 718.144 14.76 718.976 14.12C719.808 13.464 720.912 13.136 722.288 13.136H728.048V26H725.936V20.888H722.816L719.504 26ZM719.768 16.952C719.768 17.688 720.04 18.24 720.584 18.608C721.144 18.96 721.92 19.136 722.912 19.136H725.936V14.888H722.504C721.528 14.888 720.824 15.08 720.392 15.464C719.976 15.848 719.768 16.344 719.768 16.952ZM13.968 59H11.52L6.984 51.56L2.376 59H0.096L5.784 50.072L0.456 41.864H2.856L7.056 48.584L11.28 41.864H13.56L8.256 50.024L13.968 59ZM30.8738 50.408C30.8738 51.736 30.7058 52.944 30.3698 54.032C30.0338 55.104 29.5298 56.032 28.8578 56.816C28.2018 57.6 27.3778 58.2 26.3858 58.616C25.4098 59.032 24.2738 59.24 22.9778 59.24C21.6338 59.24 20.4658 59.032 19.4738 58.616C18.4818 58.184 17.6578 57.584 17.0018 56.816C16.3458 56.032 15.8578 55.096 15.5378 54.008C15.2178 52.92 15.0578 51.712 15.0578 50.384C15.0578 48.624 15.3458 47.088 15.9218 45.776C16.4978 44.464 17.3698 43.44 18.5378 42.704C19.7218 41.968 21.2098 41.6 23.0018 41.6C24.7138 41.6 26.1538 41.968 27.3218 42.704C28.4898 43.424 29.3698 44.448 29.9618 45.776C30.5698 47.088 30.8738 48.632 30.8738 50.408ZM17.3378 50.408C17.3378 51.848 17.5378 53.088 17.9378 54.128C18.3378 55.168 18.9538 55.968 19.7858 56.528C20.6338 57.088 21.6978 57.368 22.9778 57.368C24.2738 57.368 25.3298 57.088 26.1458 56.528C26.9778 55.968 27.5938 55.168 27.9938 54.128C28.3938 53.088 28.5938 51.848 28.5938 50.408C28.5938 48.248 28.1458 46.56 27.2498 45.344C26.3538 44.112 24.9378 43.496 23.0018 43.496C21.7058 43.496 20.6338 43.776 19.7858 44.336C18.9538 44.88 18.3378 45.672 17.9378 46.712C17.5378 47.736 17.3378 48.968 17.3378 50.408ZM34.6718 59V41.864H44.8478V43.76H36.8318V49.112H39.3758C41.0878 49.112 42.4158 49.328 43.3598 49.76C44.3038 50.176 44.9598 50.752 45.3278 51.488C45.6958 52.208 45.8798 53.04 45.8798 53.984C45.8798 55.024 45.6718 55.92 45.2558 56.672C44.8558 57.424 44.1998 58 43.2878 58.4C42.3758 58.8 41.1758 59 39.6878 59H34.6718ZM39.4718 57.152C41.0078 57.152 42.0878 56.896 42.7118 56.384C43.3358 55.856 43.6478 55.056 43.6478 53.984C43.6478 53.248 43.4958 52.664 43.1918 52.232C42.9038 51.784 42.4238 51.464 41.7518 51.272C41.0958 51.08 40.2158 50.984 39.1118 50.984H36.8318V57.152H39.4718ZM61.7734 59H59.6134V43.76H54.1894C54.0774 44.64 53.9574 45.568 53.8294 46.544C53.7014 47.504 53.5654 48.456 53.4214 49.4C53.2934 50.344 53.1654 51.232 53.0374 52.064C52.9094 52.896 52.7814 53.624 52.6534 54.248C52.4454 55.32 52.1894 56.232 51.8854 56.984C51.5814 57.736 51.1734 58.304 50.6614 58.688C50.1654 59.072 49.5094 59.264 48.6934 59.264C48.4214 59.264 48.1414 59.232 47.8534 59.168C47.5814 59.12 47.3414 59.056 47.1334 58.976V57.176C47.3094 57.256 47.5094 57.328 47.7334 57.392C47.9574 57.44 48.1974 57.464 48.4534 57.464C48.9334 57.464 49.3094 57.272 49.5814 56.888C49.8694 56.488 50.0934 56 50.2534 55.424C50.4134 54.832 50.5494 54.248 50.6614 53.672C50.7574 53.208 50.8694 52.592 50.9974 51.824C51.1254 51.04 51.2614 50.128 51.4054 49.088C51.5654 48.048 51.7254 46.92 51.8854 45.704C52.0614 44.472 52.2294 43.192 52.3894 41.864H61.7734V59ZM75.3576 52.832L71.2776 57.656L69.7896 56.768L73.1496 52.664L69.7896 48.56L71.2776 47.696L75.3576 52.52V52.832ZM70.5816 52.832L66.5256 57.656L65.0376 56.768L68.3976 52.664L65.0376 48.56L66.5256 47.696L70.5816 52.52V52.832ZM83.5069 52.424C83.5069 51.112 83.6269 49.832 83.8669 48.584C84.1229 47.336 84.5149 46.144 85.0429 45.008C85.5709 43.872 86.2349 42.824 87.0349 41.864H89.0269C88.2909 42.856 87.6669 43.928 87.1549 45.08C86.6589 46.232 86.2829 47.424 86.0269 48.656C85.7709 49.888 85.6429 51.136 85.6429 52.4C85.6429 53.632 85.7709 54.856 86.0269 56.072C86.2829 57.288 86.6589 58.456 87.1549 59.576C87.6509 60.712 88.2669 61.784 89.0029 62.792H87.0349C86.2349 61.848 85.5709 60.816 85.0429 59.696C84.5149 58.592 84.1229 57.424 83.8669 56.192C83.6269 54.96 83.5069 53.704 83.5069 52.424ZM99.4142 43.52C98.5022 43.52 97.6782 43.68 96.9422 44C96.2062 44.304 95.5822 44.76 95.0702 45.368C94.5582 45.96 94.1662 46.688 93.8942 47.552C93.6222 48.4 93.4862 49.36 93.4862 50.432C93.4862 51.84 93.7022 53.064 94.1342 54.104C94.5822 55.144 95.2382 55.944 96.1022 56.504C96.9822 57.064 98.0782 57.344 99.3902 57.344C100.142 57.344 100.854 57.28 101.526 57.152C102.198 57.024 102.854 56.864 103.494 56.672V58.544C102.854 58.784 102.19 58.96 101.502 59.072C100.83 59.184 100.022 59.24 99.0782 59.24C97.3342 59.24 95.8782 58.88 94.7102 58.16C93.5422 57.44 92.6622 56.416 92.0702 55.088C91.4942 53.76 91.2062 52.2 91.2062 50.408C91.2062 49.112 91.3822 47.928 91.7342 46.856C92.1022 45.784 92.6302 44.856 93.3182 44.072C94.0222 43.288 94.8862 42.688 95.9102 42.272C96.9342 41.84 98.1102 41.624 99.4382 41.624C100.318 41.624 101.166 41.712 101.982 41.888C102.798 42.064 103.526 42.312 104.166 42.632L103.302 44.456C102.774 44.216 102.182 44 101.526 43.808C100.886 43.616 100.182 43.52 99.4142 43.52ZM121.718 50.408C121.718 51.736 121.55 52.944 121.214 54.032C120.878 55.104 120.374 56.032 119.702 56.816C119.046 57.6 118.222 58.2 117.23 58.616C116.254 59.032 115.118 59.24 113.822 59.24C112.478 59.24 111.31 59.032 110.318 58.616C109.326 58.184 108.502 57.584 107.846 56.816C107.19 56.032 106.702 55.096 106.382 54.008C106.062 52.92 105.902 51.712 105.902 50.384C105.902 48.624 106.19 47.088 106.766 45.776C107.342 44.464 108.214 43.44 109.382 42.704C110.566 41.968 112.054 41.6 113.846 41.6C115.558 41.6 116.998 41.968 118.166 42.704C119.334 43.424 120.214 44.448 120.806 45.776C121.414 47.088 121.718 48.632 121.718 50.408ZM108.182 50.408C108.182 51.848 108.382 53.088 108.782 54.128C109.182 55.168 109.798 55.968 110.63 56.528C111.478 57.088 112.542 57.368 113.822 57.368C115.118 57.368 116.174 57.088 116.99 56.528C117.822 55.968 118.438 55.168 118.838 54.128C119.238 53.088 119.438 51.848 119.438 50.408C119.438 48.248 118.99 46.56 118.094 45.344C117.198 44.112 115.782 43.496 113.846 43.496C112.55 43.496 111.478 43.776 110.63 44.336C109.798 44.88 109.182 45.672 108.782 46.712C108.382 47.736 108.182 48.968 108.182 50.408ZM130.052 41.864C132.292 41.864 133.924 42.304 134.948 43.184C135.972 44.064 136.484 45.304 136.484 46.904C136.484 47.608 136.364 48.288 136.124 48.944C135.9 49.584 135.524 50.16 134.996 50.672C134.468 51.184 133.764 51.592 132.884 51.896C132.004 52.184 130.924 52.328 129.644 52.328H127.676V59H125.516V41.864H130.052ZM129.86 43.712H127.676V50.48H129.404C130.492 50.48 131.396 50.368 132.116 50.144C132.836 49.904 133.372 49.528 133.724 49.016C134.076 48.504 134.252 47.832 134.252 47C134.252 45.896 133.9 45.072 133.196 44.528C132.492 43.984 131.38 43.712 129.86 43.712ZM153.775 50.264C153.775 52.184 153.415 53.792 152.695 55.088C151.991 56.384 150.975 57.36 149.647 58.016C148.319 58.672 146.711 59 144.823 59H140.047V41.864H145.327C147.055 41.864 148.551 42.184 149.815 42.824C151.079 43.464 152.055 44.408 152.743 45.656C153.431 46.888 153.775 48.424 153.775 50.264ZM151.495 50.336C151.495 48.816 151.239 47.568 150.727 46.592C150.231 45.616 149.495 44.896 148.519 44.432C147.559 43.952 146.391 43.712 145.015 43.712H142.207V57.152H144.535C146.855 57.152 148.591 56.584 149.743 55.448C150.911 54.296 151.495 52.592 151.495 50.336ZM165.018 49.952H170.946V58.352C170.018 58.656 169.082 58.88 168.138 59.024C167.194 59.168 166.122 59.24 164.922 59.24C163.146 59.24 161.65 58.888 160.434 58.184C159.218 57.464 158.29 56.448 157.65 55.136C157.026 53.808 156.714 52.24 156.714 50.432C156.714 48.64 157.066 47.088 157.77 45.776C158.474 44.464 159.482 43.448 160.794 42.728C162.122 41.992 163.722 41.624 165.594 41.624C166.554 41.624 167.458 41.712 168.306 41.888C169.17 42.064 169.97 42.312 170.706 42.632L169.89 44.504C169.282 44.232 168.594 44 167.826 43.808C167.074 43.616 166.29 43.52 165.474 43.52C164.114 43.52 162.946 43.8 161.97 44.36C160.994 44.92 160.25 45.72 159.738 46.76C159.226 47.784 158.97 49.008 158.97 50.432C158.97 51.792 159.186 53 159.618 54.056C160.066 55.096 160.762 55.912 161.706 56.504C162.65 57.08 163.89 57.368 165.426 57.368C165.938 57.368 166.386 57.352 166.77 57.32C167.17 57.272 167.53 57.216 167.85 57.152C168.186 57.088 168.498 57.024 168.786 56.96V51.872H165.018V49.952ZM179.719 45.896C180.823 45.896 181.767 46.136 182.551 46.616C183.351 47.096 183.959 47.776 184.375 48.656C184.807 49.52 185.023 50.536 185.023 51.704V52.976H176.215C176.247 54.432 176.615 55.544 177.319 56.312C178.039 57.064 179.039 57.44 180.319 57.44C181.135 57.44 181.855 57.368 182.479 57.224C183.119 57.064 183.775 56.84 184.447 56.552V58.4C183.791 58.688 183.143 58.896 182.503 59.024C181.863 59.168 181.103 59.24 180.223 59.24C179.007 59.24 177.927 58.992 176.983 58.496C176.055 58 175.327 57.264 174.799 56.288C174.287 55.296 174.031 54.088 174.031 52.664C174.031 51.256 174.263 50.048 174.727 49.04C175.207 48.032 175.871 47.256 176.719 46.712C177.583 46.168 178.583 45.896 179.719 45.896ZM179.695 47.624C178.687 47.624 177.887 47.952 177.295 48.608C176.719 49.248 176.375 50.144 176.263 51.296H182.815C182.815 50.56 182.703 49.92 182.479 49.376C182.255 48.832 181.911 48.408 181.447 48.104C180.999 47.784 180.415 47.624 179.695 47.624ZM194.49 45.896C196.026 45.896 197.186 46.272 197.97 47.024C198.754 47.76 199.146 48.96 199.146 50.624V59H197.058V50.768C197.058 49.728 196.826 48.952 196.362 48.44C195.898 47.928 195.17 47.672 194.178 47.672C192.754 47.672 191.77 48.072 191.226 48.872C190.682 49.672 190.41 50.824 190.41 52.328V59H188.298V46.136H190.002L190.314 47.888H190.434C190.722 47.44 191.074 47.072 191.49 46.784C191.922 46.48 192.394 46.256 192.906 46.112C193.418 45.968 193.946 45.896 194.49 45.896ZM208.102 45.896C209.206 45.896 210.15 46.136 210.934 46.616C211.734 47.096 212.342 47.776 212.758 48.656C213.19 49.52 213.406 50.536 213.406 51.704V52.976H204.598C204.63 54.432 204.998 55.544 205.702 56.312C206.422 57.064 207.422 57.44 208.702 57.44C209.518 57.44 210.238 57.368 210.862 57.224C211.502 57.064 212.158 56.84 212.83 56.552V58.4C212.174 58.688 211.526 58.896 210.886 59.024C210.246 59.168 209.486 59.24 208.606 59.24C207.39 59.24 206.31 58.992 205.366 58.496C204.438 58 203.71 57.264 203.182 56.288C202.67 55.296 202.414 54.088 202.414 52.664C202.414 51.256 202.646 50.048 203.11 49.04C203.59 48.032 204.254 47.256 205.102 46.712C205.966 46.168 206.966 45.896 208.102 45.896ZM208.078 47.624C207.07 47.624 206.27 47.952 205.678 48.608C205.102 49.248 204.758 50.144 204.646 51.296H211.198C211.198 50.56 211.086 49.92 210.862 49.376C210.638 48.832 210.294 48.408 209.83 48.104C209.382 47.784 208.798 47.624 208.078 47.624ZM220.881 52.424C220.881 53.704 220.753 54.96 220.497 56.192C220.257 57.424 219.873 58.592 219.345 59.696C218.833 60.816 218.169 61.848 217.353 62.792H215.385C216.121 61.784 216.737 60.712 217.233 59.576C217.729 58.456 218.105 57.288 218.361 56.072C218.617 54.856 218.745 53.632 218.745 52.4C218.745 51.136 218.617 49.888 218.361 48.656C218.105 47.424 217.729 46.232 217.233 45.08C216.737 43.928 216.113 42.856 215.361 41.864H217.353C218.169 42.824 218.833 43.872 219.345 45.008C219.873 46.144 220.257 47.336 220.497 48.584C220.753 49.832 220.881 51.112 220.881 52.424ZM235.27 59.24C234.134 59.24 233.118 59.008 232.222 58.544C231.342 58.08 230.646 57.36 230.134 56.384C229.638 55.408 229.39 54.16 229.39 52.64C229.39 51.056 229.654 49.768 230.182 48.776C230.71 47.784 231.422 47.056 232.318 46.592C233.23 46.128 234.262 45.896 235.414 45.896C236.07 45.896 236.702 45.968 237.31 46.112C237.918 46.24 238.414 46.4 238.798 46.592L238.15 48.344C237.766 48.2 237.318 48.064 236.806 47.936C236.294 47.808 235.814 47.744 235.366 47.744C234.502 47.744 233.79 47.928 233.23 48.296C232.67 48.664 232.254 49.208 231.982 49.928C231.71 50.648 231.574 51.544 231.574 52.616C231.574 53.64 231.71 54.512 231.982 55.232C232.254 55.952 232.662 56.496 233.206 56.864C233.75 57.232 234.43 57.416 235.246 57.416C235.95 57.416 236.566 57.344 237.094 57.2C237.638 57.056 238.134 56.88 238.582 56.672V58.544C238.15 58.768 237.67 58.936 237.142 59.048C236.63 59.176 236.006 59.24 235.27 59.24ZM247.762 45.896C249.346 45.896 250.618 46.448 251.578 47.552C252.554 48.656 253.042 50.32 253.042 52.544C253.042 54 252.818 55.232 252.37 56.24C251.938 57.232 251.322 57.984 250.522 58.496C249.738 58.992 248.81 59.24 247.738 59.24C247.082 59.24 246.498 59.152 245.986 58.976C245.474 58.8 245.034 58.576 244.666 58.304C244.314 58.016 244.01 57.704 243.754 57.368H243.61C243.642 57.64 243.674 57.984 243.706 58.4C243.738 58.816 243.754 59.176 243.754 59.48V64.76H241.642V46.136H243.37L243.658 47.888H243.754C244.01 47.52 244.314 47.184 244.666 46.88C245.034 46.576 245.466 46.336 245.962 46.16C246.474 45.984 247.074 45.896 247.762 45.896ZM247.378 47.672C246.514 47.672 245.818 47.84 245.29 48.176C244.762 48.496 244.378 48.984 244.138 49.64C243.898 50.296 243.77 51.128 243.754 52.136V52.544C243.754 53.6 243.866 54.496 244.09 55.232C244.314 55.968 244.69 56.528 245.218 56.912C245.762 57.296 246.498 57.488 247.426 57.488C248.21 57.488 248.85 57.272 249.346 56.84C249.858 56.408 250.234 55.824 250.474 55.088C250.73 54.336 250.858 53.48 250.858 52.52C250.858 51.048 250.57 49.872 249.994 48.992C249.434 48.112 248.562 47.672 247.378 47.672ZM261.375 45.896C262.479 45.896 263.423 46.136 264.207 46.616C265.007 47.096 265.615 47.776 266.031 48.656C266.463 49.52 266.679 50.536 266.679 51.704V52.976H257.871C257.903 54.432 258.271 55.544 258.975 56.312C259.695 57.064 260.695 57.44 261.975 57.44C262.791 57.44 263.511 57.368 264.135 57.224C264.775 57.064 265.431 56.84 266.103 56.552V58.4C265.447 58.688 264.799 58.896 264.159 59.024C263.519 59.168 262.759 59.24 261.879 59.24C260.663 59.24 259.583 58.992 258.639 58.496C257.711 58 256.983 57.264 256.455 56.288C255.943 55.296 255.687 54.088 255.687 52.664C255.687 51.256 255.919 50.048 256.383 49.04C256.863 48.032 257.527 47.256 258.375 46.712C259.239 46.168 260.239 45.896 261.375 45.896ZM261.351 47.624C260.343 47.624 259.543 47.952 258.951 48.608C258.375 49.248 258.031 50.144 257.919 51.296H264.471C264.471 50.56 264.359 49.92 264.135 49.376C263.911 48.832 263.567 48.408 263.103 48.104C262.655 47.784 262.071 47.624 261.351 47.624ZM279.506 46.136V57.224H281.378V63.464H279.338V59H270.386V63.464H268.37V57.224H269.402C270.138 56.2 270.746 55.088 271.226 53.888C271.722 52.672 272.09 51.408 272.33 50.096C272.586 48.768 272.722 47.448 272.738 46.136H279.506ZM274.61 47.792C274.546 48.88 274.378 50.008 274.106 51.176C273.834 52.328 273.482 53.432 273.05 54.488C272.634 55.544 272.146 56.456 271.586 57.224H277.466V47.792H274.61ZM285.891 53.984C285.891 54.128 285.883 54.336 285.867 54.608C285.867 54.864 285.859 55.144 285.843 55.448C285.827 55.736 285.811 56.016 285.795 56.288C285.779 56.544 285.763 56.752 285.747 56.912L292.635 46.136H295.227V59H293.259V51.416C293.259 51.16 293.259 50.824 293.259 50.408C293.275 49.992 293.291 49.584 293.307 49.184C293.323 48.768 293.339 48.456 293.355 48.248L286.515 59H283.899V46.136H285.891V53.984ZM316.428 46.136V59H314.316V47.936H307.668V59H305.556V46.136H316.428ZM325.404 45.92C326.972 45.92 328.132 46.264 328.884 46.952C329.636 47.64 330.012 48.736 330.012 50.24V59H328.476L328.068 57.176H327.972C327.604 57.64 327.22 58.032 326.82 58.352C326.436 58.656 325.988 58.88 325.476 59.024C324.98 59.168 324.372 59.24 323.652 59.24C322.884 59.24 322.188 59.104 321.564 58.832C320.956 58.56 320.476 58.144 320.124 57.584C319.772 57.008 319.596 56.288 319.596 55.424C319.596 54.144 320.1 53.16 321.108 52.472C322.116 51.768 323.668 51.384 325.764 51.32L327.948 51.248V50.48C327.948 49.408 327.716 48.664 327.252 48.248C326.788 47.832 326.132 47.624 325.284 47.624C324.612 47.624 323.972 47.728 323.364 47.936C322.756 48.128 322.188 48.352 321.66 48.608L321.012 47.024C321.572 46.72 322.236 46.464 323.004 46.256C323.772 46.032 324.572 45.92 325.404 45.92ZM326.028 52.784C324.428 52.848 323.316 53.104 322.692 53.552C322.084 54 321.78 54.632 321.78 55.448C321.78 56.168 321.996 56.696 322.428 57.032C322.876 57.368 323.444 57.536 324.132 57.536C325.22 57.536 326.124 57.24 326.844 56.648C327.564 56.04 327.924 55.112 327.924 53.864V52.712L326.028 52.784ZM346.681 63.464H344.617V59H333.985V46.136H336.097V57.224H342.745V46.136H344.857V57.248H346.681V63.464ZM351.141 53.984C351.141 54.128 351.133 54.336 351.117 54.608C351.117 54.864 351.109 55.144 351.093 55.448C351.077 55.736 351.061 56.016 351.045 56.288C351.029 56.544 351.013 56.752 350.997 56.912L357.885 46.136H360.477V59H358.509V51.416C358.509 51.16 358.509 50.824 358.509 50.408C358.525 49.992 358.541 49.584 358.557 49.184C358.573 48.768 358.589 48.456 358.605 48.248L351.765 59H349.149V46.136H351.141V53.984ZM369.539 45.896C370.643 45.896 371.587 46.136 372.371 46.616C373.171 47.096 373.779 47.776 374.195 48.656C374.627 49.52 374.843 50.536 374.843 51.704V52.976H366.035C366.067 54.432 366.435 55.544 367.139 56.312C367.859 57.064 368.859 57.44 370.139 57.44C370.955 57.44 371.675 57.368 372.299 57.224C372.939 57.064 373.595 56.84 374.267 56.552V58.4C373.611 58.688 372.963 58.896 372.323 59.024C371.683 59.168 370.923 59.24 370.043 59.24C368.827 59.24 367.747 58.992 366.803 58.496C365.875 58 365.147 57.264 364.619 56.288C364.107 55.296 363.851 54.088 363.851 52.664C363.851 51.256 364.083 50.048 364.547 49.04C365.027 48.032 365.691 47.256 366.539 46.712C367.403 46.168 368.403 45.896 369.539 45.896ZM369.515 47.624C368.507 47.624 367.707 47.952 367.115 48.608C366.539 49.248 366.195 50.144 366.083 51.296H372.635C372.635 50.56 372.523 49.92 372.299 49.376C372.075 48.832 371.731 48.408 371.267 48.104C370.819 47.784 370.235 47.624 369.515 47.624ZM380.23 46.136V51.488H387.214V46.136H389.326V59H387.214V53.264H380.23V59H378.118V46.136H380.23ZM402.279 47.912H398.079V59H395.991V47.912H391.839V46.136H402.279V47.912ZM415.763 52.544C415.763 53.616 415.619 54.568 415.331 55.4C415.059 56.216 414.659 56.912 414.131 57.488C413.619 58.064 412.987 58.504 412.235 58.808C411.499 59.096 410.675 59.24 409.763 59.24C408.915 59.24 408.131 59.096 407.411 58.808C406.691 58.504 406.067 58.064 405.539 57.488C405.011 56.912 404.595 56.216 404.291 55.4C404.003 54.568 403.859 53.616 403.859 52.544C403.859 51.12 404.099 49.92 404.579 48.944C405.059 47.952 405.747 47.2 406.643 46.688C407.539 46.16 408.603 45.896 409.835 45.896C411.003 45.896 412.027 46.16 412.907 46.688C413.803 47.2 414.499 47.952 414.995 48.944C415.507 49.92 415.763 51.12 415.763 52.544ZM406.043 52.544C406.043 53.552 406.171 54.432 406.427 55.184C406.699 55.92 407.115 56.488 407.675 56.888C408.235 57.288 408.947 57.488 409.811 57.488C410.675 57.488 411.387 57.288 411.947 56.888C412.507 56.488 412.915 55.92 413.171 55.184C413.443 54.432 413.579 53.552 413.579 52.544C413.579 51.52 413.443 50.648 413.171 49.928C412.899 49.208 412.483 48.656 411.923 48.272C411.379 47.872 410.667 47.672 409.787 47.672C408.475 47.672 407.523 48.104 406.931 48.968C406.339 49.832 406.043 51.024 406.043 52.544ZM429.454 49.376C429.454 50.176 429.214 50.8 428.734 51.248C428.254 51.696 427.638 52 426.886 52.16V52.256C427.686 52.368 428.382 52.656 428.974 53.12C429.566 53.568 429.862 54.272 429.862 55.232C429.862 55.776 429.758 56.28 429.55 56.744C429.358 57.208 429.054 57.608 428.638 57.944C428.222 58.28 427.686 58.544 427.03 58.736C426.374 58.912 425.582 59 424.654 59H419.11V46.136H424.63C425.542 46.136 426.358 46.24 427.078 46.448C427.814 46.64 428.39 46.976 428.806 47.456C429.238 47.92 429.454 48.56 429.454 49.376ZM427.678 55.232C427.678 54.496 427.398 53.968 426.838 53.648C426.278 53.328 425.454 53.168 424.366 53.168H421.222V57.296H424.414C425.47 57.296 426.278 57.144 426.838 56.84C427.398 56.52 427.678 55.984 427.678 55.232ZM427.318 49.64C427.318 49.032 427.094 48.592 426.646 48.32C426.214 48.032 425.502 47.888 424.51 47.888H421.222V51.416H424.126C425.166 51.416 425.958 51.272 426.502 50.984C427.046 50.696 427.318 50.248 427.318 49.64ZM444.333 59.24C443.197 59.24 442.181 59.008 441.285 58.544C440.405 58.08 439.709 57.36 439.197 56.384C438.701 55.408 438.453 54.16 438.453 52.64C438.453 51.056 438.717 49.768 439.245 48.776C439.773 47.784 440.485 47.056 441.381 46.592C442.293 46.128 443.325 45.896 444.477 45.896C445.133 45.896 445.765 45.968 446.373 46.112C446.981 46.24 447.477 46.4 447.861 46.592L447.213 48.344C446.829 48.2 446.381 48.064 445.869 47.936C445.357 47.808 444.877 47.744 444.429 47.744C443.565 47.744 442.853 47.928 442.293 48.296C441.733 48.664 441.317 49.208 441.045 49.928C440.773 50.648 440.637 51.544 440.637 52.616C440.637 53.64 440.773 54.512 441.045 55.232C441.317 55.952 441.725 56.496 442.269 56.864C442.813 57.232 443.493 57.416 444.309 57.416C445.013 57.416 445.629 57.344 446.157 57.2C446.701 57.056 447.197 56.88 447.645 56.672V58.544C447.213 58.768 446.733 58.936 446.205 59.048C445.693 59.176 445.069 59.24 444.333 59.24ZM468.866 59H466.418L461.882 51.56L457.274 59H454.994L460.682 50.072L455.354 41.864H457.754L461.954 48.584L466.178 41.864H468.458L463.154 50.024L468.866 59ZM485.772 50.408C485.772 51.736 485.604 52.944 485.268 54.032C484.932 55.104 484.428 56.032 483.756 56.816C483.1 57.6 482.276 58.2 481.284 58.616C480.308 59.032 479.172 59.24 477.876 59.24C476.532 59.24 475.364 59.032 474.372 58.616C473.38 58.184 472.556 57.584 471.9 56.816C471.244 56.032 470.756 55.096 470.436 54.008C470.116 52.92 469.956 51.712 469.956 50.384C469.956 48.624 470.244 47.088 470.82 45.776C471.396 44.464 472.268 43.44 473.436 42.704C474.62 41.968 476.108 41.6 477.9 41.6C479.612 41.6 481.052 41.968 482.22 42.704C483.388 43.424 484.268 44.448 484.86 45.776C485.468 47.088 485.772 48.632 485.772 50.408ZM472.236 50.408C472.236 51.848 472.436 53.088 472.836 54.128C473.236 55.168 473.852 55.968 474.684 56.528C475.532 57.088 476.596 57.368 477.876 57.368C479.172 57.368 480.228 57.088 481.044 56.528C481.876 55.968 482.492 55.168 482.892 54.128C483.292 53.088 483.492 51.848 483.492 50.408C483.492 48.248 483.044 46.56 482.148 45.344C481.252 44.112 479.836 43.496 477.9 43.496C476.604 43.496 475.532 43.776 474.684 44.336C473.852 44.88 473.236 45.672 472.836 46.712C472.436 47.736 472.236 48.968 472.236 50.408ZM489.57 59V41.864H499.746V43.76H491.73V49.112H494.274C495.986 49.112 497.314 49.328 498.258 49.76C499.202 50.176 499.858 50.752 500.226 51.488C500.594 52.208 500.778 53.04 500.778 53.984C500.778 55.024 500.57 55.92 500.154 56.672C499.754 57.424 499.098 58 498.186 58.4C497.274 58.8 496.074 59 494.586 59H489.57ZM494.37 57.152C495.906 57.152 496.986 56.896 497.61 56.384C498.234 55.856 498.546 55.056 498.546 53.984C498.546 53.248 498.394 52.664 498.09 52.232C497.802 51.784 497.322 51.464 496.65 51.272C495.994 51.08 495.114 50.984 494.01 50.984H491.73V57.152H494.37ZM516.672 59H514.512V43.76H509.088C508.976 44.64 508.856 45.568 508.728 46.544C508.6 47.504 508.464 48.456 508.32 49.4C508.192 50.344 508.064 51.232 507.936 52.064C507.808 52.896 507.68 53.624 507.552 54.248C507.344 55.32 507.088 56.232 506.784 56.984C506.48 57.736 506.072 58.304 505.56 58.688C505.064 59.072 504.408 59.264 503.592 59.264C503.32 59.264 503.04 59.232 502.752 59.168C502.48 59.12 502.24 59.056 502.032 58.976V57.176C502.208 57.256 502.408 57.328 502.632 57.392C502.856 57.44 503.096 57.464 503.352 57.464C503.832 57.464 504.208 57.272 504.48 56.888C504.768 56.488 504.992 56 505.152 55.424C505.312 54.832 505.448 54.248 505.56 53.672C505.656 53.208 505.768 52.592 505.896 51.824C506.024 51.04 506.16 50.128 506.304 49.088C506.464 48.048 506.624 46.92 506.784 45.704C506.96 44.472 507.128 43.192 507.288 41.864H516.672V59ZM523.608 56.48C523.464 57.04 523.28 57.648 523.056 58.304C522.832 58.96 522.584 59.608 522.312 60.248C522.056 60.904 521.8 61.52 521.544 62.096H519.984C520.144 61.488 520.296 60.832 520.44 60.128C520.6 59.44 520.744 58.76 520.872 58.088C521 57.4 521.104 56.776 521.184 56.216H523.44L523.608 56.48ZM11.592 79.136V90.224H13.464V96.464H11.424V92H2.472V96.464H0.456V90.224H1.488C2.224 89.2 2.832 88.088 3.312 86.888C3.808 85.672 4.176 84.408 4.416 83.096C4.672 81.768 4.808 80.448 4.824 79.136H11.592ZM6.696 80.792C6.632 81.88 6.464 83.008 6.192 84.176C5.92 85.328 5.568 86.432 5.136 87.488C4.72 88.544 4.232 89.456 3.672 90.224H9.552V80.792H6.696ZM17.9773 86.984C17.9773 87.128 17.9693 87.336 17.9533 87.608C17.9533 87.864 17.9453 88.144 17.9293 88.448C17.9133 88.736 17.8973 89.016 17.8813 89.288C17.8653 89.544 17.8493 89.752 17.8333 89.912L24.7213 79.136H27.3133V92H25.3453V84.416C25.3453 84.16 25.3453 83.824 25.3453 83.408C25.3613 82.992 25.3773 82.584 25.3933 82.184C25.4093 81.768 25.4253 81.456 25.4413 81.248L18.6013 92H15.9853V79.136H17.9773V86.984ZM36.2792 78.92C37.8472 78.92 39.0072 79.264 39.7592 79.952C40.5112 80.64 40.8872 81.736 40.8872 83.24V92H39.3512L38.9432 90.176H38.8472C38.4792 90.64 38.0952 91.032 37.6952 91.352C37.3112 91.656 36.8632 91.88 36.3512 92.024C35.8552 92.168 35.2472 92.24 34.5272 92.24C33.7592 92.24 33.0632 92.104 32.4392 91.832C31.8312 91.56 31.3512 91.144 30.9992 90.584C30.6472 90.008 30.4712 89.288 30.4712 88.424C30.4712 87.144 30.9752 86.16 31.9832 85.472C32.9912 84.768 34.5432 84.384 36.6392 84.32L38.8232 84.248V83.48C38.8232 82.408 38.5912 81.664 38.1272 81.248C37.6632 80.832 37.0072 80.624 36.1592 80.624C35.4872 80.624 34.8472 80.728 34.2392 80.936C33.6312 81.128 33.0632 81.352 32.5352 81.608L31.8872 80.024C32.4472 79.72 33.1112 79.464 33.8792 79.256C34.6472 79.032 35.4472 78.92 36.2792 78.92ZM36.9032 85.784C35.3032 85.848 34.1912 86.104 33.5672 86.552C32.9592 87 32.6552 87.632 32.6552 88.448C32.6552 89.168 32.8712 89.696 33.3032 90.032C33.7512 90.368 34.3192 90.536 35.0072 90.536C36.0952 90.536 36.9992 90.24 37.7192 89.648C38.4392 89.04 38.7992 88.112 38.7992 86.864V85.712L36.9032 85.784ZM52.7083 79.136V80.912H46.9723V92H44.8603V79.136H52.7083ZM57.3551 79.136V84.488H64.3391V79.136H66.4511V92H64.3391V86.264H57.3551V92H55.2431V79.136H57.3551ZM81.7084 85.544C81.7084 86.616 81.5644 87.568 81.2764 88.4C81.0044 89.216 80.6044 89.912 80.0764 90.488C79.5644 91.064 78.9324 91.504 78.1804 91.808C77.4444 92.096 76.6204 92.24 75.7084 92.24C74.8604 92.24 74.0764 92.096 73.3564 91.808C72.6364 91.504 72.0124 91.064 71.4844 90.488C70.9564 89.912 70.5404 89.216 70.2364 88.4C69.9484 87.568 69.8044 86.616 69.8044 85.544C69.8044 84.12 70.0444 82.92 70.5244 81.944C71.0044 80.952 71.6924 80.2 72.5884 79.688C73.4844 79.16 74.5484 78.896 75.7804 78.896C76.9484 78.896 77.9724 79.16 78.8524 79.688C79.7484 80.2 80.4444 80.952 80.9404 81.944C81.4524 82.92 81.7084 84.12 81.7084 85.544ZM71.9884 85.544C71.9884 86.552 72.1164 87.432 72.3724 88.184C72.6444 88.92 73.0604 89.488 73.6204 89.888C74.1804 90.288 74.8924 90.488 75.7564 90.488C76.6204 90.488 77.3324 90.288 77.8924 89.888C78.4524 89.488 78.8604 88.92 79.1164 88.184C79.3884 87.432 79.5244 86.552 79.5244 85.544C79.5244 84.52 79.3884 83.648 79.1164 82.928C78.8444 82.208 78.4284 81.656 77.8684 81.272C77.3244 80.872 76.6124 80.672 75.7324 80.672C74.4204 80.672 73.4684 81.104 72.8764 81.968C72.2844 82.832 71.9884 84.024 71.9884 85.544ZM90.2156 92.24C89.0796 92.24 88.0636 92.008 87.1676 91.544C86.2876 91.08 85.5916 90.36 85.0796 89.384C84.5836 88.408 84.3356 87.16 84.3356 85.64C84.3356 84.056 84.5996 82.768 85.1276 81.776C85.6556 80.784 86.3676 80.056 87.2636 79.592C88.1756 79.128 89.2076 78.896 90.3596 78.896C91.0156 78.896 91.6476 78.968 92.2556 79.112C92.8636 79.24 93.3596 79.4 93.7436 79.592L93.0956 81.344C92.7116 81.2 92.2636 81.064 91.7516 80.936C91.2396 80.808 90.7596 80.744 90.3116 80.744C89.4476 80.744 88.7356 80.928 88.1756 81.296C87.6156 81.664 87.1996 82.208 86.9276 82.928C86.6556 83.648 86.5196 84.544 86.5196 85.616C86.5196 86.64 86.6556 87.512 86.9276 88.232C87.1996 88.952 87.6076 89.496 88.1516 89.864C88.6956 90.232 89.3756 90.416 90.1916 90.416C90.8956 90.416 91.5116 90.344 92.0396 90.2C92.5836 90.056 93.0796 89.88 93.5276 89.672V91.544C93.0956 91.768 92.6156 91.936 92.0876 92.048C91.5756 92.176 90.9516 92.24 90.2156 92.24ZM105.467 80.912H101.267V92H99.1789V80.912H95.0269V79.136H105.467V80.912ZM109.993 86.984C109.993 87.128 109.985 87.336 109.969 87.608C109.969 87.864 109.961 88.144 109.945 88.448C109.929 88.736 109.913 89.016 109.897 89.288C109.881 89.544 109.865 89.752 109.849 89.912L116.737 79.136H119.329V92H117.361V84.416C117.361 84.16 117.361 83.824 117.361 83.408C117.377 82.992 117.393 82.584 117.409 82.184C117.425 81.768 117.441 81.456 117.457 81.248L110.617 92H108.001V79.136H109.993V86.984ZM129.543 78.896C131.127 78.896 132.399 79.448 133.359 80.552C134.335 81.656 134.823 83.32 134.823 85.544C134.823 87 134.599 88.232 134.151 89.24C133.719 90.232 133.103 90.984 132.303 91.496C131.519 91.992 130.591 92.24 129.519 92.24C128.863 92.24 128.279 92.152 127.767 91.976C127.255 91.8 126.815 91.576 126.447 91.304C126.095 91.016 125.791 90.704 125.535 90.368H125.391C125.423 90.64 125.455 90.984 125.487 91.4C125.519 91.816 125.535 92.176 125.535 92.48V97.76H123.423V79.136H125.151L125.439 80.888H125.535C125.791 80.52 126.095 80.184 126.447 79.88C126.815 79.576 127.247 79.336 127.743 79.16C128.255 78.984 128.855 78.896 129.543 78.896ZM129.159 80.672C128.295 80.672 127.599 80.84 127.071 81.176C126.543 81.496 126.159 81.984 125.919 82.64C125.679 83.296 125.551 84.128 125.535 85.136V85.544C125.535 86.6 125.647 87.496 125.871 88.232C126.095 88.968 126.471 89.528 126.999 89.912C127.543 90.296 128.279 90.488 129.207 90.488C129.991 90.488 130.631 90.272 131.127 89.84C131.639 89.408 132.015 88.824 132.255 88.088C132.511 87.336 132.639 86.48 132.639 85.52C132.639 84.048 132.351 82.872 131.775 81.992C131.215 81.112 130.343 80.672 129.159 80.672ZM149.372 85.544C149.372 86.616 149.228 87.568 148.94 88.4C148.668 89.216 148.268 89.912 147.74 90.488C147.228 91.064 146.596 91.504 145.844 91.808C145.108 92.096 144.284 92.24 143.372 92.24C142.524 92.24 141.74 92.096 141.02 91.808C140.3 91.504 139.676 91.064 139.148 90.488C138.62 89.912 138.204 89.216 137.9 88.4C137.612 87.568 137.468 86.616 137.468 85.544C137.468 84.12 137.708 82.92 138.188 81.944C138.668 80.952 139.356 80.2 140.252 79.688C141.148 79.16 142.212 78.896 143.444 78.896C144.612 78.896 145.636 79.16 146.516 79.688C147.412 80.2 148.108 80.952 148.604 81.944C149.116 82.92 149.372 84.12 149.372 85.544ZM139.652 85.544C139.652 86.552 139.78 87.432 140.036 88.184C140.308 88.92 140.724 89.488 141.284 89.888C141.844 90.288 142.556 90.488 143.42 90.488C144.284 90.488 144.996 90.288 145.556 89.888C146.116 89.488 146.524 88.92 146.78 88.184C147.052 87.432 147.188 86.552 147.188 85.544C147.188 84.52 147.052 83.648 146.78 82.928C146.508 82.208 146.092 81.656 145.532 81.272C144.988 80.872 144.276 80.672 143.396 80.672C142.084 80.672 141.132 81.104 140.54 81.968C139.948 82.832 139.652 84.024 139.652 85.544ZM163.064 82.376C163.064 83.176 162.824 83.8 162.344 84.248C161.864 84.696 161.248 85 160.496 85.16V85.256C161.296 85.368 161.992 85.656 162.584 86.12C163.176 86.568 163.472 87.272 163.472 88.232C163.472 88.776 163.368 89.28 163.16 89.744C162.968 90.208 162.664 90.608 162.248 90.944C161.832 91.28 161.296 91.544 160.64 91.736C159.984 91.912 159.192 92 158.264 92H152.72V79.136H158.24C159.152 79.136 159.968 79.24 160.688 79.448C161.424 79.64 162 79.976 162.416 80.456C162.848 80.92 163.064 81.56 163.064 82.376ZM161.288 88.232C161.288 87.496 161.008 86.968 160.448 86.648C159.888 86.328 159.064 86.168 157.976 86.168H154.832V90.296H158.024C159.08 90.296 159.888 90.144 160.448 89.84C161.008 89.52 161.288 88.984 161.288 88.232ZM160.928 82.64C160.928 82.032 160.704 81.592 160.256 81.32C159.824 81.032 159.112 80.888 158.12 80.888H154.832V84.416H157.736C158.776 84.416 159.568 84.272 160.112 83.984C160.656 83.696 160.928 83.248 160.928 82.64ZM171.42 78.92C172.988 78.92 174.148 79.264 174.9 79.952C175.652 80.64 176.028 81.736 176.028 83.24V92H174.492L174.084 90.176H173.988C173.62 90.64 173.236 91.032 172.836 91.352C172.452 91.656 172.004 91.88 171.492 92.024C170.996 92.168 170.388 92.24 169.668 92.24C168.9 92.24 168.204 92.104 167.58 91.832C166.972 91.56 166.492 91.144 166.14 90.584C165.788 90.008 165.612 89.288 165.612 88.424C165.612 87.144 166.116 86.16 167.124 85.472C168.132 84.768 169.684 84.384 171.78 84.32L173.964 84.248V83.48C173.964 82.408 173.732 81.664 173.268 81.248C172.804 80.832 172.148 80.624 171.3 80.624C170.628 80.624 169.988 80.728 169.38 80.936C168.772 81.128 168.204 81.352 167.676 81.608L167.028 80.024C167.588 79.72 168.252 79.464 169.02 79.256C169.788 79.032 170.588 78.92 171.42 78.92ZM172.044 85.784C170.444 85.848 169.332 86.104 168.708 86.552C168.1 87 167.796 87.632 167.796 88.448C167.796 89.168 168.012 89.696 168.444 90.032C168.892 90.368 169.46 90.536 170.148 90.536C171.236 90.536 172.14 90.24 172.86 89.648C173.58 89.04 173.94 88.112 173.94 86.864V85.712L172.044 85.784ZM182.113 79.136V84.488H189.097V79.136H191.209V92H189.097V86.264H182.113V92H180.001V79.136H182.113ZM197.394 79.136V84.488H204.378V79.136H206.49V92H204.378V86.264H197.394V92H195.282V79.136H197.394ZM221.747 85.544C221.747 86.616 221.603 87.568 221.315 88.4C221.043 89.216 220.643 89.912 220.115 90.488C219.603 91.064 218.971 91.504 218.219 91.808C217.483 92.096 216.659 92.24 215.747 92.24C214.899 92.24 214.115 92.096 213.395 91.808C212.675 91.504 212.051 91.064 211.523 90.488C210.995 89.912 210.579 89.216 210.275 88.4C209.987 87.568 209.843 86.616 209.843 85.544C209.843 84.12 210.083 82.92 210.563 81.944C211.043 80.952 211.731 80.2 212.627 79.688C213.523 79.16 214.587 78.896 215.819 78.896C216.987 78.896 218.011 79.16 218.891 79.688C219.787 80.2 220.483 80.952 220.979 81.944C221.491 82.92 221.747 84.12 221.747 85.544ZM212.027 85.544C212.027 86.552 212.155 87.432 212.411 88.184C212.683 88.92 213.099 89.488 213.659 89.888C214.219 90.288 214.931 90.488 215.795 90.488C216.659 90.488 217.371 90.288 217.931 89.888C218.491 89.488 218.899 88.92 219.155 88.184C219.427 87.432 219.563 86.552 219.563 85.544C219.563 84.52 219.427 83.648 219.155 82.928C218.883 82.208 218.467 81.656 217.907 81.272C217.363 80.872 216.651 80.672 215.771 80.672C214.459 80.672 213.507 81.104 212.915 81.968C212.323 82.832 212.027 84.024 212.027 85.544ZM235.511 73.808C235.447 74.608 235.247 75.28 234.911 75.824C234.591 76.368 234.111 76.776 233.471 77.048C232.831 77.32 231.999 77.456 230.975 77.456C229.935 77.456 229.095 77.32 228.455 77.048C227.831 76.776 227.375 76.376 227.087 75.848C226.799 75.304 226.623 74.624 226.559 73.808H228.527C228.607 74.672 228.831 75.256 229.199 75.56C229.583 75.848 230.191 75.992 231.023 75.992C231.759 75.992 232.335 75.84 232.751 75.536C233.183 75.216 233.439 74.64 233.519 73.808H235.511ZM227.087 86.984C227.087 87.128 227.079 87.336 227.063 87.608C227.063 87.864 227.055 88.144 227.039 88.448C227.023 88.736 227.007 89.016 226.991 89.288C226.975 89.544 226.959 89.752 226.943 89.912L233.831 79.136H236.423V92H234.455V84.416C234.455 84.16 234.455 83.824 234.455 83.408C234.471 82.992 234.487 82.584 234.503 82.184C234.519 81.768 234.535 81.456 234.551 81.248L227.711 92H225.095V79.136H227.087V86.984ZM256.303 79.136V90.224H258.175V96.464H256.135V92H247.183V96.464H245.167V90.224H246.199C246.935 89.2 247.543 88.088 248.023 86.888C248.519 85.672 248.887 84.408 249.127 83.096C249.383 81.768 249.519 80.448 249.535 79.136H256.303ZM251.407 80.792C251.343 81.88 251.175 83.008 250.903 84.176C250.631 85.328 250.279 86.432 249.847 87.488C249.431 88.544 248.943 89.456 248.383 90.224H254.263V80.792H251.407ZM271.88 85.544C271.88 86.616 271.736 87.568 271.448 88.4C271.176 89.216 270.776 89.912 270.248 90.488C269.736 91.064 269.104 91.504 268.352 91.808C267.616 92.096 266.792 92.24 265.88 92.24C265.032 92.24 264.248 92.096 263.528 91.808C262.808 91.504 262.184 91.064 261.656 90.488C261.128 89.912 260.712 89.216 260.408 88.4C260.12 87.568 259.976 86.616 259.976 85.544C259.976 84.12 260.216 82.92 260.696 81.944C261.176 80.952 261.864 80.2 262.76 79.688C263.656 79.16 264.72 78.896 265.952 78.896C267.12 78.896 268.144 79.16 269.024 79.688C269.92 80.2 270.616 80.952 271.112 81.944C271.624 82.92 271.88 84.12 271.88 85.544ZM262.16 85.544C262.16 86.552 262.288 87.432 262.544 88.184C262.816 88.92 263.232 89.488 263.792 89.888C264.352 90.288 265.064 90.488 265.928 90.488C266.792 90.488 267.504 90.288 268.064 89.888C268.624 89.488 269.032 88.92 269.288 88.184C269.56 87.432 269.696 86.552 269.696 85.544C269.696 84.52 269.56 83.648 269.288 82.928C269.016 82.208 268.6 81.656 268.04 81.272C267.496 80.872 266.784 80.672 265.904 80.672C264.592 80.672 263.64 81.104 263.048 81.968C262.456 82.832 262.16 84.024 262.16 85.544ZM286.022 81.488C287.19 81.488 288.206 81.688 289.07 82.088C289.934 82.488 290.598 83.064 291.062 83.816C291.542 84.552 291.782 85.456 291.782 86.528C291.782 87.712 291.526 88.736 291.014 89.6C290.502 90.448 289.766 91.104 288.806 91.568C287.862 92.016 286.718 92.24 285.374 92.24C284.494 92.24 283.662 92.16 282.878 92C282.11 91.84 281.462 91.608 280.934 91.304V89.312C281.51 89.664 282.206 89.944 283.022 90.152C283.854 90.344 284.646 90.44 285.398 90.44C286.246 90.44 286.982 90.312 287.606 90.056C288.246 89.784 288.742 89.376 289.094 88.832C289.446 88.272 289.622 87.576 289.622 86.744C289.622 85.624 289.278 84.768 288.59 84.176C287.902 83.568 286.814 83.264 285.326 83.264C284.878 83.264 284.366 83.304 283.79 83.384C283.214 83.464 282.75 83.544 282.398 83.624L281.342 82.952L281.99 74.864H290.582V76.784H283.79L283.382 81.752C283.654 81.704 284.022 81.648 284.486 81.584C284.95 81.52 285.462 81.488 286.022 81.488ZM299.756 81.488C300.924 81.488 301.94 81.688 302.804 82.088C303.668 82.488 304.332 83.064 304.796 83.816C305.276 84.552 305.516 85.456 305.516 86.528C305.516 87.712 305.26 88.736 304.748 89.6C304.236 90.448 303.5 91.104 302.54 91.568C301.596 92.016 300.452 92.24 299.108 92.24C298.228 92.24 297.396 92.16 296.612 92C295.844 91.84 295.196 91.608 294.668 91.304V89.312C295.244 89.664 295.94 89.944 296.756 90.152C297.588 90.344 298.38 90.44 299.132 90.44C299.98 90.44 300.716 90.312 301.34 90.056C301.98 89.784 302.476 89.376 302.828 88.832C303.18 88.272 303.356 87.576 303.356 86.744C303.356 85.624 303.012 84.768 302.324 84.176C301.636 83.568 300.548 83.264 299.06 83.264C298.612 83.264 298.1 83.304 297.524 83.384C296.948 83.464 296.484 83.544 296.132 83.624L295.076 82.952L295.724 74.864H304.316V76.784H297.524L297.116 81.752C297.388 81.704 297.756 81.648 298.22 81.584C298.684 81.52 299.196 81.488 299.756 81.488ZM324.957 92H322.821V80.888H319.029C318.869 82.92 318.669 84.656 318.429 86.096C318.189 87.52 317.885 88.68 317.517 89.576C317.149 90.472 316.709 91.128 316.197 91.544C315.685 91.96 315.085 92.168 314.397 92.168C314.189 92.168 313.981 92.152 313.773 92.12C313.581 92.104 313.421 92.064 313.293 92V90.416C313.389 90.448 313.493 90.472 313.605 90.488C313.717 90.504 313.829 90.512 313.941 90.512C314.293 90.512 314.613 90.368 314.901 90.08C315.189 89.792 315.445 89.352 315.669 88.76C315.909 88.168 316.125 87.424 316.317 86.528C316.509 85.616 316.677 84.544 316.821 83.312C316.965 82.08 317.093 80.688 317.205 79.136H324.957V92ZM334.008 78.896C335.112 78.896 336.056 79.136 336.84 79.616C337.64 80.096 338.248 80.776 338.664 81.656C339.096 82.52 339.312 83.536 339.312 84.704V85.976H330.504C330.536 87.432 330.904 88.544 331.608 89.312C332.328 90.064 333.328 90.44 334.608 90.44C335.424 90.44 336.144 90.368 336.768 90.224C337.408 90.064 338.064 89.84 338.736 89.552V91.4C338.08 91.688 337.432 91.896 336.792 92.024C336.152 92.168 335.392 92.24 334.512 92.24C333.296 92.24 332.216 91.992 331.272 91.496C330.344 91 329.616 90.264 329.088 89.288C328.576 88.296 328.32 87.088 328.32 85.664C328.32 84.256 328.552 83.048 329.016 82.04C329.496 81.032 330.16 80.256 331.008 79.712C331.872 79.168 332.872 78.896 334.008 78.896ZM333.984 80.624C332.976 80.624 332.176 80.952 331.584 81.608C331.008 82.248 330.664 83.144 330.552 84.296H337.104C337.104 83.56 336.992 82.92 336.768 82.376C336.544 81.832 336.2 81.408 335.736 81.104C335.288 80.784 334.704 80.624 333.984 80.624ZM351.467 80.912H347.267V92H345.179V80.912H341.027V79.136H351.467V80.912ZM355.374 89.48C355.23 90.04 355.046 90.648 354.822 91.304C354.598 91.96 354.35 92.608 354.078 93.248C353.822 93.904 353.566 94.52 353.31 95.096H351.75C351.91 94.488 352.062 93.832 352.206 93.128C352.366 92.44 352.51 91.76 352.638 91.088C352.766 90.4 352.87 89.776 352.95 89.216H355.206L355.374 89.48ZM364.79 84.272C364.79 82.4 364.974 80.808 365.342 79.496C365.726 78.168 366.31 77.112 367.094 76.328C367.894 75.528 368.918 74.992 370.166 74.72C371.206 74.496 372.222 74.296 373.214 74.12C374.206 73.944 375.134 73.784 375.998 73.64L376.358 75.488C375.942 75.552 375.478 75.632 374.966 75.728C374.454 75.808 373.934 75.896 373.406 75.992C372.878 76.072 372.366 76.16 371.87 76.256C371.39 76.336 370.966 76.416 370.598 76.496C370.07 76.608 369.598 76.8 369.182 77.072C368.766 77.328 368.406 77.68 368.102 78.128C367.814 78.576 367.582 79.128 367.406 79.784C367.23 80.44 367.126 81.216 367.094 82.112H367.238C367.462 81.808 367.766 81.496 368.15 81.176C368.55 80.856 369.022 80.584 369.566 80.36C370.126 80.136 370.758 80.024 371.462 80.024C372.582 80.024 373.51 80.272 374.246 80.768C374.998 81.248 375.558 81.92 375.926 82.784C376.31 83.648 376.502 84.656 376.502 85.808C376.502 87.232 376.254 88.424 375.758 89.384C375.262 90.344 374.574 91.064 373.694 91.544C372.814 92.008 371.79 92.24 370.622 92.24C369.742 92.24 368.942 92.072 368.222 91.736C367.502 91.384 366.886 90.872 366.374 90.2C365.862 89.528 365.47 88.696 365.198 87.704C364.926 86.712 364.79 85.568 364.79 84.272ZM370.79 90.488C371.494 90.488 372.102 90.344 372.614 90.056C373.142 89.768 373.55 89.296 373.838 88.64C374.126 87.984 374.27 87.112 374.27 86.024C374.27 84.712 374.022 83.68 373.526 82.928C373.046 82.16 372.246 81.776 371.126 81.776C370.422 81.776 369.782 81.936 369.206 82.256C368.63 82.56 368.15 82.912 367.766 83.312C367.382 83.712 367.11 84.048 366.95 84.32C366.95 85.104 367.006 85.864 367.118 86.6C367.23 87.336 367.422 88 367.694 88.592C367.982 89.168 368.374 89.632 368.87 89.984C369.382 90.32 370.022 90.488 370.79 90.488ZM379.829 92V79.136H381.941V84.416H385.277C386.397 84.416 387.317 84.552 388.037 84.824C388.757 85.096 389.293 85.504 389.645 86.048C389.997 86.576 390.173 87.248 390.173 88.064C390.173 88.864 389.997 89.56 389.645 90.152C389.309 90.744 388.773 91.2 388.037 91.52C387.317 91.84 386.365 92 385.181 92H379.829ZM384.989 90.296C385.901 90.296 386.645 90.144 387.221 89.84C387.797 89.52 388.085 88.968 388.085 88.184C388.085 87.4 387.821 86.872 387.293 86.6C386.765 86.312 386.005 86.168 385.013 86.168H381.941V90.296H384.989ZM392.309 92V79.136H394.421V92H392.309ZM408.301 92H406.165V80.888H402.373C402.213 82.92 402.013 84.656 401.773 86.096C401.533 87.52 401.229 88.68 400.861 89.576C400.493 90.472 400.053 91.128 399.541 91.544C399.029 91.96 398.429 92.168 397.741 92.168C397.533 92.168 397.325 92.152 397.117 92.12C396.925 92.104 396.765 92.064 396.637 92V90.416C396.733 90.448 396.837 90.472 396.949 90.488C397.061 90.504 397.173 90.512 397.285 90.512C397.637 90.512 397.957 90.368 398.245 90.08C398.533 89.792 398.789 89.352 399.013 88.76C399.253 88.168 399.469 87.424 399.661 86.528C399.853 85.616 400.021 84.544 400.165 83.312C400.309 82.08 400.437 80.688 400.549 79.136H408.301V92ZM423.568 85.544C423.568 86.616 423.424 87.568 423.136 88.4C422.864 89.216 422.464 89.912 421.936 90.488C421.424 91.064 420.792 91.504 420.04 91.808C419.304 92.096 418.48 92.24 417.568 92.24C416.72 92.24 415.936 92.096 415.216 91.808C414.496 91.504 413.872 91.064 413.344 90.488C412.816 89.912 412.4 89.216 412.096 88.4C411.808 87.568 411.664 86.616 411.664 85.544C411.664 84.12 411.904 82.92 412.384 81.944C412.864 80.952 413.552 80.2 414.448 79.688C415.344 79.16 416.408 78.896 417.64 78.896C418.808 78.896 419.832 79.16 420.712 79.688C421.608 80.2 422.304 80.952 422.8 81.944C423.312 82.92 423.568 84.12 423.568 85.544ZM413.848 85.544C413.848 86.552 413.976 87.432 414.232 88.184C414.504 88.92 414.92 89.488 415.48 89.888C416.04 90.288 416.752 90.488 417.616 90.488C418.48 90.488 419.192 90.288 419.752 89.888C420.312 89.488 420.72 88.92 420.976 88.184C421.248 87.432 421.384 86.552 421.384 85.544C421.384 84.52 421.248 83.648 420.976 82.928C420.704 82.208 420.288 81.656 419.728 81.272C419.184 80.872 418.472 80.672 417.592 80.672C416.28 80.672 415.328 81.104 414.736 81.968C414.144 82.832 413.848 84.024 413.848 85.544ZM443.493 82.376C443.493 83.176 443.253 83.8 442.773 84.248C442.293 84.696 441.677 85 440.925 85.16V85.256C441.725 85.368 442.421 85.656 443.013 86.12C443.605 86.568 443.901 87.272 443.901 88.232C443.901 88.776 443.797 89.28 443.589 89.744C443.397 90.208 443.093 90.608 442.677 90.944C442.261 91.28 441.725 91.544 441.069 91.736C440.413 91.912 439.621 92 438.693 92H433.149V79.136H438.669C439.581 79.136 440.397 79.24 441.117 79.448C441.853 79.64 442.429 79.976 442.845 80.456C443.277 80.92 443.493 81.56 443.493 82.376ZM441.717 88.232C441.717 87.496 441.437 86.968 440.877 86.648C440.317 86.328 439.493 86.168 438.405 86.168H435.261V90.296H438.453C439.509 90.296 440.317 90.144 440.877 89.84C441.437 89.52 441.717 88.984 441.717 88.232ZM441.357 82.64C441.357 82.032 441.133 81.592 440.685 81.32C440.253 81.032 439.541 80.888 438.549 80.888H435.261V84.416H438.165C439.205 84.416 439.997 84.272 440.541 83.984C441.085 83.696 441.357 83.248 441.357 82.64ZM446.978 92V79.136H449.09V84.416H452.426C453.546 84.416 454.466 84.552 455.186 84.824C455.906 85.096 456.442 85.504 456.794 86.048C457.146 86.576 457.322 87.248 457.322 88.064C457.322 88.864 457.146 89.56 456.794 90.152C456.458 90.744 455.922 91.2 455.186 91.52C454.466 91.84 453.514 92 452.33 92H446.978ZM452.138 90.296C453.05 90.296 453.794 90.144 454.37 89.84C454.946 89.52 455.234 88.968 455.234 88.184C455.234 87.4 454.97 86.872 454.442 86.6C453.914 86.312 453.154 86.168 452.162 86.168H449.09V90.296H452.138ZM459.458 92V79.136H461.57V92H459.458ZM466.449 92H464.001L467.673 86.6C467.177 86.472 466.697 86.272 466.233 86C465.769 85.712 465.393 85.32 465.105 84.824C464.817 84.312 464.673 83.68 464.673 82.928C464.673 81.696 465.089 80.76 465.921 80.12C466.753 79.464 467.857 79.136 469.233 79.136H474.993V92H472.881V86.888H469.761L466.449 92ZM466.713 82.952C466.713 83.688 466.985 84.24 467.529 84.608C468.089 84.96 468.865 85.136 469.857 85.136H472.881V80.888H469.449C468.473 80.888 467.769 81.08 467.337 81.464C466.921 81.848 466.713 82.344 466.713 82.952ZM489.407 82.376C489.407 83.176 489.167 83.8 488.687 84.248C488.207 84.696 487.591 85 486.839 85.16V85.256C487.639 85.368 488.335 85.656 488.927 86.12C489.519 86.568 489.815 87.272 489.815 88.232C489.815 88.776 489.711 89.28 489.503 89.744C489.311 90.208 489.007 90.608 488.591 90.944C488.175 91.28 487.639 91.544 486.983 91.736C486.327 91.912 485.535 92 484.607 92H479.063V79.136H484.583C485.495 79.136 486.311 79.24 487.031 79.448C487.767 79.64 488.343 79.976 488.759 80.456C489.191 80.92 489.407 81.56 489.407 82.376ZM487.631 88.232C487.631 87.496 487.351 86.968 486.791 86.648C486.231 86.328 485.407 86.168 484.319 86.168H481.175V90.296H484.367C485.423 90.296 486.231 90.144 486.791 89.84C487.351 89.52 487.631 88.984 487.631 88.232ZM487.271 82.64C487.271 82.032 487.047 81.592 486.599 81.32C486.167 81.032 485.455 80.888 484.463 80.888H481.175V84.416H484.079C485.119 84.416 485.911 84.272 486.455 83.984C486.999 83.696 487.271 83.248 487.271 82.64ZM502.684 92H500.548V80.888H496.756C496.596 82.92 496.396 84.656 496.156 86.096C495.916 87.52 495.612 88.68 495.244 89.576C494.876 90.472 494.436 91.128 493.924 91.544C493.412 91.96 492.812 92.168 492.124 92.168C491.916 92.168 491.708 92.152 491.5 92.12C491.308 92.104 491.148 92.064 491.02 92V90.416C491.116 90.448 491.22 90.472 491.332 90.488C491.444 90.504 491.556 90.512 491.668 90.512C492.02 90.512 492.34 90.368 492.628 90.08C492.916 89.792 493.172 89.352 493.396 88.76C493.636 88.168 493.852 87.424 494.044 86.528C494.236 85.616 494.404 84.544 494.548 83.312C494.692 82.08 494.82 80.688 494.932 79.136H502.684V92ZM511.735 78.896C512.839 78.896 513.783 79.136 514.567 79.616C515.367 80.096 515.975 80.776 516.391 81.656C516.823 82.52 517.039 83.536 517.039 84.704V85.976H508.231C508.263 87.432 508.631 88.544 509.335 89.312C510.055 90.064 511.055 90.44 512.335 90.44C513.151 90.44 513.871 90.368 514.495 90.224C515.135 90.064 515.791 89.84 516.463 89.552V91.4C515.807 91.688 515.159 91.896 514.519 92.024C513.879 92.168 513.119 92.24 512.239 92.24C511.023 92.24 509.943 91.992 508.999 91.496C508.071 91 507.343 90.264 506.815 89.288C506.303 88.296 506.047 87.088 506.047 85.664C506.047 84.256 506.279 83.048 506.743 82.04C507.223 81.032 507.887 80.256 508.735 79.712C509.599 79.168 510.599 78.896 511.735 78.896ZM511.711 80.624C510.703 80.624 509.903 80.952 509.311 81.608C508.735 82.248 508.391 83.144 508.279 84.296H514.831C514.831 83.56 514.719 82.92 514.495 82.376C514.271 81.832 513.927 81.408 513.463 81.104C513.015 80.784 512.431 80.624 511.711 80.624ZM522.425 79.136V84.488H529.409V79.136H531.521V92H529.409V86.264H522.425V92H520.313V79.136H522.425ZM546.779 85.544C546.779 86.616 546.635 87.568 546.347 88.4C546.075 89.216 545.675 89.912 545.147 90.488C544.635 91.064 544.003 91.504 543.251 91.808C542.515 92.096 541.691 92.24 540.779 92.24C539.931 92.24 539.147 92.096 538.427 91.808C537.707 91.504 537.083 91.064 536.555 90.488C536.027 89.912 535.611 89.216 535.307 88.4C535.019 87.568 534.875 86.616 534.875 85.544C534.875 84.12 535.115 82.92 535.595 81.944C536.075 80.952 536.763 80.2 537.659 79.688C538.555 79.16 539.619 78.896 540.851 78.896C542.019 78.896 543.043 79.16 543.923 79.688C544.819 80.2 545.515 80.952 546.011 81.944C546.523 82.92 546.779 84.12 546.779 85.544ZM537.059 85.544C537.059 86.552 537.187 87.432 537.443 88.184C537.715 88.92 538.131 89.488 538.691 89.888C539.251 90.288 539.963 90.488 540.827 90.488C541.691 90.488 542.403 90.288 542.963 89.888C543.523 89.488 543.931 88.92 544.187 88.184C544.459 87.432 544.595 86.552 544.595 85.544C544.595 84.52 544.459 83.648 544.187 82.928C543.915 82.208 543.499 81.656 542.939 81.272C542.395 80.872 541.683 80.672 540.803 80.672C539.491 80.672 538.539 81.104 537.947 81.968C537.355 82.832 537.059 84.024 537.059 85.544ZM567.232 79.136V92H565.12V80.936H558.472V92H556.36V79.136H567.232ZM577.457 78.896C579.041 78.896 580.313 79.448 581.273 80.552C582.249 81.656 582.737 83.32 582.737 85.544C582.737 87 582.513 88.232 582.065 89.24C581.633 90.232 581.017 90.984 580.217 91.496C579.433 91.992 578.505 92.24 577.433 92.24C576.777 92.24 576.193 92.152 575.681 91.976C575.169 91.8 574.729 91.576 574.361 91.304C574.009 91.016 573.705 90.704 573.449 90.368H573.305C573.337 90.64 573.369 90.984 573.401 91.4C573.433 91.816 573.449 92.176 573.449 92.48V97.76H571.337V79.136H573.065L573.353 80.888H573.449C573.705 80.52 574.009 80.184 574.361 79.88C574.729 79.576 575.161 79.336 575.657 79.16C576.169 78.984 576.769 78.896 577.457 78.896ZM577.073 80.672C576.209 80.672 575.513 80.84 574.985 81.176C574.457 81.496 574.073 81.984 573.833 82.64C573.593 83.296 573.465 84.128 573.449 85.136V85.544C573.449 86.6 573.561 87.496 573.785 88.232C574.009 88.968 574.385 89.528 574.913 89.912C575.457 90.296 576.193 90.488 577.121 90.488C577.905 90.488 578.545 90.272 579.041 89.84C579.553 89.408 579.929 88.824 580.169 88.088C580.425 87.336 580.553 86.48 580.553 85.52C580.553 84.048 580.265 82.872 579.689 81.992C579.129 81.112 578.257 80.672 577.073 80.672ZM591.071 78.896C592.175 78.896 593.119 79.136 593.903 79.616C594.703 80.096 595.311 80.776 595.727 81.656C596.159 82.52 596.375 83.536 596.375 84.704V85.976H587.567C587.599 87.432 587.967 88.544 588.671 89.312C589.391 90.064 590.391 90.44 591.671 90.44C592.487 90.44 593.207 90.368 593.831 90.224C594.471 90.064 595.127 89.84 595.799 89.552V91.4C595.143 91.688 594.495 91.896 593.855 92.024C593.215 92.168 592.455 92.24 591.575 92.24C590.359 92.24 589.279 91.992 588.335 91.496C587.407 91 586.679 90.264 586.151 89.288C585.639 88.296 585.383 87.088 585.383 85.664C585.383 84.256 585.615 83.048 586.079 82.04C586.559 81.032 587.223 80.256 588.071 79.712C588.935 79.168 589.935 78.896 591.071 78.896ZM591.047 80.624C590.039 80.624 589.239 80.952 588.647 81.608C588.071 82.248 587.727 83.144 587.615 84.296H594.167C594.167 83.56 594.055 82.92 593.831 82.376C593.607 81.832 593.263 81.408 592.799 81.104C592.351 80.784 591.767 80.624 591.047 80.624ZM610.833 85.544C610.833 86.616 610.689 87.568 610.401 88.4C610.129 89.216 609.729 89.912 609.201 90.488C608.689 91.064 608.057 91.504 607.305 91.808C606.569 92.096 605.745 92.24 604.833 92.24C603.985 92.24 603.201 92.096 602.481 91.808C601.761 91.504 601.137 91.064 600.609 90.488C600.081 89.912 599.665 89.216 599.361 88.4C599.073 87.568 598.929 86.616 598.929 85.544C598.929 84.12 599.169 82.92 599.649 81.944C600.129 80.952 600.817 80.2 601.713 79.688C602.609 79.16 603.673 78.896 604.905 78.896C606.073 78.896 607.097 79.16 607.977 79.688C608.873 80.2 609.569 80.952 610.065 81.944C610.577 82.92 610.833 84.12 610.833 85.544ZM601.113 85.544C601.113 86.552 601.241 87.432 601.497 88.184C601.769 88.92 602.185 89.488 602.745 89.888C603.305 90.288 604.017 90.488 604.881 90.488C605.745 90.488 606.457 90.288 607.017 89.888C607.577 89.488 607.985 88.92 608.241 88.184C608.513 87.432 608.649 86.552 608.649 85.544C608.649 84.52 608.513 83.648 608.241 82.928C607.969 82.208 607.553 81.656 606.993 81.272C606.449 80.872 605.737 80.672 604.857 80.672C603.545 80.672 602.593 81.104 602.001 81.968C601.409 82.832 601.113 84.024 601.113 85.544ZM613.509 84.272C613.509 82.4 613.693 80.808 614.061 79.496C614.445 78.168 615.029 77.112 615.813 76.328C616.613 75.528 617.637 74.992 618.885 74.72C619.925 74.496 620.941 74.296 621.933 74.12C622.925 73.944 623.853 73.784 624.717 73.64L625.077 75.488C624.661 75.552 624.197 75.632 623.685 75.728C623.173 75.808 622.653 75.896 622.125 75.992C621.597 76.072 621.085 76.16 620.589 76.256C620.109 76.336 619.685 76.416 619.317 76.496C618.789 76.608 618.317 76.8 617.901 77.072C617.485 77.328 617.125 77.68 616.821 78.128C616.533 78.576 616.301 79.128 616.125 79.784C615.949 80.44 615.845 81.216 615.813 82.112H615.957C616.181 81.808 616.485 81.496 616.869 81.176C617.269 80.856 617.741 80.584 618.285 80.36C618.845 80.136 619.477 80.024 620.181 80.024C621.301 80.024 622.229 80.272 622.965 80.768C623.717 81.248 624.277 81.92 624.645 82.784C625.029 83.648 625.221 84.656 625.221 85.808C625.221 87.232 624.973 88.424 624.477 89.384C623.981 90.344 623.293 91.064 622.413 91.544C621.533 92.008 620.509 92.24 619.341 92.24C618.461 92.24 617.661 92.072 616.941 91.736C616.221 91.384 615.605 90.872 615.093 90.2C614.581 89.528 614.189 88.696 613.917 87.704C613.645 86.712 613.509 85.568 613.509 84.272ZM619.509 90.488C620.213 90.488 620.821 90.344 621.333 90.056C621.861 89.768 622.269 89.296 622.557 88.64C622.845 87.984 622.989 87.112 622.989 86.024C622.989 84.712 622.741 83.68 622.245 82.928C621.765 82.16 620.965 81.776 619.845 81.776C619.141 81.776 618.501 81.936 617.925 82.256C617.349 82.56 616.869 82.912 616.485 83.312C616.101 83.712 615.829 84.048 615.669 84.32C615.669 85.104 615.725 85.864 615.837 86.6C615.949 87.336 616.141 88 616.413 88.592C616.701 89.168 617.093 89.632 617.589 89.984C618.101 90.32 618.741 90.488 619.509 90.488ZM638.34 92H636.204V80.888H632.412C632.252 82.92 632.052 84.656 631.812 86.096C631.572 87.52 631.268 88.68 630.9 89.576C630.532 90.472 630.092 91.128 629.58 91.544C629.068 91.96 628.468 92.168 627.78 92.168C627.572 92.168 627.364 92.152 627.156 92.12C626.964 92.104 626.804 92.064 626.676 92V90.416C626.772 90.448 626.876 90.472 626.988 90.488C627.1 90.504 627.212 90.512 627.324 90.512C627.676 90.512 627.996 90.368 628.284 90.08C628.572 89.792 628.828 89.352 629.052 88.76C629.292 88.168 629.508 87.424 629.7 86.528C629.892 85.616 630.06 84.544 630.204 83.312C630.348 82.08 630.476 80.688 630.588 79.136H638.34V92ZM647.295 78.92C648.863 78.92 650.023 79.264 650.775 79.952C651.527 80.64 651.903 81.736 651.903 83.24V92H650.367L649.959 90.176H649.863C649.495 90.64 649.111 91.032 648.711 91.352C648.327 91.656 647.879 91.88 647.367 92.024C646.871 92.168 646.263 92.24 645.543 92.24C644.775 92.24 644.079 92.104 643.455 91.832C642.847 91.56 642.367 91.144 642.015 90.584C641.663 90.008 641.487 89.288 641.487 88.424C641.487 87.144 641.991 86.16 642.999 85.472C644.007 84.768 645.559 84.384 647.655 84.32L649.839 84.248V83.48C649.839 82.408 649.607 81.664 649.143 81.248C648.679 80.832 648.023 80.624 647.175 80.624C646.503 80.624 645.863 80.728 645.255 80.936C644.647 81.128 644.079 81.352 643.551 81.608L642.903 80.024C643.463 79.72 644.127 79.464 644.895 79.256C645.663 79.032 646.463 78.92 647.295 78.92ZM647.919 85.784C646.319 85.848 645.207 86.104 644.583 86.552C643.975 87 643.671 87.632 643.671 88.448C643.671 89.168 643.887 89.696 644.319 90.032C644.767 90.368 645.335 90.536 646.023 90.536C647.111 90.536 648.015 90.24 648.735 89.648C649.455 89.04 649.815 88.112 649.815 86.864V85.712L647.919 85.784ZM665.428 79.136V90.224H667.3V96.464H665.26V92H656.308V96.464H654.292V90.224H655.324C656.06 89.2 656.668 88.088 657.148 86.888C657.644 85.672 658.012 84.408 658.252 83.096C658.508 81.768 658.644 80.448 658.66 79.136H665.428ZM660.532 80.792C660.468 81.88 660.3 83.008 660.028 84.176C659.756 85.328 659.404 86.432 658.972 87.488C658.556 88.544 658.068 89.456 657.508 90.224H663.388V80.792H660.532ZM674.693 78.92C676.261 78.92 677.421 79.264 678.173 79.952C678.925 80.64 679.301 81.736 679.301 83.24V92H677.765L677.357 90.176H677.261C676.893 90.64 676.509 91.032 676.109 91.352C675.725 91.656 675.277 91.88 674.765 92.024C674.269 92.168 673.661 92.24 672.941 92.24C672.173 92.24 671.477 92.104 670.853 91.832C670.245 91.56 669.765 91.144 669.413 90.584C669.061 90.008 668.885 89.288 668.885 88.424C668.885 87.144 669.389 86.16 670.397 85.472C671.405 84.768 672.957 84.384 675.053 84.32L677.237 84.248V83.48C677.237 82.408 677.005 81.664 676.541 81.248C676.077 80.832 675.421 80.624 674.573 80.624C673.901 80.624 673.261 80.728 672.653 80.936C672.045 81.128 671.477 81.352 670.949 81.608L670.301 80.024C670.861 79.72 671.525 79.464 672.293 79.256C673.061 79.032 673.861 78.92 674.693 78.92ZM675.317 85.784C673.717 85.848 672.605 86.104 671.981 86.552C671.373 87 671.069 87.632 671.069 88.448C671.069 89.168 671.285 89.696 671.717 90.032C672.165 90.368 672.733 90.536 673.421 90.536C674.509 90.536 675.413 90.24 676.133 89.648C676.853 89.04 677.213 88.112 677.213 86.864V85.712L675.317 85.784ZM685.386 79.136V84.488H692.37V79.136H694.482V92H692.37V86.264H685.386V92H683.274V79.136H685.386ZM700.548 86.984C700.548 87.128 700.54 87.336 700.524 87.608C700.524 87.864 700.516 88.144 700.5 88.448C700.484 88.736 700.468 89.016 700.452 89.288C700.436 89.544 700.42 89.752 700.404 89.912L707.292 79.136H709.884V92H707.916V84.416C707.916 84.16 707.916 83.824 707.916 83.408C707.932 82.992 707.948 82.584 707.964 82.184C707.98 81.768 707.996 81.456 708.012 81.248L701.172 92H698.556V79.136H700.548V86.984ZM718.946 78.896C720.05 78.896 720.994 79.136 721.778 79.616C722.578 80.096 723.186 80.776 723.602 81.656C724.034 82.52 724.25 83.536 724.25 84.704V85.976H715.442C715.474 87.432 715.842 88.544 716.546 89.312C717.266 90.064 718.266 90.44 719.546 90.44C720.362 90.44 721.082 90.368 721.706 90.224C722.346 90.064 723.002 89.84 723.674 89.552V91.4C723.018 91.688 722.37 91.896 721.73 92.024C721.09 92.168 720.33 92.24 719.45 92.24C718.234 92.24 717.154 91.992 716.21 91.496C715.282 91 714.554 90.264 714.026 89.288C713.514 88.296 713.258 87.088 713.258 85.664C713.258 84.256 713.49 83.048 713.954 82.04C714.434 81.032 715.098 80.256 715.946 79.712C716.81 79.168 717.81 78.896 718.946 78.896ZM718.922 80.624C717.914 80.624 717.114 80.952 716.522 81.608C715.946 82.248 715.602 83.144 715.49 84.296H722.042C722.042 83.56 721.93 82.92 721.706 82.376C721.482 81.832 721.138 81.408 720.674 81.104C720.226 80.784 719.642 80.624 718.922 80.624ZM727.212 90.704C727.212 90.112 727.356 89.696 727.644 89.456C727.932 89.216 728.276 89.096 728.676 89.096C729.092 89.096 729.444 89.216 729.732 89.456C730.036 89.696 730.188 90.112 730.188 90.704C730.188 91.28 730.036 91.696 729.732 91.952C729.444 92.208 729.092 92.336 728.676 92.336C728.276 92.336 727.932 92.208 727.644 91.952C727.356 91.696 727.212 91.28 727.212 90.704ZM733.634 90.704C733.634 90.112 733.778 89.696 734.066 89.456C734.354 89.216 734.698 89.096 735.098 89.096C735.514 89.096 735.866 89.216 736.154 89.456C736.458 89.696 736.61 90.112 736.61 90.704C736.61 91.28 736.458 91.696 736.154 91.952C735.866 92.208 735.514 92.336 735.098 92.336C734.698 92.336 734.354 92.208 734.066 91.952C733.778 91.696 733.634 91.28 733.634 90.704ZM740.056 90.704C740.056 90.112 740.2 89.696 740.488 89.456C740.776 89.216 741.12 89.096 741.52 89.096C741.936 89.096 742.288 89.216 742.576 89.456C742.88 89.696 743.032 90.112 743.032 90.704C743.032 91.28 742.88 91.696 742.576 91.952C742.288 92.208 741.936 92.336 741.52 92.336C741.12 92.336 740.776 92.208 740.488 91.952C740.2 91.696 740.056 91.28 740.056 90.704Z" fill="#01457A"/>
<rect y="59" width="767" height="40" fill="url(#paint0_linear_0_6002)"/>
<defs>
<linearGradient id="paint0_linear_0_6002" x1="383.5" y1="59" x2="383.5" y2="99" gradientUnits="userSpaceOnUse">
<stop stop-color="white" stop-opacity="0"/>
<stop offset="1" stop-color="white"/>
</linearGradient>
</defs>
</svg>
