<svg width="367" height="468" viewBox="0 0 367 468" fill="none" xmlns="http://www.w3.org/2000/svg">
<rect width="367" height="468" rx="20" fill="#FDD966" fill-opacity="0.25"/>
<g clip-path="url(#clip0_1_62)">
<path fill-rule="evenodd" clip-rule="evenodd" d="M217.519 111.889C217.521 111.895 217.523 111.901 217.526 111.907C217.915 112.944 218.743 113.553 219.621 113.553C219.934 113.553 220.255 113.475 220.563 113.312C221.737 112.692 222.244 111.101 221.72 109.69C221.195 108.28 219.863 107.657 218.687 108.272C217.51 108.887 216.998 110.475 217.519 111.889Z" fill="#01457A"/>
<path fill-rule="evenodd" clip-rule="evenodd" d="M223.661 119.456C223.47 118.046 222.329 117.082 221.115 117.306C219.902 117.529 219.073 118.853 219.265 120.265C219.764 123.939 219.902 127.684 219.672 131.395C219.14 139.998 215.397 147.849 209.404 152.937L207.899 154.214C204.951 156.717 201.463 158.039 197.812 158.039C196.49 158.039 195.168 157.86 193.883 157.507L187.985 155.889C176.584 152.761 166.185 145.41 158.703 135.191C155.378 130.647 153.877 127.343 152.725 123.939C152.818 123.593 152.851 123.22 152.807 122.837C152.795 122.726 151.699 111.555 165.257 104.384C174.556 99.4662 178.906 91.055 180.419 87.4291C190.613 89.0639 194.122 92.3981 194.382 92.6598C194.92 93.3227 195.663 93.5363 196.432 93.3346C196.617 93.2865 196.8 93.2392 196.983 93.195C204.115 91.4554 211.472 95.8695 214.478 103.686C214.98 104.991 216.297 105.575 217.419 104.993C218.541 104.409 219.044 102.88 218.544 101.576C216.84 97.1496 213.976 93.4221 210.41 90.9462C210.412 90.9375 210.415 90.9289 210.418 90.9202C210.867 89.2539 211.094 87.5158 211.094 85.7557C211.094 85.4033 211.081 85.0541 211.064 84.7065H212.608C213.836 84.7065 214.834 83.5486 214.834 82.1203C214.834 80.6913 213.836 79.5341 212.608 79.5341H210.092C209.52 77.8181 208.721 76.233 207.734 74.8315L208.742 73.661C209.611 72.6505 209.611 71.0125 208.742 70.002C207.872 68.9931 206.463 68.9931 205.594 70.002L204.429 71.3562C202.624 69.9642 200.543 69.0175 198.304 68.6518C201.253 65.9103 205.127 64.612 209.849 64.7989C210.451 64.8257 211.037 64.5608 211.472 64.0737C211.905 63.5866 212.15 62.9158 212.15 62.215V52.3621C212.15 51.0166 211.263 49.8965 210.108 49.7853C209.746 49.7507 205.579 49.3818 200.159 50.1393C197.736 44.691 194.325 40.6434 190.402 38.3969L191.978 35.6641C192.662 34.477 192.388 32.8706 191.366 32.0761C190.345 31.2815 188.963 31.5984 188.279 32.7855L186.023 36.6983C185.062 36.4925 184.082 36.3822 183.09 36.3822C182.517 36.3822 181.948 36.4192 181.383 36.4894V33.3743C181.383 31.946 180.387 30.7881 179.158 30.7881C177.928 30.7881 176.931 31.946 176.931 33.3743V37.7979C174.843 38.7855 172.865 40.2777 171.058 42.2538C169.707 43.7325 168.49 45.4414 167.423 47.3379C166.589 45.4248 164.879 44.1085 162.91 44.1085H156.868C154.078 44.1085 151.809 46.7451 151.809 49.9863V76.4245C150.689 77.4359 149.609 78.6214 148.576 79.9905C143.697 86.4572 142.725 94.9315 142.77 100.902C142.821 107.654 144.226 114.539 146.446 118.953C146.782 119.997 147.084 121.005 147.377 121.982C148.873 126.967 150.285 131.676 155.312 138.542C163.405 149.596 174.644 157.544 186.962 160.923L192.86 162.542C194.481 162.986 196.147 163.212 197.812 163.212C202.414 163.212 206.81 161.544 210.524 158.392L212.029 157.115C219.082 151.127 223.487 141.889 224.112 131.766C224.366 127.662 224.214 123.521 223.661 119.456ZM196.499 88.0337C195.601 87.3077 194.072 86.2743 191.682 85.2378C191.866 82.7486 192.488 78.0578 194.578 73.8044C195.119 73.7051 195.673 73.6523 196.224 73.6523C201.968 73.6523 206.642 79.0833 206.642 85.7572C206.642 86.7843 206.529 87.7988 206.312 88.7825C203.153 87.5915 199.769 87.3243 196.499 88.0337ZM207.698 54.8561V59.6407C202.184 59.9181 197.635 62.0582 194.152 66.0167C189.26 71.5785 187.784 79.304 187.342 83.6944C185.213 83.0772 182.685 82.52 179.693 82.1046C179.016 81.3762 178.342 80.6897 177.671 80.041C177.674 79.9779 177.678 79.9164 177.678 79.8526C177.678 72.9059 179.611 67.3133 183.42 63.2303C190.664 55.4662 202.878 54.8009 207.698 54.8561ZM183.09 41.5554C184.205 41.5554 185.304 41.7461 186.373 42.1087L186.377 42.1095C189.924 43.3139 193.138 46.4424 195.498 51.0402C190.324 52.3361 184.726 54.8001 180.415 59.4136C176.31 63.8049 173.949 69.5117 173.369 76.4088C171.548 75.0956 169.745 74.0859 167.968 73.3859V58.4299C168.007 58.3259 168.042 58.2202 168.07 58.1091C170.524 48.2081 176.56 41.5554 183.09 41.5554ZM156.261 49.9863C156.261 49.597 156.533 49.2809 156.868 49.2809H162.91C163.244 49.2809 163.516 49.597 163.516 49.9863V72.2729C162.771 72.1965 162.031 72.1767 161.295 72.2146C159.554 72.3052 157.874 72.7191 156.261 73.4482V49.9863ZM151.924 83.4012C154.801 79.5869 158.021 77.5628 161.493 77.3822C165.922 77.1521 171.017 79.9487 176.272 85.4814C174.913 88.5799 171.131 95.5936 163.413 99.6759C154.895 104.181 151.258 110.293 149.707 114.627C149.681 114.7 149.657 114.772 149.631 114.845C146.817 107.602 145.305 92.1735 151.924 83.4012Z" fill="#01457A"/>
<path fill-rule="evenodd" clip-rule="evenodd" d="M170.922 134.637C169.999 133.733 168.628 133.885 167.861 134.973C167.096 136.062 167.223 137.677 168.146 138.579C174.027 144.328 181.069 148.46 188.511 150.531C188.68 150.578 188.847 150.6 189.013 150.6C189.998 150.6 190.891 149.805 191.127 148.627C191.403 147.251 190.679 145.871 189.511 145.546C182.717 143.656 176.29 139.882 170.922 134.637Z" fill="#01457A"/>
<path fill-rule="evenodd" clip-rule="evenodd" d="M162.008 127.62C161.05 128.613 160.942 130.338 161.77 131.483C162.224 132.135 162.876 132.471 163.533 132.471C164.051 132.471 164.571 132.262 164.999 131.834C165.972 130.865 166.103 129.134 165.293 127.97L165.246 127.904C164.417 126.758 162.964 126.627 162.008 127.62Z" fill="#01457A"/>
</g>
<path d="M97.4206 267.792H89.1646V282H75.0526V267.792H45.7726V257.712L75.8206 213.456H89.1646V256.56H97.4206V267.792ZM75.0526 244.944C75.0526 243.472 75.0846 241.68 75.1486 239.568C75.2126 237.456 75.2766 235.504 75.3406 233.712C75.4686 231.856 75.5646 230.64 75.6286 230.064H75.2446C74.6686 231.344 74.0606 232.592 73.4206 233.808C72.7806 235.024 72.0126 236.272 71.1166 237.552L58.5406 256.56H75.0526V244.944ZM127.878 238.224C132.038 238.224 135.75 239.024 139.014 240.624C142.278 242.224 144.838 244.56 146.694 247.632C148.614 250.704 149.574 254.512 149.574 259.056C149.574 266.48 147.27 272.336 142.662 276.624C138.054 280.848 131.238 282.96 122.214 282.96C118.63 282.96 115.238 282.64 112.038 282C108.902 281.36 106.15 280.432 103.782 279.216V266.736C106.15 267.952 108.998 269.008 112.326 269.904C115.654 270.736 118.79 271.152 121.734 271.152C126.022 271.152 129.286 270.288 131.526 268.56C133.83 266.768 134.982 264.016 134.982 260.304C134.982 253.392 130.406 249.936 121.254 249.936C119.462 249.936 117.606 250.128 115.686 250.512C113.766 250.832 112.166 251.152 110.886 251.472L105.126 248.4L107.718 213.456H144.87V225.744H120.39L119.142 239.184C120.23 238.992 121.382 238.8 122.598 238.608C123.878 238.352 125.638 238.224 127.878 238.224ZM175.52 271.92C174.688 275.312 173.504 279.024 171.968 283.056C170.432 287.088 168.864 290.864 167.264 294.384H156.992C157.888 290.608 158.784 286.576 159.68 282.288C160.576 278 161.248 274.192 161.696 270.864H174.848L175.52 271.92ZM210.191 238.224C214.351 238.224 218.063 239.024 221.327 240.624C224.591 242.224 227.151 244.56 229.007 247.632C230.927 250.704 231.887 254.512 231.887 259.056C231.887 266.48 229.583 272.336 224.975 276.624C220.367 280.848 213.551 282.96 204.527 282.96C200.943 282.96 197.551 282.64 194.351 282C191.215 281.36 188.463 280.432 186.095 279.216V266.736C188.463 267.952 191.311 269.008 194.639 269.904C197.967 270.736 201.103 271.152 204.047 271.152C208.335 271.152 211.599 270.288 213.839 268.56C216.143 266.768 217.295 264.016 217.295 260.304C217.295 253.392 212.719 249.936 203.567 249.936C201.775 249.936 199.919 250.128 197.999 250.512C196.079 250.832 194.479 251.152 193.199 251.472L187.439 248.4L190.031 213.456H227.183V225.744H202.703L201.455 239.184C202.543 238.992 203.695 238.8 204.911 238.608C206.191 238.352 207.951 238.224 210.191 238.224ZM255.432 212.496C260.808 212.496 264.872 214.384 267.624 218.16C270.44 221.872 271.848 227.12 271.848 233.904C271.848 240.688 270.536 246 267.912 249.84C265.288 253.616 261.128 255.504 255.432 255.504C250.184 255.504 246.184 253.616 243.432 249.84C240.68 246 239.304 240.688 239.304 233.904C239.304 227.12 240.584 221.872 243.144 218.16C245.704 214.384 249.8 212.496 255.432 212.496ZM304.104 213.456L266.088 282H254.856L292.872 213.456H304.104ZM255.528 222.288C252.584 222.288 251.112 226.192 251.112 234C251.112 241.872 252.584 245.808 255.528 245.808C258.536 245.808 260.04 241.872 260.04 234C260.04 226.192 258.536 222.288 255.528 222.288ZM303.432 239.856C308.808 239.856 312.872 241.744 315.624 245.52C318.44 249.232 319.848 254.48 319.848 261.264C319.848 268.048 318.536 273.36 315.912 277.2C313.288 280.976 309.128 282.864 303.432 282.864C298.184 282.864 294.184 280.976 291.432 277.2C288.68 273.36 287.304 268.048 287.304 261.264C287.304 254.48 288.584 249.232 291.144 245.52C293.704 241.744 297.8 239.856 303.432 239.856ZM303.528 249.648C300.584 249.648 299.112 253.552 299.112 261.36C299.112 269.232 300.584 273.168 303.528 273.168C306.536 273.168 308.04 269.232 308.04 261.36C308.04 253.552 306.536 249.648 303.528 249.648Z" fill="#01457A"/>
<path d="M42.0466 317.064V331H39.7586V319.014H32.5566V331H30.2686V317.064H42.0466ZM51.7712 316.83C53.4699 316.83 54.7265 317.203 55.5412 317.948C56.3559 318.693 56.7632 319.881 56.7632 321.51V331H55.0992L54.6572 329.024H54.5532C54.1545 329.527 53.7385 329.951 53.3052 330.298C52.8892 330.627 52.4039 330.87 51.8492 331.026C51.3119 331.182 50.6532 331.26 49.8732 331.26C49.0412 331.26 48.2872 331.113 47.6112 330.818C46.9525 330.523 46.4325 330.073 46.0512 329.466C45.6699 328.842 45.4792 328.062 45.4792 327.126C45.4792 325.739 46.0252 324.673 47.1172 323.928C48.2092 323.165 49.8905 322.749 52.1612 322.68L54.5272 322.602V321.77C54.5272 320.609 54.2759 319.803 53.7732 319.352C53.2705 318.901 52.5599 318.676 51.6412 318.676C50.9132 318.676 50.2199 318.789 49.5612 319.014C48.9025 319.222 48.2872 319.465 47.7152 319.742L47.0132 318.026C47.6199 317.697 48.3392 317.419 49.1712 317.194C50.0032 316.951 50.8699 316.83 51.7712 316.83ZM52.4472 324.266C50.7139 324.335 49.5092 324.613 48.8332 325.098C48.1745 325.583 47.8452 326.268 47.8452 327.152C47.8452 327.932 48.0792 328.504 48.5472 328.868C49.0325 329.232 49.6479 329.414 50.3932 329.414C51.5719 329.414 52.5512 329.093 53.3312 328.452C54.1112 327.793 54.5012 326.788 54.5012 325.436V324.188L52.4472 324.266ZM74.8214 335.836H72.5854V331H61.0674V317.064H63.3554V329.076H70.5574V317.064H72.8454V329.102H74.8214V335.836ZM79.6532 325.566C79.6532 325.722 79.6445 325.947 79.6272 326.242C79.6272 326.519 79.6185 326.823 79.6012 327.152C79.5838 327.464 79.5665 327.767 79.5492 328.062C79.5318 328.339 79.5145 328.565 79.4972 328.738L86.9592 317.064H89.7672V331H87.6352V322.784C87.6352 322.507 87.6352 322.143 87.6352 321.692C87.6525 321.241 87.6698 320.799 87.6872 320.366C87.7045 319.915 87.7218 319.577 87.7392 319.352L80.3292 331H77.4952V317.064H79.6532V325.566ZM99.5842 316.804C100.78 316.804 101.803 317.064 102.652 317.584C103.519 318.104 104.178 318.841 104.628 319.794C105.096 320.73 105.33 321.831 105.33 323.096V324.474H95.7882C95.8229 326.051 96.2215 327.256 96.9842 328.088C97.7642 328.903 98.8475 329.31 100.234 329.31C101.118 329.31 101.898 329.232 102.574 329.076C103.268 328.903 103.978 328.66 104.706 328.348V330.35C103.996 330.662 103.294 330.887 102.6 331.026C101.907 331.182 101.084 331.26 100.13 331.26C98.8129 331.26 97.6429 330.991 96.6202 330.454C95.6149 329.917 94.8262 329.119 94.2542 328.062C93.6995 326.987 93.4222 325.679 93.4222 324.136C93.4222 322.611 93.6735 321.302 94.1762 320.21C94.6962 319.118 95.4155 318.277 96.3342 317.688C97.2702 317.099 98.3535 316.804 99.5842 316.804ZM99.5582 318.676C98.4662 318.676 97.5995 319.031 96.9582 319.742C96.3342 320.435 95.9615 321.406 95.8402 322.654H102.938C102.938 321.857 102.817 321.163 102.574 320.574C102.332 319.985 101.959 319.525 101.456 319.196C100.971 318.849 100.338 318.676 99.5582 318.676ZM111.166 317.064V322.862H118.732V317.064H121.02V331H118.732V324.786H111.166V331H108.878V317.064H111.166ZM135.053 318.988H130.503V331H128.241V318.988H123.743V317.064H135.053V318.988ZM149.66 324.006C149.66 325.167 149.504 326.199 149.192 327.1C148.897 327.984 148.464 328.738 147.892 329.362C147.337 329.986 146.653 330.463 145.838 330.792C145.041 331.104 144.148 331.26 143.16 331.26C142.241 331.26 141.392 331.104 140.612 330.792C139.832 330.463 139.156 329.986 138.584 329.362C138.012 328.738 137.561 327.984 137.232 327.1C136.92 326.199 136.764 325.167 136.764 324.006C136.764 322.463 137.024 321.163 137.544 320.106C138.064 319.031 138.809 318.217 139.78 317.662C140.751 317.09 141.903 316.804 143.238 316.804C144.503 316.804 145.613 317.09 146.566 317.662C147.537 318.217 148.291 319.031 148.828 320.106C149.383 321.163 149.66 322.463 149.66 324.006ZM139.13 324.006C139.13 325.098 139.269 326.051 139.546 326.866C139.841 327.663 140.291 328.279 140.898 328.712C141.505 329.145 142.276 329.362 143.212 329.362C144.148 329.362 144.919 329.145 145.526 328.712C146.133 328.279 146.575 327.663 146.852 326.866C147.147 326.051 147.294 325.098 147.294 324.006C147.294 322.897 147.147 321.952 146.852 321.172C146.557 320.392 146.107 319.794 145.5 319.378C144.911 318.945 144.139 318.728 143.186 318.728C141.765 318.728 140.733 319.196 140.092 320.132C139.451 321.068 139.13 322.359 139.13 324.006ZM164.492 320.574C164.492 321.441 164.232 322.117 163.712 322.602C163.192 323.087 162.525 323.417 161.71 323.59V323.694C162.577 323.815 163.331 324.127 163.972 324.63C164.614 325.115 164.934 325.878 164.934 326.918C164.934 327.507 164.822 328.053 164.596 328.556C164.388 329.059 164.059 329.492 163.608 329.856C163.158 330.22 162.577 330.506 161.866 330.714C161.156 330.905 160.298 331 159.292 331H153.286V317.064H159.266C160.254 317.064 161.138 317.177 161.918 317.402C162.716 317.61 163.34 317.974 163.79 318.494C164.258 318.997 164.492 319.69 164.492 320.574ZM162.568 326.918C162.568 326.121 162.265 325.549 161.658 325.202C161.052 324.855 160.159 324.682 158.98 324.682H155.574V329.154H159.032C160.176 329.154 161.052 328.989 161.658 328.66C162.265 328.313 162.568 327.733 162.568 326.918ZM162.178 320.86C162.178 320.201 161.936 319.725 161.45 319.43C160.982 319.118 160.211 318.962 159.136 318.962H155.574V322.784H158.72C159.847 322.784 160.705 322.628 161.294 322.316C161.884 322.004 162.178 321.519 162.178 320.86ZM180.611 331.26C179.38 331.26 178.279 331.009 177.309 330.506C176.355 330.003 175.601 329.223 175.047 328.166C174.509 327.109 174.241 325.757 174.241 324.11C174.241 322.394 174.527 320.999 175.099 319.924C175.671 318.849 176.442 318.061 177.413 317.558C178.401 317.055 179.519 316.804 180.767 316.804C181.477 316.804 182.162 316.882 182.821 317.038C183.479 317.177 184.017 317.35 184.433 317.558L183.731 319.456C183.315 319.3 182.829 319.153 182.275 319.014C181.72 318.875 181.2 318.806 180.715 318.806C179.779 318.806 179.007 319.005 178.401 319.404C177.794 319.803 177.343 320.392 177.049 321.172C176.754 321.952 176.607 322.923 176.607 324.084C176.607 325.193 176.754 326.138 177.049 326.918C177.343 327.698 177.785 328.287 178.375 328.686C178.964 329.085 179.701 329.284 180.585 329.284C181.347 329.284 182.015 329.206 182.587 329.05C183.176 328.894 183.713 328.703 184.199 328.478V330.506C183.731 330.749 183.211 330.931 182.639 331.052C182.084 331.191 181.408 331.26 180.611 331.26ZM199.857 331.26C198.453 331.26 197.257 331.009 196.269 330.506C195.281 329.986 194.527 329.189 194.007 328.114C193.487 327.039 193.227 325.661 193.227 323.98C193.227 322.247 193.521 320.834 194.111 319.742C194.7 318.65 195.515 317.844 196.555 317.324C197.612 316.804 198.825 316.544 200.195 316.544C201.165 316.544 202.006 316.639 202.717 316.83C203.445 317.021 204.077 317.246 204.615 317.506L203.471 320.496C202.864 320.253 202.292 320.054 201.755 319.898C201.235 319.742 200.715 319.664 200.195 319.664C199.519 319.664 198.955 319.829 198.505 320.158C198.054 320.47 197.716 320.947 197.491 321.588C197.283 322.212 197.179 323.001 197.179 323.954C197.179 324.89 197.291 325.67 197.517 326.294C197.759 326.901 198.106 327.36 198.557 327.672C199.007 327.967 199.553 328.114 200.195 328.114C201.009 328.114 201.729 328.01 202.353 327.802C202.977 327.577 203.583 327.273 204.173 326.892V330.194C203.583 330.575 202.959 330.844 202.301 331C201.659 331.173 200.845 331.26 199.857 331.26ZM213.29 316.544C214.607 316.544 215.734 316.795 216.67 317.298C217.623 317.801 218.36 318.529 218.88 319.482C219.4 320.435 219.66 321.605 219.66 322.992V324.864H210.508C210.543 325.956 210.863 326.814 211.47 327.438C212.094 328.062 212.952 328.374 214.044 328.374C214.963 328.374 215.795 328.287 216.54 328.114C217.285 327.923 218.057 327.637 218.854 327.256V330.246C218.161 330.593 217.424 330.844 216.644 331C215.881 331.173 214.954 331.26 213.862 331.26C212.441 331.26 211.184 331 210.092 330.48C209 329.943 208.142 329.137 207.518 328.062C206.894 326.987 206.582 325.635 206.582 324.006C206.582 322.342 206.859 320.964 207.414 319.872C207.986 318.763 208.775 317.931 209.78 317.376C210.785 316.821 211.955 316.544 213.29 316.544ZM213.316 319.3C212.571 319.3 211.947 319.543 211.444 320.028C210.959 320.513 210.673 321.267 210.586 322.29H216.02C216.02 321.718 215.916 321.207 215.708 320.756C215.517 320.305 215.223 319.95 214.824 319.69C214.425 319.43 213.923 319.3 213.316 319.3ZM230.705 316.544C232.3 316.544 233.591 317.168 234.579 318.416C235.567 319.647 236.061 321.467 236.061 323.876C236.061 325.488 235.827 326.849 235.359 327.958C234.891 329.05 234.25 329.873 233.435 330.428C232.621 330.983 231.676 331.26 230.601 331.26C229.925 331.26 229.336 331.173 228.833 331C228.348 330.827 227.932 330.601 227.585 330.324C227.239 330.047 226.935 329.752 226.675 329.44H226.467C226.537 329.769 226.589 330.116 226.623 330.48C226.658 330.827 226.675 331.173 226.675 331.52V337.24H222.801V316.804H225.947L226.493 318.65H226.675C226.935 318.269 227.247 317.922 227.611 317.61C227.975 317.281 228.409 317.021 228.911 316.83C229.431 316.639 230.029 316.544 230.705 316.544ZM229.457 319.638C228.781 319.638 228.244 319.777 227.845 320.054C227.447 320.331 227.152 320.756 226.961 321.328C226.788 321.883 226.693 322.585 226.675 323.434V323.85C226.675 324.769 226.762 325.549 226.935 326.19C227.109 326.814 227.403 327.291 227.819 327.62C228.235 327.949 228.799 328.114 229.509 328.114C230.099 328.114 230.584 327.949 230.965 327.62C231.347 327.291 231.633 326.805 231.823 326.164C232.014 325.523 232.109 324.743 232.109 323.824C232.109 322.437 231.893 321.397 231.459 320.704C231.043 319.993 230.376 319.638 229.457 319.638ZM252.021 316.804V328.166H254.101V336.096H250.617V331H241.075V336.096H237.591V328.166H238.787C239.411 327.213 239.939 326.129 240.373 324.916C240.806 323.685 241.153 322.377 241.413 320.99C241.673 319.603 241.863 318.208 241.985 316.804H252.021ZM245.235 319.716C245.096 320.756 244.923 321.77 244.715 322.758C244.507 323.729 244.247 324.665 243.935 325.566C243.64 326.467 243.276 327.334 242.843 328.166H248.147V319.716H245.235ZM262.37 316.544C263.688 316.544 264.814 316.795 265.75 317.298C266.704 317.801 267.44 318.529 267.96 319.482C268.48 320.435 268.74 321.605 268.74 322.992V324.864H259.588C259.623 325.956 259.944 326.814 260.55 327.438C261.174 328.062 262.032 328.374 263.124 328.374C264.043 328.374 264.875 328.287 265.62 328.114C266.366 327.923 267.137 327.637 267.934 327.256V330.246C267.241 330.593 266.504 330.844 265.724 331C264.962 331.173 264.034 331.26 262.942 331.26C261.521 331.26 260.264 331 259.172 330.48C258.08 329.943 257.222 329.137 256.598 328.062C255.974 326.987 255.662 325.635 255.662 324.006C255.662 322.342 255.94 320.964 256.494 319.872C257.066 318.763 257.855 317.931 258.86 317.376C259.866 316.821 261.036 316.544 262.37 316.544ZM262.396 319.3C261.651 319.3 261.027 319.543 260.524 320.028C260.039 320.513 259.753 321.267 259.666 322.29H265.1C265.1 321.718 264.996 321.207 264.788 320.756C264.598 320.305 264.303 319.95 263.904 319.69C263.506 319.43 263.003 319.3 262.396 319.3ZM275.288 322.004C275.288 322.611 275.435 323.07 275.73 323.382C276.042 323.694 276.466 323.85 277.004 323.85C277.749 323.85 278.442 323.772 279.084 323.616C279.725 323.443 280.366 323.217 281.008 322.94V316.804H284.882V331H281.008V325.358C280.401 325.687 279.708 325.991 278.928 326.268C278.148 326.528 277.264 326.658 276.276 326.658C274.802 326.658 273.624 326.277 272.74 325.514C271.856 324.751 271.414 323.607 271.414 322.082V316.804H275.288V322.004ZM292.818 316.804V322.264H298.226V316.804H302.1V331H298.226V325.15H292.818V331H288.944V316.804H292.818ZM319.055 323.876C319.055 325.055 318.89 326.103 318.561 327.022C318.249 327.941 317.79 328.721 317.183 329.362C316.594 329.986 315.874 330.463 315.025 330.792C314.176 331.104 313.214 331.26 312.139 331.26C311.151 331.26 310.232 331.104 309.383 330.792C308.551 330.463 307.832 329.986 307.225 329.362C306.618 328.721 306.142 327.941 305.795 327.022C305.466 326.103 305.301 325.055 305.301 323.876C305.301 322.299 305.578 320.973 306.133 319.898C306.688 318.806 307.485 317.974 308.525 317.402C309.565 316.83 310.796 316.544 312.217 316.544C313.552 316.544 314.73 316.83 315.753 317.402C316.776 317.974 317.582 318.806 318.171 319.898C318.76 320.973 319.055 322.299 319.055 323.876ZM309.253 323.876C309.253 324.812 309.348 325.601 309.539 326.242C309.747 326.866 310.068 327.343 310.501 327.672C310.934 327.984 311.498 328.14 312.191 328.14C312.884 328.14 313.439 327.984 313.855 327.672C314.288 327.343 314.6 326.866 314.791 326.242C314.999 325.601 315.103 324.812 315.103 323.876C315.103 322.94 314.999 322.16 314.791 321.536C314.6 320.912 314.288 320.444 313.855 320.132C313.422 319.82 312.858 319.664 312.165 319.664C311.142 319.664 310.397 320.019 309.929 320.73C309.478 321.423 309.253 322.472 309.253 323.876ZM335.855 310.694C335.768 311.595 335.517 312.393 335.101 313.086C334.685 313.762 334.035 314.291 333.151 314.672C332.267 315.053 331.079 315.244 329.589 315.244C328.063 315.244 326.867 315.062 326.001 314.698C325.151 314.317 324.545 313.788 324.181 313.112C323.817 312.436 323.6 311.63 323.531 310.694H326.989C327.075 311.647 327.318 312.28 327.717 312.592C328.115 312.904 328.765 313.06 329.667 313.06C330.412 313.06 331.019 312.895 331.487 312.566C331.972 312.219 332.258 311.595 332.345 310.694H335.855ZM326.001 322.42C326.001 322.715 325.983 323.079 325.949 323.512C325.931 323.945 325.905 324.387 325.871 324.838C325.853 325.289 325.827 325.687 325.793 326.034C325.758 326.381 325.732 326.623 325.715 326.762L332.267 316.804H336.921V331H333.177V325.332C333.177 324.864 333.194 324.353 333.229 323.798C333.263 323.226 333.298 322.697 333.333 322.212C333.385 321.709 333.419 321.328 333.437 321.068L326.911 331H322.257V316.804H326.001V322.42ZM56.7614 351.804V357.264H62.1694V351.804H66.0434V366H62.1694V360.15H56.7614V366H52.8874V351.804H56.7614ZM75.9522 351.544C77.2696 351.544 78.3962 351.795 79.3322 352.298C80.2856 352.801 81.0222 353.529 81.5422 354.482C82.0622 355.435 82.3222 356.605 82.3222 357.992V359.864H73.1702C73.2049 360.956 73.5256 361.814 74.1322 362.438C74.7562 363.062 75.6142 363.374 76.7062 363.374C77.6249 363.374 78.4569 363.287 79.2022 363.114C79.9476 362.923 80.7189 362.637 81.5162 362.256V365.246C80.8229 365.593 80.0862 365.844 79.3062 366C78.5436 366.173 77.6162 366.26 76.5242 366.26C75.1029 366.26 73.8462 366 72.7542 365.48C71.6622 364.943 70.8042 364.137 70.1802 363.062C69.5562 361.987 69.2442 360.635 69.2442 359.006C69.2442 357.342 69.5216 355.964 70.0762 354.872C70.6482 353.763 71.4369 352.931 72.4422 352.376C73.4476 351.821 74.6176 351.544 75.9522 351.544ZM75.9782 354.3C75.2329 354.3 74.6089 354.543 74.1062 355.028C73.6209 355.513 73.3349 356.267 73.2482 357.29H78.6822C78.6822 356.718 78.5782 356.207 78.3702 355.756C78.1796 355.305 77.8849 354.95 77.4862 354.69C77.0876 354.43 76.5849 354.3 75.9782 354.3ZM98.2295 351.804V363.166H100.31V371.096H96.8255V366H87.2835V371.096H83.7995V363.166H84.9955C85.6195 362.213 86.1482 361.129 86.5815 359.916C87.0149 358.685 87.3615 357.377 87.6215 355.99C87.8815 354.603 88.0722 353.208 88.1935 351.804H98.2295ZM91.4435 354.716C91.3049 355.756 91.1315 356.77 90.9235 357.758C90.7155 358.729 90.4555 359.665 90.1435 360.566C89.8489 361.467 89.4849 362.334 89.0515 363.166H94.3555V354.716H91.4435ZM115.625 358.876C115.625 360.055 115.461 361.103 115.131 362.022C114.819 362.941 114.36 363.721 113.753 364.362C113.164 364.986 112.445 365.463 111.595 365.792C110.746 366.104 109.784 366.26 108.709 366.26C107.721 366.26 106.803 366.104 105.953 365.792C105.121 365.463 104.402 364.986 103.795 364.362C103.189 363.721 102.712 362.941 102.365 362.022C102.036 361.103 101.871 360.055 101.871 358.876C101.871 357.299 102.149 355.973 102.703 354.898C103.258 353.806 104.055 352.974 105.095 352.402C106.135 351.83 107.366 351.544 108.787 351.544C110.122 351.544 111.301 351.83 112.323 352.402C113.346 352.974 114.152 353.806 114.741 354.898C115.331 355.973 115.625 357.299 115.625 358.876ZM105.823 358.876C105.823 359.812 105.919 360.601 106.109 361.242C106.317 361.866 106.638 362.343 107.071 362.672C107.505 362.984 108.068 363.14 108.761 363.14C109.455 363.14 110.009 362.984 110.425 362.672C110.859 362.343 111.171 361.866 111.361 361.242C111.569 360.601 111.673 359.812 111.673 358.876C111.673 357.94 111.569 357.16 111.361 356.536C111.171 355.912 110.859 355.444 110.425 355.132C109.992 354.82 109.429 354.664 108.735 354.664C107.713 354.664 106.967 355.019 106.499 355.73C106.049 356.423 105.823 357.472 105.823 358.876ZM124.599 366.26C123.195 366.26 121.999 366.009 121.011 365.506C120.023 364.986 119.269 364.189 118.749 363.114C118.229 362.039 117.969 360.661 117.969 358.98C117.969 357.247 118.263 355.834 118.853 354.742C119.442 353.65 120.257 352.844 121.297 352.324C122.354 351.804 123.567 351.544 124.937 351.544C125.907 351.544 126.748 351.639 127.459 351.83C128.187 352.021 128.819 352.246 129.357 352.506L128.213 355.496C127.606 355.253 127.034 355.054 126.497 354.898C125.977 354.742 125.457 354.664 124.937 354.664C124.261 354.664 123.697 354.829 123.247 355.158C122.796 355.47 122.458 355.947 122.233 356.588C122.025 357.212 121.921 358.001 121.921 358.954C121.921 359.89 122.033 360.67 122.259 361.294C122.501 361.901 122.848 362.36 123.299 362.672C123.749 362.967 124.295 363.114 124.937 363.114C125.751 363.114 126.471 363.01 127.095 362.802C127.719 362.577 128.325 362.273 128.915 361.892V365.194C128.325 365.575 127.701 365.844 127.043 366C126.401 366.173 125.587 366.26 124.599 366.26ZM143.934 354.716H139.28V366H135.406V354.716H130.752V351.804H143.934V354.716ZM152.377 351.518C154.284 351.518 155.74 351.934 156.745 352.766C157.768 353.581 158.279 354.837 158.279 356.536V366H155.575L154.821 364.076H154.717C154.319 364.579 153.903 364.995 153.469 365.324C153.053 365.653 152.568 365.887 152.013 366.026C151.476 366.182 150.809 366.26 150.011 366.26C149.179 366.26 148.425 366.104 147.749 365.792C147.091 365.463 146.571 364.969 146.189 364.31C145.808 363.634 145.617 362.785 145.617 361.762C145.617 360.254 146.146 359.145 147.203 358.434C148.261 357.706 149.847 357.307 151.961 357.238L154.431 357.16V356.536C154.431 355.791 154.232 355.245 153.833 354.898C153.452 354.551 152.915 354.378 152.221 354.378C151.528 354.378 150.852 354.482 150.193 354.69C149.535 354.881 148.876 355.123 148.217 355.418L146.943 352.792C147.706 352.393 148.547 352.081 149.465 351.856C150.401 351.631 151.372 351.518 152.377 351.518ZM152.923 359.474C151.675 359.509 150.809 359.734 150.323 360.15C149.838 360.566 149.595 361.112 149.595 361.788C149.595 362.377 149.769 362.802 150.115 363.062C150.462 363.305 150.913 363.426 151.467 363.426C152.299 363.426 153.001 363.183 153.573 362.698C154.145 362.195 154.431 361.493 154.431 360.592V359.422L152.923 359.474ZM173.997 354.716H169.343V366H165.469V354.716H160.815V351.804H173.997V354.716ZM189.258 358.876C189.258 360.055 189.093 361.103 188.764 362.022C188.452 362.941 187.993 363.721 187.386 364.362C186.797 364.986 186.077 365.463 185.228 365.792C184.379 366.104 183.417 366.26 182.342 366.26C181.354 366.26 180.435 366.104 179.586 365.792C178.754 365.463 178.035 364.986 177.428 364.362C176.821 363.721 176.345 362.941 175.998 362.022C175.669 361.103 175.504 360.055 175.504 358.876C175.504 357.299 175.781 355.973 176.336 354.898C176.891 353.806 177.688 352.974 178.728 352.402C179.768 351.83 180.999 351.544 182.42 351.544C183.755 351.544 184.933 351.83 185.956 352.402C186.979 352.974 187.785 353.806 188.374 354.898C188.963 355.973 189.258 357.299 189.258 358.876ZM179.456 358.876C179.456 359.812 179.551 360.601 179.742 361.242C179.95 361.866 180.271 362.343 180.704 362.672C181.137 362.984 181.701 363.14 182.394 363.14C183.087 363.14 183.642 362.984 184.058 362.672C184.491 362.343 184.803 361.866 184.994 361.242C185.202 360.601 185.306 359.812 185.306 358.876C185.306 357.94 185.202 357.16 184.994 356.536C184.803 355.912 184.491 355.444 184.058 355.132C183.625 354.82 183.061 354.664 182.368 354.664C181.345 354.664 180.6 355.019 180.132 355.73C179.681 356.423 179.456 357.472 179.456 358.876ZM195.612 357.004C195.612 357.611 195.759 358.07 196.054 358.382C196.366 358.694 196.79 358.85 197.328 358.85C198.073 358.85 198.766 358.772 199.408 358.616C200.049 358.443 200.69 358.217 201.332 357.94V351.804H205.206V366H201.332V360.358C200.725 360.687 200.032 360.991 199.252 361.268C198.472 361.528 197.588 361.658 196.6 361.658C195.126 361.658 193.948 361.277 193.064 360.514C192.18 359.751 191.738 358.607 191.738 357.082V351.804H195.612V357.004ZM213.142 351.804V357.264H218.55V351.804H222.424V366H218.55V360.15H213.142V366H209.268V351.804H213.142ZM239.379 358.876C239.379 360.055 239.214 361.103 238.885 362.022C238.573 362.941 238.114 363.721 237.507 364.362C236.918 364.986 236.198 365.463 235.349 365.792C234.5 366.104 233.538 366.26 232.463 366.26C231.475 366.26 230.556 366.104 229.707 365.792C228.875 365.463 228.156 364.986 227.549 364.362C226.942 363.721 226.466 362.941 226.119 362.022C225.79 361.103 225.625 360.055 225.625 358.876C225.625 357.299 225.902 355.973 226.457 354.898C227.012 353.806 227.809 352.974 228.849 352.402C229.889 351.83 231.12 351.544 232.541 351.544C233.876 351.544 235.054 351.83 236.077 352.402C237.1 352.974 237.906 353.806 238.495 354.898C239.084 355.973 239.379 357.299 239.379 358.876ZM229.577 358.876C229.577 359.812 229.672 360.601 229.863 361.242C230.071 361.866 230.392 362.343 230.825 362.672C231.258 362.984 231.822 363.14 232.515 363.14C233.208 363.14 233.763 362.984 234.179 362.672C234.612 362.343 234.924 361.866 235.115 361.242C235.323 360.601 235.427 359.812 235.427 358.876C235.427 357.94 235.323 357.16 235.115 356.536C234.924 355.912 234.612 355.444 234.179 355.132C233.746 354.82 233.182 354.664 232.489 354.664C231.466 354.664 230.721 355.019 230.253 355.73C229.802 356.423 229.577 357.472 229.577 358.876ZM248.353 366.26C246.949 366.26 245.753 366.009 244.765 365.506C243.777 364.986 243.023 364.189 242.503 363.114C241.983 362.039 241.723 360.661 241.723 358.98C241.723 357.247 242.017 355.834 242.607 354.742C243.196 353.65 244.011 352.844 245.051 352.324C246.108 351.804 247.321 351.544 248.691 351.544C249.661 351.544 250.502 351.639 251.213 351.83C251.941 352.021 252.573 352.246 253.111 352.506L251.967 355.496C251.36 355.253 250.788 355.054 250.251 354.898C249.731 354.742 249.211 354.664 248.691 354.664C248.015 354.664 247.451 354.829 247.001 355.158C246.55 355.47 246.212 355.947 245.987 356.588C245.779 357.212 245.675 358.001 245.675 358.954C245.675 359.89 245.787 360.67 246.013 361.294C246.255 361.901 246.602 362.36 247.053 362.672C247.503 362.967 248.049 363.114 248.691 363.114C249.505 363.114 250.225 363.01 250.849 362.802C251.473 362.577 252.079 362.273 252.669 361.892V365.194C252.079 365.575 251.455 365.844 250.797 366C250.155 366.173 249.341 366.26 248.353 366.26ZM267.688 354.716H263.034V366H259.16V354.716H254.506V351.804H267.688V354.716ZM276.911 357.29C278.367 357.29 279.572 357.446 280.525 357.758C281.479 358.053 282.181 358.512 282.631 359.136C283.099 359.76 283.333 360.54 283.333 361.476C283.333 362.395 283.117 363.192 282.683 363.868C282.267 364.544 281.6 365.073 280.681 365.454C279.763 365.818 278.558 366 277.067 366H270.307V351.804H274.181V357.29H276.911ZM279.459 361.528C279.459 360.973 279.234 360.575 278.783 360.332C278.35 360.089 277.7 359.968 276.833 359.968H274.181V363.322H276.885C277.648 363.322 278.263 363.183 278.731 362.906C279.217 362.629 279.459 362.169 279.459 361.528ZM305.882 358.876C305.882 360.453 305.613 361.797 305.076 362.906C304.539 363.998 303.767 364.83 302.762 365.402C301.774 365.974 300.595 366.26 299.226 366.26C298.065 366.26 297.016 366.043 296.08 365.61C295.161 365.159 294.407 364.483 293.818 363.582C293.246 362.681 292.873 361.537 292.7 360.15H290.152V366H286.278V351.804H290.152V357.264H292.752C292.925 356.033 293.298 354.993 293.87 354.144C294.459 353.295 295.213 352.653 296.132 352.22C297.068 351.769 298.125 351.544 299.304 351.544C300.587 351.544 301.722 351.83 302.71 352.402C303.698 352.974 304.469 353.806 305.024 354.898C305.596 355.973 305.882 357.299 305.882 358.876ZM296.6 358.876C296.6 359.812 296.687 360.601 296.86 361.242C297.051 361.866 297.345 362.343 297.744 362.672C298.143 362.984 298.654 363.14 299.278 363.14C299.902 363.14 300.405 362.984 300.786 362.672C301.185 362.343 301.471 361.866 301.644 361.242C301.835 360.601 301.93 359.812 301.93 358.876C301.93 357.94 301.835 357.16 301.644 356.536C301.471 355.912 301.185 355.444 300.786 355.132C300.405 354.82 299.893 354.664 299.252 354.664C298.628 354.664 298.117 354.82 297.718 355.132C297.337 355.444 297.051 355.912 296.86 356.536C296.687 357.16 296.6 357.94 296.6 358.876ZM313.291 344.056V355.184H311.445V348.008C311.445 347.713 311.445 347.436 311.445 347.176C311.462 346.916 311.479 346.665 311.497 346.422C311.514 346.179 311.531 345.937 311.549 345.694C311.375 345.85 311.185 346.023 310.977 346.214C310.769 346.387 310.552 346.552 310.327 346.708L308.923 347.722L308.013 346.448L311.393 344.056H313.291Z" fill="#01457A"/>
<path d="M70.7082 407V394.148H80.0142V407H78.9882V395.084H71.7522V407H70.7082ZM91.4221 402.194C91.4221 403.202 91.2541 404.078 90.9181 404.822C90.5941 405.566 90.1081 406.148 89.4601 406.568C88.8241 406.976 88.0441 407.18 87.1201 407.18C86.2321 407.18 85.4701 406.976 84.8341 406.568C84.1981 406.16 83.7061 405.584 83.3581 404.84C83.0221 404.084 82.8541 403.202 82.8541 402.194C82.8541 400.646 83.2381 399.434 84.0061 398.558C84.7741 397.682 85.8361 397.244 87.1921 397.244C88.1041 397.244 88.8721 397.454 89.4961 397.874C90.1321 398.282 90.6121 398.858 90.9361 399.602C91.2601 400.346 91.4221 401.21 91.4221 402.194ZM83.9161 402.194C83.9161 403.43 84.1741 404.426 84.6901 405.182C85.2181 405.926 86.0341 406.298 87.1381 406.298C88.2541 406.298 89.0701 405.92 89.5861 405.164C90.1021 404.408 90.3601 403.418 90.3601 402.194C90.3601 401.402 90.2521 400.7 90.0361 400.088C89.8201 399.476 89.4781 398.996 89.0101 398.648C88.5421 398.3 87.9301 398.126 87.1741 398.126C86.0941 398.126 85.2781 398.486 84.7261 399.206C84.1861 399.926 83.9161 400.922 83.9161 402.194ZM101.751 397.424V407H100.725V398.324H95.0553V407H94.0293V397.424H101.751ZM103.379 397.424H104.459L106.745 403.364C106.937 403.904 107.105 404.384 107.249 404.804C107.393 405.212 107.507 405.578 107.591 405.902H107.645C107.825 405.302 108.107 404.468 108.491 403.4L110.723 397.424H111.821L107.501 408.692C107.177 409.544 106.793 410.198 106.349 410.654C105.905 411.11 105.305 411.338 104.549 411.338C104.321 411.338 104.111 411.326 103.919 411.302C103.739 411.278 103.571 411.236 103.415 411.176V410.312C103.559 410.36 103.715 410.396 103.883 410.42C104.051 410.456 104.231 410.474 104.423 410.474C104.927 410.474 105.335 410.318 105.647 410.006C105.971 409.694 106.259 409.214 106.511 408.566L107.123 406.964L103.379 397.424ZM119.799 407H118.755V398.306H115.515C115.371 400.322 115.179 401.978 114.939 403.274C114.699 404.57 114.363 405.53 113.931 406.154C113.511 406.778 112.953 407.09 112.257 407.09C111.957 407.09 111.723 407.06 111.555 407V406.19C111.675 406.226 111.855 406.244 112.095 406.244C112.827 406.244 113.379 405.53 113.751 404.102C114.123 402.674 114.411 400.448 114.615 397.424H119.799V407ZM122.945 407H121.721L124.583 402.896C123.839 402.788 123.245 402.518 122.801 402.086C122.369 401.654 122.153 401.036 122.153 400.232C122.153 399.296 122.453 398.594 123.053 398.126C123.653 397.658 124.439 397.424 125.411 397.424H129.425V407H128.399V403.004H125.645L122.945 407ZM123.161 400.214C123.161 401.486 123.977 402.122 125.609 402.122H128.399V398.306H125.519C124.727 398.306 124.133 398.48 123.737 398.828C123.353 399.164 123.161 399.626 123.161 400.214ZM141.47 410.258H140.462V407H132.596V397.424H133.622V406.1H139.148V397.424H140.174V406.118H141.47V410.258ZM144.449 404.084C144.449 404.348 144.437 404.648 144.413 404.984C144.401 405.32 144.389 405.62 144.377 405.884L149.975 397.424H151.235V407H150.263V400.322C150.263 400.058 150.263 399.758 150.263 399.422C150.275 399.074 150.293 398.774 150.317 398.522L144.701 407H143.459V397.424H144.449V404.084ZM162.438 402.194C162.438 403.202 162.27 404.078 161.934 404.822C161.61 405.566 161.124 406.148 160.476 406.568C159.84 406.976 159.06 407.18 158.136 407.18C157.248 407.18 156.486 406.976 155.85 406.568C155.214 406.16 154.722 405.584 154.374 404.84C154.038 404.084 153.87 403.202 153.87 402.194C153.87 400.646 154.254 399.434 155.022 398.558C155.79 397.682 156.852 397.244 158.208 397.244C159.12 397.244 159.888 397.454 160.512 397.874C161.148 398.282 161.628 398.858 161.952 399.602C162.276 400.346 162.438 401.21 162.438 402.194ZM154.932 402.194C154.932 403.43 155.19 404.426 155.706 405.182C156.234 405.926 157.05 406.298 158.154 406.298C159.27 406.298 160.086 405.92 160.602 405.164C161.118 404.408 161.376 403.418 161.376 402.194C161.376 401.402 161.268 400.7 161.052 400.088C160.836 399.476 160.494 398.996 160.026 398.648C159.558 398.3 158.946 398.126 158.19 398.126C157.11 398.126 156.294 398.486 155.742 399.206C155.202 399.926 154.932 400.922 154.932 402.194ZM166.071 397.424V401.582H171.939V397.424H172.965V407H171.939V402.464H166.071V407H165.045V397.424H166.071ZM177.163 397.424V401.582H183.031V397.424H184.057V407H183.031V402.464H177.163V407H176.137V397.424H177.163ZM195.239 402.194C195.239 403.202 195.071 404.078 194.735 404.822C194.411 405.566 193.925 406.148 193.277 406.568C192.641 406.976 191.861 407.18 190.937 407.18C190.049 407.18 189.287 406.976 188.651 406.568C188.015 406.16 187.523 405.584 187.175 404.84C186.839 404.084 186.671 403.202 186.671 402.194C186.671 400.646 187.055 399.434 187.823 398.558C188.591 397.682 189.653 397.244 191.009 397.244C191.921 397.244 192.689 397.454 193.313 397.874C193.949 398.282 194.429 398.858 194.753 399.602C195.077 400.346 195.239 401.21 195.239 402.194ZM187.733 402.194C187.733 403.43 187.991 404.426 188.507 405.182C189.035 405.926 189.851 406.298 190.955 406.298C192.071 406.298 192.887 405.92 193.403 405.164C193.919 404.408 194.177 403.418 194.177 402.194C194.177 401.402 194.069 400.7 193.853 400.088C193.637 399.476 193.295 398.996 192.827 398.648C192.359 398.3 191.747 398.126 190.991 398.126C189.911 398.126 189.095 398.486 188.543 399.206C188.003 399.926 187.733 400.922 187.733 402.194ZM201.482 397.244C202.298 397.244 202.976 397.436 203.516 397.82C204.068 398.192 204.482 398.708 204.758 399.368C205.046 400.028 205.19 400.784 205.19 401.636V402.338H198.35C198.35 403.61 198.644 404.588 199.232 405.272C199.832 405.944 200.684 406.28 201.788 406.28C202.376 406.28 202.892 406.232 203.336 406.136C203.78 406.028 204.266 405.86 204.794 405.632V406.568C204.314 406.784 203.84 406.94 203.372 407.036C202.904 407.132 202.364 407.18 201.752 407.18C200.312 407.18 199.208 406.742 198.44 405.866C197.672 404.99 197.288 403.796 197.288 402.284C197.288 401.312 197.45 400.448 197.774 399.692C198.11 398.936 198.59 398.342 199.214 397.91C199.838 397.466 200.594 397.244 201.482 397.244ZM201.464 398.108C200.588 398.108 199.874 398.402 199.322 398.99C198.782 399.578 198.47 400.412 198.386 401.492H204.128C204.128 400.484 203.906 399.668 203.462 399.044C203.03 398.42 202.364 398.108 201.464 398.108ZM217.763 397.424H218.933L214.649 402.068L219.203 407H217.961L213.479 402.14V407H212.453V397.424H213.479V402.068L217.763 397.424ZM228.619 402.194C228.619 403.202 228.451 404.078 228.115 404.822C227.791 405.566 227.305 406.148 226.657 406.568C226.021 406.976 225.241 407.18 224.317 407.18C223.429 407.18 222.667 406.976 222.031 406.568C221.395 406.16 220.903 405.584 220.555 404.84C220.219 404.084 220.051 403.202 220.051 402.194C220.051 400.646 220.435 399.434 221.203 398.558C221.971 397.682 223.033 397.244 224.389 397.244C225.301 397.244 226.069 397.454 226.693 397.874C227.329 398.282 227.809 398.858 228.133 399.602C228.457 400.346 228.619 401.21 228.619 402.194ZM221.113 402.194C221.113 403.43 221.371 404.426 221.887 405.182C222.415 405.926 223.231 406.298 224.335 406.298C225.451 406.298 226.267 405.92 226.783 405.164C227.299 404.408 227.557 403.418 227.557 402.194C227.557 401.402 227.449 400.7 227.233 400.088C227.017 399.476 226.675 398.996 226.207 398.648C225.739 398.3 225.127 398.126 224.371 398.126C223.291 398.126 222.475 398.486 221.923 399.206C221.383 399.926 221.113 400.922 221.113 402.194ZM236.897 397.424V398.306H232.253V407H231.227V397.424H236.897ZM246.69 402.194C246.69 403.202 246.522 404.078 246.186 404.822C245.862 405.566 245.376 406.148 244.728 406.568C244.092 406.976 243.312 407.18 242.388 407.18C241.5 407.18 240.738 406.976 240.102 406.568C239.466 406.16 238.974 405.584 238.626 404.84C238.29 404.084 238.122 403.202 238.122 402.194C238.122 400.646 238.506 399.434 239.274 398.558C240.042 397.682 241.104 397.244 242.46 397.244C243.372 397.244 244.14 397.454 244.764 397.874C245.4 398.282 245.88 398.858 246.204 399.602C246.528 400.346 246.69 401.21 246.69 402.194ZM239.184 402.194C239.184 403.43 239.442 404.426 239.958 405.182C240.486 405.926 241.302 406.298 242.406 406.298C243.522 406.298 244.338 405.92 244.854 405.164C245.37 404.408 245.628 403.418 245.628 402.194C245.628 401.402 245.52 400.7 245.304 400.088C245.088 399.476 244.746 398.996 244.278 398.648C243.81 398.3 243.198 398.126 242.442 398.126C241.362 398.126 240.546 398.486 239.994 399.206C239.454 399.926 239.184 400.922 239.184 402.194ZM253.599 397.244C254.823 397.244 255.777 397.658 256.461 398.486C257.145 399.314 257.487 400.538 257.487 402.158C257.487 403.778 257.127 405.02 256.407 405.884C255.699 406.748 254.727 407.18 253.491 407.18C252.651 407.18 251.973 407 251.457 406.64C250.941 406.28 250.563 405.848 250.323 405.344H250.251C250.275 405.644 250.293 405.974 250.305 406.334C250.317 406.682 250.323 407.006 250.323 407.306V411.248H249.297V397.424H250.143L250.269 399.206H250.323C250.563 398.69 250.947 398.234 251.475 397.838C252.003 397.442 252.711 397.244 253.599 397.244ZM253.455 398.126C252.387 398.126 251.601 398.462 251.097 399.134C250.593 399.806 250.335 400.772 250.323 402.032V402.212C250.323 403.58 250.569 404.606 251.061 405.29C251.565 405.962 252.339 406.298 253.383 406.298C254.367 406.298 255.117 405.932 255.633 405.2C256.161 404.456 256.425 403.436 256.425 402.14C256.425 400.856 256.173 399.866 255.669 399.17C255.177 398.474 254.439 398.126 253.455 398.126ZM266.089 398.306H262.885V407H261.859V398.306H258.673V397.424H266.089V398.306ZM269.061 397.424V401.582H274.929V397.424H275.955V407H274.929V402.464H269.061V407H268.035V397.424H269.061ZM287.137 402.194C287.137 403.202 286.969 404.078 286.633 404.822C286.309 405.566 285.823 406.148 285.175 406.568C284.539 406.976 283.759 407.18 282.835 407.18C281.947 407.18 281.185 406.976 280.549 406.568C279.913 406.16 279.421 405.584 279.073 404.84C278.737 404.084 278.569 403.202 278.569 402.194C278.569 400.646 278.953 399.434 279.721 398.558C280.489 397.682 281.551 397.244 282.907 397.244C283.819 397.244 284.587 397.454 285.211 397.874C285.847 398.282 286.327 398.858 286.651 399.602C286.975 400.346 287.137 401.21 287.137 402.194ZM279.631 402.194C279.631 403.43 279.889 404.426 280.405 405.182C280.933 405.926 281.749 406.298 282.853 406.298C283.969 406.298 284.785 405.92 285.301 405.164C285.817 404.408 286.075 403.418 286.075 402.194C286.075 401.402 285.967 400.7 285.751 400.088C285.535 399.476 285.193 398.996 284.725 398.648C284.257 398.3 283.645 398.126 282.889 398.126C281.809 398.126 280.993 398.486 280.441 399.206C279.901 399.926 279.631 400.922 279.631 402.194ZM293.38 397.244C294.196 397.244 294.874 397.436 295.414 397.82C295.966 398.192 296.38 398.708 296.656 399.368C296.944 400.028 297.088 400.784 297.088 401.636V402.338H290.248C290.248 403.61 290.542 404.588 291.13 405.272C291.73 405.944 292.582 406.28 293.686 406.28C294.274 406.28 294.79 406.232 295.234 406.136C295.678 406.028 296.164 405.86 296.692 405.632V406.568C296.212 406.784 295.738 406.94 295.27 407.036C294.802 407.132 294.262 407.18 293.65 407.18C292.21 407.18 291.106 406.742 290.338 405.866C289.57 404.99 289.186 403.796 289.186 402.284C289.186 401.312 289.348 400.448 289.672 399.692C290.008 398.936 290.488 398.342 291.112 397.91C291.736 397.466 292.492 397.244 293.38 397.244ZM293.362 398.108C292.486 398.108 291.772 398.402 291.22 398.99C290.68 399.578 290.368 400.412 290.284 401.492H296.026C296.026 400.484 295.804 399.668 295.36 399.044C294.928 398.42 294.262 398.108 293.362 398.108ZM91.407 429.084C91.407 429.348 91.395 429.648 91.371 429.984C91.359 430.32 91.347 430.62 91.335 430.884L96.933 422.424H98.193V432H97.221V425.322C97.221 425.058 97.221 424.758 97.221 424.422C97.233 424.074 97.251 423.774 97.275 423.522L91.659 432H90.417V422.424H91.407V429.084ZM105.22 432.18C103.816 432.18 102.73 431.748 101.962 430.884C101.206 430.02 100.828 428.814 100.828 427.266C100.828 426.186 101.02 425.274 101.404 424.53C101.788 423.786 102.322 423.222 103.006 422.838C103.702 422.442 104.512 422.244 105.436 422.244C105.892 422.244 106.324 422.286 106.732 422.37C107.14 422.454 107.5 422.568 107.812 422.712L107.524 423.594C107.2 423.462 106.852 423.36 106.48 423.288C106.108 423.204 105.754 423.162 105.418 423.162C104.278 423.162 103.402 423.528 102.79 424.26C102.19 424.992 101.89 425.988 101.89 427.248C101.89 428.448 102.16 429.42 102.7 430.164C103.24 430.896 104.08 431.262 105.22 431.262C105.688 431.262 106.132 431.214 106.552 431.118C106.972 431.022 107.35 430.902 107.686 430.758V431.676C107.374 431.832 107.014 431.952 106.606 432.036C106.21 432.132 105.748 432.18 105.22 432.18ZM113.78 432.18C112.376 432.18 111.29 431.748 110.522 430.884C109.766 430.02 109.388 428.814 109.388 427.266C109.388 426.186 109.58 425.274 109.964 424.53C110.348 423.786 110.882 423.222 111.566 422.838C112.262 422.442 113.072 422.244 113.996 422.244C114.452 422.244 114.884 422.286 115.292 422.37C115.7 422.454 116.06 422.568 116.372 422.712L116.084 423.594C115.76 423.462 115.412 423.36 115.04 423.288C114.668 423.204 114.314 423.162 113.978 423.162C112.838 423.162 111.962 423.528 111.35 424.26C110.75 424.992 110.45 425.988 110.45 427.248C110.45 428.448 110.72 429.42 111.26 430.164C111.8 430.896 112.64 431.262 113.78 431.262C114.248 431.262 114.692 431.214 115.112 431.118C115.532 431.022 115.91 430.902 116.246 430.758V431.676C115.934 431.832 115.574 431.952 115.166 432.036C114.77 432.132 114.308 432.18 113.78 432.18ZM125.275 432H124.231V423.306H120.991C120.847 425.322 120.655 426.978 120.415 428.274C120.175 429.57 119.839 430.53 119.407 431.154C118.987 431.778 118.429 432.09 117.733 432.09C117.433 432.09 117.199 432.06 117.031 432V431.19C117.151 431.226 117.331 431.244 117.571 431.244C118.303 431.244 118.855 430.53 119.227 429.102C119.599 427.674 119.887 425.448 120.091 422.424H125.275V432ZM132.074 422.244C132.89 422.244 133.568 422.436 134.108 422.82C134.66 423.192 135.074 423.708 135.35 424.368C135.638 425.028 135.782 425.784 135.782 426.636V427.338H128.942C128.942 428.61 129.236 429.588 129.824 430.272C130.424 430.944 131.276 431.28 132.38 431.28C132.968 431.28 133.484 431.232 133.928 431.136C134.372 431.028 134.858 430.86 135.386 430.632V431.568C134.906 431.784 134.432 431.94 133.964 432.036C133.496 432.132 132.956 432.18 132.344 432.18C130.904 432.18 129.8 431.742 129.032 430.866C128.264 429.99 127.88 428.796 127.88 427.284C127.88 426.312 128.042 425.448 128.366 424.692C128.702 423.936 129.182 423.342 129.806 422.91C130.43 422.466 131.186 422.244 132.074 422.244ZM132.056 423.108C131.18 423.108 130.466 423.402 129.914 423.99C129.374 424.578 129.062 425.412 128.978 426.492H134.72C134.72 425.484 134.498 424.668 134.054 424.044C133.622 423.42 132.956 423.108 132.056 423.108ZM145.03 422.424V431.1H146.326V435.258H145.336V432H138.136V435.258H137.146V431.1H137.812C138.616 429.984 139.228 428.682 139.648 427.194C140.068 425.706 140.29 424.116 140.314 422.424H145.03ZM141.232 423.27C141.16 424.782 140.926 426.216 140.53 427.572C140.146 428.916 139.612 430.092 138.928 431.1H144.022V423.27H141.232ZM156.329 427.194C156.329 428.202 156.161 429.078 155.825 429.822C155.501 430.566 155.015 431.148 154.367 431.568C153.731 431.976 152.951 432.18 152.027 432.18C151.139 432.18 150.377 431.976 149.741 431.568C149.105 431.16 148.613 430.584 148.265 429.84C147.929 429.084 147.761 428.202 147.761 427.194C147.761 425.646 148.145 424.434 148.913 423.558C149.681 422.682 150.743 422.244 152.099 422.244C153.011 422.244 153.779 422.454 154.403 422.874C155.039 423.282 155.519 423.858 155.843 424.602C156.167 425.346 156.329 426.21 156.329 427.194ZM148.823 427.194C148.823 428.43 149.081 429.426 149.597 430.182C150.125 430.926 150.941 431.298 152.045 431.298C153.161 431.298 153.977 430.92 154.493 430.164C155.009 429.408 155.267 428.418 155.267 427.194C155.267 426.402 155.159 425.7 154.943 425.088C154.727 424.476 154.385 423.996 153.917 423.648C153.449 423.3 152.837 423.126 152.081 423.126C151.001 423.126 150.185 423.486 149.633 424.206C149.093 424.926 148.823 425.922 148.823 427.194ZM166.209 424.764C166.209 425.376 166.047 425.856 165.723 426.204C165.399 426.54 164.979 426.768 164.463 426.888V426.942C165.075 427.038 165.579 427.272 165.975 427.644C166.371 428.016 166.569 428.556 166.569 429.264C166.569 430.092 166.287 430.758 165.723 431.262C165.159 431.754 164.265 432 163.041 432H158.937V422.424H162.951C163.995 422.424 164.799 422.622 165.363 423.018C165.927 423.402 166.209 423.984 166.209 424.764ZM165.165 424.872C165.165 424.38 164.985 423.996 164.625 423.72C164.277 423.444 163.689 423.306 162.861 423.306H159.963V426.528H162.735C164.355 426.528 165.165 425.976 165.165 424.872ZM165.507 429.264C165.507 428.604 165.279 428.13 164.823 427.842C164.367 427.554 163.701 427.41 162.825 427.41H159.963V431.136H162.879C163.755 431.136 164.409 430.986 164.841 430.686C165.285 430.386 165.507 429.912 165.507 429.264ZM172.551 422.262C173.631 422.262 174.435 422.526 174.963 423.054C175.491 423.582 175.755 424.416 175.755 425.556V432H174.981L174.801 430.38H174.747C174.399 430.92 173.973 431.358 173.469 431.694C172.977 432.018 172.287 432.18 171.399 432.18C170.475 432.18 169.749 431.952 169.221 431.496C168.693 431.028 168.429 430.362 168.429 429.498C168.429 428.538 168.819 427.812 169.599 427.32C170.379 426.816 171.513 426.534 173.001 426.474L174.747 426.384V425.718C174.747 424.782 174.555 424.116 174.171 423.72C173.799 423.324 173.247 423.126 172.515 423.126C172.023 423.126 171.549 423.192 171.093 423.324C170.637 423.456 170.181 423.63 169.725 423.846L169.401 423.018C169.857 422.802 170.349 422.622 170.877 422.478C171.417 422.334 171.975 422.262 172.551 422.262ZM173.127 427.23C171.903 427.29 170.991 427.506 170.391 427.878C169.803 428.238 169.509 428.778 169.509 429.498C169.509 430.098 169.689 430.554 170.049 430.866C170.421 431.166 170.931 431.316 171.579 431.316C172.575 431.316 173.349 431.034 173.901 430.47C174.453 429.894 174.735 429.102 174.747 428.094V427.158L173.127 427.23ZM179.843 422.424V426.582H185.711V422.424H186.737V432H185.711V427.464H179.843V432H178.817V422.424H179.843ZM190.899 429.084C190.899 429.348 190.887 429.648 190.863 429.984C190.851 430.32 190.839 430.62 190.827 430.884L196.425 422.424H197.685V432H196.713V425.322C196.713 425.058 196.713 424.758 196.713 424.422C196.725 424.074 196.743 423.774 196.767 423.522L191.151 432H189.909V422.424H190.899V429.084ZM204.514 422.244C205.33 422.244 206.008 422.436 206.548 422.82C207.1 423.192 207.514 423.708 207.79 424.368C208.078 425.028 208.222 425.784 208.222 426.636V427.338H201.382C201.382 428.61 201.676 429.588 202.264 430.272C202.864 430.944 203.716 431.28 204.82 431.28C205.408 431.28 205.924 431.232 206.368 431.136C206.812 431.028 207.298 430.86 207.826 430.632V431.568C207.346 431.784 206.872 431.94 206.404 432.036C205.936 432.132 205.396 432.18 204.784 432.18C203.344 432.18 202.24 431.742 201.472 430.866C200.704 429.99 200.32 428.796 200.32 427.284C200.32 426.312 200.482 425.448 200.806 424.692C201.142 423.936 201.622 423.342 202.246 422.91C202.87 422.466 203.626 422.244 204.514 422.244ZM204.496 423.108C203.62 423.108 202.906 423.402 202.354 423.99C201.814 424.578 201.502 425.412 201.418 426.492H207.16C207.16 425.484 206.938 424.668 206.494 424.044C206.062 423.42 205.396 423.108 204.496 423.108ZM214.639 427.068C214.639 425.532 214.861 424.086 215.305 422.73C215.749 421.374 216.403 420.18 217.267 419.148H218.311C217.435 420.24 216.775 421.464 216.331 422.82C215.899 424.176 215.683 425.586 215.683 427.05C215.683 428.49 215.899 429.876 216.331 431.208C216.775 432.528 217.435 433.74 218.311 434.844H217.267C216.403 433.812 215.749 432.636 215.305 431.316C214.861 429.996 214.639 428.58 214.639 427.068ZM230.233 432H229.117L221.665 420.768H221.611C221.635 421.236 221.653 421.734 221.665 422.262C221.689 422.778 221.701 423.318 221.701 423.882V432H220.711V419.148H221.827L229.261 430.344H229.315C229.291 429.972 229.273 429.498 229.261 428.922C229.249 428.346 229.243 427.806 229.243 427.302V419.148H230.233V432ZM233.032 424.26V423.414H241.294V424.26H233.032ZM233.032 427.896V427.032H241.294V427.896H233.032ZM250.984 422.118C250.984 422.97 250.732 423.666 250.228 424.206C249.724 424.746 249.076 425.088 248.284 425.232V425.286C250.348 425.562 251.38 426.606 251.38 428.418C251.38 429.522 250.99 430.428 250.21 431.136C249.442 431.832 248.272 432.18 246.7 432.18C245.332 432.18 244.144 431.934 243.136 431.442V430.452C243.628 430.704 244.192 430.908 244.828 431.064C245.464 431.208 246.094 431.28 246.718 431.28C247.942 431.28 248.842 431.022 249.418 430.506C250.006 429.99 250.3 429.288 250.3 428.4C250.3 427.464 249.952 426.798 249.256 426.402C248.56 425.994 247.63 425.79 246.466 425.79H245.098V424.89H246.484C247.48 424.89 248.302 424.662 248.95 424.206C249.598 423.738 249.922 423.06 249.922 422.172C249.922 421.416 249.676 420.84 249.184 420.444C248.692 420.048 248.038 419.85 247.222 419.85C246.538 419.85 245.92 419.958 245.368 420.174C244.828 420.378 244.294 420.66 243.766 421.02L243.244 420.3C243.736 419.916 244.312 419.598 244.972 419.346C245.644 419.094 246.394 418.968 247.222 418.968C248.41 418.968 249.334 419.256 249.994 419.832C250.654 420.396 250.984 421.158 250.984 422.118ZM257.703 418.968C258.807 418.968 259.695 419.232 260.367 419.76C261.051 420.276 261.393 421.014 261.393 421.974C261.393 422.754 261.135 423.396 260.619 423.9C260.115 424.392 259.473 424.812 258.693 425.16C259.617 425.532 260.367 425.994 260.943 426.546C261.531 427.086 261.825 427.806 261.825 428.706C261.825 429.438 261.645 430.062 261.285 430.578C260.937 431.094 260.451 431.49 259.827 431.766C259.203 432.042 258.495 432.18 257.703 432.18C256.443 432.18 255.447 431.874 254.715 431.262C253.983 430.65 253.617 429.822 253.617 428.778C253.617 427.854 253.899 427.116 254.463 426.564C255.039 426 255.759 425.55 256.623 425.214C256.143 424.986 255.705 424.734 255.309 424.458C254.913 424.17 254.601 423.828 254.373 423.432C254.145 423.024 254.031 422.538 254.031 421.974C254.031 421.35 254.187 420.816 254.499 420.372C254.811 419.916 255.243 419.568 255.795 419.328C256.359 419.088 256.995 418.968 257.703 418.968ZM257.703 419.832C256.923 419.832 256.281 420.024 255.777 420.408C255.285 420.78 255.039 421.314 255.039 422.01C255.039 422.73 255.291 423.294 255.795 423.702C256.311 424.098 256.971 424.446 257.775 424.746C258.579 424.41 259.209 424.038 259.665 423.63C260.133 423.222 260.367 422.676 260.367 421.992C260.367 421.284 260.127 420.75 259.647 420.39C259.167 420.018 258.519 419.832 257.703 419.832ZM254.625 428.796C254.625 429.552 254.889 430.164 255.417 430.632C255.957 431.088 256.713 431.316 257.685 431.316C258.633 431.316 259.389 431.088 259.953 430.632C260.517 430.176 260.799 429.534 260.799 428.706C260.799 428.01 260.547 427.434 260.043 426.978C259.551 426.522 258.855 426.126 257.955 425.79L257.559 425.646C256.683 425.982 255.975 426.39 255.435 426.87C254.895 427.338 254.625 427.98 254.625 428.796ZM267.824 424.224C269.12 424.224 270.146 424.554 270.902 425.214C271.67 425.862 272.054 426.786 272.054 427.986C272.054 429.294 271.634 430.32 270.794 431.064C269.954 431.808 268.82 432.18 267.392 432.18C266.708 432.18 266.084 432.114 265.52 431.982C264.968 431.85 264.5 431.67 264.116 431.442V430.434C264.524 430.686 265.016 430.89 265.592 431.046C266.18 431.202 266.78 431.28 267.392 431.28C268.472 431.28 269.342 431.01 270.002 430.47C270.674 429.918 271.01 429.12 271.01 428.076C271.01 427.14 270.722 426.414 270.146 425.898C269.582 425.37 268.718 425.106 267.554 425.106C267.11 425.106 266.666 425.142 266.222 425.214C265.79 425.286 265.4 425.364 265.052 425.448L264.476 425.07L264.998 419.148H271.226V420.084H265.88L265.502 424.494C265.754 424.446 266.072 424.392 266.456 424.332C266.84 424.26 267.296 424.224 267.824 424.224ZM277.423 426.996C277.423 428.52 277.201 429.96 276.757 431.316C276.313 432.66 275.659 433.836 274.795 434.844H273.769C274.645 433.752 275.299 432.534 275.731 431.19C276.163 429.846 276.379 428.448 276.379 426.996C276.379 425.532 276.157 424.134 275.713 422.802C275.281 421.458 274.627 420.24 273.751 419.148H274.795C275.659 420.192 276.313 421.38 276.757 422.712C277.201 424.044 277.423 425.472 277.423 426.996Z" fill="#01457A"/>
<defs>
<clipPath id="clip0_1_62">
<rect width="83" height="134" fill="white" transform="translate(142 30)"/>
</clipPath>
</defs>
</svg>
