<svg width="367" height="468" viewBox="0 0 367 468" fill="none" xmlns="http://www.w3.org/2000/svg">
<rect width="367" height="468" rx="20" fill="#FDD966" fill-opacity="0.25"/>
<path fill-rule="evenodd" clip-rule="evenodd" d="M176.666 161.856C176.709 163.051 177.717 164 178.944 164H179.014C180.268 163.962 181.259 162.938 181.216 161.716C180.927 154.872 179.598 148.108 177.272 141.638C181.399 141.938 185.542 141.938 189.669 141.638C187.359 148.113 186.046 154.882 185.767 161.732C185.735 162.954 186.732 163.968 187.986 164C189.245 164.032 190.285 163.062 190.317 161.84C190.58 155.44 191.813 149.11 193.973 143.059C194.788 140.743 193.512 138.224 191.138 137.436C190.569 137.249 189.974 137.174 189.38 137.211C185.467 137.49 181.544 137.49 177.631 137.211C175.128 137.045 172.957 138.894 172.791 141.333C172.748 141.922 172.828 142.512 173.027 143.069C175.171 149.126 176.398 155.456 176.666 161.856Z" fill="#01457A"/>
<path fill-rule="evenodd" clip-rule="evenodd" d="M241.869 38.8613C241.097 37.993 239.853 37.9983 239.092 38.8719C235.673 43.1438 233.111 48.2036 231.588 53.7135C228.651 49.8008 225.296 46.3222 221.598 43.3528C226.748 41.4875 231.396 38.1537 235.089 33.6728C235.78 32.7241 235.667 31.3145 234.837 30.5266C234.006 29.7494 232.779 29.8674 232.082 30.7947C229.23 34.6484 224.283 37.8268 217.406 40.2602C207.121 33.4638 195.42 29.9209 183.521 30.0013C171.622 29.9263 159.927 33.4691 149.647 40.2708C142.759 37.832 137.807 34.6538 134.95 30.7947C134.248 29.8567 133.01 29.7494 132.184 30.548C131.364 31.3413 131.257 32.7295 131.948 33.6728C135.647 38.1591 140.299 41.4929 145.455 43.3582C141.757 46.3329 138.396 49.8221 135.454 53.7402C133.932 48.2249 131.37 43.1491 127.945 38.8719C127.205 37.9715 125.961 37.9233 125.168 38.7594C124.375 39.6009 124.327 41.0105 125.066 41.9163C125.093 41.9485 125.125 41.9807 125.152 42.0128C128.7 46.6116 131.235 52.0947 132.559 58.0174C127.478 66.1376 124.696 75.823 124.584 85.7817C124.477 103.351 134.886 120.776 153.136 133.586C161.921 139.981 167.886 150.32 169.537 162.021C169.661 163.243 170.636 164.122 171.713 163.982C172.791 163.843 173.562 162.739 173.439 161.511C173.434 161.458 173.429 161.404 173.418 161.351C171.579 148.364 164.954 136.888 155.199 129.792C147.133 124.126 128.379 108.502 128.513 85.8137C128.684 57.5029 153.361 34.4662 183.521 34.4662C213.719 34.4662 238.396 57.4975 238.53 85.8137C238.637 107.639 221.866 122.733 211.853 129.781C202.104 136.877 195.474 148.353 193.624 161.334C193.458 162.557 194.198 163.693 195.265 163.88C195.366 163.897 195.468 163.907 195.565 163.907C196.535 163.902 197.36 163.098 197.505 162.01C199.172 150.309 205.143 139.97 213.928 133.576C224.631 126.034 242.576 109.789 242.458 85.7977C242.362 75.823 239.58 66.1269 234.488 57.996C235.812 52.084 238.347 46.6062 241.89 42.0128C242.651 41.1392 242.641 39.7242 241.869 38.8613Z" fill="#01457A"/>
<path fill-rule="evenodd" clip-rule="evenodd" d="M231.739 86.2802C231.739 61.1584 210.106 40.7212 183.5 40.7212C156.893 40.7212 135.261 61.1584 135.261 86.2802C135.261 111.402 156.899 131.839 183.5 131.839C210.101 131.839 231.739 111.402 231.739 86.2802ZM227.842 86.2802C227.826 91.8437 226.631 97.3162 224.358 102.204C212.127 103.362 199.981 98.9938 190.419 89.9999C201.648 82.748 214.233 78.8461 227.065 78.6424C227.579 81.1455 227.837 83.7074 227.842 86.2802ZM183.5 45.2771C203.379 45.2771 220.252 57.444 225.859 74.1508C212.229 74.526 198.904 78.9317 187.123 86.9662C174.195 75.9838 163.464 71.0153 141.516 73.1163C147.454 56.9509 164.027 45.2771 183.5 45.2771ZM139.157 86.2802C139.163 83.4341 139.479 80.5987 140.106 77.8491C162.746 75.346 172.635 80.0842 185.735 91.4204C195.265 101.358 207.565 106.889 220.338 106.969C220.82 106.969 221.314 106.942 221.791 106.926C214.083 119.083 199.81 127.283 183.5 127.283C159.053 127.283 139.157 108.888 139.157 86.2802Z" fill="#01457A"/>
<path fill-rule="evenodd" clip-rule="evenodd" d="M156.7 107.719C156.7 109.198 155.5 110.398 154.02 110.398C152.541 110.398 151.34 109.198 151.34 107.719C151.34 106.239 152.541 105.039 154.02 105.039C155.5 105.039 156.7 106.239 156.7 107.719Z" fill="#01457A"/>
<path fill-rule="evenodd" clip-rule="evenodd" d="M145.616 85.9784C145.616 84.6653 144.496 83.5986 143.118 83.5986C141.736 83.5986 140.621 84.6653 140.621 85.9784C140.68 92.4532 142.84 98.7564 146.795 104.025C147.588 105.097 149.143 105.36 150.274 104.609C151.405 103.854 151.678 102.369 150.89 101.292C147.498 96.8375 145.654 91.483 145.616 85.9784Z" fill="#01457A"/>
<path d="M72.9406 238.224C77.1006 238.224 80.8126 239.024 84.0766 240.624C87.3406 242.224 89.9006 244.56 91.7566 247.632C93.6766 250.704 94.6366 254.512 94.6366 259.056C94.6366 266.48 92.3326 272.336 87.7246 276.624C83.1166 280.848 76.3006 282.96 67.2766 282.96C63.6926 282.96 60.3006 282.64 57.1006 282C53.9646 281.36 51.2126 280.432 48.8446 279.216V266.736C51.2126 267.952 54.0606 269.008 57.3886 269.904C60.7166 270.736 63.8526 271.152 66.7966 271.152C71.0846 271.152 74.3486 270.288 76.5886 268.56C78.8926 266.768 80.0446 264.016 80.0446 260.304C80.0446 253.392 75.4686 249.936 66.3166 249.936C64.5246 249.936 62.6686 250.128 60.7486 250.512C58.8286 250.832 57.2286 251.152 55.9486 251.472L50.1886 248.4L52.7806 213.456H89.9326V225.744H65.4526L64.2046 239.184C65.2926 238.992 66.4446 238.8 67.6606 238.608C68.9406 238.352 70.7006 238.224 72.9406 238.224ZM150.438 247.728C150.438 255.088 149.638 261.392 148.038 266.64C146.502 271.888 143.974 275.92 140.454 278.736C136.998 281.552 132.326 282.96 126.438 282.96C118.182 282.96 112.134 279.856 108.294 273.648C104.454 267.376 102.534 258.736 102.534 247.728C102.534 240.304 103.302 233.968 104.838 228.72C106.374 223.472 108.902 219.44 112.422 216.624C115.942 213.808 120.614 212.4 126.438 212.4C134.63 212.4 140.678 215.504 144.582 221.712C148.486 227.92 150.438 236.592 150.438 247.728ZM116.934 247.728C116.934 255.536 117.606 261.424 118.95 265.392C120.294 269.296 122.79 271.248 126.438 271.248C130.022 271.248 132.518 269.296 133.926 265.392C135.334 261.488 136.038 255.6 136.038 247.728C136.038 239.92 135.334 234.032 133.926 230.064C132.518 226.096 130.022 224.112 126.438 224.112C122.79 224.112 120.294 226.096 118.95 230.064C117.606 234.032 116.934 239.92 116.934 247.728ZM175.52 271.92C174.688 275.312 173.504 279.024 171.968 283.056C170.432 287.088 168.864 290.864 167.264 294.384H156.992C157.888 290.608 158.784 286.576 159.68 282.288C160.576 278 161.248 274.192 161.696 270.864H174.848L175.52 271.92ZM210.191 238.224C214.351 238.224 218.063 239.024 221.327 240.624C224.591 242.224 227.151 244.56 229.007 247.632C230.927 250.704 231.887 254.512 231.887 259.056C231.887 266.48 229.583 272.336 224.975 276.624C220.367 280.848 213.551 282.96 204.527 282.96C200.943 282.96 197.551 282.64 194.351 282C191.215 281.36 188.463 280.432 186.095 279.216V266.736C188.463 267.952 191.311 269.008 194.639 269.904C197.967 270.736 201.103 271.152 204.047 271.152C208.335 271.152 211.599 270.288 213.839 268.56C216.143 266.768 217.295 264.016 217.295 260.304C217.295 253.392 212.719 249.936 203.567 249.936C201.775 249.936 199.919 250.128 197.999 250.512C196.079 250.832 194.479 251.152 193.199 251.472L187.439 248.4L190.031 213.456H227.183V225.744H202.703L201.455 239.184C202.543 238.992 203.695 238.8 204.911 238.608C206.191 238.352 207.951 238.224 210.191 238.224ZM255.432 212.496C260.808 212.496 264.872 214.384 267.624 218.16C270.44 221.872 271.848 227.12 271.848 233.904C271.848 240.688 270.536 246 267.912 249.84C265.288 253.616 261.128 255.504 255.432 255.504C250.184 255.504 246.184 253.616 243.432 249.84C240.68 246 239.304 240.688 239.304 233.904C239.304 227.12 240.584 221.872 243.144 218.16C245.704 214.384 249.8 212.496 255.432 212.496ZM304.104 213.456L266.088 282H254.856L292.872 213.456H304.104ZM255.528 222.288C252.584 222.288 251.112 226.192 251.112 234C251.112 241.872 252.584 245.808 255.528 245.808C258.536 245.808 260.04 241.872 260.04 234C260.04 226.192 258.536 222.288 255.528 222.288ZM303.432 239.856C308.808 239.856 312.872 241.744 315.624 245.52C318.44 249.232 319.848 254.48 319.848 261.264C319.848 268.048 318.536 273.36 315.912 277.2C313.288 280.976 309.128 282.864 303.432 282.864C298.184 282.864 294.184 280.976 291.432 277.2C288.68 273.36 287.304 268.048 287.304 261.264C287.304 254.48 288.584 249.232 291.144 245.52C293.704 241.744 297.8 239.856 303.432 239.856ZM303.528 249.648C300.584 249.648 299.112 253.552 299.112 261.36C299.112 269.232 300.584 273.168 303.528 273.168C306.536 273.168 308.04 269.232 308.04 261.36C308.04 253.552 306.536 249.648 303.528 249.648Z" fill="#01457A"/>
<path d="M72.6042 317.064V331H70.3162V319.014H63.1142V331H60.8262V317.064H72.6042ZM82.3288 316.83C84.0275 316.83 85.2842 317.203 86.0988 317.948C86.9135 318.693 87.3208 319.881 87.3208 321.51V331H85.6568L85.2148 329.024H85.1108C84.7122 329.527 84.2962 329.951 83.8628 330.298C83.4468 330.627 82.9615 330.87 82.4068 331.026C81.8695 331.182 81.2108 331.26 80.4308 331.26C79.5988 331.26 78.8448 331.113 78.1688 330.818C77.5102 330.523 76.9902 330.073 76.6088 329.466C76.2275 328.842 76.0368 328.062 76.0368 327.126C76.0368 325.739 76.5828 324.673 77.6748 323.928C78.7668 323.165 80.4482 322.749 82.7188 322.68L85.0848 322.602V321.77C85.0848 320.609 84.8335 319.803 84.3308 319.352C83.8282 318.901 83.1175 318.676 82.1988 318.676C81.4708 318.676 80.7775 318.789 80.1188 319.014C79.4602 319.222 78.8448 319.465 78.2728 319.742L77.5708 318.026C78.1775 317.697 78.8968 317.419 79.7288 317.194C80.5608 316.951 81.4275 316.83 82.3288 316.83ZM83.0048 324.266C81.2715 324.335 80.0668 324.613 79.3908 325.098C78.7322 325.583 78.4028 326.268 78.4028 327.152C78.4028 327.932 78.6368 328.504 79.1048 328.868C79.5902 329.232 80.2055 329.414 80.9508 329.414C82.1295 329.414 83.1088 329.093 83.8888 328.452C84.6688 327.793 85.0588 326.788 85.0588 325.436V324.188L83.0048 324.266ZM105.379 335.836H103.143V331H91.625V317.064H93.913V329.076H101.115V317.064H103.403V329.102H105.379V335.836ZM110.211 325.566C110.211 325.722 110.202 325.947 110.185 326.242C110.185 326.519 110.176 326.823 110.159 327.152C110.141 327.464 110.124 327.767 110.107 328.062C110.089 328.339 110.072 328.565 110.055 328.738L117.517 317.064H120.325V331H118.193V322.784C118.193 322.507 118.193 322.143 118.193 321.692C118.21 321.241 118.227 320.799 118.245 320.366C118.262 319.915 118.279 319.577 118.297 319.352L110.887 331H108.053V317.064H110.211V325.566ZM130.142 316.804C131.338 316.804 132.36 317.064 133.21 317.584C134.076 318.104 134.735 318.841 135.186 319.794C135.654 320.73 135.888 321.831 135.888 323.096V324.474H126.346C126.38 326.051 126.779 327.256 127.542 328.088C128.322 328.903 129.405 329.31 130.792 329.31C131.676 329.31 132.456 329.232 133.132 329.076C133.825 328.903 134.536 328.66 135.264 328.348V330.35C134.553 330.662 133.851 330.887 133.158 331.026C132.464 331.182 131.641 331.26 130.688 331.26C129.37 331.26 128.2 330.991 127.178 330.454C126.172 329.917 125.384 329.119 124.812 328.062C124.257 326.987 123.98 325.679 123.98 324.136C123.98 322.611 124.231 321.302 124.734 320.21C125.254 319.118 125.973 318.277 126.892 317.688C127.828 317.099 128.911 316.804 130.142 316.804ZM130.116 318.676C129.024 318.676 128.157 319.031 127.516 319.742C126.892 320.435 126.519 321.406 126.398 322.654H133.496C133.496 321.857 133.374 321.163 133.132 320.574C132.889 319.985 132.516 319.525 132.014 319.196C131.528 318.849 130.896 318.676 130.116 318.676ZM141.724 317.064V322.862H149.29V317.064H151.578V331H149.29V324.786H141.724V331H139.436V317.064H141.724ZM165.61 318.988H161.06V331H158.798V318.988H154.3V317.064H165.61V318.988ZM180.218 324.006C180.218 325.167 180.062 326.199 179.75 327.1C179.455 327.984 179.022 328.738 178.45 329.362C177.895 329.986 177.21 330.463 176.396 330.792C175.598 331.104 174.706 331.26 173.718 331.26C172.799 331.26 171.95 331.104 171.17 330.792C170.39 330.463 169.714 329.986 169.142 329.362C168.57 328.738 168.119 327.984 167.79 327.1C167.478 326.199 167.322 325.167 167.322 324.006C167.322 322.463 167.582 321.163 168.102 320.106C168.622 319.031 169.367 318.217 170.338 317.662C171.308 317.09 172.461 316.804 173.796 316.804C175.061 316.804 176.17 317.09 177.124 317.662C178.094 318.217 178.848 319.031 179.386 320.106C179.94 321.163 180.218 322.463 180.218 324.006ZM169.688 324.006C169.688 325.098 169.826 326.051 170.104 326.866C170.398 327.663 170.849 328.279 171.456 328.712C172.062 329.145 172.834 329.362 173.77 329.362C174.706 329.362 175.477 329.145 176.084 328.712C176.69 328.279 177.132 327.663 177.41 326.866C177.704 326.051 177.852 325.098 177.852 324.006C177.852 322.897 177.704 321.952 177.41 321.172C177.115 320.392 176.664 319.794 176.058 319.378C175.468 318.945 174.697 318.728 173.744 318.728C172.322 318.728 171.291 319.196 170.65 320.132C170.008 321.068 169.688 322.359 169.688 324.006ZM195.05 320.574C195.05 321.441 194.79 322.117 194.27 322.602C193.75 323.087 193.082 323.417 192.268 323.59V323.694C193.134 323.815 193.888 324.127 194.53 324.63C195.171 325.115 195.492 325.878 195.492 326.918C195.492 327.507 195.379 328.053 195.154 328.556C194.946 329.059 194.616 329.492 194.166 329.856C193.715 330.22 193.134 330.506 192.424 330.714C191.713 330.905 190.855 331 189.85 331H183.844V317.064H189.824C190.812 317.064 191.696 317.177 192.476 317.402C193.273 317.61 193.897 317.974 194.348 318.494C194.816 318.997 195.05 319.69 195.05 320.574ZM193.126 326.918C193.126 326.121 192.822 325.549 192.216 325.202C191.609 324.855 190.716 324.682 189.538 324.682H186.132V329.154H189.59C190.734 329.154 191.609 328.989 192.216 328.66C192.822 328.313 193.126 327.733 193.126 326.918ZM192.736 320.86C192.736 320.201 192.493 319.725 192.008 319.43C191.54 319.118 190.768 318.962 189.694 318.962H186.132V322.784H189.278C190.404 322.784 191.262 322.628 191.852 322.316C192.441 322.004 192.736 321.519 192.736 320.86ZM211.168 331.26C209.937 331.26 208.837 331.009 207.866 330.506C206.913 330.003 206.159 329.223 205.604 328.166C205.067 327.109 204.798 325.757 204.798 324.11C204.798 322.394 205.084 320.999 205.656 319.924C206.228 318.849 206.999 318.061 207.97 317.558C208.958 317.055 210.076 316.804 211.324 316.804C212.035 316.804 212.719 316.882 213.378 317.038C214.037 317.177 214.574 317.35 214.99 317.558L214.288 319.456C213.872 319.3 213.387 319.153 212.832 319.014C212.277 318.875 211.757 318.806 211.272 318.806C210.336 318.806 209.565 319.005 208.958 319.404C208.351 319.803 207.901 320.392 207.606 321.172C207.311 321.952 207.164 322.923 207.164 324.084C207.164 325.193 207.311 326.138 207.606 326.918C207.901 327.698 208.343 328.287 208.932 328.686C209.521 329.085 210.258 329.284 211.142 329.284C211.905 329.284 212.572 329.206 213.144 329.05C213.733 328.894 214.271 328.703 214.756 328.478V330.506C214.288 330.749 213.768 330.931 213.196 331.052C212.641 331.191 211.965 331.26 211.168 331.26ZM232.546 316.544C234.141 316.544 235.432 317.168 236.42 318.416C237.408 319.647 237.902 321.467 237.902 323.876C237.902 325.488 237.668 326.849 237.2 327.958C236.732 329.05 236.091 329.873 235.276 330.428C234.462 330.983 233.517 331.26 232.442 331.26C231.766 331.26 231.177 331.173 230.674 331C230.189 330.827 229.773 330.601 229.426 330.324C229.08 330.047 228.776 329.752 228.516 329.44H228.308C228.378 329.769 228.43 330.116 228.464 330.48C228.499 330.827 228.516 331.173 228.516 331.52V337.24H224.642V316.804H227.788L228.334 318.65H228.516C228.776 318.269 229.088 317.922 229.452 317.61C229.816 317.281 230.25 317.021 230.752 316.83C231.272 316.639 231.87 316.544 232.546 316.544ZM231.298 319.638C230.622 319.638 230.085 319.777 229.686 320.054C229.288 320.331 228.993 320.756 228.802 321.328C228.629 321.883 228.534 322.585 228.516 323.434V323.85C228.516 324.769 228.603 325.549 228.776 326.19C228.95 326.814 229.244 327.291 229.66 327.62C230.076 327.949 230.64 328.114 231.35 328.114C231.94 328.114 232.425 327.949 232.806 327.62C233.188 327.291 233.474 326.805 233.664 326.164C233.855 325.523 233.95 324.743 233.95 323.824C233.95 322.437 233.734 321.397 233.3 320.704C232.884 319.993 232.217 319.638 231.298 319.638ZM246.919 316.518C248.826 316.518 250.282 316.934 251.287 317.766C252.31 318.581 252.821 319.837 252.821 321.536V331H250.117L249.363 329.076H249.259C248.861 329.579 248.445 329.995 248.011 330.324C247.595 330.653 247.11 330.887 246.555 331.026C246.018 331.182 245.351 331.26 244.553 331.26C243.721 331.26 242.967 331.104 242.291 330.792C241.633 330.463 241.113 329.969 240.731 329.31C240.35 328.634 240.159 327.785 240.159 326.762C240.159 325.254 240.688 324.145 241.745 323.434C242.803 322.706 244.389 322.307 246.503 322.238L248.973 322.16V321.536C248.973 320.791 248.774 320.245 248.375 319.898C247.994 319.551 247.457 319.378 246.763 319.378C246.07 319.378 245.394 319.482 244.735 319.69C244.077 319.881 243.418 320.123 242.759 320.418L241.485 317.792C242.248 317.393 243.089 317.081 244.007 316.856C244.943 316.631 245.914 316.518 246.919 316.518ZM247.465 324.474C246.217 324.509 245.351 324.734 244.865 325.15C244.38 325.566 244.137 326.112 244.137 326.788C244.137 327.377 244.311 327.802 244.657 328.062C245.004 328.305 245.455 328.426 246.009 328.426C246.841 328.426 247.543 328.183 248.115 327.698C248.687 327.195 248.973 326.493 248.973 325.592V324.422L247.465 324.474ZM266.095 316.804H270.359L264.743 323.616L270.853 331H266.459L260.661 323.798V331H256.787V316.804H260.661V323.694L266.095 316.804ZM285.273 323.876C285.273 325.055 285.108 326.103 284.779 327.022C284.467 327.941 284.007 328.721 283.401 329.362C282.811 329.986 282.092 330.463 281.243 330.792C280.393 331.104 279.431 331.26 278.357 331.26C277.369 331.26 276.45 331.104 275.601 330.792C274.769 330.463 274.049 329.986 273.443 329.362C272.836 328.721 272.359 327.941 272.013 327.022C271.683 326.103 271.519 325.055 271.519 323.876C271.519 322.299 271.796 320.973 272.351 319.898C272.905 318.806 273.703 317.974 274.743 317.402C275.783 316.83 277.013 316.544 278.435 316.544C279.769 316.544 280.948 316.83 281.971 317.402C282.993 317.974 283.799 318.806 284.389 319.898C284.978 320.973 285.273 322.299 285.273 323.876ZM275.471 323.876C275.471 324.812 275.566 325.601 275.757 326.242C275.965 326.866 276.285 327.343 276.719 327.672C277.152 327.984 277.715 328.14 278.409 328.14C279.102 328.14 279.657 327.984 280.073 327.672C280.506 327.343 280.818 326.866 281.009 326.242C281.217 325.601 281.321 324.812 281.321 323.876C281.321 322.94 281.217 322.16 281.009 321.536C280.818 320.912 280.506 320.444 280.073 320.132C279.639 319.82 279.076 319.664 278.383 319.664C277.36 319.664 276.615 320.019 276.147 320.73C275.696 321.423 275.471 322.472 275.471 323.876ZM306.362 316.804V331H302.748V324.032C302.748 323.339 302.757 322.663 302.774 322.004C302.809 321.345 302.852 320.739 302.904 320.184H302.826L298.9 331H295.988L292.01 320.158H291.906C291.976 320.73 292.019 321.345 292.036 322.004C292.071 322.645 292.088 323.356 292.088 324.136V331H288.474V316.804H293.96L297.496 326.424L301.084 316.804H306.362ZM84.5117 351.804V366H80.8977V359.032C80.8977 358.339 80.9064 357.663 80.9237 357.004C80.9584 356.345 81.0017 355.739 81.0537 355.184H80.9757L77.0497 366H74.1377L70.1597 355.158H70.0557C70.125 355.73 70.1684 356.345 70.1857 357.004C70.2204 357.645 70.2377 358.356 70.2377 359.136V366H66.6237V351.804H72.1097L75.6457 361.424L79.2337 351.804H84.5117ZM101.457 358.876C101.457 360.055 101.293 361.103 100.963 362.022C100.651 362.941 100.192 363.721 99.5852 364.362C98.9959 364.986 98.2765 365.463 97.4272 365.792C96.5779 366.104 95.6159 366.26 94.5412 366.26C93.5532 366.26 92.6345 366.104 91.7852 365.792C90.9532 365.463 90.2339 364.986 89.6272 364.362C89.0205 363.721 88.5439 362.941 88.1972 362.022C87.8679 361.103 87.7032 360.055 87.7032 358.876C87.7032 357.299 87.9805 355.973 88.5352 354.898C89.0899 353.806 89.8872 352.974 90.9272 352.402C91.9672 351.83 93.1979 351.544 94.6192 351.544C95.9539 351.544 97.1325 351.83 98.1552 352.402C99.1779 352.974 99.9839 353.806 100.573 354.898C101.163 355.973 101.457 357.299 101.457 358.876ZM91.6552 358.876C91.6552 359.812 91.7505 360.601 91.9412 361.242C92.1492 361.866 92.4699 362.343 92.9032 362.672C93.3365 362.984 93.8999 363.14 94.5932 363.14C95.2865 363.14 95.8412 362.984 96.2572 362.672C96.6905 362.343 97.0025 361.866 97.1932 361.242C97.4012 360.601 97.5052 359.812 97.5052 358.876C97.5052 357.94 97.4012 357.16 97.1932 356.536C97.0025 355.912 96.6905 355.444 96.2572 355.132C95.8239 354.82 95.2605 354.664 94.5672 354.664C93.5445 354.664 92.7992 355.019 92.3312 355.73C91.8805 356.423 91.6552 357.472 91.6552 358.876ZM107.811 357.004C107.811 357.611 107.958 358.07 108.253 358.382C108.565 358.694 108.99 358.85 109.527 358.85C110.272 358.85 110.966 358.772 111.607 358.616C112.248 358.443 112.89 358.217 113.531 357.94V351.804H117.405V366H113.531V360.358C112.924 360.687 112.231 360.991 111.451 361.268C110.671 361.528 109.787 361.658 108.799 361.658C107.326 361.658 106.147 361.277 105.263 360.514C104.379 359.751 103.937 358.607 103.937 357.082V351.804H107.811V357.004ZM127.317 351.544C128.635 351.544 129.761 351.795 130.697 352.298C131.651 352.801 132.387 353.529 132.907 354.482C133.427 355.435 133.687 356.605 133.687 357.992V359.864H124.535C124.57 360.956 124.891 361.814 125.497 362.438C126.121 363.062 126.979 363.374 128.071 363.374C128.99 363.374 129.822 363.287 130.567 363.114C131.313 362.923 132.084 362.637 132.881 362.256V365.246C132.188 365.593 131.451 365.844 130.671 366C129.909 366.173 128.981 366.26 127.889 366.26C126.468 366.26 125.211 366 124.119 365.48C123.027 364.943 122.169 364.137 121.545 363.062C120.921 361.987 120.609 360.635 120.609 359.006C120.609 357.342 120.887 355.964 121.441 354.872C122.013 353.763 122.802 352.931 123.807 352.376C124.813 351.821 125.983 351.544 127.317 351.544ZM127.343 354.3C126.598 354.3 125.974 354.543 125.471 355.028C124.986 355.513 124.7 356.267 124.613 357.29H130.047C130.047 356.718 129.943 356.207 129.735 355.756C129.545 355.305 129.25 354.95 128.851 354.69C128.453 354.43 127.95 354.3 127.343 354.3ZM149.413 355.522C149.413 356.285 149.17 356.935 148.685 357.472C148.217 358.009 147.515 358.356 146.579 358.512V358.616C147.567 358.737 148.355 359.075 148.945 359.63C149.551 360.185 149.855 360.895 149.855 361.762C149.855 362.369 149.733 362.932 149.491 363.452C149.265 363.972 148.901 364.423 148.399 364.804C147.896 365.185 147.246 365.48 146.449 365.688C145.669 365.896 144.715 366 143.589 366H136.829V351.804H143.589C144.698 351.804 145.686 351.925 146.553 352.168C147.437 352.393 148.13 352.775 148.633 353.312C149.153 353.849 149.413 354.586 149.413 355.522ZM145.851 361.554C145.851 360.999 145.634 360.601 145.201 360.358C144.767 360.098 144.117 359.968 143.251 359.968H140.703V363.322H143.329C144.057 363.322 144.655 363.192 145.123 362.932C145.608 362.655 145.851 362.195 145.851 361.554ZM145.487 355.834C145.487 355.383 145.313 355.054 144.967 354.846C144.62 354.638 144.109 354.534 143.433 354.534H140.703V357.342H142.991C143.805 357.342 144.421 357.229 144.837 357.004C145.27 356.761 145.487 356.371 145.487 355.834ZM166.076 358.876C166.076 360.055 165.912 361.103 165.582 362.022C165.27 362.941 164.811 363.721 164.204 364.362C163.615 364.986 162.896 365.463 162.046 365.792C161.197 366.104 160.235 366.26 159.16 366.26C158.172 366.26 157.254 366.104 156.404 365.792C155.572 365.463 154.853 364.986 154.246 364.362C153.64 363.721 153.163 362.941 152.816 362.022C152.487 361.103 152.322 360.055 152.322 358.876C152.322 357.299 152.6 355.973 153.154 354.898C153.709 353.806 154.506 352.974 155.546 352.402C156.586 351.83 157.817 351.544 159.238 351.544C160.573 351.544 161.752 351.83 162.774 352.402C163.797 352.974 164.603 353.806 165.192 354.898C165.782 355.973 166.076 357.299 166.076 358.876ZM156.274 358.876C156.274 359.812 156.37 360.601 156.56 361.242C156.768 361.866 157.089 362.343 157.522 362.672C157.956 362.984 158.519 363.14 159.212 363.14C159.906 363.14 160.46 362.984 160.876 362.672C161.31 362.343 161.622 361.866 161.812 361.242C162.02 360.601 162.124 359.812 162.124 358.876C162.124 357.94 162.02 357.16 161.812 356.536C161.622 355.912 161.31 355.444 160.876 355.132C160.443 354.82 159.88 354.664 159.186 354.664C158.164 354.664 157.418 355.019 156.95 355.73C156.5 356.423 156.274 357.472 156.274 358.876ZM179.08 351.804V354.716H173.152V366H169.278V351.804H179.08ZM194.336 358.876C194.336 360.055 194.171 361.103 193.842 362.022C193.53 362.941 193.071 363.721 192.464 364.362C191.875 364.986 191.155 365.463 190.306 365.792C189.457 366.104 188.495 366.26 187.42 366.26C186.432 366.26 185.513 366.104 184.664 365.792C183.832 365.463 183.113 364.986 182.506 364.362C181.899 363.721 181.423 362.941 181.076 362.022C180.747 361.103 180.582 360.055 180.582 358.876C180.582 357.299 180.859 355.973 181.414 354.898C181.969 353.806 182.766 352.974 183.806 352.402C184.846 351.83 186.077 351.544 187.498 351.544C188.833 351.544 190.011 351.83 191.034 352.402C192.057 352.974 192.863 353.806 193.452 354.898C194.041 355.973 194.336 357.299 194.336 358.876ZM184.534 358.876C184.534 359.812 184.629 360.601 184.82 361.242C185.028 361.866 185.349 362.343 185.782 362.672C186.215 362.984 186.779 363.14 187.472 363.14C188.165 363.14 188.72 362.984 189.136 362.672C189.569 362.343 189.881 361.866 190.072 361.242C190.28 360.601 190.384 359.812 190.384 358.876C190.384 357.94 190.28 357.16 190.072 356.536C189.881 355.912 189.569 355.444 189.136 355.132C188.703 354.82 188.139 354.664 187.446 354.664C186.423 354.664 185.678 355.019 185.21 355.73C184.759 356.423 184.534 357.472 184.534 358.876ZM217.188 351.804V366H213.314V354.716H208.166V366H204.292V351.804H217.188ZM219.225 351.804H223.463L226.141 359.786C226.227 360.046 226.297 360.306 226.349 360.566C226.418 360.826 226.47 361.095 226.505 361.372C226.557 361.649 226.591 361.944 226.609 362.256H226.687C226.739 361.805 226.808 361.381 226.895 360.982C226.999 360.566 227.111 360.167 227.233 359.786L229.859 351.804H234.019L228.013 367.82C227.649 368.791 227.172 369.605 226.583 370.264C226.011 370.923 225.343 371.417 224.581 371.746C223.818 372.075 222.986 372.24 222.085 372.24C221.651 372.24 221.27 372.214 220.941 372.162C220.629 372.127 220.351 372.084 220.109 372.032V368.964C220.299 368.999 220.525 369.033 220.785 369.068C221.062 369.103 221.348 369.12 221.643 369.12C222.18 369.12 222.639 369.007 223.021 368.782C223.419 368.557 223.749 368.245 224.009 367.846C224.269 367.465 224.477 367.049 224.633 366.598L224.867 365.896L219.225 351.804ZM241.229 351.544C242.252 351.544 243.205 351.683 244.089 351.96C244.991 352.22 245.71 352.627 246.247 353.182C246.802 353.737 247.079 354.447 247.079 355.314C247.079 356.163 246.819 356.839 246.299 357.342C245.797 357.845 245.112 358.209 244.245 358.434V358.564C244.852 358.703 245.398 358.902 245.883 359.162C246.369 359.405 246.75 359.743 247.027 360.176C247.322 360.592 247.469 361.155 247.469 361.866C247.469 362.646 247.218 363.374 246.715 364.05C246.23 364.709 245.467 365.246 244.427 365.662C243.405 366.061 242.087 366.26 240.475 366.26C239.713 366.26 238.993 366.225 238.317 366.156C237.641 366.087 237.026 365.991 236.471 365.87C235.917 365.731 235.431 365.567 235.015 365.376V362.178C235.605 362.455 236.324 362.707 237.173 362.932C238.04 363.157 238.959 363.27 239.929 363.27C240.64 363.27 241.273 363.218 241.827 363.114C242.399 363.01 242.85 362.837 243.179 362.594C243.526 362.351 243.699 362.031 243.699 361.632C243.699 361.251 243.552 360.939 243.257 360.696C242.963 360.436 242.521 360.245 241.931 360.124C241.342 360.003 240.588 359.942 239.669 359.942H238.161V357.264H239.591C240.874 357.264 241.862 357.16 242.555 356.952C243.266 356.744 243.621 356.354 243.621 355.782C243.621 355.331 243.396 354.993 242.945 354.768C242.495 354.525 241.758 354.404 240.735 354.404C240.059 354.404 239.323 354.482 238.525 354.638C237.728 354.794 236.974 355.019 236.263 355.314L235.119 352.61C235.934 352.298 236.827 352.047 237.797 351.856C238.768 351.648 239.912 351.544 241.229 351.544ZM250.477 366V351.804H254.351V357.29H256.223C257.679 357.29 258.875 357.446 259.811 357.758C260.747 358.053 261.441 358.512 261.891 359.136C262.359 359.76 262.593 360.54 262.593 361.476C262.593 362.395 262.377 363.192 261.943 363.868C261.527 364.544 260.86 365.073 259.941 365.454C259.04 365.818 257.844 366 256.353 366H250.477ZM256.145 363.322C256.908 363.322 257.523 363.183 257.991 362.906C258.477 362.629 258.719 362.169 258.719 361.528C258.719 360.973 258.494 360.575 258.043 360.332C257.61 360.089 256.96 359.968 256.093 359.968H254.351V363.322H256.145ZM264.647 366V351.804H268.521V366H264.647ZM280.471 351.544C282.066 351.544 283.357 352.168 284.345 353.416C285.333 354.647 285.827 356.467 285.827 358.876C285.827 360.488 285.593 361.849 285.125 362.958C284.657 364.05 284.016 364.873 283.201 365.428C282.386 365.983 281.442 366.26 280.367 366.26C279.691 366.26 279.102 366.173 278.599 366C278.114 365.827 277.698 365.601 277.351 365.324C277.004 365.047 276.701 364.752 276.441 364.44H276.233C276.302 364.769 276.354 365.116 276.389 365.48C276.424 365.827 276.441 366.173 276.441 366.52V372.24H272.567V351.804H275.713L276.259 353.65H276.441C276.701 353.269 277.013 352.922 277.377 352.61C277.741 352.281 278.174 352.021 278.677 351.83C279.197 351.639 279.795 351.544 280.471 351.544ZM279.223 354.638C278.547 354.638 278.01 354.777 277.611 355.054C277.212 355.331 276.918 355.756 276.727 356.328C276.554 356.883 276.458 357.585 276.441 358.434V358.85C276.441 359.769 276.528 360.549 276.701 361.19C276.874 361.814 277.169 362.291 277.585 362.62C278.001 362.949 278.564 363.114 279.275 363.114C279.864 363.114 280.35 362.949 280.731 362.62C281.112 362.291 281.398 361.805 281.589 361.164C281.78 360.523 281.875 359.743 281.875 358.824C281.875 357.437 281.658 356.397 281.225 355.704C280.809 354.993 280.142 354.638 279.223 354.638ZM291.178 366H286.992L290.814 360.384C290.329 360.176 289.87 359.899 289.436 359.552C289.02 359.188 288.682 358.729 288.422 358.174C288.162 357.619 288.032 356.961 288.032 356.198C288.032 354.777 288.57 353.693 289.644 352.948C290.719 352.185 292.097 351.804 293.778 351.804H300.382V366H296.508V360.722H294.376L291.178 366ZM291.828 356.224C291.828 356.813 292.062 357.281 292.53 357.628C292.998 357.957 293.605 358.122 294.35 358.122H296.508V354.534H293.856C293.163 354.534 292.652 354.707 292.322 355.054C291.993 355.383 291.828 355.773 291.828 356.224Z" fill="#01457A"/>
<path d="M57.2789 394.148H58.2689V402.878C58.2689 403.334 58.2569 403.802 58.2329 404.282C58.2209 404.75 58.2089 405.134 58.1969 405.434H58.2509L65.7209 394.148H66.8189V407H65.8289V398.396C65.8289 397.88 65.8349 397.376 65.8469 396.884C65.8709 396.38 65.8889 395.978 65.9009 395.678H65.8469L58.3769 407H57.2789V394.148ZM74.045 407.18C72.641 407.18 71.555 406.748 70.787 405.884C70.031 405.02 69.653 403.814 69.653 402.266C69.653 401.186 69.845 400.274 70.229 399.53C70.613 398.786 71.147 398.222 71.831 397.838C72.527 397.442 73.337 397.244 74.261 397.244C74.717 397.244 75.149 397.286 75.557 397.37C75.965 397.454 76.325 397.568 76.637 397.712L76.349 398.594C76.025 398.462 75.677 398.36 75.305 398.288C74.933 398.204 74.579 398.162 74.243 398.162C73.103 398.162 72.227 398.528 71.615 399.26C71.015 399.992 70.715 400.988 70.715 402.248C70.715 403.448 70.985 404.42 71.525 405.164C72.065 405.896 72.905 406.262 74.045 406.262C74.513 406.262 74.957 406.214 75.377 406.118C75.797 406.022 76.175 405.902 76.511 405.758V406.676C76.199 406.832 75.839 406.952 75.431 407.036C75.035 407.132 74.573 407.18 74.045 407.18ZM82.6055 407.18C81.2015 407.18 80.1155 406.748 79.3475 405.884C78.5915 405.02 78.2135 403.814 78.2135 402.266C78.2135 401.186 78.4055 400.274 78.7895 399.53C79.1735 398.786 79.7075 398.222 80.3915 397.838C81.0875 397.442 81.8975 397.244 82.8215 397.244C83.2775 397.244 83.7095 397.286 84.1175 397.37C84.5255 397.454 84.8855 397.568 85.1975 397.712L84.9095 398.594C84.5855 398.462 84.2375 398.36 83.8655 398.288C83.4935 398.204 83.1395 398.162 82.8035 398.162C81.6635 398.162 80.7875 398.528 80.1755 399.26C79.5755 399.992 79.2755 400.988 79.2755 402.248C79.2755 403.448 79.5455 404.42 80.0855 405.164C80.6255 405.896 81.4655 406.262 82.6055 406.262C83.0735 406.262 83.5175 406.214 83.9375 406.118C84.3575 406.022 84.7355 405.902 85.0715 405.758V406.676C84.7595 406.832 84.3995 406.952 83.9915 407.036C83.5955 407.132 83.1335 407.18 82.6055 407.18ZM94.1 407H93.056V398.306H89.816C89.672 400.322 89.48 401.978 89.24 403.274C89 404.57 88.664 405.53 88.232 406.154C87.812 406.778 87.254 407.09 86.558 407.09C86.258 407.09 86.024 407.06 85.856 407V406.19C85.976 406.226 86.156 406.244 86.396 406.244C87.128 406.244 87.68 405.53 88.052 404.102C88.424 402.674 88.712 400.448 88.916 397.424H94.1V407ZM100.9 397.244C101.716 397.244 102.394 397.436 102.934 397.82C103.486 398.192 103.9 398.708 104.176 399.368C104.464 400.028 104.608 400.784 104.608 401.636V402.338H97.7677C97.7677 403.61 98.0617 404.588 98.6497 405.272C99.2497 405.944 100.102 406.28 101.206 406.28C101.794 406.28 102.31 406.232 102.754 406.136C103.198 406.028 103.684 405.86 104.212 405.632V406.568C103.732 406.784 103.258 406.94 102.79 407.036C102.322 407.132 101.782 407.18 101.17 407.18C99.7297 407.18 98.6257 406.742 97.8577 405.866C97.0897 404.99 96.7057 403.796 96.7057 402.284C96.7057 401.312 96.8677 400.448 97.1917 399.692C97.5277 398.936 98.0077 398.342 98.6317 397.91C99.2557 397.466 100.012 397.244 100.9 397.244ZM100.882 398.108C100.006 398.108 99.2917 398.402 98.7397 398.99C98.1997 399.578 97.8877 400.412 97.8037 401.492H103.546C103.546 400.484 103.324 399.668 102.88 399.044C102.448 398.42 101.782 398.108 100.882 398.108ZM113.855 397.424V406.1H115.151V410.258H114.161V407H106.961V410.258H105.971V406.1H106.637C107.441 404.984 108.053 403.682 108.473 402.194C108.893 400.706 109.115 399.116 109.139 397.424H113.855ZM110.057 398.27C109.985 399.782 109.751 401.216 109.355 402.572C108.971 403.916 108.437 405.092 107.753 406.1H112.847V398.27H110.057ZM125.155 402.194C125.155 403.202 124.987 404.078 124.651 404.822C124.327 405.566 123.841 406.148 123.193 406.568C122.557 406.976 121.777 407.18 120.853 407.18C119.965 407.18 119.203 406.976 118.567 406.568C117.931 406.16 117.439 405.584 117.091 404.84C116.755 404.084 116.587 403.202 116.587 402.194C116.587 400.646 116.971 399.434 117.739 398.558C118.507 397.682 119.569 397.244 120.925 397.244C121.837 397.244 122.605 397.454 123.229 397.874C123.865 398.282 124.345 398.858 124.669 399.602C124.993 400.346 125.155 401.21 125.155 402.194ZM117.649 402.194C117.649 403.43 117.907 404.426 118.423 405.182C118.951 405.926 119.767 406.298 120.871 406.298C121.987 406.298 122.803 405.92 123.319 405.164C123.835 404.408 124.093 403.418 124.093 402.194C124.093 401.402 123.985 400.7 123.769 400.088C123.553 399.476 123.211 398.996 122.743 398.648C122.275 398.3 121.663 398.126 120.907 398.126C119.827 398.126 119.011 398.486 118.459 399.206C117.919 399.926 117.649 400.922 117.649 402.194ZM135.034 399.764C135.034 400.376 134.872 400.856 134.548 401.204C134.224 401.54 133.804 401.768 133.288 401.888V401.942C133.9 402.038 134.404 402.272 134.8 402.644C135.196 403.016 135.394 403.556 135.394 404.264C135.394 405.092 135.112 405.758 134.548 406.262C133.984 406.754 133.09 407 131.866 407H127.762V397.424H131.776C132.82 397.424 133.624 397.622 134.188 398.018C134.752 398.402 135.034 398.984 135.034 399.764ZM133.99 399.872C133.99 399.38 133.81 398.996 133.45 398.72C133.102 398.444 132.514 398.306 131.686 398.306H128.788V401.528H131.56C133.18 401.528 133.99 400.976 133.99 399.872ZM134.332 404.264C134.332 403.604 134.104 403.13 133.648 402.842C133.192 402.554 132.526 402.41 131.65 402.41H128.788V406.136H131.704C132.58 406.136 133.234 405.986 133.666 405.686C134.11 405.386 134.332 404.912 134.332 404.264ZM141.376 397.262C142.456 397.262 143.26 397.526 143.788 398.054C144.316 398.582 144.58 399.416 144.58 400.556V407H143.806L143.626 405.38H143.572C143.224 405.92 142.798 406.358 142.294 406.694C141.802 407.018 141.112 407.18 140.224 407.18C139.3 407.18 138.574 406.952 138.046 406.496C137.518 406.028 137.254 405.362 137.254 404.498C137.254 403.538 137.644 402.812 138.424 402.32C139.204 401.816 140.338 401.534 141.826 401.474L143.572 401.384V400.718C143.572 399.782 143.38 399.116 142.996 398.72C142.624 398.324 142.072 398.126 141.34 398.126C140.848 398.126 140.374 398.192 139.918 398.324C139.462 398.456 139.006 398.63 138.55 398.846L138.226 398.018C138.682 397.802 139.174 397.622 139.702 397.478C140.242 397.334 140.8 397.262 141.376 397.262ZM141.952 402.23C140.728 402.29 139.816 402.506 139.216 402.878C138.628 403.238 138.334 403.778 138.334 404.498C138.334 405.098 138.514 405.554 138.874 405.866C139.246 406.166 139.756 406.316 140.404 406.316C141.4 406.316 142.174 406.034 142.726 405.47C143.278 404.894 143.56 404.102 143.572 403.094V402.158L141.952 402.23ZM148.669 397.424V401.582H154.537V397.424H155.563V407H154.537V402.464H148.669V407H147.643V397.424H148.669ZM159.724 404.084C159.724 404.348 159.712 404.648 159.688 404.984C159.676 405.32 159.664 405.62 159.652 405.884L165.25 397.424H166.51V407H165.538V400.322C165.538 400.058 165.538 399.758 165.538 399.422C165.55 399.074 165.568 398.774 165.592 398.522L159.976 407H158.734V397.424H159.724V404.084ZM173.339 397.244C174.155 397.244 174.833 397.436 175.373 397.82C175.925 398.192 176.339 398.708 176.615 399.368C176.903 400.028 177.047 400.784 177.047 401.636V402.338H170.207C170.207 403.61 170.501 404.588 171.089 405.272C171.689 405.944 172.541 406.28 173.645 406.28C174.233 406.28 174.749 406.232 175.193 406.136C175.637 406.028 176.123 405.86 176.651 405.632V406.568C176.171 406.784 175.697 406.94 175.229 407.036C174.761 407.132 174.221 407.18 173.609 407.18C172.169 407.18 171.065 406.742 170.297 405.866C169.529 404.99 169.145 403.796 169.145 402.284C169.145 401.312 169.307 400.448 169.631 399.692C169.967 398.936 170.447 398.342 171.071 397.91C171.695 397.466 172.451 397.244 173.339 397.244ZM173.321 398.108C172.445 398.108 171.731 398.402 171.179 398.99C170.639 399.578 170.327 400.412 170.243 401.492H175.985C175.985 400.484 175.763 399.668 175.319 399.044C174.887 398.42 174.221 398.108 173.321 398.108ZM193.941 407H192.897V400.736H185.571V407H184.527V394.148H185.571V399.8H192.897V394.148H193.941V407ZM200.72 397.262C201.8 397.262 202.604 397.526 203.132 398.054C203.66 398.582 203.924 399.416 203.924 400.556V407H203.15L202.97 405.38H202.916C202.568 405.92 202.142 406.358 201.638 406.694C201.146 407.018 200.456 407.18 199.568 407.18C198.644 407.18 197.918 406.952 197.39 406.496C196.862 406.028 196.598 405.362 196.598 404.498C196.598 403.538 196.988 402.812 197.768 402.32C198.548 401.816 199.682 401.534 201.17 401.474L202.916 401.384V400.718C202.916 399.782 202.724 399.116 202.34 398.72C201.968 398.324 201.416 398.126 200.684 398.126C200.192 398.126 199.718 398.192 199.262 398.324C198.806 398.456 198.35 398.63 197.894 398.846L197.57 398.018C198.026 397.802 198.518 397.622 199.046 397.478C199.586 397.334 200.144 397.262 200.72 397.262ZM201.296 402.23C200.072 402.29 199.16 402.506 198.56 402.878C197.972 403.238 197.678 403.778 197.678 404.498C197.678 405.098 197.858 405.554 198.218 405.866C198.59 406.166 199.1 406.316 199.748 406.316C200.744 406.316 201.518 406.034 202.07 405.47C202.622 404.894 202.904 404.102 202.916 403.094V402.158L201.296 402.23ZM215.86 410.258H214.852V407H206.986V397.424H208.012V406.1H213.538V397.424H214.564V406.118H215.86V410.258ZM218.84 404.084C218.84 404.348 218.828 404.648 218.804 404.984C218.792 405.32 218.78 405.62 218.768 405.884L224.366 397.424H225.626V407H224.654V400.322C224.654 400.058 224.654 399.758 224.654 399.422C224.666 399.074 224.684 398.774 224.708 398.522L219.092 407H217.85V397.424H218.84V404.084ZM236.828 402.194C236.828 403.202 236.66 404.078 236.324 404.822C236 405.566 235.514 406.148 234.866 406.568C234.23 406.976 233.45 407.18 232.526 407.18C231.638 407.18 230.876 406.976 230.24 406.568C229.604 406.16 229.112 405.584 228.764 404.84C228.428 404.084 228.26 403.202 228.26 402.194C228.26 400.646 228.644 399.434 229.412 398.558C230.18 397.682 231.242 397.244 232.598 397.244C233.51 397.244 234.278 397.454 234.902 397.874C235.538 398.282 236.018 398.858 236.342 399.602C236.666 400.346 236.828 401.21 236.828 402.194ZM229.322 402.194C229.322 403.43 229.58 404.426 230.096 405.182C230.624 405.926 231.44 406.298 232.544 406.298C233.66 406.298 234.476 405.92 234.992 405.164C235.508 404.408 235.766 403.418 235.766 402.194C235.766 401.402 235.658 400.7 235.442 400.088C235.226 399.476 234.884 398.996 234.416 398.648C233.948 398.3 233.336 398.126 232.58 398.126C231.5 398.126 230.684 398.486 230.132 399.206C229.592 399.926 229.322 400.922 229.322 402.194ZM240.462 397.424V401.582H246.33V397.424H247.356V407H246.33V402.464H240.462V407H239.436V397.424H240.462ZM253.911 397.262C254.991 397.262 255.795 397.526 256.323 398.054C256.851 398.582 257.115 399.416 257.115 400.556V407H256.341L256.161 405.38H256.107C255.759 405.92 255.333 406.358 254.829 406.694C254.337 407.018 253.647 407.18 252.759 407.18C251.835 407.18 251.109 406.952 250.581 406.496C250.053 406.028 249.789 405.362 249.789 404.498C249.789 403.538 250.179 402.812 250.959 402.32C251.739 401.816 252.873 401.534 254.361 401.474L256.107 401.384V400.718C256.107 399.782 255.915 399.116 255.531 398.72C255.159 398.324 254.607 398.126 253.875 398.126C253.383 398.126 252.909 398.192 252.453 398.324C251.997 398.456 251.541 398.63 251.085 398.846L250.761 398.018C251.217 397.802 251.709 397.622 252.237 397.478C252.777 397.334 253.335 397.262 253.911 397.262ZM254.487 402.23C253.263 402.29 252.351 402.506 251.751 402.878C251.163 403.238 250.869 403.778 250.869 404.498C250.869 405.098 251.049 405.554 251.409 405.866C251.781 406.166 252.291 406.316 252.939 406.316C253.935 406.316 254.709 406.034 255.261 405.47C255.813 404.894 256.095 404.102 256.107 403.094V402.158L254.487 402.23ZM266.946 407H265.902V398.306H262.662C262.518 400.322 262.326 401.978 262.086 403.274C261.846 404.57 261.51 405.53 261.078 406.154C260.658 406.778 260.1 407.09 259.404 407.09C259.104 407.09 258.87 407.06 258.702 407V406.19C258.822 406.226 259.002 406.244 259.242 406.244C259.974 406.244 260.526 405.53 260.898 404.102C261.27 402.674 261.558 400.448 261.762 397.424H266.946V407ZM274.429 401.438C275.581 401.438 276.433 401.672 276.985 402.14C277.537 402.608 277.813 403.268 277.813 404.12C277.813 405.02 277.525 405.728 276.949 406.244C276.373 406.748 275.479 407 274.267 407H270.109V397.424H271.135V401.438H274.429ZM276.787 404.156C276.787 403.52 276.577 403.058 276.157 402.77C275.737 402.47 275.119 402.32 274.303 402.32H271.135V406.136H274.195C275.923 406.136 276.787 405.476 276.787 404.156ZM281.471 397.424V401.582H287.339V397.424H288.365V407H287.339V402.464H281.471V407H280.445V397.424H281.471ZM299.547 402.194C299.547 403.202 299.379 404.078 299.043 404.822C298.719 405.566 298.233 406.148 297.585 406.568C296.949 406.976 296.169 407.18 295.245 407.18C294.357 407.18 293.595 406.976 292.959 406.568C292.323 406.16 291.831 405.584 291.483 404.84C291.147 404.084 290.979 403.202 290.979 402.194C290.979 400.646 291.363 399.434 292.131 398.558C292.899 397.682 293.961 397.244 295.317 397.244C296.229 397.244 296.997 397.454 297.621 397.874C298.257 398.282 298.737 398.858 299.061 399.602C299.385 400.346 299.547 401.21 299.547 402.194ZM292.041 402.194C292.041 403.43 292.299 404.426 292.815 405.182C293.343 405.926 294.159 406.298 295.263 406.298C296.379 406.298 297.195 405.92 297.711 405.164C298.227 404.408 298.485 403.418 298.485 402.194C298.485 401.402 298.377 400.7 298.161 400.088C297.945 399.476 297.603 398.996 297.135 398.648C296.667 398.3 296.055 398.126 295.299 398.126C294.219 398.126 293.403 398.486 292.851 399.206C292.311 399.926 292.041 400.922 292.041 402.194ZM309.066 393.572C308.958 395.252 307.956 396.092 306.06 396.092C305.1 396.092 304.386 395.888 303.918 395.48C303.45 395.072 303.192 394.436 303.144 393.572H304.116C304.164 394.22 304.338 394.676 304.638 394.94C304.95 395.204 305.43 395.336 306.078 395.336C306.69 395.336 307.164 395.204 307.5 394.94C307.836 394.676 308.034 394.22 308.094 393.572H309.066ZM303.144 404.084C303.144 404.348 303.132 404.648 303.108 404.984C303.096 405.32 303.084 405.62 303.072 405.884L308.67 397.424H309.93V407H308.958V400.322C308.958 400.058 308.958 399.758 308.958 399.422C308.97 399.074 308.988 398.774 309.012 398.522L303.396 407H302.154V397.424H303.144V404.084ZM44.4434 432.18C43.0394 432.18 41.9534 431.748 41.1854 430.884C40.4294 430.02 40.0514 428.814 40.0514 427.266C40.0514 426.186 40.2434 425.274 40.6274 424.53C41.0114 423.786 41.5454 423.222 42.2294 422.838C42.9254 422.442 43.7354 422.244 44.6594 422.244C45.1154 422.244 45.5474 422.286 45.9554 422.37C46.3634 422.454 46.7234 422.568 47.0354 422.712L46.7474 423.594C46.4234 423.462 46.0754 423.36 45.7034 423.288C45.3314 423.204 44.9774 423.162 44.6414 423.162C43.5014 423.162 42.6254 423.528 42.0134 424.26C41.4134 424.992 41.1134 425.988 41.1134 427.248C41.1134 428.448 41.3834 429.42 41.9234 430.164C42.4634 430.896 43.3034 431.262 44.4434 431.262C44.9114 431.262 45.3554 431.214 45.7754 431.118C46.1954 431.022 46.5734 430.902 46.9094 430.758V431.676C46.5974 431.832 46.2374 431.952 45.8294 432.036C45.4334 432.132 44.9714 432.18 44.4434 432.18ZM55.3619 423.306H52.1579V432H51.1319V423.306H47.9459V422.424H55.3619V423.306ZM60.6926 422.262C61.7726 422.262 62.5766 422.526 63.1046 423.054C63.6326 423.582 63.8966 424.416 63.8966 425.556V432H63.1226L62.9426 430.38H62.8886C62.5406 430.92 62.1146 431.358 61.6106 431.694C61.1186 432.018 60.4286 432.18 59.5406 432.18C58.6166 432.18 57.8906 431.952 57.3626 431.496C56.8346 431.028 56.5706 430.362 56.5706 429.498C56.5706 428.538 56.9606 427.812 57.7406 427.32C58.5206 426.816 59.6546 426.534 61.1426 426.474L62.8886 426.384V425.718C62.8886 424.782 62.6966 424.116 62.3126 423.72C61.9406 423.324 61.3886 423.126 60.6566 423.126C60.1646 423.126 59.6906 423.192 59.2346 423.324C58.7786 423.456 58.3226 423.63 57.8666 423.846L57.5426 423.018C57.9986 422.802 58.4906 422.622 59.0186 422.478C59.5586 422.334 60.1166 422.262 60.6926 422.262ZM61.2686 427.23C60.0446 427.29 59.1326 427.506 58.5326 427.878C57.9446 428.238 57.6506 428.778 57.6506 429.498C57.6506 430.098 57.8306 430.554 58.1906 430.866C58.5626 431.166 59.0726 431.316 59.7206 431.316C60.7166 431.316 61.4906 431.034 62.0426 430.47C62.5946 429.894 62.8766 429.102 62.8886 428.094V427.158L61.2686 427.23ZM73.151 423.306H69.947V432H68.921V423.306H65.735V422.424H73.151V423.306ZM76.0877 429.084C76.0877 429.348 76.0757 429.648 76.0517 429.984C76.0397 430.32 76.0277 430.62 76.0157 430.884L81.6137 422.424H82.8737V432H81.9017V425.322C81.9017 425.058 81.9017 424.758 81.9017 424.422C81.9137 424.074 81.9317 423.774 81.9557 423.522L76.3397 432H75.0977V422.424H76.0877V429.084ZM89.9004 432.18C88.4964 432.18 87.4104 431.748 86.6424 430.884C85.8864 430.02 85.5084 428.814 85.5084 427.266C85.5084 426.186 85.7004 425.274 86.0844 424.53C86.4684 423.786 87.0024 423.222 87.6864 422.838C88.3824 422.442 89.1924 422.244 90.1164 422.244C90.5724 422.244 91.0044 422.286 91.4124 422.37C91.8204 422.454 92.1804 422.568 92.4924 422.712L92.2044 423.594C91.8804 423.462 91.5324 423.36 91.1604 423.288C90.7884 423.204 90.4344 423.162 90.0984 423.162C88.9584 423.162 88.0824 423.528 87.4704 424.26C86.8704 424.992 86.5704 425.988 86.5704 427.248C86.5704 428.448 86.8404 429.42 87.3804 430.164C87.9204 430.896 88.7604 431.262 89.9004 431.262C90.3684 431.262 90.8124 431.214 91.2324 431.118C91.6524 431.022 92.0304 430.902 92.3664 430.758V431.676C92.0544 431.832 91.6944 431.952 91.2864 432.036C90.8904 432.132 90.4284 432.18 89.9004 432.18ZM100.819 423.306H97.615V432H96.589V423.306H93.403V422.424H100.819V423.306ZM103.756 429.084C103.756 429.348 103.744 429.648 103.72 429.984C103.708 430.32 103.696 430.62 103.684 430.884L109.282 422.424H110.542V432H109.57V425.322C109.57 425.058 109.57 424.758 109.57 424.422C109.582 424.074 109.6 423.774 109.624 423.522L104.008 432H102.766V422.424H103.756V429.084ZM114.598 425.682C114.598 426.45 114.79 427.008 115.174 427.356C115.558 427.692 116.116 427.86 116.848 427.86C117.496 427.86 118.078 427.764 118.594 427.572C119.11 427.368 119.614 427.092 120.106 426.744V422.424H121.132V432H120.106V427.608C119.578 427.968 119.05 428.25 118.522 428.454C117.994 428.646 117.376 428.742 116.668 428.742C115.66 428.742 114.892 428.484 114.364 427.968C113.836 427.44 113.572 426.714 113.572 425.79V422.424H114.598V425.682ZM127.935 422.244C128.751 422.244 129.429 422.436 129.969 422.82C130.521 423.192 130.935 423.708 131.211 424.368C131.499 425.028 131.643 425.784 131.643 426.636V427.338H124.803C124.803 428.61 125.097 429.588 125.685 430.272C126.285 430.944 127.137 431.28 128.241 431.28C128.829 431.28 129.345 431.232 129.789 431.136C130.233 431.028 130.719 430.86 131.247 430.632V431.568C130.767 431.784 130.293 431.94 129.825 432.036C129.357 432.132 128.817 432.18 128.205 432.18C126.765 432.18 125.661 431.742 124.893 430.866C124.125 429.99 123.741 428.796 123.741 427.284C123.741 426.312 123.903 425.448 124.227 424.692C124.563 423.936 125.043 423.342 125.667 422.91C126.291 422.466 127.047 422.244 127.935 422.244ZM127.917 423.108C127.041 423.108 126.327 423.402 125.775 423.99C125.235 424.578 124.923 425.412 124.839 426.492H130.581C130.581 425.484 130.359 424.668 129.915 424.044C129.483 423.42 128.817 423.108 127.917 423.108ZM138.064 432.18C136.66 432.18 135.574 431.748 134.806 430.884C134.05 430.02 133.672 428.814 133.672 427.266C133.672 426.186 133.864 425.274 134.248 424.53C134.632 423.786 135.166 423.222 135.85 422.838C136.546 422.442 137.356 422.244 138.28 422.244C138.736 422.244 139.168 422.286 139.576 422.37C139.984 422.454 140.344 422.568 140.656 422.712L140.368 423.594C140.044 423.462 139.696 423.36 139.324 423.288C138.952 423.204 138.598 423.162 138.262 423.162C137.122 423.162 136.246 423.528 135.634 424.26C135.034 424.992 134.734 425.988 134.734 427.248C134.734 428.448 135.004 429.42 135.544 430.164C136.084 430.896 136.924 431.262 138.064 431.262C138.532 431.262 138.976 431.214 139.396 431.118C139.816 431.022 140.194 430.902 140.53 430.758V431.676C140.218 431.832 139.858 431.952 139.45 432.036C139.054 432.132 138.592 432.18 138.064 432.18ZM148.101 422.424H149.271L144.987 427.068L149.541 432H148.299L143.817 427.14V432H142.791V422.424H143.817V427.068L148.101 422.424ZM158.957 427.194C158.957 428.202 158.789 429.078 158.453 429.822C158.129 430.566 157.643 431.148 156.995 431.568C156.359 431.976 155.579 432.18 154.655 432.18C153.767 432.18 153.005 431.976 152.369 431.568C151.733 431.16 151.241 430.584 150.893 429.84C150.557 429.084 150.389 428.202 150.389 427.194C150.389 425.646 150.773 424.434 151.541 423.558C152.309 422.682 153.371 422.244 154.727 422.244C155.639 422.244 156.407 422.454 157.031 422.874C157.667 423.282 158.147 423.858 158.471 424.602C158.795 425.346 158.957 426.21 158.957 427.194ZM151.451 427.194C151.451 428.43 151.709 429.426 152.225 430.182C152.753 430.926 153.569 431.298 154.673 431.298C155.789 431.298 156.605 430.92 157.121 430.164C157.637 429.408 157.895 428.418 157.895 427.194C157.895 426.402 157.787 425.7 157.571 425.088C157.355 424.476 157.013 423.996 156.545 423.648C156.077 423.3 155.465 423.126 154.709 423.126C153.629 423.126 152.813 423.486 152.261 424.206C151.721 424.926 151.451 425.922 151.451 427.194ZM168.476 418.572C168.368 420.252 167.366 421.092 165.47 421.092C164.51 421.092 163.796 420.888 163.328 420.48C162.86 420.072 162.602 419.436 162.554 418.572H163.526C163.574 419.22 163.748 419.676 164.048 419.94C164.36 420.204 164.84 420.336 165.488 420.336C166.1 420.336 166.574 420.204 166.91 419.94C167.246 419.676 167.444 419.22 167.504 418.572H168.476ZM162.554 429.084C162.554 429.348 162.542 429.648 162.518 429.984C162.506 430.32 162.494 430.62 162.482 430.884L168.08 422.424H169.34V432H168.368V425.322C168.368 425.058 168.368 424.758 168.368 424.422C168.38 424.074 168.398 423.774 168.422 423.522L162.806 432H161.564V422.424H162.554V429.084ZM181.043 432.18C179.639 432.18 178.553 431.748 177.785 430.884C177.029 430.02 176.651 428.814 176.651 427.266C176.651 426.186 176.843 425.274 177.227 424.53C177.611 423.786 178.145 423.222 178.829 422.838C179.525 422.442 180.335 422.244 181.259 422.244C181.715 422.244 182.147 422.286 182.555 422.37C182.963 422.454 183.323 422.568 183.635 422.712L183.347 423.594C183.023 423.462 182.675 423.36 182.303 423.288C181.931 423.204 181.577 423.162 181.241 423.162C180.101 423.162 179.225 423.528 178.613 424.26C178.013 424.992 177.713 425.988 177.713 427.248C177.713 428.448 177.983 429.42 178.523 430.164C179.063 430.896 179.903 431.262 181.043 431.262C181.511 431.262 181.955 431.214 182.375 431.118C182.795 431.022 183.173 430.902 183.509 430.758V431.676C183.197 431.832 182.837 431.952 182.429 432.036C182.033 432.132 181.571 432.18 181.043 432.18ZM192.538 432H191.494V423.306H188.254C188.11 425.322 187.918 426.978 187.678 428.274C187.438 429.57 187.102 430.53 186.67 431.154C186.25 431.778 185.692 432.09 184.996 432.09C184.696 432.09 184.462 432.06 184.294 432V431.19C184.414 431.226 184.594 431.244 184.834 431.244C185.566 431.244 186.118 430.53 186.49 429.102C186.862 427.674 187.15 425.448 187.354 422.424H192.538V432ZM194.135 422.424H195.215L197.501 428.364C197.693 428.904 197.861 429.384 198.005 429.804C198.149 430.212 198.263 430.578 198.347 430.902H198.401C198.581 430.302 198.863 429.468 199.247 428.4L201.479 422.424H202.577L198.257 433.692C197.933 434.544 197.549 435.198 197.105 435.654C196.661 436.11 196.061 436.338 195.305 436.338C195.077 436.338 194.867 436.326 194.675 436.302C194.495 436.278 194.327 436.236 194.171 436.176V435.312C194.315 435.36 194.471 435.396 194.639 435.42C194.807 435.456 194.987 435.474 195.179 435.474C195.683 435.474 196.091 435.318 196.403 435.006C196.727 434.694 197.015 434.214 197.267 433.566L197.879 431.964L194.135 422.424ZM214.399 422.424L210.277 427.086L214.723 432H213.499L209.161 427.14V432H208.189V427.14L203.851 432H202.645L207.091 427.086L202.951 422.424H204.121L208.189 427.068V422.424H209.161V427.068L213.229 422.424H214.399ZM215.886 426.24C215.886 424.392 216.12 422.928 216.588 421.848C217.056 420.756 217.77 420 218.73 419.58C219.378 419.232 220.128 418.956 220.98 418.752C221.844 418.548 222.81 418.38 223.878 418.248L224.04 419.166C222.936 419.298 221.958 419.466 221.106 419.67C220.254 419.862 219.576 420.102 219.072 420.39C218.448 420.714 217.956 421.254 217.596 422.01C217.236 422.766 217.032 423.774 216.984 425.034H217.056C217.356 424.494 217.806 424.038 218.406 423.666C219.006 423.282 219.714 423.09 220.53 423.09C221.742 423.09 222.66 423.474 223.284 424.242C223.92 424.998 224.238 426.06 224.238 427.428C224.238 428.892 223.884 430.05 223.176 430.902C222.468 431.754 221.436 432.18 220.08 432.18C219.12 432.18 218.328 431.928 217.704 431.424C217.08 430.908 216.618 430.206 216.318 429.318C216.03 428.418 215.886 427.392 215.886 426.24ZM220.17 431.298C221.166 431.298 221.91 430.968 222.402 430.308C222.906 429.648 223.158 428.712 223.158 427.5C223.158 426.36 222.924 425.49 222.456 424.89C222 424.278 221.316 423.972 220.404 423.972C219.588 423.972 218.886 424.2 218.298 424.656C217.71 425.1 217.254 425.616 216.93 426.204C216.93 426.852 216.978 427.482 217.074 428.094C217.17 428.694 217.338 429.234 217.578 429.714C217.818 430.194 218.148 430.578 218.568 430.866C218.988 431.154 219.522 431.298 220.17 431.298ZM226.832 432V422.424H227.858V426.438H230.972C232.124 426.438 232.97 426.672 233.51 427.14C234.05 427.608 234.32 428.268 234.32 429.12C234.32 430.02 234.038 430.728 233.474 431.244C232.91 431.748 232.022 432 230.81 432H226.832ZM235.85 432V422.424H236.876V432H235.85ZM230.702 431.136C232.43 431.136 233.294 430.476 233.294 429.156C233.294 428.52 233.084 428.058 232.664 427.77C232.256 427.47 231.65 427.32 230.846 427.32H227.858V431.136H230.702ZM243.881 427.068C243.881 425.532 244.103 424.086 244.547 422.73C244.991 421.374 245.645 420.18 246.509 419.148H247.553C246.677 420.24 246.017 421.464 245.573 422.82C245.141 424.176 244.925 425.586 244.925 427.05C244.925 428.49 245.141 429.876 245.573 431.208C246.017 432.528 246.677 433.74 247.553 434.844H246.509C245.645 433.812 244.991 432.636 244.547 431.316C244.103 429.996 243.881 428.58 243.881 427.068ZM259.474 432H258.358L250.906 420.768H250.852C250.876 421.236 250.894 421.734 250.906 422.262C250.93 422.778 250.942 423.318 250.942 423.882V432H249.952V419.148H251.068L258.502 430.344H258.556C258.532 429.972 258.514 429.498 258.502 428.922C258.49 428.346 258.484 427.806 258.484 427.302V419.148H259.474V432ZM262.274 424.26V423.414H270.536V424.26H262.274ZM262.274 427.896V427.032H270.536V427.896H262.274ZM281.557 428.796H279.415V432H278.425V428.796H271.963V427.95L278.353 419.076H279.415V427.86H281.557V428.796ZM278.425 423.09C278.425 422.622 278.425 422.226 278.425 421.902C278.425 421.578 278.431 421.29 278.443 421.038C278.455 420.774 278.467 420.498 278.479 420.21H278.425C278.269 420.486 278.119 420.744 277.975 420.984C277.831 421.224 277.657 421.482 277.453 421.758L273.061 427.86H278.425V423.09ZM290.94 432H282.804V431.136L286.494 427.302C287.106 426.666 287.622 426.096 288.042 425.592C288.462 425.088 288.78 424.584 288.996 424.08C289.212 423.576 289.32 423.012 289.32 422.388C289.32 421.584 289.086 420.966 288.618 420.534C288.15 420.09 287.52 419.868 286.728 419.868C286.152 419.868 285.612 419.97 285.108 420.174C284.604 420.378 284.106 420.672 283.614 421.056L283.056 420.336C283.584 419.904 284.16 419.568 284.784 419.328C285.408 419.088 286.056 418.968 286.728 418.968C287.832 418.968 288.714 419.274 289.374 419.886C290.046 420.498 290.382 421.314 290.382 422.334C290.382 423.03 290.256 423.666 290.004 424.242C289.752 424.818 289.398 425.382 288.942 425.934C288.486 426.486 287.952 427.074 287.34 427.698L284.118 431.01V431.046H290.94V432ZM293.231 426.528C293.231 424.992 293.423 423.66 293.807 422.532C294.191 421.392 294.797 420.51 295.625 419.886C296.465 419.262 297.545 418.95 298.865 418.95C299.513 418.95 300.071 419.016 300.539 419.148V420.066C300.071 419.898 299.519 419.814 298.883 419.814C297.335 419.814 296.189 420.336 295.445 421.38C294.701 422.424 294.299 423.906 294.239 425.826H294.311C294.563 425.37 294.965 424.956 295.517 424.584C296.081 424.212 296.813 424.026 297.713 424.026C298.865 424.026 299.777 424.374 300.449 425.07C301.121 425.754 301.457 426.696 301.457 427.896C301.457 429.192 301.103 430.23 300.395 431.01C299.699 431.79 298.733 432.18 297.497 432.18C296.573 432.18 295.793 431.94 295.157 431.46C294.521 430.968 294.041 430.302 293.717 429.462C293.393 428.61 293.231 427.632 293.231 426.528ZM297.479 431.28C298.403 431.28 299.123 430.992 299.639 430.416C300.167 429.84 300.431 429 300.431 427.896C300.431 426.96 300.191 426.222 299.711 425.682C299.231 425.142 298.511 424.872 297.551 424.872C296.891 424.872 296.315 425.01 295.823 425.286C295.343 425.55 294.971 425.88 294.707 426.276C294.443 426.672 294.311 427.062 294.311 427.446C294.311 427.83 294.365 428.244 294.473 428.688C294.581 429.12 294.755 429.534 294.995 429.93C295.247 430.326 295.577 430.65 295.985 430.902C296.393 431.154 296.891 431.28 297.479 431.28ZM312.406 428.796H310.264V432H309.274V428.796H302.812V427.95L309.202 419.076H310.264V427.86H312.406V428.796ZM309.274 423.09C309.274 422.622 309.274 422.226 309.274 421.902C309.274 421.578 309.28 421.29 309.292 421.038C309.304 420.774 309.316 420.498 309.328 420.21H309.274C309.118 420.486 308.968 420.744 308.824 420.984C308.68 421.224 308.506 421.482 308.302 421.758L303.91 427.86H309.274V423.09ZM321.79 432H313.654V431.136L317.344 427.302C317.956 426.666 318.472 426.096 318.892 425.592C319.312 425.088 319.63 424.584 319.846 424.08C320.062 423.576 320.17 423.012 320.17 422.388C320.17 421.584 319.936 420.966 319.468 420.534C319 420.09 318.37 419.868 317.578 419.868C317.002 419.868 316.462 419.97 315.958 420.174C315.454 420.378 314.956 420.672 314.464 421.056L313.906 420.336C314.434 419.904 315.01 419.568 315.634 419.328C316.258 419.088 316.906 418.968 317.578 418.968C318.682 418.968 319.564 419.274 320.224 419.886C320.896 420.498 321.232 421.314 321.232 422.334C321.232 423.03 321.106 423.666 320.854 424.242C320.602 424.818 320.248 425.382 319.792 425.934C319.336 426.486 318.802 427.074 318.19 427.698L314.968 431.01V431.046H321.79V432ZM327.231 426.996C327.231 428.52 327.009 429.96 326.565 431.316C326.121 432.66 325.467 433.836 324.603 434.844H323.577C324.453 433.752 325.107 432.534 325.539 431.19C325.971 429.846 326.187 428.448 326.187 426.996C326.187 425.532 325.965 424.134 325.521 422.802C325.089 421.458 324.435 420.24 323.559 419.148H324.603C325.467 420.192 326.121 421.38 326.565 422.712C327.009 424.044 327.231 425.472 327.231 426.996Z" fill="#01457A"/>
</svg>
