<svg width="367" height="468" viewBox="0 0 367 468" fill="none" xmlns="http://www.w3.org/2000/svg">
<rect width="367" height="468" rx="20" fill="#FDD966" fill-opacity="0.25"/>
<g clip-path="url(#clip0_1_72)">
<mask id="mask0_1_72" style="mask-type:luminance" maskUnits="userSpaceOnUse" x="132" y="30" width="103" height="134">
<path d="M235 30H132V164H235V30Z" fill="white"/>
</mask>
<g mask="url(#mask0_1_72)">
<path fill-rule="evenodd" clip-rule="evenodd" d="M196.084 80.8276C207.887 80.8276 215.425 69.4099 216.338 60.2932C222.836 58.7499 229.04 45.0774 223.478 46.3019C220.837 46.8563 219.269 44.5136 216.708 40.3042C213.908 35.7158 210.425 30 203.486 30C199.184 30 196.815 31.0812 195.64 31.8898C193.884 31.5756 190.045 31.3215 186.716 34.0847C183.336 36.8895 181.543 41.8982 181.327 48.9355C180.405 49.6379 179.665 50.8947 179.225 52.5766C178.382 55.7741 178.738 60.0622 181.309 62.5435C181.613 69.4099 184.956 80.8276 196.084 80.8276ZM196.084 76.7614C185.162 76.7614 184.989 62.1323 184.989 61.5131C184.984 60.8154 184.656 60.1639 184.122 59.7942C182.077 58.3803 182.184 53.815 183.345 52.3688C187.006 52.4797 186.056 54.8963 188.186 54.3418C191.538 53.4639 194.254 51.1582 195.878 49.467C198.35 52.9464 204.062 59.4846 212.593 60.3949C211.666 67.0857 206.15 76.7614 196.084 76.7614ZM188.912 37.3562C191.815 34.9257 195.546 36.0162 195.579 36.0208C197.414 36.5984 196.969 34.0662 203.486 34.0662C208.449 34.0662 210.968 38.1971 213.632 42.5729C215.598 45.7936 217.78 49.3376 221.081 50.234C219.906 52.817 217.71 56.4303 214.582 56.4303C204.006 56.4303 197.728 45.3222 197.667 45.2113C196.983 43.9775 195.415 43.9268 194.633 44.9988C194.605 45.0404 191.955 48.6537 188.299 50.0722C187.615 49.4669 186.552 48.8108 185.035 48.4966C185.27 43.0765 186.566 39.3246 188.912 37.3562Z" fill="#01457A"/>
<path fill-rule="evenodd" clip-rule="evenodd" d="M230.656 89.5979C228.282 85.2961 217.149 77.2791 215.444 76.4243C214.433 75.9206 213.202 76.3226 212.691 77.3207C212.181 78.3188 212.584 79.5386 213.595 80.0422C215.22 80.8601 225.342 88.4288 227.055 91.5385C228.16 93.5532 229.794 109.028 230.801 123.412C227.599 124.272 219.873 125.912 213.792 123.865C216.811 116.694 219.213 110.867 220.632 102.933C220.829 101.833 220.084 100.775 218.97 100.581C217.837 100.387 216.793 101.122 216.596 102.226C215.215 109.943 212.78 115.728 210.201 121.855C208.539 125.796 206.858 129.802 205.468 134.363C205.463 134.377 205.458 134.386 205.458 134.395C203.571 140.592 202.228 147.819 202.228 157.351C202.228 158.469 203.145 159.38 204.278 159.38C205.411 159.38 206.324 158.469 206.324 157.351C206.324 153.992 206.502 150.961 206.807 148.16C207.588 153.497 208.356 157.457 208.412 157.735C208.6 158.705 209.456 159.38 210.416 159.38C210.547 159.38 210.678 159.366 210.809 159.343C211.919 159.13 212.645 158.067 212.429 156.968C212.406 156.852 210.205 145.518 209.47 135.25C210.299 132.575 211.245 130.07 212.237 127.608C214.934 128.555 217.823 128.92 220.594 128.92C227.303 128.92 233.245 126.938 233.614 126.813C234.49 126.517 235.057 125.672 234.996 124.761C234.654 119.577 232.814 93.5255 230.656 89.5979Z" fill="#01457A"/>
<path fill-rule="evenodd" clip-rule="evenodd" d="M206.909 106.149C206.909 103.095 204.563 100.008 199.315 100.008C193.074 100.008 173.949 109.046 162.806 114.591C163.111 113.699 163.377 112.886 163.579 112.244C165.185 111.939 164.623 111.246 172.493 96.9308C173.743 94.5789 170.442 92.5413 169.197 94.8978L162.146 108.21C153.878 108.071 147.113 102.06 144.716 99.634C149.065 91.0765 160.189 72.6122 169.197 71.3276C174.684 70.5467 177.872 71.7204 177.915 71.7388C178.898 72.1131 179.979 71.5726 180.335 70.5191C180.695 69.4563 180.195 68.278 179.207 67.8899C179.048 67.8252 175.199 66.342 168.696 67.2707C155.301 69.1791 141.284 97.8412 140.694 99.0611C140.324 99.8189 140.432 100.748 140.97 101.381C141.322 101.801 148.925 110.691 159.604 112.105C159.094 113.639 158.396 115.617 157.685 117.169C156.317 117.867 155.32 118.385 154.833 118.639C153.892 119.129 153.494 120.353 153.953 121.37C154.407 122.386 155.535 122.816 156.486 122.322C166.215 117.257 192.864 104.102 199.315 104.102C201.071 104.102 203.112 104.638 203.112 106.149C203.112 117.645 156.631 137.246 149.969 137.246C145.264 137.246 140.479 130.759 140.479 127.136C140.479 123.2 142.553 116.8 143.793 112.974C143.803 112.761 145.222 110.035 142.993 109.203C140.774 108.381 140.343 111.421 140.207 111.625C138.892 115.691 136.682 122.502 136.682 127.136C136.682 133.042 142.909 140.883 149.435 141.299C148.934 145.166 148.068 152.532 148.068 157.333C148.068 158.465 148.92 159.38 149.969 159.38C151.018 159.38 151.865 158.465 151.865 157.333C151.865 152.319 152.909 143.979 153.344 140.726C166.51 137.311 206.909 120.025 206.909 106.149Z" fill="#01457A"/>
<path fill-rule="evenodd" clip-rule="evenodd" d="M228.122 146.386V133.651C228.122 132.552 227.569 131.655 226.881 131.655C226.193 131.655 225.636 132.552 225.636 133.651V146.386C225.636 151.196 227.86 158.021 227.958 158.307C228.721 160.632 230.931 158.793 230.154 156.441C229.592 154.722 228.122 149.565 228.122 146.386Z" fill="#01457A"/>
<path fill-rule="evenodd" clip-rule="evenodd" d="M191.431 98.9363C193.655 97.4854 196.82 97.0141 199.69 97.7026C200.696 97.9475 201.783 97.5685 202.124 96.8616C202.466 96.1546 201.932 95.3876 200.931 95.1473C196.722 94.1354 192.091 94.8284 188.833 96.9539C186.941 98.1877 189.6 100.128 191.431 98.9363Z" fill="#01457A"/>
<path fill-rule="evenodd" clip-rule="evenodd" d="M199.816 122.927C198.669 124.419 196.525 125.048 194.619 124.452C193.926 124.235 193.173 124.563 192.938 125.182C192.695 125.796 193.065 126.471 193.753 126.684C194.516 126.919 195.307 127.035 196.085 127.035C198.397 127.035 200.635 126.032 201.993 124.262C202.41 123.722 202.255 122.987 201.656 122.617C201.052 122.252 200.228 122.391 199.816 122.927Z" fill="#01457A"/>
<path fill-rule="evenodd" clip-rule="evenodd" d="M206.408 127.788C205.687 126.854 204.456 126.776 203.655 127.621C198.856 132.649 191.838 133.106 186.585 128.735C185.71 128.009 184.492 128.245 183.865 129.266C183.238 130.283 183.439 131.701 184.315 132.431C187.409 135.005 190.981 136.276 194.53 136.276C198.735 136.276 202.92 134.497 206.263 130.994C207.063 130.158 207.129 128.721 206.408 127.788Z" fill="#01457A"/>
<path fill-rule="evenodd" clip-rule="evenodd" d="M192.859 87.3937C192.784 86.2293 191.978 85.3561 191.089 85.4578C185.869 86.0122 181.234 90.1616 178.996 96.284C178.064 98.8346 181.037 100.614 181.96 98.0906C183.701 93.3313 187.302 90.1061 191.361 89.6718C192.26 89.5794 192.929 88.5581 192.859 87.3937Z" fill="#01457A"/>
</g>
</g>
<path d="M72.9406 238.224C77.1006 238.224 80.8126 239.024 84.0766 240.624C87.3406 242.224 89.9006 244.56 91.7566 247.632C93.6766 250.704 94.6366 254.512 94.6366 259.056C94.6366 266.48 92.3326 272.336 87.7246 276.624C83.1166 280.848 76.3006 282.96 67.2766 282.96C63.6926 282.96 60.3006 282.64 57.1006 282C53.9646 281.36 51.2126 280.432 48.8446 279.216V266.736C51.2126 267.952 54.0606 269.008 57.3886 269.904C60.7166 270.736 63.8526 271.152 66.7966 271.152C71.0846 271.152 74.3486 270.288 76.5886 268.56C78.8926 266.768 80.0446 264.016 80.0446 260.304C80.0446 253.392 75.4686 249.936 66.3166 249.936C64.5246 249.936 62.6686 250.128 60.7486 250.512C58.8286 250.832 57.2286 251.152 55.9486 251.472L50.1886 248.4L52.7806 213.456H89.9326V225.744H65.4526L64.2046 239.184C65.2926 238.992 66.4446 238.8 67.6606 238.608C68.9406 238.352 70.7006 238.224 72.9406 238.224ZM127.878 238.224C132.038 238.224 135.75 239.024 139.014 240.624C142.278 242.224 144.838 244.56 146.694 247.632C148.614 250.704 149.574 254.512 149.574 259.056C149.574 266.48 147.27 272.336 142.662 276.624C138.054 280.848 131.238 282.96 122.214 282.96C118.63 282.96 115.238 282.64 112.038 282C108.902 281.36 106.15 280.432 103.782 279.216V266.736C106.15 267.952 108.998 269.008 112.326 269.904C115.654 270.736 118.79 271.152 121.734 271.152C126.022 271.152 129.286 270.288 131.526 268.56C133.83 266.768 134.982 264.016 134.982 260.304C134.982 253.392 130.406 249.936 121.254 249.936C119.462 249.936 117.606 250.128 115.686 250.512C113.766 250.832 112.166 251.152 110.886 251.472L105.126 248.4L107.718 213.456H144.87V225.744H120.39L119.142 239.184C120.23 238.992 121.382 238.8 122.598 238.608C123.878 238.352 125.638 238.224 127.878 238.224ZM175.52 271.92C174.688 275.312 173.504 279.024 171.968 283.056C170.432 287.088 168.864 290.864 167.264 294.384H156.992C157.888 290.608 158.784 286.576 159.68 282.288C160.576 278 161.248 274.192 161.696 270.864H174.848L175.52 271.92ZM230.447 228.816C230.447 233.552 229.007 237.328 226.127 240.144C223.311 242.96 219.823 244.88 215.663 245.904V246.192C221.167 246.832 225.327 248.496 228.143 251.184C231.023 253.872 232.463 257.488 232.463 262.032C232.463 266 231.471 269.584 229.487 272.784C227.567 275.92 224.559 278.416 220.463 280.272C216.431 282.064 211.215 282.96 204.815 282.96C197.391 282.96 190.799 281.712 185.039 279.216V266.928C187.983 268.4 191.055 269.52 194.255 270.288C197.519 271.056 200.527 271.44 203.279 271.44C208.463 271.44 212.079 270.544 214.127 268.752C216.239 266.96 217.295 264.432 217.295 261.168C217.295 259.248 216.815 257.648 215.855 256.368C214.895 255.024 213.199 254.032 210.767 253.392C208.399 252.688 205.071 252.336 200.783 252.336H195.599V241.2H200.879C205.103 241.2 208.303 240.816 210.479 240.048C212.719 239.216 214.223 238.128 214.991 236.784C215.823 235.376 216.239 233.776 216.239 231.984C216.239 229.552 215.471 227.664 213.935 226.32C212.463 224.912 209.967 224.208 206.447 224.208C203.183 224.208 200.335 224.784 197.903 225.936C195.535 227.024 193.519 228.112 191.855 229.2L185.135 219.216C187.823 217.296 190.959 215.696 194.543 214.416C198.191 213.136 202.511 212.496 207.503 212.496C214.543 212.496 220.111 213.936 224.207 216.816C228.367 219.632 230.447 223.632 230.447 228.816ZM255.432 212.496C260.808 212.496 264.872 214.384 267.624 218.16C270.44 221.872 271.848 227.12 271.848 233.904C271.848 240.688 270.536 246 267.912 249.84C265.288 253.616 261.128 255.504 255.432 255.504C250.184 255.504 246.184 253.616 243.432 249.84C240.68 246 239.304 240.688 239.304 233.904C239.304 227.12 240.584 221.872 243.144 218.16C245.704 214.384 249.8 212.496 255.432 212.496ZM304.104 213.456L266.088 282H254.856L292.872 213.456H304.104ZM255.528 222.288C252.584 222.288 251.112 226.192 251.112 234C251.112 241.872 252.584 245.808 255.528 245.808C258.536 245.808 260.04 241.872 260.04 234C260.04 226.192 258.536 222.288 255.528 222.288ZM303.432 239.856C308.808 239.856 312.872 241.744 315.624 245.52C318.44 249.232 319.848 254.48 319.848 261.264C319.848 268.048 318.536 273.36 315.912 277.2C313.288 280.976 309.128 282.864 303.432 282.864C298.184 282.864 294.184 280.976 291.432 277.2C288.68 273.36 287.304 268.048 287.304 261.264C287.304 254.48 288.584 249.232 291.144 245.52C293.704 241.744 297.8 239.856 303.432 239.856ZM303.528 249.648C300.584 249.648 299.112 253.552 299.112 261.36C299.112 269.232 300.584 273.168 303.528 273.168C306.536 273.168 308.04 269.232 308.04 261.36C308.04 253.552 306.536 249.648 303.528 249.648Z" fill="#01457A"/>
<path d="M36.74 317.064V331H34.452V319.014H27.25V331H24.962V317.064H36.74ZM46.4646 316.83C48.1632 316.83 49.4199 317.203 50.2346 317.948C51.0492 318.693 51.4566 319.881 51.4566 321.51V331H49.7926L49.3506 329.024H49.2466C48.8479 329.527 48.4319 329.951 47.9986 330.298C47.5826 330.627 47.0972 330.87 46.5426 331.026C46.0052 331.182 45.3466 331.26 44.5666 331.26C43.7346 331.26 42.9806 331.113 42.3046 330.818C41.6459 330.523 41.1259 330.073 40.7446 329.466C40.3632 328.842 40.1726 328.062 40.1726 327.126C40.1726 325.739 40.7186 324.673 41.8106 323.928C42.9026 323.165 44.5839 322.749 46.8546 322.68L49.2206 322.602V321.77C49.2206 320.609 48.9692 319.803 48.4666 319.352C47.9639 318.901 47.2532 318.676 46.3346 318.676C45.6066 318.676 44.9132 318.789 44.2546 319.014C43.5959 319.222 42.9806 319.465 42.4086 319.742L41.7066 318.026C42.3132 317.697 43.0326 317.419 43.8646 317.194C44.6966 316.951 45.5632 316.83 46.4646 316.83ZM47.1406 324.266C45.4072 324.335 44.2026 324.613 43.5266 325.098C42.8679 325.583 42.5386 326.268 42.5386 327.152C42.5386 327.932 42.7726 328.504 43.2406 328.868C43.7259 329.232 44.3412 329.414 45.0866 329.414C46.2652 329.414 47.2446 329.093 48.0246 328.452C48.8046 327.793 49.1946 326.788 49.1946 325.436V324.188L47.1406 324.266ZM69.5148 335.836H67.2788V331H55.7608V317.064H58.0488V329.076H65.2508V317.064H67.5388V329.102H69.5148V335.836ZM74.3465 325.566C74.3465 325.722 74.3378 325.947 74.3205 326.242C74.3205 326.519 74.3118 326.823 74.2945 327.152C74.2772 327.464 74.2598 327.767 74.2425 328.062C74.2252 328.339 74.2078 328.565 74.1905 328.738L81.6525 317.064H84.4605V331H82.3285V322.784C82.3285 322.507 82.3285 322.143 82.3285 321.692C82.3458 321.241 82.3632 320.799 82.3805 320.366C82.3978 319.915 82.4152 319.577 82.4325 319.352L75.0225 331H72.1885V317.064H74.3465V325.566ZM94.2775 316.804C95.4735 316.804 96.4962 317.064 97.3455 317.584C98.2122 318.104 98.8709 318.841 99.3215 319.794C99.7895 320.73 100.024 321.831 100.024 323.096V324.474H90.4815C90.5162 326.051 90.9149 327.256 91.6775 328.088C92.4575 328.903 93.5409 329.31 94.9275 329.31C95.8115 329.31 96.5915 329.232 97.2675 329.076C97.9609 328.903 98.6715 328.66 99.3995 328.348V330.35C98.6889 330.662 97.9869 330.887 97.2935 331.026C96.6002 331.182 95.7769 331.26 94.8235 331.26C93.5062 331.26 92.3362 330.991 91.3135 330.454C90.3082 329.917 89.5195 329.119 88.9475 328.062C88.3929 326.987 88.1155 325.679 88.1155 324.136C88.1155 322.611 88.3669 321.302 88.8695 320.21C89.3895 319.118 90.1089 318.277 91.0275 317.688C91.9635 317.099 93.0469 316.804 94.2775 316.804ZM94.2515 318.676C93.1595 318.676 92.2929 319.031 91.6515 319.742C91.0275 320.435 90.6549 321.406 90.5335 322.654H97.6315C97.6315 321.857 97.5102 321.163 97.2675 320.574C97.0249 319.985 96.6522 319.525 96.1495 319.196C95.6642 318.849 95.0315 318.676 94.2515 318.676ZM105.859 317.064V322.862H113.425V317.064H115.713V331H113.425V324.786H105.859V331H103.571V317.064H105.859ZM129.746 318.988H125.196V331H122.934V318.988H118.436V317.064H129.746V318.988ZM144.353 324.006C144.353 325.167 144.197 326.199 143.885 327.1C143.591 327.984 143.157 328.738 142.585 329.362C142.031 329.986 141.346 330.463 140.531 330.792C139.734 331.104 138.841 331.26 137.853 331.26C136.935 331.26 136.085 331.104 135.305 330.792C134.525 330.463 133.849 329.986 133.277 329.362C132.705 328.738 132.255 327.984 131.925 327.1C131.613 326.199 131.457 325.167 131.457 324.006C131.457 322.463 131.717 321.163 132.237 320.106C132.757 319.031 133.503 318.217 134.473 317.662C135.444 317.09 136.597 316.804 137.931 316.804C139.197 316.804 140.306 317.09 141.259 317.662C142.23 318.217 142.984 319.031 143.521 320.106C144.076 321.163 144.353 322.463 144.353 324.006ZM133.823 324.006C133.823 325.098 133.962 326.051 134.239 326.866C134.534 327.663 134.985 328.279 135.591 328.712C136.198 329.145 136.969 329.362 137.905 329.362C138.841 329.362 139.613 329.145 140.219 328.712C140.826 328.279 141.268 327.663 141.545 326.866C141.84 326.051 141.987 325.098 141.987 324.006C141.987 322.897 141.84 321.952 141.545 321.172C141.251 320.392 140.8 319.794 140.193 319.378C139.604 318.945 138.833 318.728 137.879 318.728C136.458 318.728 135.427 319.196 134.785 320.132C134.144 321.068 133.823 322.359 133.823 324.006ZM159.186 320.574C159.186 321.441 158.926 322.117 158.406 322.602C157.886 323.087 157.218 323.417 156.404 323.59V323.694C157.27 323.815 158.024 324.127 158.666 324.63C159.307 325.115 159.628 325.878 159.628 326.918C159.628 327.507 159.515 328.053 159.29 328.556C159.082 329.059 158.752 329.492 158.302 329.856C157.851 330.22 157.27 330.506 156.56 330.714C155.849 330.905 154.991 331 153.986 331H147.98V317.064H153.96C154.948 317.064 155.832 317.177 156.612 317.402C157.409 317.61 158.033 317.974 158.484 318.494C158.952 318.997 159.186 319.69 159.186 320.574ZM157.262 326.918C157.262 326.121 156.958 325.549 156.352 325.202C155.745 324.855 154.852 324.682 153.674 324.682H150.268V329.154H153.726C154.87 329.154 155.745 328.989 156.352 328.66C156.958 328.313 157.262 327.733 157.262 326.918ZM156.872 320.86C156.872 320.201 156.629 319.725 156.144 319.43C155.676 319.118 154.904 318.962 153.83 318.962H150.268V322.784H153.414C154.54 322.784 155.398 322.628 155.988 322.316C156.577 322.004 156.872 321.519 156.872 320.86ZM175.304 331.26C174.073 331.26 172.973 331.009 172.002 330.506C171.049 330.003 170.295 329.223 169.74 328.166C169.203 327.109 168.934 325.757 168.934 324.11C168.934 322.394 169.22 320.999 169.792 319.924C170.364 318.849 171.135 318.061 172.106 317.558C173.094 317.055 174.212 316.804 175.46 316.804C176.171 316.804 176.855 316.882 177.514 317.038C178.173 317.177 178.71 317.35 179.126 317.558L178.424 319.456C178.008 319.3 177.523 319.153 176.968 319.014C176.413 318.875 175.893 318.806 175.408 318.806C174.472 318.806 173.701 319.005 173.094 319.404C172.487 319.803 172.037 320.392 171.742 321.172C171.447 321.952 171.3 322.923 171.3 324.084C171.3 325.193 171.447 326.138 171.742 326.918C172.037 327.698 172.479 328.287 173.068 328.686C173.657 329.085 174.394 329.284 175.278 329.284C176.041 329.284 176.708 329.206 177.28 329.05C177.869 328.894 178.407 328.703 178.892 328.478V330.506C178.424 330.749 177.904 330.931 177.332 331.052C176.777 331.191 176.101 331.26 175.304 331.26ZM192.522 322.42C192.522 322.715 192.505 323.079 192.47 323.512C192.453 323.945 192.427 324.387 192.392 324.838C192.375 325.289 192.349 325.687 192.314 326.034C192.279 326.381 192.253 326.623 192.236 326.762L198.788 316.804H203.442V331H199.698V325.332C199.698 324.864 199.715 324.353 199.75 323.798C199.785 323.226 199.819 322.697 199.854 322.212C199.906 321.709 199.941 321.328 199.958 321.068L193.432 331H188.778V316.804H192.522V322.42ZM211.365 316.804V322.264H216.773V316.804H220.647V331H216.773V325.15H211.365V331H207.491V316.804H211.365ZM235.08 316.726C236.726 316.865 238.113 317.255 239.24 317.896C240.366 318.52 241.216 319.343 241.788 320.366C242.377 321.389 242.672 322.567 242.672 323.902C242.672 325.219 242.386 326.398 241.814 327.438C241.259 328.478 240.418 329.319 239.292 329.96C238.182 330.584 236.778 330.965 235.08 331.104V337.24H231.492V331.104C229.862 330.948 228.476 330.558 227.332 329.934C226.205 329.293 225.338 328.461 224.732 327.438C224.142 326.398 223.848 325.219 223.848 323.902C223.848 322.55 224.116 321.354 224.654 320.314C225.208 319.274 226.049 318.442 227.176 317.818C228.32 317.194 229.758 316.83 231.492 316.726V311.24H235.08V316.726ZM231.492 319.638C230.746 319.742 230.096 319.993 229.542 320.392C228.987 320.773 228.562 321.267 228.268 321.874C227.973 322.463 227.826 323.139 227.826 323.902C227.826 324.665 227.964 325.349 228.242 325.956C228.536 326.563 228.952 327.057 229.49 327.438C230.044 327.819 230.712 328.062 231.492 328.166V319.638ZM235.08 328.166C235.86 328.062 236.518 327.819 237.056 327.438C237.593 327.057 238 326.563 238.278 325.956C238.555 325.349 238.694 324.665 238.694 323.902C238.694 323.139 238.546 322.463 238.252 321.874C237.957 321.267 237.541 320.773 237.004 320.392C236.466 320.011 235.825 319.777 235.08 319.69V328.166ZM251.706 316.518C253.612 316.518 255.068 316.934 256.074 317.766C257.096 318.581 257.608 319.837 257.608 321.536V331H254.904L254.15 329.076H254.046C253.647 329.579 253.231 329.995 252.798 330.324C252.382 330.653 251.896 330.887 251.342 331.026C250.804 331.182 250.137 331.26 249.34 331.26C248.508 331.26 247.754 331.104 247.078 330.792C246.419 330.463 245.899 329.969 245.518 329.31C245.136 328.634 244.946 327.785 244.946 326.762C244.946 325.254 245.474 324.145 246.532 323.434C247.589 322.706 249.175 322.307 251.29 322.238L253.76 322.16V321.536C253.76 320.791 253.56 320.245 253.162 319.898C252.78 319.551 252.243 319.378 251.55 319.378C250.856 319.378 250.18 319.482 249.522 319.69C248.863 319.881 248.204 320.123 247.546 320.418L246.272 317.792C247.034 317.393 247.875 317.081 248.794 316.856C249.73 316.631 250.7 316.518 251.706 316.518ZM252.252 324.474C251.004 324.509 250.137 324.734 249.652 325.15C249.166 325.566 248.924 326.112 248.924 326.788C248.924 327.377 249.097 327.802 249.444 328.062C249.79 328.305 250.241 328.426 250.796 328.426C251.628 328.426 252.33 328.183 252.902 327.698C253.474 327.195 253.76 326.493 253.76 325.592V324.422L252.252 324.474ZM269.477 316.544C271.072 316.544 272.363 317.168 273.351 318.416C274.339 319.647 274.833 321.467 274.833 323.876C274.833 325.488 274.599 326.849 274.131 327.958C273.663 329.05 273.022 329.873 272.207 330.428C271.392 330.983 270.448 331.26 269.373 331.26C268.697 331.26 268.108 331.173 267.605 331C267.12 330.827 266.704 330.601 266.357 330.324C266.01 330.047 265.707 329.752 265.447 329.44H265.239C265.308 329.769 265.36 330.116 265.395 330.48C265.43 330.827 265.447 331.173 265.447 331.52V337.24H261.573V316.804H264.719L265.265 318.65H265.447C265.707 318.269 266.019 317.922 266.383 317.61C266.747 317.281 267.18 317.021 267.683 316.83C268.203 316.639 268.801 316.544 269.477 316.544ZM268.229 319.638C267.553 319.638 267.016 319.777 266.617 320.054C266.218 320.331 265.924 320.756 265.733 321.328C265.56 321.883 265.464 322.585 265.447 323.434V323.85C265.447 324.769 265.534 325.549 265.707 326.19C265.88 326.814 266.175 327.291 266.591 327.62C267.007 327.949 267.57 328.114 268.281 328.114C268.87 328.114 269.356 327.949 269.737 327.62C270.118 327.291 270.404 326.805 270.595 326.164C270.786 325.523 270.881 324.743 270.881 323.824C270.881 322.437 270.664 321.397 270.231 320.704C269.815 319.993 269.148 319.638 268.229 319.638ZM287.334 316.804H291.598L285.982 323.616L292.092 331H287.698L281.9 323.798V331H278.026V316.804H281.9V323.694L287.334 316.804ZM305.876 319.716H301.222V331H297.348V319.716H292.694V316.804H305.876V319.716ZM321.137 323.876C321.137 325.055 320.972 326.103 320.643 327.022C320.331 327.941 319.872 328.721 319.265 329.362C318.676 329.986 317.956 330.463 317.107 330.792C316.258 331.104 315.296 331.26 314.221 331.26C313.233 331.26 312.314 331.104 311.465 330.792C310.633 330.463 309.914 329.986 309.307 329.362C308.7 328.721 308.224 327.941 307.877 327.022C307.548 326.103 307.383 325.055 307.383 323.876C307.383 322.299 307.66 320.973 308.215 319.898C308.77 318.806 309.567 317.974 310.607 317.402C311.647 316.83 312.878 316.544 314.299 316.544C315.634 316.544 316.812 316.83 317.835 317.402C318.858 317.974 319.664 318.806 320.253 319.898C320.842 320.973 321.137 322.299 321.137 323.876ZM311.335 323.876C311.335 324.812 311.43 325.601 311.621 326.242C311.829 326.866 312.15 327.343 312.583 327.672C313.016 327.984 313.58 328.14 314.273 328.14C314.966 328.14 315.521 327.984 315.937 327.672C316.37 327.343 316.682 326.866 316.873 326.242C317.081 325.601 317.185 324.812 317.185 323.876C317.185 322.94 317.081 322.16 316.873 321.536C316.682 320.912 316.37 320.444 315.937 320.132C315.504 319.82 314.94 319.664 314.247 319.664C313.224 319.664 312.479 320.019 312.011 320.73C311.56 321.423 311.335 322.472 311.335 323.876ZM342.227 316.804V331H338.613V324.032C338.613 323.339 338.621 322.663 338.639 322.004C338.673 321.345 338.717 320.739 338.769 320.184H338.691L334.765 331H331.853L327.875 320.158H327.771C327.84 320.73 327.883 321.345 327.901 322.004C327.935 322.645 327.953 323.356 327.953 324.136V331H324.339V316.804H329.825L333.361 326.424L336.949 316.804H342.227ZM129.897 351.804V366H126.283V359.032C126.283 358.339 126.292 357.663 126.309 357.004C126.344 356.345 126.387 355.739 126.439 355.184H126.361L122.435 366H119.523L115.545 355.158H115.441C115.511 355.73 115.554 356.345 115.571 357.004C115.606 357.645 115.623 358.356 115.623 359.136V366H112.009V351.804H117.495L121.031 361.424L124.619 351.804H129.897ZM137.691 357.42C137.691 357.715 137.674 358.079 137.639 358.512C137.622 358.945 137.596 359.387 137.561 359.838C137.544 360.289 137.518 360.687 137.483 361.034C137.448 361.381 137.422 361.623 137.405 361.762L143.957 351.804H148.611V366H144.867V360.332C144.867 359.864 144.884 359.353 144.919 358.798C144.954 358.226 144.988 357.697 145.023 357.212C145.075 356.709 145.11 356.328 145.127 356.068L138.601 366H133.947V351.804H137.691V357.42ZM165.556 358.876C165.556 360.055 165.391 361.103 165.062 362.022C164.75 362.941 164.291 363.721 163.684 364.362C163.095 364.986 162.375 365.463 161.526 365.792C160.677 366.104 159.715 366.26 158.64 366.26C157.652 366.26 156.733 366.104 155.884 365.792C155.052 365.463 154.333 364.986 153.726 364.362C153.119 363.721 152.643 362.941 152.296 362.022C151.967 361.103 151.802 360.055 151.802 358.876C151.802 357.299 152.079 355.973 152.634 354.898C153.189 353.806 153.986 352.974 155.026 352.402C156.066 351.83 157.297 351.544 158.718 351.544C160.053 351.544 161.231 351.83 162.254 352.402C163.277 352.974 164.083 353.806 164.672 354.898C165.261 355.973 165.556 357.299 165.556 358.876ZM155.754 358.876C155.754 359.812 155.849 360.601 156.04 361.242C156.248 361.866 156.569 362.343 157.002 362.672C157.435 362.984 157.999 363.14 158.692 363.14C159.385 363.14 159.94 362.984 160.356 362.672C160.789 362.343 161.101 361.866 161.292 361.242C161.5 360.601 161.604 359.812 161.604 358.876C161.604 357.94 161.5 357.16 161.292 356.536C161.101 355.912 160.789 355.444 160.356 355.132C159.923 354.82 159.359 354.664 158.666 354.664C157.643 354.664 156.898 355.019 156.43 355.73C155.979 356.423 155.754 357.472 155.754 358.876ZM178.065 351.804H182.329L176.713 358.616L182.823 366H178.429L172.631 358.798V366H168.757V351.804H172.631V358.694L178.065 351.804ZM190.679 351.518C192.586 351.518 194.042 351.934 195.047 352.766C196.07 353.581 196.581 354.837 196.581 356.536V366H193.877L193.123 364.076H193.019C192.62 364.579 192.204 364.995 191.771 365.324C191.355 365.653 190.87 365.887 190.315 366.026C189.778 366.182 189.11 366.26 188.313 366.26C187.481 366.26 186.727 366.104 186.051 365.792C185.392 365.463 184.872 364.969 184.491 364.31C184.11 363.634 183.919 362.785 183.919 361.762C183.919 360.254 184.448 359.145 185.505 358.434C186.562 357.706 188.148 357.307 190.263 357.238L192.733 357.16V356.536C192.733 355.791 192.534 355.245 192.135 354.898C191.754 354.551 191.216 354.378 190.523 354.378C189.83 354.378 189.154 354.482 188.495 354.69C187.836 354.881 187.178 355.123 186.519 355.418L185.245 352.792C186.008 352.393 186.848 352.081 187.767 351.856C188.703 351.631 189.674 351.518 190.679 351.518ZM191.225 359.474C189.977 359.509 189.11 359.734 188.625 360.15C188.14 360.566 187.897 361.112 187.897 361.788C187.897 362.377 188.07 362.802 188.417 363.062C188.764 363.305 189.214 363.426 189.769 363.426C190.601 363.426 191.303 363.183 191.875 362.698C192.447 362.195 192.733 361.493 192.733 360.592V359.422L191.225 359.474ZM208.451 351.544C210.045 351.544 211.337 352.168 212.325 353.416C213.313 354.647 213.807 356.467 213.807 358.876C213.807 360.488 213.573 361.849 213.105 362.958C212.637 364.05 211.995 364.873 211.181 365.428C210.366 365.983 209.421 366.26 208.347 366.26C207.671 366.26 207.081 366.173 206.579 366C206.093 365.827 205.677 365.601 205.331 365.324C204.984 365.047 204.681 364.752 204.421 364.44H204.213C204.282 364.769 204.334 365.116 204.369 365.48C204.403 365.827 204.421 366.173 204.421 366.52V372.24H200.547V351.804H203.693L204.239 353.65H204.421C204.681 353.269 204.993 352.922 205.357 352.61C205.721 352.281 206.154 352.021 206.657 351.83C207.177 351.639 207.775 351.544 208.451 351.544ZM207.203 354.638C206.527 354.638 205.989 354.777 205.591 355.054C205.192 355.331 204.897 355.756 204.707 356.328C204.533 356.883 204.438 357.585 204.421 358.434V358.85C204.421 359.769 204.507 360.549 204.681 361.19C204.854 361.814 205.149 362.291 205.565 362.62C205.981 362.949 206.544 363.114 207.255 363.114C207.844 363.114 208.329 362.949 208.711 362.62C209.092 362.291 209.378 361.805 209.569 361.164C209.759 360.523 209.855 359.743 209.855 358.824C209.855 357.437 209.638 356.397 209.205 355.704C208.789 354.993 208.121 354.638 207.203 354.638ZM229.766 351.804V363.166H231.846V371.096H228.362V366H218.82V371.096H215.336V363.166H216.532C217.156 362.213 217.684 361.129 218.118 359.916C218.551 358.685 218.898 357.377 219.158 355.99C219.418 354.603 219.608 353.208 219.73 351.804H229.766ZM222.98 354.716C222.841 355.756 222.668 356.77 222.46 357.758C222.252 358.729 221.992 359.665 221.68 360.566C221.385 361.467 221.021 362.334 220.588 363.166H225.892V354.716H222.98ZM240.089 351.518C241.996 351.518 243.452 351.934 244.457 352.766C245.48 353.581 245.991 354.837 245.991 356.536V366H243.287L242.533 364.076H242.429C242.031 364.579 241.615 364.995 241.181 365.324C240.765 365.653 240.28 365.887 239.725 366.026C239.188 366.182 238.521 366.26 237.723 366.26C236.891 366.26 236.137 366.104 235.461 365.792C234.803 365.463 234.283 364.969 233.901 364.31C233.52 363.634 233.329 362.785 233.329 361.762C233.329 360.254 233.858 359.145 234.915 358.434C235.973 357.706 237.559 357.307 239.673 357.238L242.143 357.16V356.536C242.143 355.791 241.944 355.245 241.545 354.898C241.164 354.551 240.627 354.378 239.933 354.378C239.24 354.378 238.564 354.482 237.905 354.69C237.247 354.881 236.588 355.123 235.929 355.418L234.655 352.792C235.418 352.393 236.259 352.081 237.177 351.856C238.113 351.631 239.084 351.518 240.089 351.518ZM240.635 359.474C239.387 359.509 238.521 359.734 238.035 360.15C237.55 360.566 237.307 361.112 237.307 361.788C237.307 362.377 237.481 362.802 237.827 363.062C238.174 363.305 238.625 363.426 239.179 363.426C240.011 363.426 240.713 363.183 241.285 362.698C241.857 362.195 242.143 361.493 242.143 360.592V359.422L240.635 359.474ZM254.169 344.056V355.184H252.323V348.008C252.323 347.713 252.323 347.436 252.323 347.176C252.34 346.916 252.357 346.665 252.375 346.422C252.392 346.179 252.409 345.937 252.427 345.694C252.253 345.85 252.063 346.023 251.855 346.214C251.647 346.387 251.43 346.552 251.205 346.708L249.801 347.722L248.891 346.448L252.271 344.056H254.169Z" fill="#01457A"/>
<path d="M42.5257 407L40.8157 402.572H35.4877L33.7597 407H32.6797L37.7377 394.094H38.6917L43.6237 407H42.5257ZM38.7817 396.992C38.7097 396.824 38.6137 396.56 38.4937 396.2C38.3737 395.84 38.2717 395.522 38.1877 395.246C38.0917 395.57 37.9897 395.888 37.8817 396.2C37.7737 396.512 37.6837 396.782 37.6117 397.01L35.8297 401.618H40.4917L38.7817 396.992ZM52.9369 397.424V407H51.9109V398.324H46.2409V407H45.2149V397.424H52.9369ZM64.1409 402.194C64.1409 403.202 63.9729 404.078 63.6369 404.822C63.3129 405.566 62.8269 406.148 62.1789 406.568C61.5429 406.976 60.7629 407.18 59.8389 407.18C58.9509 407.18 58.1889 406.976 57.5529 406.568C56.9169 406.16 56.4249 405.584 56.0769 404.84C55.7409 404.084 55.5729 403.202 55.5729 402.194C55.5729 400.646 55.9569 399.434 56.7249 398.558C57.4929 397.682 58.5549 397.244 59.9109 397.244C60.8229 397.244 61.5909 397.454 62.2149 397.874C62.8509 398.282 63.3309 398.858 63.6549 399.602C63.9789 400.346 64.1409 401.21 64.1409 402.194ZM56.6349 402.194C56.6349 403.43 56.8929 404.426 57.4089 405.182C57.9369 405.926 58.7529 406.298 59.8569 406.298C60.9729 406.298 61.7889 405.92 62.3049 405.164C62.8209 404.408 63.0789 403.418 63.0789 402.194C63.0789 401.402 62.9709 400.7 62.7549 400.088C62.5389 399.476 62.1969 398.996 61.7289 398.648C61.2609 398.3 60.6489 398.126 59.8929 398.126C58.8129 398.126 57.9969 398.486 57.4449 399.206C56.9049 399.926 56.6349 400.922 56.6349 402.194ZM70.5821 407.18C69.1781 407.18 68.0921 406.748 67.3241 405.884C66.5681 405.02 66.1901 403.814 66.1901 402.266C66.1901 401.186 66.3821 400.274 66.7661 399.53C67.1501 398.786 67.6841 398.222 68.3681 397.838C69.0641 397.442 69.8741 397.244 70.7981 397.244C71.2541 397.244 71.6861 397.286 72.0941 397.37C72.5021 397.454 72.8621 397.568 73.1741 397.712L72.8861 398.594C72.5621 398.462 72.2141 398.36 71.8421 398.288C71.4701 398.204 71.1161 398.162 70.7801 398.162C69.6401 398.162 68.7641 398.528 68.1521 399.26C67.5521 399.992 67.2521 400.988 67.2521 402.248C67.2521 403.448 67.5221 404.42 68.0621 405.164C68.6021 405.896 69.4421 406.262 70.5821 406.262C71.0501 406.262 71.4941 406.214 71.9141 406.118C72.3341 406.022 72.7121 405.902 73.0481 405.758V406.676C72.7361 406.832 72.3761 406.952 71.9681 407.036C71.5721 407.132 71.1101 407.18 70.5821 407.18ZM81.5006 398.306H78.2966V407H77.2706V398.306H74.0846V397.424H81.5006V398.306ZM86.9075 397.244C87.7235 397.244 88.4015 397.436 88.9415 397.82C89.4935 398.192 89.9075 398.708 90.1835 399.368C90.4715 400.028 90.6155 400.784 90.6155 401.636V402.338H83.7755C83.7755 403.61 84.0695 404.588 84.6575 405.272C85.2575 405.944 86.1095 406.28 87.2135 406.28C87.8015 406.28 88.3175 406.232 88.7615 406.136C89.2055 406.028 89.6915 405.86 90.2195 405.632V406.568C89.7395 406.784 89.2655 406.94 88.7975 407.036C88.3295 407.132 87.7895 407.18 87.1775 407.18C85.7375 407.18 84.6335 406.742 83.8655 405.866C83.0975 404.99 82.7135 403.796 82.7135 402.284C82.7135 401.312 82.8755 400.448 83.1995 399.692C83.5355 398.936 84.0155 398.342 84.6395 397.91C85.2635 397.466 86.0195 397.244 86.9075 397.244ZM86.8895 398.108C86.0135 398.108 85.2995 398.402 84.7475 398.99C84.2075 399.578 83.8955 400.412 83.8115 401.492H89.5535C89.5535 400.484 89.3315 399.668 88.8875 399.044C88.4555 398.42 87.7895 398.108 86.8895 398.108ZM97.5051 397.244C98.7291 397.244 99.6831 397.658 100.367 398.486C101.051 399.314 101.393 400.538 101.393 402.158C101.393 403.778 101.033 405.02 100.313 405.884C99.6051 406.748 98.6331 407.18 97.3971 407.18C96.5571 407.18 95.8791 407 95.3631 406.64C94.8471 406.28 94.4691 405.848 94.2291 405.344H94.1571C94.1811 405.644 94.1991 405.974 94.2111 406.334C94.2231 406.682 94.2291 407.006 94.2291 407.306V411.248H93.2031V397.424H94.0491L94.1751 399.206H94.2291C94.4691 398.69 94.8531 398.234 95.3811 397.838C95.9091 397.442 96.6171 397.244 97.5051 397.244ZM97.3611 398.126C96.2931 398.126 95.5071 398.462 95.0031 399.134C94.4991 399.806 94.2411 400.772 94.2291 402.032V402.212C94.2291 403.58 94.4751 404.606 94.9671 405.29C95.4711 405.962 96.2451 406.298 97.2891 406.298C98.2731 406.298 99.0231 405.932 99.5391 405.2C100.067 404.456 100.331 403.436 100.331 402.14C100.331 400.856 100.079 399.866 99.5751 399.17C99.0831 398.474 98.3451 398.126 97.3611 398.126ZM104.969 404.084C104.969 404.348 104.957 404.648 104.933 404.984C104.921 405.32 104.909 405.62 104.897 405.884L110.495 397.424H111.755V407H110.783V400.322C110.783 400.058 110.783 399.758 110.783 399.422C110.795 399.074 110.813 398.774 110.837 398.522L105.221 407H103.979V397.424H104.969V404.084ZM122.957 402.194C122.957 403.202 122.789 404.078 122.453 404.822C122.129 405.566 121.643 406.148 120.995 406.568C120.359 406.976 119.579 407.18 118.655 407.18C117.767 407.18 117.005 406.976 116.369 406.568C115.733 406.16 115.241 405.584 114.893 404.84C114.557 404.084 114.389 403.202 114.389 402.194C114.389 400.646 114.773 399.434 115.541 398.558C116.309 397.682 117.371 397.244 118.727 397.244C119.639 397.244 120.407 397.454 121.031 397.874C121.667 398.282 122.147 398.858 122.471 399.602C122.795 400.346 122.957 401.21 122.957 402.194ZM115.451 402.194C115.451 403.43 115.709 404.426 116.225 405.182C116.753 405.926 117.569 406.298 118.673 406.298C119.789 406.298 120.605 405.92 121.121 405.164C121.637 404.408 121.895 403.418 121.895 402.194C121.895 401.402 121.787 400.7 121.571 400.088C121.355 399.476 121.013 398.996 120.545 398.648C120.077 398.3 119.465 398.126 118.709 398.126C117.629 398.126 116.813 398.486 116.261 399.206C115.721 399.926 115.451 400.922 115.451 402.194ZM129.866 397.244C131.09 397.244 132.044 397.658 132.728 398.486C133.412 399.314 133.754 400.538 133.754 402.158C133.754 403.778 133.394 405.02 132.674 405.884C131.966 406.748 130.994 407.18 129.758 407.18C128.918 407.18 128.24 407 127.724 406.64C127.208 406.28 126.83 405.848 126.59 405.344H126.518C126.542 405.644 126.56 405.974 126.572 406.334C126.584 406.682 126.59 407.006 126.59 407.306V411.248H125.564V397.424H126.41L126.536 399.206H126.59C126.83 398.69 127.214 398.234 127.742 397.838C128.27 397.442 128.978 397.244 129.866 397.244ZM129.722 398.126C128.654 398.126 127.868 398.462 127.364 399.134C126.86 399.806 126.602 400.772 126.59 402.032V402.212C126.59 403.58 126.836 404.606 127.328 405.29C127.832 405.962 128.606 406.298 129.65 406.298C130.634 406.298 131.384 405.932 131.9 405.2C132.428 404.456 132.692 403.436 132.692 402.14C132.692 400.856 132.44 399.866 131.936 399.17C131.444 398.474 130.706 398.126 129.722 398.126ZM137.366 397.424V401.582H143.234V397.424H144.26V407H143.234V402.464H137.366V407H136.34V397.424H137.366ZM147.432 407V397.424H148.458V401.438H151.572C152.724 401.438 153.57 401.672 154.11 402.14C154.65 402.608 154.92 403.268 154.92 404.12C154.92 405.02 154.638 405.728 154.074 406.244C153.51 406.748 152.622 407 151.41 407H147.432ZM156.45 407V397.424H157.476V407H156.45ZM151.302 406.136C153.03 406.136 153.894 405.476 153.894 404.156C153.894 403.52 153.684 403.058 153.264 402.77C152.856 402.47 152.25 402.32 151.446 402.32H148.458V406.136H151.302ZM167.562 393.572C167.454 395.252 166.452 396.092 164.556 396.092C163.596 396.092 162.882 395.888 162.414 395.48C161.946 395.072 161.688 394.436 161.64 393.572H162.612C162.66 394.22 162.834 394.676 163.134 394.94C163.446 395.204 163.926 395.336 164.574 395.336C165.186 395.336 165.66 395.204 165.996 394.94C166.332 394.676 166.53 394.22 166.59 393.572H167.562ZM161.64 404.084C161.64 404.348 161.628 404.648 161.604 404.984C161.592 405.32 161.58 405.62 161.568 405.884L167.166 397.424H168.426V407H167.454V400.322C167.454 400.058 167.454 399.758 167.454 399.422C167.466 399.074 167.484 398.774 167.508 398.522L161.892 407H160.65V397.424H161.64V404.084ZM179.679 397.262C180.759 397.262 181.563 397.526 182.091 398.054C182.619 398.582 182.883 399.416 182.883 400.556V407H182.109L181.929 405.38H181.875C181.527 405.92 181.101 406.358 180.597 406.694C180.105 407.018 179.415 407.18 178.527 407.18C177.603 407.18 176.877 406.952 176.349 406.496C175.821 406.028 175.557 405.362 175.557 404.498C175.557 403.538 175.947 402.812 176.727 402.32C177.507 401.816 178.641 401.534 180.129 401.474L181.875 401.384V400.718C181.875 399.782 181.683 399.116 181.299 398.72C180.927 398.324 180.375 398.126 179.643 398.126C179.151 398.126 178.677 398.192 178.221 398.324C177.765 398.456 177.309 398.63 176.853 398.846L176.529 398.018C176.985 397.802 177.477 397.622 178.005 397.478C178.545 397.334 179.103 397.262 179.679 397.262ZM180.255 402.23C179.031 402.29 178.119 402.506 177.519 402.878C176.931 403.238 176.637 403.778 176.637 404.498C176.637 405.098 176.817 405.554 177.177 405.866C177.549 406.166 178.059 406.316 178.707 406.316C179.703 406.316 180.477 406.034 181.029 405.47C181.581 404.894 181.863 404.102 181.875 403.094V402.158L180.255 402.23ZM186.971 397.424V401.582H192.839V397.424H193.865V407H192.839V402.464H186.971V407H185.945V397.424H186.971ZM200.421 397.262C201.501 397.262 202.305 397.526 202.833 398.054C203.361 398.582 203.625 399.416 203.625 400.556V407H202.851L202.671 405.38H202.617C202.269 405.92 201.843 406.358 201.339 406.694C200.847 407.018 200.157 407.18 199.269 407.18C198.345 407.18 197.619 406.952 197.091 406.496C196.563 406.028 196.299 405.362 196.299 404.498C196.299 403.538 196.689 402.812 197.469 402.32C198.249 401.816 199.383 401.534 200.871 401.474L202.617 401.384V400.718C202.617 399.782 202.425 399.116 202.041 398.72C201.669 398.324 201.117 398.126 200.385 398.126C199.893 398.126 199.419 398.192 198.963 398.324C198.507 398.456 198.051 398.63 197.595 398.846L197.271 398.018C197.727 397.802 198.219 397.622 198.747 397.478C199.287 397.334 199.845 397.262 200.421 397.262ZM200.997 402.23C199.773 402.29 198.861 402.506 198.261 402.878C197.673 403.238 197.379 403.778 197.379 404.498C197.379 405.098 197.559 405.554 197.919 405.866C198.291 406.166 198.801 406.316 199.449 406.316C200.445 406.316 201.219 406.034 201.771 405.47C202.323 404.894 202.605 404.102 202.617 403.094V402.158L200.997 402.23ZM213.456 407H212.412V398.306H209.172C209.028 400.322 208.836 401.978 208.596 403.274C208.356 404.57 208.02 405.53 207.588 406.154C207.168 406.778 206.61 407.09 205.914 407.09C205.614 407.09 205.38 407.06 205.212 407V406.19C205.332 406.226 205.512 406.244 205.752 406.244C206.484 406.244 207.036 405.53 207.408 404.102C207.78 402.674 208.068 400.448 208.272 397.424H213.456V407ZM217.609 404.084C217.609 404.348 217.597 404.648 217.573 404.984C217.561 405.32 217.549 405.62 217.537 405.884L223.135 397.424H224.395V407H223.423V400.322C223.423 400.058 223.423 399.758 223.423 399.422C223.435 399.074 223.453 398.774 223.477 398.522L217.861 407H216.619V397.424H217.609V404.084ZM229.838 397.244C230.846 397.244 231.632 397.46 232.196 397.892C232.772 398.324 233.06 398.93 233.06 399.71C233.06 400.274 232.904 400.736 232.592 401.096C232.292 401.456 231.878 401.708 231.35 401.852V401.906C231.998 402.062 232.502 402.344 232.862 402.752C233.222 403.148 233.402 403.67 233.402 404.318C233.402 405.182 233.072 405.878 232.412 406.406C231.752 406.922 230.828 407.18 229.64 407.18C228.992 407.18 228.404 407.12 227.876 407C227.348 406.88 226.916 406.73 226.58 406.55V405.56C227 405.788 227.468 405.968 227.984 406.1C228.5 406.232 229.052 406.298 229.64 406.298C230.42 406.298 231.068 406.136 231.584 405.812C232.112 405.476 232.376 404.96 232.376 404.264C232.376 403.604 232.136 403.13 231.656 402.842C231.176 402.542 230.474 402.392 229.55 402.392H228.254V401.51H229.424C230.216 401.51 230.852 401.378 231.332 401.114C231.812 400.838 232.052 400.394 232.052 399.782C232.052 399.242 231.854 398.834 231.458 398.558C231.074 398.27 230.522 398.126 229.802 398.126C229.274 398.126 228.806 398.186 228.398 398.306C227.99 398.414 227.564 398.57 227.12 398.774L226.76 397.928C227.216 397.712 227.696 397.544 228.2 397.424C228.704 397.304 229.25 397.244 229.838 397.244ZM245.853 397.424H247.023L242.739 402.068L247.293 407H246.051L241.569 402.14V407H240.543V397.424H241.569V402.068L245.853 397.424ZM256.709 402.194C256.709 403.202 256.541 404.078 256.205 404.822C255.881 405.566 255.395 406.148 254.747 406.568C254.111 406.976 253.331 407.18 252.407 407.18C251.519 407.18 250.757 406.976 250.121 406.568C249.485 406.16 248.993 405.584 248.645 404.84C248.309 404.084 248.141 403.202 248.141 402.194C248.141 400.646 248.525 399.434 249.293 398.558C250.061 397.682 251.123 397.244 252.479 397.244C253.391 397.244 254.159 397.454 254.783 397.874C255.419 398.282 255.899 398.858 256.223 399.602C256.547 400.346 256.709 401.21 256.709 402.194ZM249.203 402.194C249.203 403.43 249.461 404.426 249.977 405.182C250.505 405.926 251.321 406.298 252.425 406.298C253.541 406.298 254.357 405.92 254.873 405.164C255.389 404.408 255.647 403.418 255.647 402.194C255.647 401.402 255.539 400.7 255.323 400.088C255.107 399.476 254.765 398.996 254.297 398.648C253.829 398.3 253.217 398.126 252.461 398.126C251.381 398.126 250.565 398.486 250.013 399.206C249.473 399.926 249.203 400.922 249.203 402.194ZM264.986 397.424V398.306H260.342V407H259.316V397.424H264.986ZM274.78 402.194C274.78 403.202 274.612 404.078 274.276 404.822C273.952 405.566 273.466 406.148 272.818 406.568C272.182 406.976 271.402 407.18 270.478 407.18C269.59 407.18 268.828 406.976 268.192 406.568C267.556 406.16 267.064 405.584 266.716 404.84C266.38 404.084 266.212 403.202 266.212 402.194C266.212 400.646 266.596 399.434 267.364 398.558C268.132 397.682 269.194 397.244 270.55 397.244C271.462 397.244 272.23 397.454 272.854 397.874C273.49 398.282 273.97 398.858 274.294 399.602C274.618 400.346 274.78 401.21 274.78 402.194ZM267.274 402.194C267.274 403.43 267.532 404.426 268.048 405.182C268.576 405.926 269.392 406.298 270.496 406.298C271.612 406.298 272.428 405.92 272.944 405.164C273.46 404.408 273.718 403.418 273.718 402.194C273.718 401.402 273.61 400.7 273.394 400.088C273.178 399.476 272.836 398.996 272.368 398.648C271.9 398.3 271.288 398.126 270.532 398.126C269.452 398.126 268.636 398.486 268.084 399.206C267.544 399.926 267.274 400.922 267.274 402.194ZM281.689 397.244C282.913 397.244 283.867 397.658 284.551 398.486C285.235 399.314 285.577 400.538 285.577 402.158C285.577 403.778 285.217 405.02 284.497 405.884C283.789 406.748 282.817 407.18 281.581 407.18C280.741 407.18 280.063 407 279.547 406.64C279.031 406.28 278.653 405.848 278.413 405.344H278.341C278.365 405.644 278.383 405.974 278.395 406.334C278.407 406.682 278.413 407.006 278.413 407.306V411.248H277.387V397.424H278.233L278.359 399.206H278.413C278.653 398.69 279.037 398.234 279.565 397.838C280.093 397.442 280.801 397.244 281.689 397.244ZM281.545 398.126C280.477 398.126 279.691 398.462 279.187 399.134C278.683 399.806 278.425 400.772 278.413 402.032V402.212C278.413 403.58 278.659 404.606 279.151 405.29C279.655 405.962 280.429 406.298 281.473 406.298C282.457 406.298 283.207 405.932 283.723 405.2C284.251 404.456 284.515 403.436 284.515 402.14C284.515 400.856 284.263 399.866 283.759 399.17C283.267 398.474 282.529 398.126 281.545 398.126ZM294.178 398.306H290.974V407H289.948V398.306H286.762V397.424H294.178V398.306ZM297.151 397.424V401.582H303.019V397.424H304.045V407H303.019V402.464H297.151V407H296.125V397.424H297.151ZM315.227 402.194C315.227 403.202 315.059 404.078 314.723 404.822C314.399 405.566 313.913 406.148 313.265 406.568C312.629 406.976 311.849 407.18 310.925 407.18C310.037 407.18 309.275 406.976 308.639 406.568C308.003 406.16 307.511 405.584 307.163 404.84C306.827 404.084 306.659 403.202 306.659 402.194C306.659 400.646 307.043 399.434 307.811 398.558C308.579 397.682 309.641 397.244 310.997 397.244C311.909 397.244 312.677 397.454 313.301 397.874C313.937 398.282 314.417 398.858 314.741 399.602C315.065 400.346 315.227 401.21 315.227 402.194ZM307.721 402.194C307.721 403.43 307.979 404.426 308.495 405.182C309.023 405.926 309.839 406.298 310.943 406.298C312.059 406.298 312.875 405.92 313.391 405.164C313.907 404.408 314.165 403.418 314.165 402.194C314.165 401.402 314.057 400.7 313.841 400.088C313.625 399.476 313.283 398.996 312.815 398.648C312.347 398.3 311.735 398.126 310.979 398.126C309.899 398.126 309.083 398.486 308.531 399.206C307.991 399.926 307.721 400.922 307.721 402.194ZM323.504 397.424V398.306H318.86V407H317.834V397.424H323.504ZM333.297 402.194C333.297 403.202 333.129 404.078 332.793 404.822C332.469 405.566 331.983 406.148 331.335 406.568C330.699 406.976 329.919 407.18 328.995 407.18C328.107 407.18 327.345 406.976 326.709 406.568C326.073 406.16 325.581 405.584 325.233 404.84C324.897 404.084 324.729 403.202 324.729 402.194C324.729 400.646 325.113 399.434 325.881 398.558C326.649 397.682 327.711 397.244 329.067 397.244C329.979 397.244 330.747 397.454 331.371 397.874C332.007 398.282 332.487 398.858 332.811 399.602C333.135 400.346 333.297 401.21 333.297 402.194ZM325.791 402.194C325.791 403.43 326.049 404.426 326.565 405.182C327.093 405.926 327.909 406.298 329.013 406.298C330.129 406.298 330.945 405.92 331.461 405.164C331.977 404.408 332.235 403.418 332.235 402.194C332.235 401.402 332.127 400.7 331.911 400.088C331.695 399.476 331.353 398.996 330.885 398.648C330.417 398.3 329.805 398.126 329.049 398.126C327.969 398.126 327.153 398.486 326.601 399.206C326.061 399.926 325.791 400.922 325.791 402.194ZM86.4148 429.084C86.4148 429.348 86.4028 429.648 86.3788 429.984C86.3668 430.32 86.3548 430.62 86.3428 430.884L91.9408 422.424H93.2008V432H92.2288V425.322C92.2288 425.058 92.2288 424.758 92.2288 424.422C92.2408 424.074 92.2588 423.774 92.2828 423.522L86.6668 432H85.4248V422.424H86.4148V429.084ZM100.228 432.18C98.8236 432.18 97.7376 431.748 96.9696 430.884C96.2136 430.02 95.8356 428.814 95.8356 427.266C95.8356 426.186 96.0276 425.274 96.4116 424.53C96.7956 423.786 97.3296 423.222 98.0136 422.838C98.7096 422.442 99.5196 422.244 100.444 422.244C100.9 422.244 101.332 422.286 101.74 422.37C102.148 422.454 102.508 422.568 102.82 422.712L102.532 423.594C102.208 423.462 101.86 423.36 101.488 423.288C101.116 423.204 100.762 423.162 100.426 423.162C99.2856 423.162 98.4096 423.528 97.7976 424.26C97.1976 424.992 96.8976 425.988 96.8976 427.248C96.8976 428.448 97.1676 429.42 97.7076 430.164C98.2476 430.896 99.0876 431.262 100.228 431.262C100.696 431.262 101.14 431.214 101.56 431.118C101.98 431.022 102.358 430.902 102.694 430.758V431.676C102.382 431.832 102.022 431.952 101.614 432.036C101.218 432.132 100.756 432.18 100.228 432.18ZM108.788 432.18C107.384 432.18 106.298 431.748 105.53 430.884C104.774 430.02 104.396 428.814 104.396 427.266C104.396 426.186 104.588 425.274 104.972 424.53C105.356 423.786 105.89 423.222 106.574 422.838C107.27 422.442 108.08 422.244 109.004 422.244C109.46 422.244 109.892 422.286 110.3 422.37C110.708 422.454 111.068 422.568 111.38 422.712L111.092 423.594C110.768 423.462 110.42 423.36 110.048 423.288C109.676 423.204 109.322 423.162 108.986 423.162C107.846 423.162 106.97 423.528 106.358 424.26C105.758 424.992 105.458 425.988 105.458 427.248C105.458 428.448 105.728 429.42 106.268 430.164C106.808 430.896 107.648 431.262 108.788 431.262C109.256 431.262 109.7 431.214 110.12 431.118C110.54 431.022 110.918 430.902 111.254 430.758V431.676C110.942 431.832 110.582 431.952 110.174 432.036C109.778 432.132 109.316 432.18 108.788 432.18ZM120.283 432H119.239V423.306H115.999C115.855 425.322 115.663 426.978 115.423 428.274C115.183 429.57 114.847 430.53 114.415 431.154C113.995 431.778 113.437 432.09 112.741 432.09C112.441 432.09 112.207 432.06 112.039 432V431.19C112.159 431.226 112.339 431.244 112.579 431.244C113.311 431.244 113.863 430.53 114.235 429.102C114.607 427.674 114.895 425.448 115.099 422.424H120.283V432ZM127.082 422.244C127.898 422.244 128.576 422.436 129.116 422.82C129.668 423.192 130.082 423.708 130.358 424.368C130.646 425.028 130.79 425.784 130.79 426.636V427.338H123.95C123.95 428.61 124.244 429.588 124.832 430.272C125.432 430.944 126.284 431.28 127.388 431.28C127.976 431.28 128.492 431.232 128.936 431.136C129.38 431.028 129.866 430.86 130.394 430.632V431.568C129.914 431.784 129.44 431.94 128.972 432.036C128.504 432.132 127.964 432.18 127.352 432.18C125.912 432.18 124.808 431.742 124.04 430.866C123.272 429.99 122.888 428.796 122.888 427.284C122.888 426.312 123.05 425.448 123.374 424.692C123.71 423.936 124.19 423.342 124.814 422.91C125.438 422.466 126.194 422.244 127.082 422.244ZM127.064 423.108C126.188 423.108 125.474 423.402 124.922 423.99C124.382 424.578 124.07 425.412 123.986 426.492H129.728C129.728 425.484 129.506 424.668 129.062 424.044C128.63 423.42 127.964 423.108 127.064 423.108ZM140.038 422.424V431.1H141.334V435.258H140.344V432H133.144V435.258H132.154V431.1H132.82C133.624 429.984 134.236 428.682 134.656 427.194C135.076 425.706 135.298 424.116 135.322 422.424H140.038ZM136.24 423.27C136.168 424.782 135.934 426.216 135.538 427.572C135.154 428.916 134.62 430.092 133.936 431.1H139.03V423.27H136.24ZM151.337 427.194C151.337 428.202 151.169 429.078 150.833 429.822C150.509 430.566 150.023 431.148 149.375 431.568C148.739 431.976 147.959 432.18 147.035 432.18C146.147 432.18 145.385 431.976 144.749 431.568C144.113 431.16 143.621 430.584 143.273 429.84C142.937 429.084 142.769 428.202 142.769 427.194C142.769 425.646 143.153 424.434 143.921 423.558C144.689 422.682 145.751 422.244 147.107 422.244C148.019 422.244 148.787 422.454 149.411 422.874C150.047 423.282 150.527 423.858 150.851 424.602C151.175 425.346 151.337 426.21 151.337 427.194ZM143.831 427.194C143.831 428.43 144.089 429.426 144.605 430.182C145.133 430.926 145.949 431.298 147.053 431.298C148.169 431.298 148.985 430.92 149.501 430.164C150.017 429.408 150.275 428.418 150.275 427.194C150.275 426.402 150.167 425.7 149.951 425.088C149.735 424.476 149.393 423.996 148.925 423.648C148.457 423.3 147.845 423.126 147.089 423.126C146.009 423.126 145.193 423.486 144.641 424.206C144.101 424.926 143.831 425.922 143.831 427.194ZM161.216 424.764C161.216 425.376 161.054 425.856 160.73 426.204C160.406 426.54 159.986 426.768 159.47 426.888V426.942C160.082 427.038 160.586 427.272 160.982 427.644C161.378 428.016 161.576 428.556 161.576 429.264C161.576 430.092 161.294 430.758 160.73 431.262C160.166 431.754 159.272 432 158.048 432H153.944V422.424H157.958C159.002 422.424 159.806 422.622 160.37 423.018C160.934 423.402 161.216 423.984 161.216 424.764ZM160.172 424.872C160.172 424.38 159.992 423.996 159.632 423.72C159.284 423.444 158.696 423.306 157.868 423.306H154.97V426.528H157.742C159.362 426.528 160.172 425.976 160.172 424.872ZM160.514 429.264C160.514 428.604 160.286 428.13 159.83 427.842C159.374 427.554 158.708 427.41 157.832 427.41H154.97V431.136H157.886C158.762 431.136 159.416 430.986 159.848 430.686C160.292 430.386 160.514 429.912 160.514 429.264ZM167.559 422.262C168.639 422.262 169.443 422.526 169.971 423.054C170.499 423.582 170.763 424.416 170.763 425.556V432H169.989L169.809 430.38H169.755C169.407 430.92 168.981 431.358 168.477 431.694C167.985 432.018 167.295 432.18 166.407 432.18C165.483 432.18 164.757 431.952 164.229 431.496C163.701 431.028 163.437 430.362 163.437 429.498C163.437 428.538 163.827 427.812 164.607 427.32C165.387 426.816 166.521 426.534 168.009 426.474L169.755 426.384V425.718C169.755 424.782 169.563 424.116 169.179 423.72C168.807 423.324 168.255 423.126 167.523 423.126C167.031 423.126 166.557 423.192 166.101 423.324C165.645 423.456 165.189 423.63 164.733 423.846L164.409 423.018C164.865 422.802 165.357 422.622 165.885 422.478C166.425 422.334 166.983 422.262 167.559 422.262ZM168.135 427.23C166.911 427.29 165.999 427.506 165.399 427.878C164.811 428.238 164.517 428.778 164.517 429.498C164.517 430.098 164.697 430.554 165.057 430.866C165.429 431.166 165.939 431.316 166.587 431.316C167.583 431.316 168.357 431.034 168.909 430.47C169.461 429.894 169.743 429.102 169.755 428.094V427.158L168.135 427.23ZM174.851 422.424V426.582H180.719V422.424H181.745V432H180.719V427.464H174.851V432H173.825V422.424H174.851ZM185.907 429.084C185.907 429.348 185.895 429.648 185.871 429.984C185.859 430.32 185.847 430.62 185.835 430.884L191.433 422.424H192.693V432H191.721V425.322C191.721 425.058 191.721 424.758 191.721 424.422C191.733 424.074 191.751 423.774 191.775 423.522L186.159 432H184.917V422.424H185.907V429.084ZM195.868 432H194.644L197.506 427.896C196.762 427.788 196.168 427.518 195.724 427.086C195.292 426.654 195.076 426.036 195.076 425.232C195.076 424.296 195.376 423.594 195.976 423.126C196.576 422.658 197.362 422.424 198.334 422.424H202.348V432H201.322V428.004H198.568L195.868 432ZM196.084 425.214C196.084 426.486 196.9 427.122 198.532 427.122H201.322V423.306H198.442C197.65 423.306 197.056 423.48 196.66 423.828C196.276 424.164 196.084 424.626 196.084 425.214ZM209.348 427.068C209.348 425.532 209.57 424.086 210.014 422.73C210.458 421.374 211.112 420.18 211.976 419.148H213.02C212.144 420.24 211.484 421.464 211.04 422.82C210.608 424.176 210.392 425.586 210.392 427.05C210.392 428.49 210.608 429.876 211.04 431.208C211.484 432.528 212.144 433.74 213.02 434.844H211.976C211.112 433.812 210.458 432.636 210.014 431.316C209.57 429.996 209.348 428.58 209.348 427.068ZM224.942 432H223.826L216.374 420.768H216.32C216.344 421.236 216.362 421.734 216.374 422.262C216.398 422.778 216.41 423.318 216.41 423.882V432H215.42V419.148H216.536L223.97 430.344H224.024C224 429.972 223.982 429.498 223.97 428.922C223.958 428.346 223.952 427.806 223.952 427.302V419.148H224.942V432ZM227.741 424.26V423.414H236.003V424.26H227.741ZM227.741 427.896V427.032H236.003V427.896H227.741ZM246.125 432H237.989V431.136L241.679 427.302C242.291 426.666 242.807 426.096 243.227 425.592C243.647 425.088 243.965 424.584 244.181 424.08C244.397 423.576 244.505 423.012 244.505 422.388C244.505 421.584 244.271 420.966 243.803 420.534C243.335 420.09 242.705 419.868 241.913 419.868C241.337 419.868 240.797 419.97 240.293 420.174C239.789 420.378 239.291 420.672 238.799 421.056L238.241 420.336C238.769 419.904 239.345 419.568 239.969 419.328C240.593 419.088 241.241 418.968 241.913 418.968C243.017 418.968 243.899 419.274 244.559 419.886C245.231 420.498 245.567 421.314 245.567 422.334C245.567 423.03 245.441 423.666 245.189 424.242C244.937 424.818 244.583 425.382 244.127 425.934C243.671 426.486 243.137 427.074 242.525 427.698L239.303 431.01V431.046H246.125V432ZM252.412 418.968C253.516 418.968 254.404 419.232 255.076 419.76C255.76 420.276 256.102 421.014 256.102 421.974C256.102 422.754 255.844 423.396 255.328 423.9C254.824 424.392 254.182 424.812 253.402 425.16C254.326 425.532 255.076 425.994 255.652 426.546C256.24 427.086 256.534 427.806 256.534 428.706C256.534 429.438 256.354 430.062 255.994 430.578C255.646 431.094 255.16 431.49 254.536 431.766C253.912 432.042 253.204 432.18 252.412 432.18C251.152 432.18 250.156 431.874 249.424 431.262C248.692 430.65 248.326 429.822 248.326 428.778C248.326 427.854 248.608 427.116 249.172 426.564C249.748 426 250.468 425.55 251.332 425.214C250.852 424.986 250.414 424.734 250.018 424.458C249.622 424.17 249.31 423.828 249.082 423.432C248.854 423.024 248.74 422.538 248.74 421.974C248.74 421.35 248.896 420.816 249.208 420.372C249.52 419.916 249.952 419.568 250.504 419.328C251.068 419.088 251.704 418.968 252.412 418.968ZM252.412 419.832C251.632 419.832 250.99 420.024 250.486 420.408C249.994 420.78 249.748 421.314 249.748 422.01C249.748 422.73 250 423.294 250.504 423.702C251.02 424.098 251.68 424.446 252.484 424.746C253.288 424.41 253.918 424.038 254.374 423.63C254.842 423.222 255.076 422.676 255.076 421.992C255.076 421.284 254.836 420.75 254.356 420.39C253.876 420.018 253.228 419.832 252.412 419.832ZM249.334 428.796C249.334 429.552 249.598 430.164 250.126 430.632C250.666 431.088 251.422 431.316 252.394 431.316C253.342 431.316 254.098 431.088 254.662 430.632C255.226 430.176 255.508 429.534 255.508 428.706C255.508 428.01 255.256 427.434 254.752 426.978C254.26 426.522 253.564 426.126 252.664 425.79L252.268 425.646C251.392 425.982 250.684 426.39 250.144 426.87C249.604 427.338 249.334 427.98 249.334 428.796ZM262.695 418.968C263.799 418.968 264.687 419.232 265.359 419.76C266.043 420.276 266.385 421.014 266.385 421.974C266.385 422.754 266.127 423.396 265.611 423.9C265.107 424.392 264.465 424.812 263.685 425.16C264.609 425.532 265.359 425.994 265.935 426.546C266.523 427.086 266.817 427.806 266.817 428.706C266.817 429.438 266.637 430.062 266.277 430.578C265.929 431.094 265.443 431.49 264.819 431.766C264.195 432.042 263.487 432.18 262.695 432.18C261.435 432.18 260.439 431.874 259.707 431.262C258.975 430.65 258.609 429.822 258.609 428.778C258.609 427.854 258.891 427.116 259.455 426.564C260.031 426 260.751 425.55 261.615 425.214C261.135 424.986 260.697 424.734 260.301 424.458C259.905 424.17 259.593 423.828 259.365 423.432C259.137 423.024 259.023 422.538 259.023 421.974C259.023 421.35 259.179 420.816 259.491 420.372C259.803 419.916 260.235 419.568 260.787 419.328C261.351 419.088 261.987 418.968 262.695 418.968ZM262.695 419.832C261.915 419.832 261.273 420.024 260.769 420.408C260.277 420.78 260.031 421.314 260.031 422.01C260.031 422.73 260.283 423.294 260.787 423.702C261.303 424.098 261.963 424.446 262.767 424.746C263.571 424.41 264.201 424.038 264.657 423.63C265.125 423.222 265.359 422.676 265.359 421.992C265.359 421.284 265.119 420.75 264.639 420.39C264.159 420.018 263.511 419.832 262.695 419.832ZM259.617 428.796C259.617 429.552 259.881 430.164 260.409 430.632C260.949 431.088 261.705 431.316 262.677 431.316C263.625 431.316 264.381 431.088 264.945 430.632C265.509 430.176 265.791 429.534 265.791 428.706C265.791 428.01 265.539 427.434 265.035 426.978C264.543 426.522 263.847 426.126 262.947 425.79L262.551 425.646C261.675 425.982 260.967 426.39 260.427 426.87C259.887 427.338 259.617 427.98 259.617 428.796ZM270.746 432L276.056 420.084H268.784V419.148H277.172V419.904L271.88 432H270.746ZM282.415 426.996C282.415 428.52 282.193 429.96 281.749 431.316C281.305 432.66 280.651 433.836 279.787 434.844H278.761C279.637 433.752 280.291 432.534 280.723 431.19C281.155 429.846 281.371 428.448 281.371 426.996C281.371 425.532 281.149 424.134 280.705 422.802C280.273 421.458 279.619 420.24 278.743 419.148H279.787C280.651 420.192 281.305 421.38 281.749 422.712C282.193 424.044 282.415 425.472 282.415 426.996Z" fill="#01457A"/>
<defs>
<clipPath id="clip0_1_72">
<rect width="103" height="134" fill="white" transform="translate(132 30)"/>
</clipPath>
</defs>
</svg>
